<svg width="40" height="40" viewBox="0 0 40 40" fill="none" xmlns="http://www.w3.org/2000/svg">
<circle cx="20" cy="20" r="20" fill="#010101"/>
<path d="M30.4143 19.1111L24.4659 13.3333C23.99 12.8889 23.2762 12.8889 22.8003 13.3333C22.3245 13.7778 22.3245 14.4444 22.8003 14.8889L26.8452 18.8889L10.1897 18.8889C9.47587 18.8889 9 19.3333 9 20C9 20.6667 9.47587 21.1111 10.1897 21.1111L26.8452 21.1111L22.5624 25.1111C22.3245 25.5556 22.3245 26.2222 22.8003 26.6667C23.2762 27.1111 23.99 27.1111 24.4659 26.6667L30.4143 21.1111C30.6522 20.8889 31.604 20 30.4143 19.1111Z" fill="#E8EBF0"/>
</svg>
