<svg width="32" height="32" viewBox="0 0 32 32" fill="none" xmlns="http://www.w3.org/2000/svg">
<path d="M0 16C0 7.16344 7.16344 0 16 0C24.8366 0 32 7.16344 32 16C32 24.8366 24.8366 32 16 32C7.16344 32 0 24.8366 0 16Z" fill="white" fill-opacity="0.2"/>
<path fill-rule="evenodd" clip-rule="evenodd" d="M18.2929 9.29289C18.6834 8.90237 19.3166 8.90237 19.7071 9.29289C20.0676 9.65338 20.0953 10.2206 19.7903 10.6129L19.7071 10.7071L14.415 16L19.7071 21.2929C20.0676 21.6534 20.0953 22.2206 19.7903 22.6129L19.7071 22.7071C19.3466 23.0676 18.7794 23.0953 18.3871 22.7903L18.2929 22.7071L12.2929 16.7071C11.9324 16.3466 11.9047 15.7794 12.2097 15.3871L12.2929 15.2929L18.2929 9.29289Z" fill="#010101"/>
</svg>
