<svg width="16" height="16" viewBox="0 0 16 16" fill="none" xmlns="http://www.w3.org/2000/svg">
<path d="M9.33301 1.33331C10.0358 1.33331 10.612 1.877 10.6631 2.56671L10.667 2.66632V4.00031H13.333C13.7011 4.00031 13.9998 4.29828 14 4.66632C14 5.00818 13.7426 5.28988 13.4111 5.32843L13.333 5.33331H13.2803L12.667 12.6663C12.667 13.7314 11.8341 14.6026 10.7842 14.6634L10.667 14.6663H5.33301C4.26821 14.6662 3.39788 13.8342 3.33887 12.8343L3.33594 12.722L2.71973 5.33331H2.66699C2.2988 5.33331 2 5.03451 2 4.66632C2.00016 4.32458 2.25742 4.04272 2.58887 4.00421L2.66699 4.00031H5.33301V2.66632C5.33318 1.96356 5.87758 1.38811 6.56738 1.33722L6.66699 1.33331H9.33301ZM4.66699 12.6663C4.66699 13.0082 4.9243 13.2899 5.25586 13.3284L5.33301 13.3333H10.667C11.0104 13.3331 11.2928 13.0733 11.3311 12.6946L11.3359 12.6116L11.9414 5.33331H4.05762L4.66699 12.6663ZM6.66699 6.66632C7.00862 6.66648 7.29045 6.9239 7.3291 7.25519L7.33301 7.33331V11.3333C7.33301 11.7014 7.03503 12.0001 6.66699 12.0003C6.32525 12.0003 6.04358 11.7428 6.00488 11.4114L6 11.3333V7.33331C6 6.96512 6.2988 6.66632 6.66699 6.66632ZM9.33301 6.66632C9.67475 6.66632 9.95642 6.92383 9.99512 7.25519L10 7.33331V11.3333C10 11.7015 9.7012 12.0003 9.33301 12.0003C8.99138 12.0001 8.70955 11.7427 8.6709 11.4114L8.66699 11.3333V7.33331C8.66699 6.96523 8.96497 6.6665 9.33301 6.66632ZM6.66699 4.00031H9.33301V2.66632H6.66699V4.00031Z" fill="#FF6B75"/>
</svg>
