<svg width="16" height="16" viewBox="0 0 16 16" fill="none" xmlns="http://www.w3.org/2000/svg">
<path d="M6 3.99951C6.36814 3.99951 6.66691 4.29838 6.66699 4.6665C6.66699 5.00826 6.40949 5.28992 6.07812 5.32861L6 5.3335H4C3.65811 5.3335 3.3764 5.5908 3.33789 5.92236L3.33301 5.99951V11.9995C3.33301 12.3413 3.59047 12.6239 3.92188 12.6626L4 12.6665H10C10.3419 12.6665 10.6236 12.4092 10.6621 12.0776L10.667 11.9995V9.99951C10.6672 9.63165 10.9651 9.33367 11.333 9.3335C11.6749 9.3335 11.9566 9.5908 11.9951 9.92236L12 9.99951V11.9995C12 13.0646 11.1671 13.9358 10.1172 13.9966L10 13.9995H4C2.93493 13.9995 2.06383 13.1675 2.00293 12.1177L2 11.9995V5.99951C2.00025 4.93461 2.8331 4.06424 3.88281 4.00342L4 3.99951H6ZM11.1953 1.86182C12.0079 1.0495 13.3251 1.0495 14.1377 1.86182C14.9191 2.6432 14.9488 3.89121 14.2275 4.7085L14.1377 4.80518L8.4707 10.4712C8.36655 10.5752 8.23127 10.6415 8.08691 10.6606L8 10.6665H6C5.65826 10.6663 5.37639 10.4091 5.33789 10.0776L5.33301 9.99951V7.99951C5.33311 7.85241 5.38226 7.70978 5.4707 7.59424L5.52832 7.52881L11.1953 1.86182ZM6.66602 8.27588V9.33252H7.72266L11.7227 5.33252L10.666 4.27588L6.66602 8.27588ZM13.1953 2.80518C12.9243 2.53429 12.4965 2.51439 12.2031 2.74658L12.1377 2.80518L11.6084 3.33252L12.666 4.39014L13.1953 3.86182C13.4662 3.59072 13.4852 3.16297 13.2529 2.86963L13.1953 2.80518Z" fill="white"/>
</svg>
