<svg width="17" height="16" viewBox="0 0 17 16" fill="none" xmlns="http://www.w3.org/2000/svg">
<path fill-rule="evenodd" clip-rule="evenodd" d="M11.8299 3.88248C11.7691 2.83261 10.8985 2 9.83333 2H4.5L4.38248 2.0034C3.33261 2.06423 2.5 2.93488 2.5 4V9.33333L2.5034 9.45085C2.56423 10.5007 3.43488 11.3333 4.5 11.3333H5.16667V12C5.16667 13.1046 6.0621 14 7.16667 14H12.5C13.6046 14 14.5 13.1046 14.5 12V6.66667C14.5 5.5621 13.6046 4.66667 12.5 4.66667H11.8333V4L11.8299 3.88248ZM10.5 4.66667V4C10.5 3.65811 10.2426 3.37633 9.91108 3.33782L9.83333 3.33333H4.5C4.15811 3.33333 3.87633 3.59069 3.83782 3.92225L3.83333 4V9.33333C3.83333 9.67522 4.09069 9.957 4.42225 9.99551L4.5 10H5.16667V6.66667C5.16667 5.5621 6.0621 4.66667 7.16667 4.66667H10.5ZM6.5 10.6667L6.5 12C6.5 12.3682 6.79848 12.6667 7.16667 12.6667H12.5C12.8682 12.6667 13.1667 12.3682 13.1667 12V6.66667C13.1667 6.29848 12.8682 6 12.5 6L11.1667 6L7.16667 6C6.79848 6 6.5 6.29848 6.5 6.66667L6.5 10.6667Z" fill="#5493FF"/>
</svg>
