<svg width="16" height="16" viewBox="0 0 16 16" fill="none" xmlns="http://www.w3.org/2000/svg">
<path d="M12 2C13.1044 2.00018 14 2.89554 14 4V9.33301C14 10.4375 13.1044 11.3328 12 11.333H11.333V12C11.333 13.065 10.5009 13.9361 9.45117 13.9971L9.33301 14H4C2.93488 14 2.06376 13.1671 2.00293 12.1172L2 12V6.66699C2 5.60187 2.83294 4.73075 3.88281 4.66992L4 4.66699H4.66699V4C4.66699 2.89543 5.56242 2 6.66699 2H12ZM4 6C3.65813 6 3.37643 6.25734 3.33789 6.58887L3.33301 6.66699V12C3.33301 12.3418 3.5905 12.6234 3.92188 12.6621L4 12.667H9.33301C9.67475 12.667 9.95642 12.4095 9.99512 12.0781L10 12V11.333H6.66699C5.56242 11.333 4.66699 10.4376 4.66699 9.33301V6H4ZM6.66699 3.33301C6.2988 3.33301 6 3.63181 6 4V9.33301C6 9.7012 6.2988 10 6.66699 10H12C12.368 9.99982 12.667 9.70109 12.667 9.33301V4C12.667 3.63192 12.368 3.33318 12 3.33301H6.66699Z" fill="#5493FF"/>
</svg>
