<svg width="16" height="16" viewBox="0 0 16 16" fill="none" xmlns="http://www.w3.org/2000/svg">
<path d="M9.33301 2C10.3981 2 11.2692 2.83294 11.3301 3.88281L11.333 4V4.66699H12C13.1044 4.66717 14 5.56253 14 6.66699V12C13.9998 13.1043 13.1043 13.9998 12 14H6.66699C5.56253 14 4.66717 13.1044 4.66699 12V11.333H4C2.93498 11.333 2.06391 10.5009 2.00293 9.45117L2 9.33301V4C2 2.93488 2.83294 2.06376 3.88281 2.00293L4 2H9.33301ZM6.66699 6C6.2988 6 6 6.2988 6 6.66699V12C6.00018 12.368 6.29891 12.667 6.66699 12.667H12C12.3679 12.6668 12.6668 12.3679 12.667 12V6.66699C12.667 6.29891 12.368 6.00018 12 6H6.66699ZM4 3.33301C3.65824 3.33301 3.37657 3.5905 3.33789 3.92188L3.33301 4V9.33301C3.33301 9.67475 3.59052 9.95642 3.92188 9.99512L4 10H4.66699V6.66699C4.66699 5.56242 5.56242 4.66699 6.66699 4.66699H10V4C10 3.65813 9.74266 3.37643 9.41113 3.33789L9.33301 3.33301H4Z" fill="#2935CC"/>
</svg>
