<svg width="20" height="20" viewBox="0 0 20 20" fill="none" xmlns="http://www.w3.org/2000/svg">
<path fill-rule="evenodd" clip-rule="evenodd" d="M6.46493 3.33398H13.5338C14.2046 3.33397 14.7582 3.33397 15.2092 3.37081C15.6776 3.40908 16.1082 3.49122 16.5127 3.6973C17.1399 4.01687 17.6498 4.52681 17.9694 5.15402C18.1754 5.55846 18.2576 5.98905 18.2959 6.45746C18.3327 6.90845 18.3327 7.46208 18.3327 8.13288V11.8684C18.3327 12.5392 18.3327 13.0928 18.2959 13.5438C18.2576 14.0123 18.1754 14.4428 17.9694 14.8473C17.6498 15.4745 17.1399 15.9844 16.5127 16.304C16.1082 16.5101 15.6776 16.5922 15.2092 16.6305C14.7582 16.6673 14.2046 16.6673 13.5337 16.6673H6.46495C5.79414 16.6673 5.24049 16.6673 4.78949 16.6305C4.32108 16.5922 3.89049 16.5101 3.48605 16.304C2.85884 15.9844 2.34891 15.4745 2.02933 14.8473C1.82325 14.4428 1.74112 14.0123 1.70284 13.5438C1.666 13.0928 1.66601 12.5392 1.66602 11.8684V8.1329C1.66601 7.46209 1.666 6.90846 1.70284 6.45746C1.74112 5.98905 1.82325 5.55846 2.02933 5.15402C2.34891 4.52681 2.85884 4.01687 3.48605 3.6973C3.89049 3.49122 4.32108 3.40908 4.78949 3.37081C5.24049 3.33397 5.79412 3.33397 6.46493 3.33398ZM4.92521 5.03194C4.55987 5.06179 4.37303 5.1159 4.2427 5.18231C3.9291 5.3421 3.67413 5.59706 3.51434 5.91067C3.44793 6.041 3.39383 6.22784 3.36398 6.59318C3.33333 6.96826 3.33268 7.4535 3.33268 8.16732V11.834C3.33268 12.5478 3.33333 13.033 3.36398 13.4081C3.39383 13.7735 3.44793 13.9603 3.51434 14.0906C3.67413 14.4042 3.9291 14.6592 4.2427 14.819C4.37303 14.8854 4.55987 14.9395 4.92521 14.9694C5.30029 15 5.78553 15.0007 6.49935 15.0007H13.4993C14.2132 15.0007 14.6984 15 15.0735 14.9694C15.4388 14.9395 15.6257 14.8854 15.756 14.819C16.0696 14.6592 16.3246 14.4042 16.4844 14.0906C16.5508 13.9603 16.6049 13.7735 16.6347 13.4081C16.6654 13.033 16.666 12.5478 16.666 11.834V8.16732C16.666 7.4535 16.6654 6.96826 16.6347 6.59318C16.6049 6.22784 16.5508 6.041 16.4844 5.91067C16.3246 5.59706 16.0696 5.3421 15.756 5.18231C15.6257 5.1159 15.4388 5.06179 15.0735 5.03194C14.6984 5.0013 14.2132 5.00065 13.4994 5.00065H6.49935C5.78553 5.00065 5.30029 5.0013 4.92521 5.03194Z" fill="white"/>
<path fill-rule="evenodd" clip-rule="evenodd" d="M5.14623 7.02802C5.40658 6.6485 5.9253 6.55189 6.30482 6.81225L9.52867 9.02381C9.81273 9.21868 10.1874 9.21868 10.4715 9.02381L13.6953 6.81225C14.0749 6.55189 14.5936 6.6485 14.8539 7.02802C15.1143 7.40754 15.0177 7.92626 14.6382 8.18661L11.4143 10.3982C10.5621 10.9828 9.43805 10.9828 8.58586 10.3982L5.362 8.18661C4.98248 7.92626 4.88588 7.40754 5.14623 7.02802Z" fill="white"/>
</svg>
