<svg width="20" height="20" viewBox="0 0 20 20" fill="none" xmlns="http://www.w3.org/2000/svg">
<path fill-rule="evenodd" clip-rule="evenodd" d="M10.0005 4.99967C5.95445 4.99967 4.07533 8.14349 3.41451 9.62753C3.30801 9.86672 3.30801 10.1326 3.41451 10.3718C4.07533 11.8559 5.95445 14.9997 10.0005 14.9997C14.0466 14.9997 15.9255 11.8557 16.5862 10.3717C16.6927 10.1326 16.6927 9.86675 16.5862 9.6276C15.9255 8.14362 14.0466 4.99967 10.0005 4.99967ZM1.89197 8.94957C2.61641 7.32264 4.90985 3.33301 10.0005 3.33301C15.0912 3.33301 17.3845 7.32286 18.1088 8.94972C18.4074 9.62037 18.4074 10.379 18.1088 11.0496C17.3845 12.6765 15.0912 16.6663 10.0005 16.6663C4.90985 16.6663 2.61641 12.6767 1.89197 11.0498C1.5933 10.379 1.5933 9.6203 1.89197 8.94957Z" fill="#252C2F"/>
<path fill-rule="evenodd" clip-rule="evenodd" d="M10.0003 6.66699C8.15938 6.66699 6.66699 8.15938 6.66699 10.0003C6.66699 11.8413 8.15938 13.3337 10.0003 13.3337C11.8413 13.3337 13.3337 11.8413 13.3337 10.0003C13.3337 8.15938 11.8413 6.66699 10.0003 6.66699ZM9.92972 8.33513C9.95313 8.33415 9.97667 8.33366 10.0003 8.33366C10.9208 8.33366 11.667 9.07985 11.667 10.0003C11.667 10.9208 10.9208 11.667 10.0003 11.667C9.07985 11.667 8.33366 10.9208 8.33366 10.0003C8.33366 9.97667 8.33415 9.95313 8.33513 9.92972C8.46504 9.97545 8.60478 10.0003 8.75033 10.0003C9.44068 10.0003 10.0003 9.44068 10.0003 8.75033C10.0003 8.60478 9.97545 8.46504 9.92972 8.33513Z" fill="#252C2F"/>
</svg>
