<svg width="20" height="20" viewBox="0 0 20 20" fill="none" xmlns="http://www.w3.org/2000/svg">
<path fill-rule="evenodd" clip-rule="evenodd" d="M1.91042 1.91107C2.21082 1.61067 2.68351 1.58756 3.01042 1.84175L3.08893 1.91107L14.9857 13.8079C15.0318 13.8448 15.0744 13.8872 15.1127 13.9348L18.0889 16.9111C18.4144 17.2365 18.4144 17.7641 18.0889 18.0896C17.7885 18.39 17.3158 18.4131 16.9889 18.1589L16.9104 18.0896L14.338 15.5172C13.0014 16.2822 11.5516 16.667 9.99967 16.667C6.33667 16.667 3.30257 14.5431 0.942815 10.4138C0.796389 10.1576 0.796407 9.84299 0.942861 9.58678C1.93528 7.85059 3.0436 6.47034 4.27225 5.45141L1.91042 3.08958C1.58498 2.76414 1.58498 2.23651 1.91042 1.91107ZM5.45685 6.63601C4.50748 7.39605 3.62123 8.42534 2.80109 9.72799L2.63384 10.0003L2.73183 10.1621C4.69136 13.3282 7.02093 14.9087 9.75718 14.9965L9.99967 15.0003C11.1046 15.0003 12.1367 14.7632 13.1064 14.2856L11.0786 12.2577C10.1485 12.7031 9.00009 12.5403 8.22975 11.7694C7.45986 10.999 7.29756 9.8513 7.74266 8.92183L5.45685 6.63601ZM9.3651 10.5443L9.45615 10.6353C9.43991 10.6214 9.42407 10.6067 9.40868 10.5913C9.39344 10.5761 9.37891 10.5604 9.3651 10.5443ZM9.99931 3.33361C13.6623 3.33361 16.6964 5.45749 19.0562 9.58686C19.2026 9.8431 19.2026 10.1577 19.0561 10.4139C18.3771 11.6018 17.6454 12.6216 16.8588 13.4726C16.5464 13.8106 16.0192 13.8314 15.6812 13.519C15.3432 13.2066 15.3224 12.6793 15.6348 12.3414C16.1768 11.755 16.6956 11.0695 17.1906 10.2843L17.3651 10.0003L17.2671 9.83858C15.3076 6.6724 12.9779 5.09188 10.2391 5.00414L9.99641 5.00027C9.33168 4.99796 8.67001 5.08956 8.031 5.27235C7.58852 5.39894 7.12719 5.14284 7.00061 4.70035C6.87403 4.25787 7.13013 3.79654 7.57262 3.66996C8.36256 3.44399 9.1805 3.33076 9.99931 3.33361Z" fill="#252C2F"/>
</svg>
