<svg width="20" height="20" viewBox="0 0 20 20" fill="none" xmlns="http://www.w3.org/2000/svg">
<path fill-rule="evenodd" clip-rule="evenodd" d="M5.16602 3.33399H5.1339H5.13386C4.69459 3.33397 4.31563 3.33396 4.00349 3.35946C3.67404 3.38638 3.34636 3.44581 3.03104 3.60647C2.56064 3.84615 2.17818 4.22861 1.9385 4.69901C1.77784 5.01433 1.71841 5.34201 1.69149 5.67146C1.66599 5.9836 1.666 6.36256 1.66602 6.80183V6.80187V6.83399V7.50065C1.66602 7.96089 2.03911 8.33399 2.49935 8.33399C2.95959 8.33399 3.33268 7.96089 3.33268 7.50065V6.83399C3.33268 6.35353 3.33333 6.0433 3.35262 5.80718C3.37112 5.5808 3.40252 5.49686 3.42351 5.45566C3.50341 5.29886 3.63089 5.17138 3.78769 5.09148C3.8289 5.07049 3.91283 5.03909 4.13921 5.02059C4.37533 5.0013 4.68556 5.00065 5.16602 5.00065H5.83268C6.29292 5.00065 6.66602 4.62756 6.66602 4.16732C6.66602 3.70708 6.29292 3.33399 5.83268 3.33399H5.16602ZM14.8327 16.6673H14.8648C15.3041 16.6673 15.6831 16.6673 15.9952 16.6418C16.3247 16.6149 16.6523 16.5555 16.9677 16.3948C17.4381 16.1552 17.8205 15.7727 18.0602 15.3023C18.2209 14.987 18.2803 14.6593 18.3072 14.3298C18.3327 14.0177 18.3327 13.6388 18.3327 13.1995V13.1995V13.1995V13.1994L18.3327 13.1673V12.5007C18.3327 12.0404 17.9596 11.6673 17.4994 11.6673C17.0391 11.6673 16.666 12.0404 16.666 12.5007V13.1673C16.666 13.6478 16.6654 13.958 16.6461 14.1941C16.6276 14.4205 16.5962 14.5044 16.5752 14.5456C16.4953 14.7024 16.3678 14.8299 16.211 14.9098C16.1698 14.9308 16.0859 14.9622 15.8595 14.9807C15.6234 15 15.3131 15.0007 14.8327 15.0007H14.166C13.7058 15.0007 13.3327 15.3737 13.3327 15.834C13.3327 16.2942 13.7058 16.6673 14.166 16.6673H14.8327ZM1.66602 13.1994L1.66602 13.1673L1.66602 12.5007C1.66602 12.0404 2.03911 11.6673 2.49935 11.6673C2.95959 11.6673 3.33268 12.0404 3.33268 12.5007V13.1673C3.33268 13.6478 3.33333 13.958 3.35262 14.1941C3.37112 14.4205 3.40252 14.5044 3.42351 14.5456C3.50341 14.7024 3.63089 14.8299 3.78769 14.9098C3.8289 14.9308 3.91283 14.9622 4.13921 14.9807C4.37533 15 4.68556 15.0007 5.16602 15.0007H5.83268C6.29292 15.0007 6.66602 15.3737 6.66602 15.834C6.66602 16.2942 6.29292 16.6673 5.83268 16.6673H5.16602H5.1339C4.69461 16.6673 4.31564 16.6673 4.00349 16.6418C3.67404 16.6149 3.34636 16.5555 3.03104 16.3948C2.56064 16.1552 2.17818 15.7727 1.9385 15.3023C1.77784 14.987 1.71841 14.6593 1.69149 14.3298C1.66599 14.0177 1.666 13.6388 1.66602 13.1995V13.1994ZM18.3327 6.83399V6.80187C18.3327 6.36258 18.3327 5.98361 18.3072 5.67146C18.2803 5.34201 18.2209 5.01433 18.0602 4.69901C17.8205 4.22861 17.4381 3.84615 16.9677 3.60647C16.6523 3.44581 16.3247 3.38638 15.9952 3.35946C15.6831 3.33396 15.3041 3.33397 14.8648 3.33399H14.8648H14.8327H14.166C13.7058 3.33399 13.3327 3.70708 13.3327 4.16732C13.3327 4.62756 13.7058 5.00065 14.166 5.00065H14.8327C15.3131 5.00065 15.6234 5.0013 15.8595 5.02059C16.0859 5.03909 16.1698 5.07049 16.211 5.09148C16.3678 5.17138 16.4953 5.29886 16.5752 5.45566C16.5962 5.49686 16.6276 5.5808 16.6461 5.80718C16.6654 6.0433 16.666 6.35353 16.666 6.83399V7.50065C16.666 7.96089 17.0391 8.33399 17.4994 8.33399C17.9596 8.33399 18.3327 7.96089 18.3327 7.50065V6.83399Z" fill="white"/>
<path fill-rule="evenodd" clip-rule="evenodd" d="M5.83398 7.49935C5.83398 7.03911 6.20708 6.66602 6.66732 6.66602C7.12755 6.66602 7.50065 7.03911 7.50065 7.49935V12.4993C7.50065 12.9596 7.12755 13.3327 6.66732 13.3327C6.20708 13.3327 5.83398 12.9596 5.83398 12.4993V7.49935ZM9.16732 7.49935C9.16732 7.03911 9.54041 6.66602 10.0007 6.66602C10.4609 6.66602 10.834 7.03911 10.834 7.49935V10.8327C10.834 11.2929 10.4609 11.666 10.0007 11.666C9.54041 11.666 9.16732 11.2929 9.16732 10.8327V7.49935ZM13.334 6.66602C12.8737 6.66602 12.5007 7.03911 12.5007 7.49935V12.4993C12.5007 12.9596 12.8737 13.3327 13.334 13.3327C13.7942 13.3327 14.1673 12.9596 14.1673 12.4993V7.49935C14.1673 7.03911 13.7942 6.66602 13.334 6.66602Z" fill="white"/>
</svg>
