<svg width="89" height="88" viewBox="0 0 89 88" fill="none" xmlns="http://www.w3.org/2000/svg">
<g clip-path="url(#clip0_22477_14155)">
<path d="M0.5 31.2889C0.5 20.3368 0.5 14.8607 2.63143 10.6775C4.50629 6.99791 7.49791 4.00629 11.1775 2.13143C15.3607 0 20.8368 0 31.7889 0H57.2111C68.1633 0 73.6393 0 77.8225 2.13143C81.5021 4.00629 84.4937 6.99791 86.3686 10.6775C88.5 14.8607 88.5 20.3368 88.5 31.2889V56.7111C88.5 67.6633 88.5 73.1393 86.3686 77.3225C84.4937 81.0021 81.5021 83.9937 77.8225 85.8686C73.6393 88 68.1633 88 57.2111 88H31.7889C20.8368 88 15.3607 88 11.1775 85.8686C7.49791 83.9937 4.50629 81.0021 2.63143 77.3225C0.5 73.1393 0.5 67.6633 0.5 56.7111V31.2889Z" fill="white"/>
<path fill-rule="evenodd" clip-rule="evenodd" d="M46.6474 27.0837C46.825 25.5987 46.6048 23.4318 47.7742 22.4101C48.1151 20.8277 50.5958 21.196 50.21 20.1886C49.9709 19.5566 48.8016 19.8583 48.3305 19.9724C47.9754 20.0603 44.5691 21.139 43.26 21.2887L41.5983 20.823C39.4631 21.1105 38.2298 22.8188 37.0415 24.1731C36.0426 25.3112 34.6957 28.0888 35.768 29.7567L35.5905 30.8497L38.0168 34.4089C38.8548 35.0124 38.9637 35.4591 39.8656 36.0531L40.4218 36.8942C41.1604 37.3789 43.3311 37.3861 43.7003 37.0701C47.199 37.3979 46.8179 30.2866 47.9281 28.7945C47.7908 28.1244 47.2037 27.4283 46.6474 27.0837ZM31.5663 48.4345C32.3073 48.242 33.5737 48.1422 34.2365 47.8096C35.2922 47.2774 38.9234 44.7303 37.7683 42.656C37.4108 38.2842 32.1558 41.9789 29.9188 40.4464C27.6558 40.1541 25.1111 35.8536 24.4294 34.0145C24.1643 33.2827 24.2755 33.5346 23.911 32.9572C23.9133 32.9002 23.679 33.1592 23.6813 33.0974C23.0185 33.872 23.1345 34.5468 23.0304 36.4333L22.1403 36.3786C22.0835 37.0629 22.0149 37.436 21.6953 37.7876C21.6338 37.904 21.5627 38.0157 21.4988 38.1321C20.9378 37.9444 21.2171 38.2129 20.9875 37.7401C18.9021 37.8446 19.0583 39.9474 18.0996 41.1449C18.1399 45.0677 25.8852 49.9123 31.5663 48.4345ZM57.2831 36.5093C53.9051 37.0225 51.8386 38.1036 50.5627 38.9899C49.6727 39.6148 49.4123 40.0329 49.2205 40.2943C49.0288 40.558 48.8962 41.1378 48.9933 41.7508C49.0904 42.359 49.3365 43.0053 49.862 43.3665C54.0116 43.0576 61.2125 42.7962 62.6162 46.2937C62.6896 46.7784 62.7985 47.0706 62.8103 47.1871C64.1833 46.8473 63.1773 46.9685 65.2012 47.2892C65.6651 47.3605 66.8085 47.1039 67.566 46.9162C67.9116 46.8378 68.1057 46.5218 68.1057 46.5218C68.1057 46.5218 68.0418 46.1892 68.0583 46.0086C68.0583 46.0086 68.7685 46.0585 69.0596 45.8375C70.9794 45.5239 69.9686 44.6186 70.8776 43.6017C70.3308 37.0629 63.6483 35.5423 57.2831 36.5093ZM49.8786 50.7344C48.9175 51.471 48.5128 51.288 47.947 52.4309C47.8926 52.4309 48.0346 52.6043 47.9754 52.6043C48.5506 53.752 49.8644 54.2177 50.8326 55.0255C51.1356 55.2797 51.9522 56.7006 52.3381 56.8028C52.7736 57.3255 53.0577 58.7653 53.3417 58.7653C53.6376 59.1716 53.3181 60.1268 53.6045 60.4974C53.6282 62.2082 53.3891 62.3293 53.0932 62.6548C53.0932 62.776 53.2565 63.0873 53.2565 63.2013C53.3346 63.2821 54.0188 63.7739 54.3147 63.7145C55.2426 63.743 59.0419 66.7202 59.3449 67.2928C62.0694 67.4995 61.8706 66.6631 63.7525 65.8601C64.2614 65.6415 64.6662 65.8482 64.9976 65.5013C65.3456 65.1449 65.3763 64.4368 65.7125 64.0686C65.7574 57.3421 56.6368 50.9649 49.8786 50.7344ZM39.1388 52.2693C38.7601 52.6756 37.7162 52.8253 37.425 53.2863C36.98 53.9896 35.955 55.5886 35.1526 56.3489C32.57 58.8081 27.0451 60.046 24.3181 57.6938C24.1406 57.7056 24.2447 57.8078 24.4578 58.4802C24.6566 59.7537 25.6792 62.7428 25.3005 63.5054C25.5467 64.3513 25.8023 64.0448 26.2639 64.5129C26.5811 64.8312 26.7089 65.6605 27.0735 65.8862C27.4901 65.8577 27.9067 65.8315 28.321 65.8007L28.5482 66.504C29.0808 66.4612 29.6134 66.4255 30.1484 66.3852C30.449 66.4517 31.3556 66.9245 31.6208 66.9958L33.3985 66.8722C34.7525 67.2334 35.9361 66.6655 37.0818 65.8909C37.7209 65.4585 38.4168 65.5298 38.985 65.0427C39.9513 64.1571 40.781 63.1321 41.4468 62.0014C42.7322 59.6587 42.2966 54.049 41.132 52.6614C40.6799 52.1624 40.1401 52.1529 39.1388 52.2693Z" fill="#FD5F26"/>
</g>
<defs>
<clipPath id="clip0_22477_14155">
<rect width="88" height="88" fill="white" transform="translate(0.5)"/>
</clipPath>
</defs>
</svg>
