<svg width="181" height="68" viewBox="0 0 181 68" fill="none" xmlns="http://www.w3.org/2000/svg">
<path d="M57.5336 39.197C57.9064 38.3843 57.9437 38.0413 57.9437 35.879C56.9744 36.0356 55.6696 36.2295 54.0665 36.565C51.3226 37.1689 50.8528 38.1979 50.8528 39.2343C50.8528 40.4199 51.7923 41.419 53.634 41.419C54.4331 41.4782 55.2316 41.2968 55.9266 40.8982C56.6216 40.4995 57.1814 39.9018 57.5336 39.1821M60.9337 43.2607H58.3464C58.2012 42.5397 58.1041 41.8099 58.0556 41.076C57.4605 41.8184 56.7073 42.4185 55.8507 42.8326C54.9942 43.2466 54.056 43.4642 53.1046 43.4695C50.2265 43.4695 48.094 41.762 48.094 39.2641C48.0856 38.4699 48.314 37.6911 48.7502 37.0273C49.5927 35.7746 51.166 34.7904 55.5726 34.4325L57.9064 34.2461V33.8658C57.9064 32.3373 57.9064 29.7723 54.6108 29.7723C52.5305 29.7723 51.8296 30.7789 51.5835 31.6886L49.3019 30.7342C49.3019 30.6522 49.384 30.5702 49.4212 30.4956C50.3011 28.8701 52.0235 27.871 54.5213 27.871C56.0472 27.832 57.5477 28.2671 58.8161 29.1162C60.4639 30.3688 60.4267 32.8443 60.4267 32.8443L60.5236 40.4273C60.5434 41.3801 60.6811 42.3268 60.9337 43.2458M143.452 39.1672C143.825 38.3545 143.855 38.0115 143.855 35.8492C142.893 36.0058 141.58 36.1996 139.985 36.5352C137.241 37.1391 136.771 38.1681 136.771 39.2045C136.771 40.39 137.711 41.3892 139.545 41.3892C140.345 41.4489 141.145 41.2678 141.841 40.8692C142.537 40.4705 143.098 39.8726 143.452 39.1523M146.845 43.2309H144.257C144.116 42.5092 144.019 41.7796 143.966 41.0462C143.372 41.7897 142.619 42.3907 141.763 42.8049C140.906 43.2191 139.967 43.436 139.015 43.4396C136.145 43.4396 134.012 41.7322 134.012 39.2343C134.004 38.4401 134.232 37.6613 134.668 36.9974C135.511 35.7448 137.084 34.7606 141.483 34.4027L143.825 34.2163V33.836C143.825 32.3075 143.825 29.7425 140.522 29.7425C138.449 29.7425 137.74 30.7491 137.502 31.6588L135.22 30.7044C135.252 30.6213 135.292 30.5414 135.34 30.4658C136.219 28.8403 137.942 27.8412 140.432 27.8412C141.961 27.8012 143.464 28.2362 144.734 29.0864C146.382 30.339 146.337 32.8145 146.337 32.8145L146.442 40.3975C146.458 41.3501 146.594 42.2969 146.845 43.216M118.645 40.3826C118.074 41.3764 117.239 42.1921 116.232 42.7385C115.224 43.2849 114.085 43.5406 112.941 43.4769C108.572 43.4769 106.066 40.4944 106.066 35.536C106.066 29.9811 109.727 27.8561 112.852 27.8561C115.566 27.8561 118.16 29.3473 119.04 33.0755C119.242 34.0564 119.335 35.0567 119.316 36.058H108.691C108.631 38.526 109.668 41.6576 113.165 41.5979C113.78 41.6113 114.387 41.4627 114.926 41.1669C115.466 40.8711 115.917 40.4386 116.237 39.9128L118.645 40.3826ZM108.758 34.343H116.602C116.378 30.4732 114.149 29.8171 112.665 29.8171C110.54 29.8171 109.034 31.3754 108.758 34.343ZM90.4306 40.4422C89.8626 41.4366 89.0286 42.253 88.0224 42.7996C87.0161 43.3462 85.8773 43.6014 84.734 43.5366C80.3646 43.5366 77.8519 40.5541 77.8519 35.5957C77.8519 30.0408 81.5204 27.9157 84.6371 27.9157C87.3511 27.9157 89.9534 29.407 90.8258 33.1351C91.0277 34.116 91.1202 35.1163 91.1016 36.1176H80.4765C80.4094 38.5856 81.4532 41.7172 84.9502 41.6576C85.565 41.6702 86.1723 41.5212 86.7114 41.2255C87.2505 40.9298 87.7025 40.4977 88.0222 39.9725L90.4306 40.4422ZM80.5436 34.343H88.3801C88.1937 30.4658 85.9568 29.8171 84.4656 29.8171C82.3405 29.8171 80.8418 31.3754 80.566 34.343M131.104 39.6966C130.795 40.3303 130.301 40.8559 129.688 41.2044C129.074 41.5529 128.37 41.7083 127.667 41.6501C125.997 41.6501 123.193 40.5988 123.193 35.6851C123.193 34.3728 123.424 29.7202 127.503 29.7202C128.224 29.6678 128.943 29.8406 129.561 30.2146C130.18 30.5885 130.667 31.1453 130.955 31.8079L133.282 30.8386C131.85 28.4526 129.263 27.8561 127.414 27.8561C122.709 27.8561 120.427 31.6439 120.427 35.8268C120.427 39.4431 122.403 43.4769 127.63 43.4769C128.745 43.5363 129.855 43.2967 130.846 42.7828C131.837 42.2689 132.673 41.4994 133.267 40.5541L131.104 39.6966ZM92.5481 28.5122V43.2756H95.0311V34.8873C94.9566 34.2888 95.0163 33.6811 95.2059 33.1085C95.3955 32.5359 95.7102 32.0126 96.1271 31.5768C96.4943 31.2105 96.9323 30.9231 97.4143 30.7321C97.8964 30.5411 98.4124 30.4504 98.9307 30.4658C99.6064 30.4144 100.281 30.5835 100.852 30.9479C101.423 31.3122 101.861 31.8521 102.1 32.4864C102.272 33.2869 102.325 34.1086 102.256 34.9246V43.2756H104.732V34.5071C104.79 33.4911 104.705 32.4719 104.478 31.4798C104.153 30.4602 103.5 29.5765 102.621 28.9657C101.742 28.355 100.686 28.0515 99.6167 28.1021C98.6834 28.0888 97.7637 28.3259 96.9532 28.7889C96.1428 29.2518 95.4713 29.9236 95.0087 30.7342V28.4973L92.5481 28.5122ZM62.7232 23.8521V26.253H73.7808L62.6784 40.7479V43.2756H77.0093V40.9418H65.6833L76.6962 26.253V23.8223L62.7232 23.8521ZM40.4737 28.4824V43.2756H42.9343V36.4755C42.9343 35.2079 42.9343 33.7018 43.5681 32.6281C44.3734 31.3158 45.5664 30.8237 48.0045 30.8013V28.2289C46.9707 28.1671 45.9412 28.4069 45.0411 28.9191C44.141 29.4314 43.4091 30.1941 42.9343 31.1145V28.4824H40.4737ZM35.5452 23.8223L32.9877 24.8885V28.4824H30.624V30.5478H32.9728V40.047C32.9728 41.9782 32.9728 43.38 35.8136 43.38C36.6263 43.3628 37.4364 43.283 38.2369 43.1414V41.076C37.7126 41.2618 37.166 41.3772 36.6114 41.419C35.5526 41.419 35.5526 40.6734 35.5526 38.9286V30.5478H38.2369V28.4824H35.5526L35.5452 23.8223ZM27.485 39.1523C27.485 40.7405 26.195 41.583 23.9954 41.583C22.2283 41.583 21.0129 41.0835 20.3717 39.9427L17.7471 40.4049C18.7686 42.4927 20.8936 43.4918 23.8911 43.4918C27.9547 43.4918 30.0797 41.255 30.0797 38.8466C30.0797 35.7597 27.2389 34.9246 23.9656 34.2685C22.3924 33.9478 20.5357 33.3663 20.5357 31.9645C20.5357 30.9728 21.5125 29.8171 23.4586 29.8171C24.1386 29.7959 24.8114 29.9612 25.4041 30.295C25.9969 30.6289 26.487 31.1185 26.8214 31.711L29.1253 30.7491C28.0666 28.7359 25.9564 27.9157 23.7419 27.9157C20.3195 27.9157 18.0528 29.6009 18.0528 32.2776C18.0528 35.3272 20.67 35.9237 23.1976 36.4755C25.3748 36.9453 27.485 37.4746 27.485 39.1523ZM14.5335 43.2756H17.2625L10.179 23.8223H7.47987L0.0683594 43.2756H2.82717L5.00439 37.3106H12.4159L14.5335 43.2756ZM5.82458 35.1334L8.80708 27.0508L11.6405 35.1334H5.82458Z" fill="white"/>
<path d="M174.597 18.178C171.689 17.1714 164.479 14.4499 156.881 13.4806C154.264 13.1376 153.212 14.0696 154.294 16.56C156.041 20.1041 158.302 23.3705 161.004 26.2531C163.882 29.34 167.014 30.1751 168.006 25.4106C168.006 25.2466 168.073 25.0751 168.11 24.9036C168.339 23.7649 168.508 22.615 168.617 21.4588C167.342 20.8772 165.91 20.2583 164.479 19.6544C164.553 20.743 164.68 22.6369 164.747 24.0834C164.747 24.2723 164.747 24.4512 164.747 24.6202C164.837 26.9689 164.002 26.9615 162.697 26.0071C161.138 24.8887 156.374 18.5508 155.822 15.8069C155.822 15.628 155.882 15.6205 155.979 15.6504L156.098 15.6951C157.179 16.1201 160.758 17.5368 164.404 19.0728C165.896 19.6842 167.32 20.3105 168.625 20.907C169.929 21.5035 171.07 22.0329 171.928 22.4952C173.501 23.3378 174.112 23.9119 173.456 24.5829C170.175 27.9084 158.738 32.6431 154.816 38.4888L154.778 38.5485C154.73 38.6143 154.688 38.6841 154.652 38.7573L154.614 38.8244C154.322 39.3623 154.127 39.9481 154.04 40.5542C153.876 41.8367 154.54 43.0073 156.374 43.5367C156.883 43.6832 157.405 43.7806 157.932 43.8275C158.029 43.8275 158.141 43.8275 158.26 43.8275C161.78 43.999 170.936 41.9933 173.725 40.7555C176.513 39.5178 175.745 38.2055 174.91 37.5419C174.284 37.0498 171.078 35.2603 169.527 34.4028L168.371 35.1484C169.866 36.0234 171.305 36.9895 172.681 38.0415C172.919 38.2279 172.793 38.4441 172.435 38.4665C172.345 38.4665 172.263 38.4665 172.151 38.4665C169.639 38.6454 164.882 38.9735 162.645 39.0928L161.742 39.1375C162.216 38.7087 162.714 38.3079 163.234 37.9371C168.013 34.5743 175.976 29.8545 178.325 27.819C180.055 26.3277 184.767 21.7496 174.597 18.2004M163.01 30.876C162.622 31.1221 162.264 31.3681 161.854 31.6216C157.381 29.1462 147.814 24.3742 146.987 23.9417C146.159 23.5092 144.548 22.8606 144.75 21.3842C145.026 19.3114 148.619 14.778 150.141 12.9214C158.402 2.81817 162.108 -0.298537 164.561 0.0220818C167.178 0.365069 168.632 3.07169 168.804 15.7324C167.312 15.285 165.732 14.8153 164.017 14.3903C163.875 12.5486 163.532 9.77485 163.398 8.81299C163.256 7.73184 163.047 7.32174 162.607 7.26209C162.167 7.20244 160.907 8.35816 159.819 9.49897L156.366 12.9885C155.069 12.899 154.204 13.1749 153.727 13.8012C153.531 14.1068 153.408 14.4531 153.366 14.8137C153.325 15.1743 153.367 15.5395 153.488 15.8815L151.475 17.8947C149.753 19.6171 147.933 21.0338 147.837 21.7347C147.762 22.3013 148.634 22.8904 149.872 23.6285C152.907 25.4404 160.371 29.4817 163.017 30.8984" fill="white"/>
<path d="M56.5787 49.9103C55.6008 49.9272 54.6227 49.8923 53.6484 49.8059C53.7955 50.9829 53.8528 52.1694 53.8199 53.3551V62.832C53.8199 64.4723 53.7628 66.0754 53.6484 67.6412H55.3857V51.2971H57.7195L56.2283 56.7849C56.8001 57.2956 57.2728 57.9073 57.6226 58.5894C57.9128 59.1814 58.0657 59.8313 58.07 60.4907C58.07 61.1245 57.9283 61.5271 57.6301 61.6986C57.0875 61.9002 56.5034 61.9642 55.9301 61.885C56.3696 62.4864 56.6585 63.1845 56.7726 63.9206C57.6184 63.8916 58.4201 63.5362 59.0095 62.9289C59.501 62.3717 59.7669 61.6512 59.7551 60.9082C59.7482 60.1036 59.5836 59.3082 59.2704 58.567C58.9415 57.7703 58.4632 57.0439 57.8612 56.427L59.8595 49.8059C59.0244 49.8805 57.9283 49.9103 56.5937 49.9103M68.0315 65.121C68.0436 65.2248 68.0278 65.3298 67.9859 65.4255C67.944 65.5211 67.8774 65.6039 67.7929 65.6653C67.5437 65.7811 67.2693 65.8324 66.9951 65.8145C66.442 65.7928 65.8912 65.7305 65.3473 65.628C65.6096 65.9222 65.8303 66.2508 66.0034 66.6048C66.178 66.9829 66.2623 67.3965 66.2495 67.8127C67.0044 67.8041 67.7555 67.7039 68.4864 67.5145C68.8739 67.4281 69.2177 67.206 69.4557 66.8881C69.6251 66.5405 69.7045 66.156 69.6868 65.7697V51.6029C70.3454 51.587 71.0041 51.6295 71.6553 51.7296V49.9998C69.7055 50.1481 67.7493 50.1954 65.7947 50.1414C63.8822 50.199 61.9681 50.1517 60.0608 49.9998V51.7594C61.1694 51.6313 62.2858 51.5839 63.4012 51.6178H68.0241L68.0315 65.121ZM64.7359 61.6539V63.1451H66.3912C66.299 62.231 66.2566 61.3125 66.2644 60.3938V55.5397C66.2517 55.0149 66.2667 54.4898 66.3091 53.9665C65.406 54.0717 64.4961 54.1066 63.5876 54.0709C62.6667 54.1049 61.7445 54.07 60.8288 53.9665C60.891 54.5035 60.9184 55.0439 60.9108 55.5845V60.7069C60.9183 61.6269 60.861 62.5463 60.7393 63.4583H62.3201V61.6539H64.7359ZM62.3201 55.331H64.7359V60.3341H62.3201V55.331ZM78.1571 51.4239V53.1239C78.7645 53.0347 79.3774 52.9873 79.9913 52.9823V61.035C79.3725 61.035 78.8431 60.9604 78.3957 60.8933V62.6157C79.2575 62.4922 80.1274 62.4349 80.9979 62.4442H85.5984C86.4491 62.4354 87.2992 62.4927 88.141 62.6157V60.8933C87.634 60.9604 87.0449 61.0052 86.3739 61.035V52.9823C86.8733 53.0012 87.3711 53.0485 87.8651 53.1239V51.4239C87.3713 51.5021 86.8734 51.5519 86.3739 51.573V49.9327C86.3701 49.7968 86.4035 49.6624 86.4705 49.5441C86.5375 49.4259 86.6356 49.3282 86.7542 49.2616C86.7885 49.2446 86.818 49.2193 86.8401 49.1881C86.8622 49.1569 86.8763 49.1206 86.8809 49.0826C86.8809 49.023 86.7765 48.9783 86.5827 48.9708C85.9418 48.9376 85.3041 48.8604 84.6739 48.7397C84.8123 49.6849 84.8672 50.6405 84.8379 51.5954H81.5422V49.9103C81.5293 49.7964 81.5391 49.681 81.5711 49.571C81.6031 49.4609 81.6566 49.3582 81.7287 49.269C81.8554 49.1647 81.9225 49.0901 81.9225 49.0305C81.9225 48.9708 81.8405 48.9484 81.6914 48.9484C81.0518 48.9607 80.4125 48.9108 79.7826 48.7993C79.9286 49.7165 79.9984 50.6443 79.9913 51.573C79.3647 51.5689 78.7392 51.5191 78.1198 51.4239M81.5422 52.9599H84.8379V54.7643H81.5422V52.9599ZM84.8379 57.9779H81.5422V56.0244H84.8379V57.9779ZM84.8379 61.0872H81.5422V59.238H84.8379V61.0872ZM92.9876 56.7178V63.9653C92.9876 65.0837 92.9354 66.2022 92.8235 67.3877H94.71C94.5922 66.2508 94.5374 65.1083 94.5459 63.9653V56.7402C95.2727 56.743 95.9973 56.8205 96.7082 56.9713V54.9954C95.6366 55.2145 94.543 55.3071 93.4499 55.2713H90.5121V51.5432C91.4439 51.5281 92.3733 51.4459 93.2933 51.2971C94.0475 51.1631 94.8096 51.0784 95.5749 51.0436C95.7237 51.0304 95.8734 51.0304 96.0223 51.0436C96.1215 51.0526 96.2213 51.0526 96.3205 51.0436C96.3951 51.0436 96.4324 51.0436 96.4324 50.9392C96.4324 50.8349 96.3652 50.7678 96.2385 50.6335C95.7721 50.1123 95.3784 49.5304 95.0679 48.9037C94.0033 49.3417 92.8999 49.6787 91.7722 49.9103C90.8089 50.13 89.8222 50.2302 88.8344 50.2085C88.919 51.8887 88.9612 54.1106 88.9612 56.8744C89.0327 58.9914 88.817 61.1084 88.32 63.1675C87.8796 64.6106 87.07 65.9137 85.9713 66.9478C86.6415 67.0912 87.2647 67.4015 87.7831 67.85C88.7519 66.5147 89.481 65.0211 89.938 63.4359C90.3794 61.2275 90.5719 58.9766 90.5121 56.7253L92.9876 56.7178ZM84.7857 62.6232L83.5629 63.5254C84.3882 64.1227 85.1003 64.8625 85.6655 65.7101L86.9257 64.3456C86.2526 63.7232 85.5376 63.1477 84.7857 62.6232ZM77.7023 66.6123C78.2721 66.772 78.7876 67.0839 79.1935 67.5145C79.7826 66.7689 80.4238 65.9114 81.1247 65.0539C81.4763 64.5722 81.876 64.1275 82.3177 63.7267C82.4072 63.7267 82.4519 63.6447 82.4519 63.585C82.4519 63.5254 82.3102 63.4657 82.0344 63.3986C81.5907 63.2491 81.1712 63.0356 80.7892 62.7648C80.0455 64.2523 78.9931 65.5639 77.7023 66.6123ZM118.182 52.2217V64.2785C118.182 64.8526 118.041 65.2105 117.757 65.3447C117.402 65.4874 117.021 65.5535 116.639 65.5386C116.169 65.5386 115.714 65.5386 115.282 65.5013C115.801 66.1123 116.123 66.8661 116.206 67.6636C117.059 67.5697 117.902 67.4051 118.727 67.1715C119.148 67.0553 119.514 66.7905 119.755 66.4259C119.952 65.9859 120.039 65.505 120.009 65.0241V50.0594C119.991 49.9373 120.001 49.8128 120.039 49.6952C120.076 49.5776 120.14 49.4702 120.225 49.3809C120.374 49.2691 120.449 49.1721 120.449 49.0826C120.449 48.9932 120.352 48.9484 120.158 48.9484C119.445 48.9611 118.732 48.8961 118.033 48.7546C118.151 49.9064 118.201 51.0641 118.182 52.2217ZM107.423 64.0175C107.423 64.8824 107.348 66.0903 107.192 67.6263H109.294C109.19 66.1351 109.145 64.9719 109.145 64.0175V56.2555C111.024 56.2555 112.337 56.3301 113.097 56.4047V54.5779C112.396 54.6599 111.076 54.7196 109.145 54.7419V51.5954C110.133 51.4504 111.129 51.3658 112.128 51.3419C112.298 51.341 112.468 51.3559 112.635 51.3866C112.784 51.3866 112.866 51.3866 112.866 51.2599C112.866 51.1331 112.784 51.0958 112.635 50.9765C112.412 50.7761 112.219 50.5451 112.061 50.2906C111.846 49.9699 111.67 49.6244 111.539 49.2616C110.091 49.7264 108.611 50.0804 107.11 50.3204C105.896 50.5374 104.667 50.662 103.434 50.6932C103.783 51.1712 104.052 51.7025 104.232 52.2665C105.179 52.1844 106.245 52.0502 107.423 51.8638V54.7419C105.432 54.7419 104.068 54.6599 103.329 54.5779V56.4047C104.075 56.3301 105.35 56.2854 107.214 56.2555C106.373 58.7329 104.922 60.9587 102.994 62.7276C103.527 63.1914 103.991 63.7287 104.373 64.3232C105.609 62.7209 106.634 60.9668 107.423 59.1038V64.0175ZM114.29 54.3244V59.9538C114.29 60.7964 114.29 61.6688 114.208 62.5784H116.139C116.08 61.7284 116.057 60.8486 116.057 59.9538V53.1687C116.057 52.8257 116.117 52.6094 116.244 52.5274C116.37 52.4454 116.43 52.3783 116.43 52.3037C116.43 52.2292 116.348 52.1844 116.184 52.1844C115.521 52.1985 114.859 52.141 114.208 52.0129C114.26 52.4901 114.29 53.2656 114.29 54.3244ZM110.562 57.6871L109.324 58.6117C110.097 59.6737 110.804 60.7817 111.442 61.9297L112.933 60.8784C112.133 59.8843 111.35 58.8205 110.584 57.6871M138.665 48.4861L136.86 48.9111C137.142 49.4474 137.391 50.0002 137.606 50.5664C133.221 50.5664 130.604 50.5043 129.754 50.38C129.903 52.7735 129.985 55.0029 129.985 57.0906C130.011 58.8809 129.841 60.6685 129.478 62.4219C129.192 63.8076 128.629 65.1214 127.823 66.2842C128.369 66.599 128.887 66.9581 129.374 67.3579C130.141 65.9883 130.711 64.5173 131.067 62.9885C131.419 61.1682 131.591 59.3176 131.581 57.4635H137.65V58.9994C135.533 58.9994 133.942 58.9572 132.878 58.8727V60.3639C133.624 60.2968 135.227 60.2372 137.65 60.1999V62.3398C135.688 63.55 133.578 64.5023 131.372 65.1732C131.721 65.7054 132.001 66.279 132.207 66.8807C134.116 65.8368 135.936 64.778 137.65 63.682V65.218C137.682 65.4799 137.618 65.7444 137.472 65.9636C137.254 66.1156 136.989 66.182 136.726 66.15C136.361 66.15 135.861 66.15 135.235 66.068C135.624 66.6634 135.921 67.3146 136.114 67.9991C136.969 67.9064 137.804 67.6826 138.59 67.3355C138.784 67.2218 138.942 67.0559 139.046 66.8569C139.15 66.6579 139.196 66.4336 139.179 66.2096V61.6091C139.797 62.9297 140.701 64.0962 141.826 65.0241C143.026 65.9321 144.399 66.5866 145.86 66.9478C145.991 66.2225 146.352 65.5586 146.889 65.0539C145.317 64.9648 143.798 64.4493 142.497 63.5627C143.149 62.9514 143.844 62.3883 144.577 61.8776C144.846 61.7955 144.98 61.7284 144.98 61.6688C144.98 61.6091 144.868 61.542 144.652 61.46C144.208 61.2506 143.783 61.001 143.384 60.7144C142.85 61.4519 142.251 62.1406 141.595 62.7723C140.889 62.0147 140.276 61.1763 139.768 60.2745C141.395 60.2264 143.024 60.2812 144.644 60.4385C144.556 59.4818 144.521 58.521 144.54 57.5604C145.45 57.5604 146.225 57.6424 146.866 57.7095V55.9797C146.21 56.0542 145.435 56.099 144.54 56.1288C144.518 55.1831 144.553 54.237 144.644 53.2954C143.606 53.4048 141.784 53.4595 139.179 53.4595V51.8862C142.922 51.8862 145.318 51.9508 146.367 52.0801V50.3353C145.537 50.4447 143.21 50.5068 139.388 50.5217C139.098 49.8436 138.849 49.1489 138.642 48.4414M137.658 53.4595C136.095 53.4946 134.532 53.4398 132.975 53.2954V54.7867C133.721 54.7196 135.279 54.6674 137.658 54.6375V56.1288H131.611C131.611 54.8985 131.611 53.4818 131.544 51.8862H137.658V53.4595ZM139.209 54.6375H143.056V56.1288H139.209V54.6375ZM139.209 57.3889H143.056V58.9249H139.209V57.3889ZM134.735 63.2122L135.891 61.9894C135.149 61.5747 134.458 61.0741 133.833 60.4981L132.722 61.5942C133.451 62.0478 134.127 62.5831 134.735 63.1899" fill="white"/>
</svg>
