<svg width="20" height="20" viewBox="0 0 20 20" fill="none" xmlns="http://www.w3.org/2000/svg">
<path fill-rule="evenodd" clip-rule="evenodd" d="M15 15C15 14.5398 15.3731 14.1667 15.8333 14.1667C16.2936 14.1667 16.6667 14.5398 16.6667 15V15.8333H15V15ZM18.3333 15.8333C18.7936 15.8333 19.1667 16.2064 19.1667 16.6667V18.3333C19.1667 18.7936 18.7936 19.1667 18.3333 19.1667H13.3333C12.8731 19.1667 12.5 18.7936 12.5 18.3333V16.6667C12.5 16.2064 12.8731 15.8333 13.3333 15.8333V15C13.3333 13.6193 14.4526 12.5 15.8333 12.5C17.214 12.5 18.3333 13.6193 18.3333 15V15.8333Z" fill="#252C2F"/>
<path d="M5 12.4993C5 12.0391 5.3731 11.666 5.83333 11.666H9.16667C9.6269 11.666 10 12.0391 10 12.4993C10 12.9596 9.6269 13.3327 9.16667 13.3327H5.83333C5.3731 13.3327 5 12.9596 5 12.4993Z" fill="#252C2F"/>
<path d="M1.66602 7.5H18.3327V9.16667H1.66602V7.5Z" fill="#252C2F"/>
<path fill-rule="evenodd" clip-rule="evenodd" d="M6.46493 3.33398H13.5338C14.2046 3.33397 14.7582 3.33397 15.2092 3.37081C15.6776 3.40908 16.1082 3.49122 16.5127 3.6973C17.1399 4.01687 17.6498 4.52681 17.9694 5.15402C18.1754 5.55846 18.2576 5.98905 18.2959 6.45746C18.3327 6.90846 18.3327 7.46208 18.3327 8.13288V10.0007C18.3327 10.4609 17.9596 10.834 17.4993 10.834C17.0391 10.834 16.666 10.4609 16.666 10.0007V8.16732C16.666 7.4535 16.6654 6.96826 16.6347 6.59318C16.6049 6.22784 16.5508 6.041 16.4844 5.91067C16.3246 5.59706 16.0696 5.3421 15.756 5.18231C15.6257 5.1159 15.4388 5.06179 15.0735 5.03194C14.6984 5.0013 14.2132 5.00065 13.4994 5.00065H6.49935C5.78553 5.00065 5.30029 5.0013 4.92521 5.03194C4.55987 5.06179 4.37303 5.1159 4.2427 5.18231C3.9291 5.3421 3.67413 5.59706 3.51434 5.91067C3.44793 6.041 3.39383 6.22784 3.36398 6.59318C3.33333 6.96826 3.33268 7.4535 3.33268 8.16732V11.834C3.33268 12.5478 3.33333 13.033 3.36398 13.4081C3.39383 13.7735 3.44793 13.9603 3.51434 14.0906C3.67413 14.4042 3.9291 14.6592 4.2427 14.819C4.37303 14.8854 4.55987 14.9395 4.92521 14.9694C5.30029 15 5.78553 15.0007 6.49935 15.0007H9.99935C10.4596 15.0007 10.8327 15.3737 10.8327 15.834C10.8327 16.2942 10.4596 16.6673 9.99935 16.6673H6.46495C5.79414 16.6673 5.2405 16.6673 4.78949 16.6305C4.32108 16.5922 3.89049 16.5101 3.48605 16.304C2.85884 15.9844 2.34891 15.4745 2.02933 14.8473C1.82325 14.4428 1.74112 14.0123 1.70284 13.5438C1.666 13.0928 1.66601 12.5392 1.66602 11.8684V8.1329C1.66601 7.46209 1.666 6.90846 1.70284 6.45746C1.74112 5.98905 1.82325 5.55846 2.02933 5.15402C2.34891 4.52681 2.85884 4.01687 3.48605 3.6973C3.89049 3.49122 4.32108 3.40908 4.78949 3.37081C5.24049 3.33397 5.79413 3.33397 6.46493 3.33398Z" fill="#252C2F"/>
</svg>
