<svg width="20" height="20" viewBox="0 0 20 20" fill="none" xmlns="http://www.w3.org/2000/svg">
<path fill-rule="evenodd" clip-rule="evenodd" d="M5.16602 3.33301H5.1339H5.13386C4.69459 3.33299 4.31563 3.33298 4.00349 3.35848C3.67404 3.3854 3.34636 3.44483 3.03104 3.60549C2.56064 3.84518 2.17818 4.22763 1.9385 4.69803C1.77784 5.01335 1.71841 5.34103 1.69149 5.67049C1.66599 5.98262 1.666 6.36158 1.66602 6.80085V6.80089V6.83301V7.49968C1.66602 7.95991 2.03911 8.33301 2.49935 8.33301C2.95959 8.33301 3.33268 7.95991 3.33268 7.49968V6.83301C3.33268 6.35255 3.33333 6.04232 3.35262 5.80621C3.37112 5.57982 3.40252 5.49589 3.42351 5.45468C3.50341 5.29788 3.63089 5.1704 3.78769 5.0905C3.8289 5.06951 3.91283 5.03811 4.13921 5.01962C4.37533 5.00032 4.68556 4.99968 5.16602 4.99968H5.83268C6.29292 4.99968 6.66602 4.62658 6.66602 4.16634C6.66602 3.70611 6.29292 3.33301 5.83268 3.33301H5.16602ZM14.8327 16.6663H14.8648C15.3041 16.6664 15.6831 16.6664 15.9952 16.6409C16.3247 16.6139 16.6523 16.5545 16.9677 16.3939C17.4381 16.1542 17.8205 15.7717 18.0602 15.3013C18.2209 14.986 18.2803 14.6583 18.3072 14.3289C18.3327 14.0167 18.3327 13.6378 18.3327 13.1985V13.1985V13.1985V13.1985L18.3327 13.1663V12.4997C18.3327 12.0394 17.9596 11.6663 17.4994 11.6663C17.0391 11.6663 16.666 12.0394 16.666 12.4997V13.1663C16.666 13.6468 16.6654 13.957 16.6461 14.1931C16.6276 14.4195 16.5962 14.5035 16.5752 14.5447C16.4953 14.7015 16.3678 14.829 16.211 14.9088C16.1698 14.9298 16.0859 14.9612 15.8595 14.9797C15.6234 14.999 15.3131 14.9997 14.8327 14.9997H14.166C13.7058 14.9997 13.3327 15.3728 13.3327 15.833C13.3327 16.2932 13.7058 16.6663 14.166 16.6663H14.8327ZM1.66602 13.1985L1.66602 13.1663L1.66602 12.4997C1.66602 12.0394 2.03911 11.6663 2.49935 11.6663C2.95959 11.6663 3.33268 12.0394 3.33268 12.4997V13.1663C3.33268 13.6468 3.33333 13.957 3.35262 14.1931C3.37112 14.4195 3.40252 14.5035 3.42351 14.5447C3.50341 14.7015 3.63089 14.829 3.78769 14.9088C3.8289 14.9298 3.91283 14.9612 4.13921 14.9797C4.37533 14.999 4.68556 14.9997 5.16602 14.9997H5.83268C6.29292 14.9997 6.66602 15.3728 6.66602 15.833C6.66602 16.2932 6.29292 16.6663 5.83268 16.6663H5.16602H5.1339C4.69461 16.6664 4.31564 16.6664 4.00349 16.6409C3.67404 16.6139 3.34636 16.5545 3.03104 16.3939C2.56064 16.1542 2.17818 15.7717 1.9385 15.3013C1.77784 14.986 1.71841 14.6583 1.69149 14.3289C1.66599 14.0167 1.666 13.6378 1.66602 13.1985V13.1985ZM18.3327 6.83301V6.80089C18.3327 6.3616 18.3327 5.98263 18.3072 5.67049C18.2803 5.34103 18.2209 5.01335 18.0602 4.69803C17.8205 4.22763 17.4381 3.84518 16.9677 3.60549C16.6523 3.44483 16.3247 3.3854 15.9952 3.35848C15.6831 3.33298 15.3041 3.33299 14.8648 3.33301H14.8648H14.8327H14.166C13.7058 3.33301 13.3327 3.70611 13.3327 4.16634C13.3327 4.62658 13.7058 4.99968 14.166 4.99968H14.8327C15.3131 4.99968 15.6234 5.00032 15.8595 5.01962C16.0859 5.03811 16.1698 5.06951 16.211 5.0905C16.3678 5.1704 16.4953 5.29788 16.5752 5.45468C16.5962 5.49589 16.6276 5.57982 16.6461 5.80621C16.6654 6.04232 16.666 6.35255 16.666 6.83301V7.49968C16.666 7.95991 17.0391 8.33301 17.4994 8.33301C17.9596 8.33301 18.3327 7.95991 18.3327 7.49968V6.83301Z" fill="#252C2F"/>
<path fill-rule="evenodd" clip-rule="evenodd" d="M5.83398 7.50033C5.83398 7.04009 6.20708 6.66699 6.66732 6.66699C7.12756 6.66699 7.50065 7.04009 7.50065 7.50033V12.5003C7.50065 12.9606 7.12756 13.3337 6.66732 13.3337C6.20708 13.3337 5.83398 12.9606 5.83398 12.5003V7.50033ZM9.16732 7.50033C9.16732 7.04009 9.54041 6.66699 10.0007 6.66699C10.4609 6.66699 10.834 7.04009 10.834 7.50033V10.8337C10.834 11.2939 10.4609 11.667 10.0007 11.667C9.54041 11.667 9.16732 11.2939 9.16732 10.8337V7.50033ZM13.334 6.66699C12.8737 6.66699 12.5007 7.04009 12.5007 7.50033V12.5003C12.5007 12.9606 12.8737 13.3337 13.334 13.3337C13.7942 13.3337 14.1673 12.9606 14.1673 12.5003V7.50033C14.1673 7.04009 13.7942 6.66699 13.334 6.66699Z" fill="#252C2F"/>
</svg>
