<svg width="20" height="20" viewBox="0 0 20 20" fill="none" xmlns="http://www.w3.org/2000/svg">
<path fill-rule="evenodd" clip-rule="evenodd" d="M6.66602 5.00033C6.66602 3.15938 8.1584 1.66699 9.99935 1.66699C11.8403 1.66699 13.3327 3.15938 13.3327 5.00033V9.16699H11.666V5.00033C11.666 4.07985 10.9198 3.33366 9.99935 3.33366C9.07887 3.33366 8.33268 4.07985 8.33268 5.00033V9.16699H6.66602V5.00033Z" fill="#252C2F"/>
<path fill-rule="evenodd" clip-rule="evenodd" d="M8.1329 7.5H11.8684C12.5392 7.49999 13.0928 7.49998 13.5438 7.53683C14.0123 7.5751 14.4428 7.65724 14.8473 7.86331C15.4745 8.18289 15.9844 8.69283 16.304 9.32003C16.5101 9.72448 16.5922 10.1551 16.6305 10.6235C16.6673 11.0745 16.6673 11.6281 16.6673 12.2989V13.5344C16.6673 14.2052 16.6673 14.7589 16.6305 15.2099C16.5922 15.6783 16.5101 16.1089 16.304 16.5133C15.9844 17.1405 15.4745 17.6504 14.8473 17.97C14.4428 18.1761 14.0123 18.2582 13.5438 18.2965C13.0928 18.3334 12.5392 18.3333 11.8684 18.3333H8.13292C7.46211 18.3333 6.90846 18.3334 6.45746 18.2965C5.98905 18.2582 5.55846 18.1761 5.15402 17.97C4.52681 17.6504 4.01687 17.1405 3.6973 16.5133C3.49122 16.1089 3.40908 15.6783 3.37081 15.2099C3.33397 14.7589 3.33397 14.2052 3.33398 13.5344V12.2989C3.33397 11.6281 3.33397 11.0745 3.37081 10.6235C3.40908 10.1551 3.49122 9.72448 3.6973 9.32003C4.01687 8.69283 4.52681 8.18289 5.15402 7.86331C5.55846 7.65724 5.98905 7.5751 6.45746 7.53683C6.90846 7.49998 7.46209 7.49999 8.1329 7.5ZM6.59318 9.19796C6.22784 9.22781 6.041 9.28192 5.91067 9.34832C5.59706 9.50811 5.3421 9.76308 5.18231 10.0767C5.1159 10.207 5.06179 10.3939 5.03194 10.7592C5.0013 11.1343 5.00065 11.6195 5.00065 12.3333V13.5C5.00065 14.2138 5.0013 14.6991 5.03194 15.0741C5.06179 15.4395 5.1159 15.6263 5.18231 15.7567C5.3421 16.0703 5.59706 16.3252 5.91067 16.485C6.041 16.5514 6.22784 16.6055 6.59318 16.6354C6.96826 16.666 7.4535 16.6667 8.16732 16.6667H11.834C12.5478 16.6667 13.033 16.666 13.4081 16.6354C13.7735 16.6055 13.9603 16.5514 14.0906 16.485C14.4042 16.3252 14.6592 16.0703 14.819 15.7567C14.8854 15.6263 14.9395 15.4395 14.9694 15.0741C15 14.6991 15.0007 14.2138 15.0007 13.5V12.3333C15.0007 11.6195 15 11.1343 14.9694 10.7592C14.9395 10.3939 14.8854 10.207 14.819 10.0767C14.6592 9.76308 14.4042 9.50811 14.0906 9.34832C13.9603 9.28192 13.7735 9.22781 13.4081 9.19796C13.033 9.16732 12.5478 9.16667 11.834 9.16667H8.16732C7.4535 9.16667 6.96826 9.16732 6.59318 9.19796Z" fill="#252C2F"/>
<path d="M9.16602 13.3333C9.16602 12.8731 9.53911 12.5 9.99935 12.5C10.4596 12.5 10.8327 12.8731 10.8327 13.3333V14.1667C10.8327 14.6269 10.4596 15 9.99935 15C9.53911 15 9.16602 14.6269 9.16602 14.1667V13.3333Z" fill="#252C2F"/>
</svg>
