<svg width="20" height="20" viewBox="0 0 20 20" fill="none" xmlns="http://www.w3.org/2000/svg">
<path fill-rule="evenodd" clip-rule="evenodd" d="M11.8684 1.66602H8.1329C7.4621 1.66601 6.90846 1.666 6.45746 1.70284C5.98905 1.74112 5.55846 1.82325 5.15402 2.02933C4.52681 2.34891 4.01687 2.85884 3.6973 3.48605C3.49122 3.89049 3.40908 4.32108 3.37081 4.78949C3.33397 5.24049 3.33397 5.79412 3.33398 6.46492V13.5338C3.33397 14.2046 3.33397 14.7582 3.37081 15.2092C3.40908 15.6776 3.49122 16.1082 3.6973 16.5127C4.01687 17.1399 4.52681 17.6498 5.15402 17.9694C5.55846 18.1754 5.98905 18.2576 6.45746 18.2959C6.90846 18.3327 7.46208 18.3327 8.13288 18.3327H11.8684C12.5392 18.3327 13.0928 18.3327 13.5438 18.2959C14.0123 18.2576 14.4428 18.1754 14.8473 17.9694C15.4745 17.6498 15.9844 17.1399 16.304 16.5127C16.5101 16.1082 16.5922 15.6776 16.6305 15.2092C16.6673 14.7582 16.6673 14.2046 16.6673 13.5338V6.46491C16.6673 5.79412 16.6673 5.24048 16.6305 4.78949C16.5922 4.32108 16.5101 3.89049 16.304 3.48605C15.9844 2.85884 15.4745 2.34891 14.8473 2.02933C14.4428 1.82325 14.0123 1.74112 13.5438 1.70284C13.0928 1.666 12.5392 1.66601 11.8684 1.66602ZM5.91067 3.51434C6.041 3.44793 6.22784 3.39383 6.59318 3.36398C6.83784 3.34399 7.12938 3.33676 7.50065 3.33415V4.16602C7.50065 4.62625 7.87375 4.99935 8.33398 4.99935H11.6673C12.1276 4.99935 12.5007 4.62625 12.5007 4.16602V3.33415C12.8719 3.33676 13.1635 3.34399 13.4081 3.36398C13.7735 3.39383 13.9603 3.44793 14.0906 3.51434C14.4042 3.67413 14.6592 3.9291 14.819 4.2427C14.8854 4.37303 14.9395 4.55987 14.9694 4.92521C15 5.30029 15.0007 5.78553 15.0007 6.49935V13.4993C15.0007 14.2132 15 14.6984 14.9694 15.0735C14.9395 15.4388 14.8854 15.6257 14.819 15.756C14.6592 16.0696 14.4042 16.3246 14.0906 16.4844C13.9603 16.5508 13.7735 16.6049 13.4081 16.6347C13.033 16.6654 12.5478 16.666 11.834 16.666H8.16732C7.4535 16.666 6.96826 16.6654 6.59318 16.6347C6.22784 16.6049 6.041 16.5508 5.91067 16.4844C5.59706 16.3246 5.3421 16.0696 5.18231 15.756C5.1159 15.6257 5.06179 15.4388 5.03194 15.0735C5.0013 14.6984 5.00065 14.2132 5.00065 13.4993V6.49935C5.00065 5.78553 5.0013 5.30029 5.03194 4.92521C5.06179 4.55987 5.1159 4.37303 5.18231 4.2427C5.3421 3.9291 5.59706 3.67413 5.91067 3.51434Z" fill="#252C2F"/>
</svg>
