<svg width="16" height="16" viewBox="0 0 16 16" fill="none" xmlns="http://www.w3.org/2000/svg">
<path fill-rule="evenodd" clip-rule="evenodd" d="M9.7954 1.40771C9.48693 1.33365 9.16707 1.3338 8.74374 1.334L6.5071 1.33403C5.97046 1.33402 5.52755 1.33401 5.16675 1.36349C4.79202 1.39411 4.44755 1.45982 4.12399 1.62468C3.62223 1.88034 3.21428 2.28829 2.95862 2.79005C2.79376 3.11361 2.72805 3.45808 2.69743 3.83281C2.66795 4.1936 2.66796 4.63651 2.66797 5.17315V10.8282C2.66796 11.3649 2.66795 11.8078 2.69743 12.1686C2.72805 12.5433 2.79376 12.8878 2.95862 13.2113C3.21428 13.7131 3.62223 14.121 4.12399 14.3767C4.44755 14.5416 4.79202 14.6073 5.16675 14.6379C5.52755 14.6674 5.97045 14.6674 6.50709 14.6674H9.49552C10.0322 14.6674 10.4751 14.6674 10.8359 14.6379C11.2106 14.6073 11.5551 14.5416 11.8786 14.3767C12.3804 14.121 12.7883 13.7131 13.044 13.2113C13.2088 12.8878 13.2746 12.5433 13.3052 12.1686C13.3347 11.8078 13.3346 11.3649 13.3346 10.8282L13.3347 5.92492C13.3349 5.5016 13.335 5.18173 13.261 4.87327C13.1956 4.60117 13.0879 4.34105 12.9417 4.10246C12.7759 3.83198 12.5496 3.60591 12.2502 3.30671L11.362 2.4185C11.0628 2.11902 10.8367 1.89274 10.5662 1.72699C10.3276 1.58078 10.0675 1.47303 9.7954 1.40771ZM8.66797 2.66736H6.53464C5.96358 2.66736 5.57539 2.66788 5.27533 2.69239C4.98305 2.71627 4.83358 2.75956 4.72932 2.81268C4.47843 2.94052 4.27446 3.14449 4.14663 3.39537C4.0935 3.49964 4.05022 3.64911 4.02634 3.94139C4.00182 4.24144 4.0013 4.62964 4.0013 5.20069V10.8007C4.0013 11.3717 4.00182 11.7599 4.02634 12.06C4.05022 12.3523 4.0935 12.5017 4.14663 12.606C4.27446 12.8569 4.47843 13.0609 4.72932 13.1887C4.83358 13.2418 4.98305 13.2851 5.27533 13.309C5.57539 13.3335 5.96358 13.334 6.53464 13.334H9.46797C10.039 13.334 10.4272 13.3335 10.7273 13.309C11.0196 13.2851 11.169 13.2418 11.2733 13.1887C11.5242 13.0609 11.7281 12.8569 11.856 12.606C11.9091 12.5017 11.9524 12.3523 11.9763 12.06C12.0008 11.7599 12.0013 11.3717 12.0013 10.8007V6.00069H10.668C9.5634 6.00069 8.66797 5.10526 8.66797 4.00069V2.66736ZM11.708 4.66736C11.6278 4.57262 11.4999 4.44209 11.2593 4.20151L10.4672 3.40936C10.2266 3.16877 10.096 3.04082 10.0013 2.96071V4.00069C10.0013 4.36888 10.2998 4.66736 10.668 4.66736H11.708Z" fill="white"/>
<path d="M5.9987 8C5.63051 8 5.33203 8.29848 5.33203 8.66667C5.33203 9.03486 5.63051 9.33333 5.9987 9.33333H9.9987C10.3669 9.33333 10.6654 9.03486 10.6654 8.66667C10.6654 8.29848 10.3669 8 9.9987 8H5.9987Z" fill="white"/>
<path d="M5.9987 10.6667C5.63051 10.6667 5.33203 10.9651 5.33203 11.3333C5.33203 11.7015 5.63051 12 5.9987 12H7.9987C8.36689 12 8.66536 11.7015 8.66536 11.3333C8.66536 10.9651 8.36689 10.6667 7.9987 10.6667H5.9987Z" fill="white"/>
</svg>
