<svg width="16" height="16" viewBox="0 0 16 16" fill="none" xmlns="http://www.w3.org/2000/svg">
<path fill-rule="evenodd" clip-rule="evenodd" d="M2.66797 8H13.3346V11.3333C13.3346 12.8061 12.1407 14 10.668 14H5.33464C3.86188 14 2.66797 12.8061 2.66797 11.3333V8ZM4.0013 9.33333V11.3333C4.0013 12.0697 4.59826 12.6667 5.33464 12.6667H10.668C11.4043 12.6667 12.0013 12.0697 12.0013 11.3333V9.33333H4.0013Z" fill="white"/>
<path fill-rule="evenodd" clip-rule="evenodd" d="M2 6.66602C2 5.56145 2.89543 4.66602 4 4.66602H12C13.1046 4.66602 14 5.56145 14 6.66602V7.33268C14 8.43725 13.1046 9.33268 12 9.33268H4C2.89543 9.33268 2 8.43725 2 7.33268V6.66602ZM4 5.99935C3.63181 5.99935 3.33333 6.29783 3.33333 6.66602V7.33268C3.33333 7.70087 3.63181 7.99935 4 7.99935H12C12.3682 7.99935 12.6667 7.70087 12.6667 7.33268V6.66602C12.6667 6.29783 12.3682 5.99935 12 5.99935H4Z" fill="white"/>
<path fill-rule="evenodd" clip-rule="evenodd" d="M4.66797 4C4.66797 2.89543 5.5634 2 6.66797 2C7.1802 2 7.64746 2.19257 8.0013 2.50926C8.35514 2.19257 8.8224 2 9.33464 2C10.4392 2 11.3346 2.89543 11.3346 4C11.3346 5.10457 10.4392 6 9.33464 6H8.66797V14H7.33464V6H6.66797C5.5634 6 4.66797 5.10457 4.66797 4ZM7.33464 4.66667V4C7.33464 3.63181 7.03616 3.33333 6.66797 3.33333C6.29978 3.33333 6.0013 3.63181 6.0013 4C6.0013 4.36819 6.29978 4.66667 6.66797 4.66667H7.33464ZM8.66797 4V4.66667H9.33464C9.70283 4.66667 10.0013 4.36819 10.0013 4C10.0013 3.63181 9.70283 3.33333 9.33464 3.33333C8.96645 3.33333 8.66797 3.63181 8.66797 4Z" fill="white"/>
</svg>
