<svg width="24" height="24" viewBox="0 0 24 24" fill="none" xmlns="http://www.w3.org/2000/svg">
<path fill-rule="evenodd" clip-rule="evenodd" d="M13.2208 2.60753C12.6085 1.80009 11.3947 1.8001 10.7825 2.60753L9.40844 4.41964C9.1901 4.70759 8.8334 4.85534 8.4754 4.80612L6.22245 4.49635C5.21859 4.35833 4.36028 5.21664 4.49831 6.2205L4.80807 8.47344C4.85729 8.83144 4.70954 9.18815 4.42159 9.40649L2.60948 10.7805C1.80205 11.3928 1.80205 12.6066 2.60948 13.2188L4.42159 14.5929C4.70954 14.8112 4.85729 15.1679 4.80807 15.5259L4.49831 17.7789C4.36028 18.7827 5.21859 19.641 6.22245 19.503L8.4754 19.1932C8.8334 19.144 9.1901 19.2918 9.40844 19.5797L10.7825 21.3918C11.3947 22.1993 12.6085 22.1993 13.2208 21.3918L14.5948 19.5797C14.8132 19.2918 15.1699 19.144 15.5279 19.1932L17.7808 19.503C18.7847 19.641 19.643 18.7827 19.505 17.7789L19.1952 15.5259C19.146 15.1679 19.2937 14.8112 19.5817 14.5929L21.3938 13.2188C22.2012 12.6066 22.2012 11.3928 21.3938 10.7805L19.5817 9.40649C19.2937 9.18815 19.146 8.83144 19.1952 8.47344L19.505 6.2205C19.643 5.21664 18.7847 4.35833 17.7808 4.49635L15.5279 4.80612C15.1699 4.85534 14.8132 4.70759 14.5948 4.41964L13.2208 2.60753ZM14.7086 9.29247C14.3181 8.90194 13.6849 8.90194 13.2944 9.29247L9.29442 13.2925C8.9039 13.683 8.9039 14.3162 9.29442 14.7067C9.68494 15.0972 10.3181 15.0972 10.7086 14.7067L14.7086 10.7067C15.0992 10.3162 15.0992 9.68299 14.7086 9.29247ZM10.0015 10.9996C9.44924 10.9996 9.00153 10.5519 9.00153 9.99957C9.00153 9.44729 9.44924 8.99957 10.0015 8.99957C10.5538 8.99957 11.0015 9.44729 11.0015 9.99957C11.0015 10.5519 10.5538 10.9996 10.0015 10.9996ZM14.0015 14.9996C14.5538 14.9996 15.0015 14.5519 15.0015 13.9996C15.0015 13.4473 14.5538 12.9996 14.0015 12.9996C13.4492 12.9996 13.0015 13.4473 13.0015 13.9996C13.0015 14.5519 13.4492 14.9996 14.0015 14.9996Z" fill="#5493FF"/>
</svg>
