<svg width="24" height="24" viewBox="0 0 24 24" fill="none" xmlns="http://www.w3.org/2000/svg">
<path fill-rule="evenodd" clip-rule="evenodd" d="M13.2188 2.60802C12.6066 1.80058 11.3928 1.80058 10.7805 2.60802L9.40649 4.42013C9.18815 4.70808 8.83144 4.85583 8.47344 4.80661L6.2205 4.49684C5.21664 4.35882 4.35833 5.21713 4.49635 6.22099L4.80612 8.47393C4.85534 8.83193 4.70759 9.18864 4.41964 9.40698L2.60753 10.781C1.80009 11.3932 1.8001 12.6071 2.60753 13.2193L4.41964 14.5934C4.70759 14.8117 4.85534 15.1684 4.80612 15.5264L4.49635 17.7794C4.35833 18.7832 5.21664 19.6415 6.2205 19.5035L8.47344 19.1937C8.83144 19.1445 9.18815 19.2923 9.40649 19.5802L10.7805 21.3923C11.3928 22.1998 12.6066 22.1998 13.2188 21.3923L14.5929 19.5802C14.8112 19.2923 15.1679 19.1445 15.5259 19.1937L17.7789 19.5035C18.7827 19.6415 19.641 18.7832 19.503 17.7794L19.1932 15.5264C19.144 15.1684 19.2918 14.8117 19.5797 14.5934L21.3918 13.2193C22.1993 12.6071 22.1993 11.3932 21.3918 10.781L19.5797 9.40698C19.2918 9.18864 19.144 8.83193 19.1932 8.47393L19.503 6.22099C19.641 5.21713 18.7827 4.35882 17.7789 4.49684L15.5259 4.80661C15.1679 4.85583 14.8112 4.70808 14.5929 4.42013L13.2188 2.60802ZM14.7067 9.29296C14.3162 8.90243 13.683 8.90243 13.2925 9.29296L9.29247 13.293C8.90194 13.6835 8.90194 14.3166 9.29247 14.7072C9.68299 15.0977 10.3162 15.0977 10.7067 14.7072L14.7067 10.7072C15.0972 10.3166 15.0972 9.68348 14.7067 9.29296ZM9.99957 11.0001C9.44729 11.0001 8.99957 10.5523 8.99957 10.0001C8.99957 9.44778 9.44729 9.00006 9.99957 9.00006C10.5519 9.00006 10.9996 9.44778 10.9996 10.0001C10.9996 10.5523 10.5519 11.0001 9.99957 11.0001ZM13.9996 15.0001C14.5519 15.0001 14.9996 14.5523 14.9996 14.0001C14.9996 13.4478 14.5519 13.0001 13.9996 13.0001C13.4473 13.0001 12.9996 13.4478 12.9996 14.0001C12.9996 14.5523 13.4473 15.0001 13.9996 15.0001Z" fill="#0066FF"/>
</svg>
