<svg width="24" height="24" viewBox="0 0 24 24" fill="none" xmlns="http://www.w3.org/2000/svg">
<path fill-rule="evenodd" clip-rule="evenodd" d="M3.32698 4.63803C3 5.27976 3 6.11984 3 7.8V14.2C3 15.8802 3 16.7202 3.32698 17.362C3.6146 17.9265 4.07354 18.3854 4.63803 18.673C4.99429 18.8545 5.41168 18.9353 6 18.9712V20C6 20.5523 6.44772 21 7 21C7.55228 21 8 20.5523 8 20V19H16V20C16 20.5523 16.4477 21 17 21C17.5523 21 18 20.5523 18 20V18.9712C18.5883 18.9353 19.0057 18.8545 19.362 18.673C19.9265 18.3854 20.3854 17.9265 20.673 17.362C21 16.7202 21 15.8802 21 14.2V7.8C21 6.11984 21 5.27976 20.673 4.63803C20.3854 4.07354 19.9265 3.6146 19.362 3.32698C18.7202 3 17.8802 3 16.2 3H7.8C6.11984 3 5.27976 3 4.63803 3.32698C4.07354 3.6146 3.6146 4.07354 3.32698 4.63803ZM13 11C13 11.5523 12.5523 12 12 12C11.4477 12 11 11.5523 11 11C11 10.4477 11.4477 10 12 10C12.5523 10 13 10.4477 13 11ZM9.17071 12C9.47199 12.8524 10.1476 13.528 11 13.8293V15C11 15.5523 11.4477 16 12 16C12.5523 16 13 15.5523 13 15V13.8293C13.8524 13.528 14.528 12.8524 14.8293 12H16C16.5523 12 17 11.5523 17 11C17 10.4477 16.5523 10 16 10H14.8293C14.528 9.14759 13.8524 8.47199 13 8.17071V7C13 6.44772 12.5523 6 12 6C11.4477 6 11 6.44772 11 7V8.17071C10.1476 8.47199 9.47199 9.14759 9.17071 10H8C7.44772 10 7 10.4477 7 11C7 11.5523 7.44772 12 8 12H9.17071Z" fill="#2935CC"/>
</svg>
