<svg width="20" height="20" viewBox="0 0 20 20" fill="none" xmlns="http://www.w3.org/2000/svg">
<g clip-path="url(#clip0_12457_1968)">
<g clip-path="url(#clip1_12457_1968)">
<path d="M0 7.11111C0 4.62199 0 3.37743 0.484416 2.42671C0.910519 1.59043 1.59043 0.910519 2.42671 0.484416C3.37743 0 4.62199 0 7.11111 0H12.8889C15.378 0 16.6226 0 17.5733 0.484416C18.4096 0.910519 19.0895 1.59043 19.5156 2.42671C20 3.37743 20 4.62199 20 7.11111V12.8889C20 15.378 20 16.6226 19.5156 17.5733C19.0895 18.4096 18.4096 19.0895 17.5733 19.5156C16.6226 20 15.378 20 12.8889 20H7.11111C4.62199 20 3.37743 20 2.42671 19.5156C1.59043 19.0895 0.910519 18.4096 0.484416 17.5733C0 16.6226 0 15.378 0 12.8889V7.11111Z" fill="url(#paint0_linear_12457_1968)"/>
<path d="M10.1702 18H9.63201C8.698 17.9566 7.76743 17.7757 6.89918 17.4238C5.0887 16.7074 3.56077 15.3105 2.68123 13.5738C2.12214 12.4854 1.82619 11.2678 1.8 10.0456V9.75539C1.82584 8.54888 2.11383 7.34722 2.65938 6.26946C3.19066 5.208 3.96138 4.268 4.89377 3.53355C5.84776 2.78115 6.97355 2.24733 8.16096 1.98888C8.64323 1.88008 9.13618 1.82946 9.62885 1.8H10.1676C10.8135 1.83416 11.4579 1.92118 12.0807 2.09867C13.5887 2.51661 14.9656 3.3877 15.994 4.56658C16.7173 5.38955 17.2694 6.36258 17.607 7.40506C17.8541 8.16318 17.98 8.95835 18 9.75504V10.0446C17.9712 11.5235 17.5362 12.9928 16.7388 14.2398C15.8934 15.5722 14.6515 16.6501 13.2096 17.2928C12.2556 17.7266 11.2153 17.9528 10.1702 18ZM11.7165 16.2721C12.2297 15.6272 12.5648 14.8628 12.8368 14.0902C12.455 13.9943 12.063 13.9525 11.6744 13.8939C11.1926 13.8443 10.7094 13.8003 10.2243 13.7966C10.2247 14.9714 10.224 16.1461 10.2247 17.3213C10.8413 17.1913 11.3371 16.755 11.7165 16.2721ZM9.57574 13.7968C8.92012 13.8086 8.26479 13.863 7.61714 13.968C7.39692 13.9962 7.17859 14.0373 6.96315 14.0908C7.28141 14.9951 7.6915 15.8956 8.36419 16.5942C8.69295 16.9388 9.10291 17.2213 9.57472 17.3213C9.57663 16.1464 9.57498 14.9716 9.57574 13.7968ZM12.3566 16.9359C13.5019 16.5366 14.5468 15.8516 15.3691 14.9597C14.7676 14.642 14.1231 14.4072 13.465 14.2385C13.1213 15.2744 12.6391 16.299 11.8623 17.0827C12.0313 17.0495 12.1936 16.9907 12.3566 16.9359ZM7.94084 17.0875C7.77917 16.9384 7.64913 16.7603 7.50798 16.593C6.9786 15.8858 6.60837 15.0726 6.33348 14.2366C5.67573 14.4082 5.03305 14.6442 4.42903 14.9577C5.36939 15.9769 6.59961 16.7306 7.94084 17.0875ZM15.801 14.4531C16.7319 13.2448 17.2843 11.7488 17.3435 10.2233C16.2639 10.2252 15.1843 10.224 14.1048 10.224C14.0839 11.3669 13.9373 12.5084 13.6498 13.6153C14.3956 13.8114 15.1236 14.0836 15.801 14.4531ZM6.15031 13.6153C5.86269 12.5084 5.7162 11.3669 5.6956 10.2243C4.61537 10.2246 3.53521 10.2243 2.45499 10.2243C2.51851 11.7494 3.06684 13.2463 4.00034 14.4537C4.6761 14.0817 5.40579 13.8133 6.15031 13.6153ZM13.4574 10.2269C12.3797 10.2212 11.302 10.2259 10.2244 10.2243V13.1489C11.1625 13.1662 12.1013 13.2637 13.0185 13.4646C13.2973 12.4087 13.4334 11.3178 13.4574 10.2269ZM9.57574 13.1491C9.57574 12.174 9.57574 11.1991 9.57537 10.2243C8.49766 10.2262 7.42005 10.2208 6.34236 10.2271C6.36666 11.3182 6.50276 12.4091 6.78155 13.4652C7.69845 13.2631 8.63755 13.1666 9.57574 13.1491ZM17.3441 9.57603C17.2834 8.05058 16.7321 6.55462 15.8007 5.34629C15.1239 5.71681 14.3949 5.98728 13.6498 6.18472C13.9377 7.29148 14.0829 8.43339 14.1054 9.57603C15.1849 9.57541 16.2645 9.57541 17.3441 9.57603ZM13.457 9.5735C13.433 8.4822 13.2986 7.38989 13.017 6.3341C12.1009 6.53852 11.1618 6.63277 10.2247 6.65087C10.2243 7.62567 10.2243 8.60086 10.2243 9.57567C11.302 9.57413 12.3797 9.57855 13.457 9.5735ZM9.57574 9.57566V6.65112C8.63692 6.63405 7.69812 6.53536 6.78053 6.33566C6.50592 7.39342 6.36068 8.48473 6.3464 9.57731C7.42284 9.5735 8.49928 9.57655 9.57574 9.57566ZM5.69588 9.57566C5.71483 8.43313 5.86332 7.29159 6.14996 6.18473C5.40514 5.98828 4.67644 5.7177 3.99996 5.34655C3.0666 6.55369 2.5185 8.05058 2.45498 9.57539C3.53521 9.57603 4.61574 9.57541 5.69588 9.57566ZM12.8362 5.71136C12.5208 4.80488 12.1076 3.9038 11.4345 3.20452C11.1062 2.86058 10.6961 2.57834 10.2247 2.47902C10.2237 3.65348 10.2247 4.82826 10.2243 6.00308C11.1011 5.98574 11.9785 5.89645 12.8362 5.71136ZM9.57574 6.00345C9.57537 4.82864 9.57636 3.65348 9.575 2.4787C8.95971 2.60872 8.46416 3.0435 8.08542 3.52572C7.57124 4.17149 7.23399 4.93684 6.96343 5.71138C7.3567 5.80637 7.75894 5.85219 8.15851 5.91011C8.62995 5.95599 9.10174 6.00055 9.57574 6.00345ZM15.3703 4.84194C14.4303 3.82348 13.2007 3.0688 11.8598 2.71346C12.6366 3.49912 13.1217 4.52364 13.4647 5.56171C14.1244 5.39536 14.7657 5.15361 15.3703 4.84194ZM6.33412 5.56235C6.67932 4.52364 7.16338 3.49784 7.94182 2.7112C6.60178 3.06969 5.37128 3.82147 4.4309 4.84029C5.03178 5.15859 5.67662 5.39155 6.33412 5.56235Z" fill="white" fill-opacity="0.5"/>
<path d="M11.7148 11.5807C14.2732 11.7234 14.2133 9.09439 15.9941 8.77697C14.612 9.41145 14.931 13.6512 10.2264 13.6512C5.89391 13.6512 6.63814 7.77188 3.02332 7.38218C8.23291 5.90138 8.87082 11.422 11.7148 11.5807Z" fill="url(#paint1_linear_12457_1968)"/>
<path fill-rule="evenodd" clip-rule="evenodd" d="M16.2923 8.68373C16.2453 8.53362 16.0941 8.44183 15.9393 8.46943C15.4119 8.56343 15.0264 8.83024 14.7114 9.14976C14.4877 9.37661 14.2849 9.64766 14.0947 9.9017C14.0281 9.9907 13.963 10.0776 13.8992 10.1598C13.6416 10.4915 13.3821 10.7794 13.0504 10.9803C12.7261 11.1767 12.3134 11.3012 11.7322 11.2688C11.1303 11.2352 10.6249 10.9197 10.1053 10.4236C9.84582 10.1758 9.59136 9.89137 9.32343 9.58605C9.28736 9.54495 9.25104 9.50346 9.21446 9.46167C8.98197 9.19609 8.73876 8.91826 8.48156 8.65032C7.8852 8.02906 7.18937 7.43418 6.28828 7.09845C5.3805 6.76022 4.29485 6.69598 2.93782 7.08171C2.79395 7.1226 2.69922 7.25972 2.71189 7.40876C2.72455 7.5578 2.84106 7.67697 2.98977 7.693C3.7944 7.77974 4.35692 8.1667 4.82467 8.72659C5.24755 9.23277 5.57976 9.86252 5.93466 10.5353C5.98252 10.626 6.03079 10.7175 6.07975 10.8096C6.48249 11.5671 6.92957 12.3579 7.56799 12.9548C8.21963 13.5642 9.06098 13.9638 10.2263 13.9638C11.4515 13.9638 12.373 13.687 13.0833 13.2441C13.7919 12.8022 14.2677 12.209 14.6243 11.6125C14.8718 11.1986 15.0717 10.7633 15.2471 10.3815C15.319 10.2248 15.3868 10.0771 15.4521 9.94362C15.6944 9.44804 15.8926 9.16751 16.1245 9.06109C16.2674 8.99547 16.3393 8.83383 16.2923 8.68373ZM15.1735 9.15282C15.4036 8.97087 15.668 8.83521 15.9941 8.77709C15.7616 8.8838 15.5773 9.09249 15.4091 9.36584C15.2522 9.62074 15.1094 9.93187 14.9546 10.269C14.2886 11.7197 13.4018 13.6513 10.2263 13.6513C7.93049 13.6513 7.06024 12.0003 6.21148 10.3902C5.56957 9.17239 4.93996 7.97795 3.71525 7.53867C3.50343 7.46269 3.27382 7.40931 3.02327 7.3823C3.27225 7.31153 3.51079 7.25675 3.73963 7.21661C6.42181 6.74617 7.77105 8.28735 8.97877 9.66687C9.82396 10.6323 10.5998 11.5186 11.7148 11.5808C13.1676 11.6618 13.7761 10.849 14.3568 10.0733C14.6115 9.7332 14.8607 9.40021 15.1735 9.15282Z" fill="white"/>
<path d="M8.39635 11.5921C5.86611 11.7341 5.92532 9.11942 4.16406 8.80374C5.53101 9.43475 5.21556 13.6513 9.86844 13.6513C14.1533 13.6513 13.4173 7.80414 16.9923 7.41657C11.84 5.94386 11.2091 11.4343 8.39635 11.5921Z" fill="url(#paint2_linear_12457_1968)"/>
<path fill-rule="evenodd" clip-rule="evenodd" d="M3.86603 8.70991C3.91323 8.55995 4.06449 8.4684 4.21925 8.49613C4.74209 8.58985 5.12406 8.85583 5.43577 9.17379C5.65708 9.39953 5.85787 9.66927 6.04595 9.92196C6.11182 10.0104 6.17612 10.0968 6.23921 10.1785C6.49398 10.5084 6.75043 10.7944 7.07789 10.9938C7.39792 11.1887 7.80508 11.3123 8.37889 11.2801C8.9724 11.2468 9.47134 10.934 9.98516 10.4406C10.2417 10.1942 10.4933 9.91146 10.7583 9.6078C10.794 9.56693 10.8299 9.52568 10.8661 9.48412C11.096 9.22 11.3366 8.94363 11.591 8.67711C12.1809 8.05919 12.8695 7.4671 13.7615 7.13287C14.6604 6.79608 15.7353 6.73223 17.0783 7.1161C17.222 7.15717 17.3165 7.29425 17.3038 7.44316C17.291 7.59208 17.1747 7.71114 17.0261 7.72725C16.2319 7.81334 15.6764 8.19735 15.214 8.75394C14.7959 9.2572 14.4674 9.88337 14.1164 10.5525C14.069 10.6427 14.0213 10.7337 13.9729 10.8253C13.5746 11.5786 13.1323 12.3653 12.5006 12.9593C11.8556 13.5658 11.0225 13.9638 9.8685 13.9638C8.65588 13.9638 7.74366 13.6883 7.04046 13.2474C6.33902 12.8075 5.86819 12.2171 5.51547 11.6238C5.27071 11.2122 5.07295 10.7792 4.89951 10.3994C4.82835 10.2436 4.76129 10.0968 4.69675 9.96403C4.45694 9.47081 4.26115 9.19271 4.03314 9.08746C3.89039 9.02156 3.81883 8.85988 3.86603 8.70991ZM4.98274 9.18307C4.75356 8.99926 4.49 8.86214 4.16411 8.80373C4.39554 8.91056 4.57874 9.12017 4.746 9.39468C4.89984 9.64717 5.04018 9.95458 5.19215 10.2874C5.85086 11.7303 6.7279 13.6513 9.8685 13.6513C12.1391 13.6513 12.9998 12.0094 13.8392 10.408C14.4735 9.19796 15.0957 8.01109 16.3048 7.57326C16.5152 7.49707 16.7433 7.44357 16.9924 7.41657C16.7447 7.34578 16.5075 7.29107 16.28 7.25109C13.6299 6.78542 12.2962 8.31734 11.1023 9.68866C10.2664 10.6488 9.49908 11.5302 8.3964 11.5921C6.95952 11.6727 6.35772 10.8644 5.78337 10.0929C5.53347 9.75721 5.28876 9.42851 4.98274 9.18307Z" fill="white"/>
</g>
</g>
<defs>
<linearGradient id="paint0_linear_12457_1968" x1="10.1953" y1="0.371094" x2="10" y2="20.4492" gradientUnits="userSpaceOnUse">
<stop stop-color="#55F8A4"/>
<stop offset="1" stop-color="#CCFFE5"/>
</linearGradient>
<linearGradient id="paint1_linear_12457_1968" x1="10.4969" y1="7.09153" x2="10.4969" y2="13.6839" gradientUnits="userSpaceOnUse">
<stop stop-color="#0070EE"/>
<stop offset="1" stop-color="#6BB6FF"/>
</linearGradient>
<linearGradient id="paint2_linear_12457_1968" x1="10.5782" y1="9.8518" x2="10.5782" y2="13.6358" gradientUnits="userSpaceOnUse">
<stop stop-color="#FF9500"/>
<stop offset="1" stop-color="#FFC500"/>
</linearGradient>
<clipPath id="clip0_12457_1968">
<rect width="20" height="20" rx="10" fill="white"/>
</clipPath>
<clipPath id="clip1_12457_1968">
<rect width="20" height="20" fill="white"/>
</clipPath>
</defs>
</svg>
