<svg width="24" height="24" viewBox="0 0 24 24" fill="none" xmlns="http://www.w3.org/2000/svg">
<path d="M0 12C0 5.37258 5.37258 0 12 0C18.6274 0 24 5.37258 24 12C24 18.6274 18.6274 24 12 24C5.37258 24 0 18.6274 0 12Z" fill="#2935CC"/>
<path fill-rule="evenodd" clip-rule="evenodd" d="M10.0714 9.21373C10.0714 8.14861 10.9349 7.28516 12 7.28516C13.0651 7.28516 13.9286 8.14861 13.9286 9.21373C13.9286 10.2788 13.0651 11.1423 12 11.1423C10.9349 11.1423 10.0714 10.2788 10.0714 9.21373ZM17.5714 10.928C17.5714 10.0996 16.8999 9.42801 16.0714 9.42801C15.243 9.42801 14.5714 10.0996 14.5714 10.928C14.5714 11.7564 15.243 12.428 16.0714 12.428C16.8999 12.428 17.5714 11.7564 17.5714 10.928ZM7.71429 16.2852C7.71429 16.4354 7.74007 16.5797 7.78744 16.7137H6.42857C6.19188 16.7137 6 16.5218 6 16.2852V15.2137C6 14.1486 6.86345 13.2852 7.92857 13.2852C8.0452 13.2852 8.15942 13.2955 8.27034 13.3153C7.91639 13.9388 7.71429 14.6598 7.71429 15.428V16.2852ZM15.4286 16.2852C15.4286 16.5218 15.2367 16.7137 15 16.7137H9C8.76331 16.7137 8.57143 16.5218 8.57143 16.2852V15.428C8.57143 13.5345 10.1065 11.9994 12 11.9994C13.8935 11.9994 15.4286 13.5345 15.4286 15.428V16.2852ZM6.42857 10.928C6.42857 10.0996 7.10014 9.42801 7.92857 9.42801C8.757 9.42801 9.42857 10.0996 9.42857 10.928C9.42857 11.7564 8.757 12.428 7.92857 12.428C7.10014 12.428 6.42857 11.7564 6.42857 10.928ZM16.2857 16.2852C16.2857 16.4354 16.2599 16.5797 16.2125 16.7137H17.5714C17.8081 16.7137 18 16.5218 18 16.2852V15.2137C18 14.1486 17.1365 13.2852 16.0714 13.2852C15.9548 13.2852 15.8406 13.2955 15.7297 13.3153C16.0836 13.9388 16.2857 14.6598 16.2857 15.428V16.2852Z" fill="white"/>
</svg>
