<svg width="20" height="20" viewBox="0 0 20 20" fill="none" xmlns="http://www.w3.org/2000/svg">
<path d="M0 10C0 4.47715 4.47715 0 10 0C15.5228 0 20 4.47715 20 10C20 15.5228 15.5228 20 10 20C4.47715 20 0 15.5228 0 10Z" fill="#2935CC"/>
<path fill-rule="evenodd" clip-rule="evenodd" d="M10.0417 16C12.9826 16 15.0833 14.9503 15.0833 12.6152C15.0833 10.0758 13.8219 8.78957 11.3023 7.52065L12.3921 5.80388C12.4348 5.7211 12.456 5.62872 12.4536 5.53544C12.4511 5.44215 12.4252 5.35102 12.3781 5.27063C12.3311 5.19024 12.2645 5.12322 12.1846 5.0759C12.1048 5.02857 12.0143 5.00249 11.9217 5.0001H8.35903C8.26022 4.99821 8.16275 5.02337 8.07701 5.07289C7.99128 5.12242 7.9205 5.19445 7.87221 5.28131C7.82393 5.36816 7.79996 5.46659 7.80285 5.56609C7.80575 5.6656 7.8354 5.76244 7.88864 5.84631L8.78105 7.52065C6.26061 8.80685 5 10.0931 5 12.6317C5 14.9503 7.10076 16 10.0417 16ZM10.5037 10.7012C9.56278 10.1052 8.32632 10.7287 8.24611 11.8396C8.20483 12.4051 8.49175 12.9441 8.98391 13.2256C8.98763 13.2278 8.99145 13.2298 8.99533 13.2317C9.10891 13.2862 9.23896 13.1974 9.22943 13.0717C9.22452 13.0247 9.22452 12.9768 9.22452 12.9289V12.9289C9.2251 12.0911 9.71672 11.3314 10.4808 10.9877L10.4879 10.9843C10.6003 10.9275 10.6091 10.7702 10.5037 10.7012ZM12.089 14.2047C11.1069 14.7717 9.87925 14.0629 9.87925 12.9289C9.87925 12.1153 10.5388 11.4558 11.3524 11.4558C11.611 11.4558 11.865 11.5239 12.089 11.6532C13.071 12.2202 13.071 13.6377 12.089 14.2047Z" fill="white"/>
</svg>
