<svg width="20" height="20" viewBox="0 0 20 20" fill="none" xmlns="http://www.w3.org/2000/svg">
<path d="M0 10C0 4.47715 4.47715 0 10 0C15.5228 0 20 4.47715 20 10C20 15.5228 15.5228 20 10 20C4.47715 20 0 15.5228 0 10Z" fill="#2935CC"/>
<g clip-path="url(#clip0_34101_16979)">
<path fill-rule="evenodd" clip-rule="evenodd" d="M8.28571 9.14314C9.46918 9.14314 10.4286 8.18374 10.4286 7.00028C10.4286 5.81681 9.46918 4.85742 8.28571 4.85742C7.10225 4.85742 6.14286 5.81681 6.14286 7.00028C6.14286 8.18374 7.10225 9.14314 8.28571 9.14314ZM8.28571 10.0003C5.91878 10.0003 4 11.9191 4 14.286V14.7146C4 14.9512 4.19188 15.1431 4.42857 15.1431H12.1429C12.3795 15.1431 12.5714 14.9512 12.5714 14.7146V14.286C12.5714 11.9191 10.6526 10.0003 8.28571 10.0003ZM15.5714 15.1431H13.5807C13.6211 15.0074 13.6429 14.8635 13.6429 14.7146V14.286C13.6429 12.5365 12.8042 10.9829 11.507 10.0052C11.5757 10.0019 11.6448 10.0003 11.7143 10.0003C14.0812 10.0003 16 11.9191 16 14.286V14.7146C16 14.9512 15.8081 15.1431 15.5714 15.1431ZM11.7143 9.14314C11.4016 9.14314 11.1046 9.07619 10.8368 8.95585C11.2527 8.41409 11.5 7.73606 11.5 7.00028C11.5 6.2645 11.2527 5.58646 10.8368 5.04471C11.1046 4.92436 11.4016 4.85742 11.7143 4.85742C12.8977 4.85742 13.8571 5.81681 13.8571 7.00028C13.8571 8.18374 12.8977 9.14314 11.7143 9.14314Z" fill="white"/>
</g>
<defs>
<clipPath id="clip0_34101_16979">
<rect width="12" height="12" fill="white" transform="translate(4 4)"/>
</clipPath>
</defs>
</svg>
