<svg width="40" height="41" viewBox="0 0 40 41" fill="none" xmlns="http://www.w3.org/2000/svg">
<path d="M20 1.00293C30.7696 1.00293 39.5 9.73338 39.5 20.5029C39.5 31.2725 30.7696 40.0029 20 40.0029C9.23045 40.0029 0.5 31.2725 0.5 20.5029C0.5 9.73338 9.23045 1.00293 20 1.00293Z" fill="#B676FF"/>
<path d="M20 1.00293C30.7696 1.00293 39.5 9.73338 39.5 20.5029C39.5 31.2725 30.7696 40.0029 20 40.0029C9.23045 40.0029 0.5 31.2725 0.5 20.5029C0.5 9.73338 9.23045 1.00293 20 1.00293Z" stroke="#B676FF"/>
<path d="M20.2412 14.9199C20.5662 14.5868 21.0915 14.5867 21.4248 14.9189L26.4248 19.915C26.6313 20.1162 26.7056 20.4049 26.6494 20.6719C26.6411 20.7129 26.6284 20.7523 26.6143 20.791C26.6106 20.8008 26.6075 20.8107 26.6035 20.8203C26.5463 20.9598 26.4527 21.08 26.334 21.1699L21.416 26.0859C21.2577 26.2357 21.0407 26.3271 20.8242 26.3271L20.833 26.3359C20.608 26.3359 20.3912 26.2446 20.2412 26.0947C19.9079 25.77 19.9084 25.2369 20.2334 24.9121V24.9043L23.7998 21.3398H14.167C13.7003 21.3398 13.333 20.9648 13.333 20.5068C13.3332 20.0407 13.7004 19.6748 14.167 19.6748H23.8174L20.2422 16.1016C19.909 15.7685 19.9089 15.2447 20.2412 14.9199Z" fill="white"/>
</svg>
