<svg width="25" height="24" viewBox="0 0 25 24" fill="none" xmlns="http://www.w3.org/2000/svg">
<path fill-rule="evenodd" clip-rule="evenodd" d="M17.0803 11.0119L14.7902 8.72653V8.71654C14.3902 8.31735 14.3902 7.68861 14.7902 7.2994C15.1802 6.9002 15.8102 6.9002 16.2102 7.2994L20.2102 11.2914C20.4461 11.5207 20.5393 11.8449 20.4899 12.1515C20.4516 12.418 20.3066 12.6515 20.1 12.807L16.1995 16.6996C16.0095 16.8792 15.7495 16.989 15.4895 16.989L15.4995 17C15.2295 17 14.9695 16.8902 14.7895 16.7106C14.3895 16.3214 14.3895 15.6827 14.7795 15.2934V15.2835L17.0596 13.0079H5.5C4.94 13.0079 4.5 12.5588 4.5 12.0099C4.5 11.4511 4.94 11.0119 5.5 11.0119H17.0803Z" fill="white"/>
</svg>
