<svg width="56" height="56" viewBox="0 0 56 56" fill="none" xmlns="http://www.w3.org/2000/svg">
<g clip-path="url(#clip0_13908_10118)">
<g clip-path="url(#clip1_13908_10118)">
<path d="M51.3998 22.7021C53.0832 22.7021 54.703 23.3452 55.9278 24.5001C57.1526 25.655 57.8898 27.2342 57.9885 28.9147L57.9995 29.3019V33.2992C57.9946 33.8934 57.8344 34.4759 57.535 34.9891C57.2356 35.5024 56.8072 35.9284 56.2924 36.2251L56.057 36.3527C55.3453 36.7021 54.7411 37.2372 54.3085 37.9017C53.8759 38.5661 53.6309 39.3351 53.5993 40.1273C53.5677 40.9196 53.7509 41.7056 54.1293 42.4023C54.5077 43.0991 55.0673 43.6806 55.749 44.0855L56.057 44.2504C57.0096 44.7212 57.861 45.6936 57.9841 46.9784L57.9995 47.3039V51.3012C57.9996 52.9846 57.3565 54.6044 56.2016 55.8292C55.0467 57.054 53.4675 57.7912 51.7869 57.89L51.3998 57.901H20.6008C18.9174 57.9011 17.2975 57.2579 16.0727 56.103C14.8479 54.9482 14.1107 53.3689 14.012 51.6884L14.001 51.3012V47.3039C14.001 45.9708 14.7754 44.9324 15.7081 44.378L15.9435 44.2504C16.6553 43.9011 17.2594 43.3659 17.692 42.7015C18.1246 42.0371 18.3697 41.2681 18.4012 40.4758C18.4328 39.6836 18.2497 38.8976 17.8713 38.2008C17.4929 37.5041 16.9332 36.9226 16.2515 36.5177L15.9435 36.3527C14.9909 35.8819 14.1396 34.9096 14.0164 33.6248L14.001 33.3014V29.3019C14.0009 27.6185 14.6441 25.9987 15.7989 24.7739C16.9538 23.5491 18.5331 22.8119 20.2136 22.7131L20.6008 22.7021H51.3998ZM31.6004 33.7018C31.0169 33.7018 30.4574 33.9336 30.0448 34.3461C29.6323 34.7587 29.4005 35.3183 29.4005 35.9017V44.7014C29.4005 45.2849 29.6323 45.8445 30.0448 46.257C30.4574 46.6696 31.0169 46.9014 31.6004 46.9014C32.1839 46.9014 32.7434 46.6696 33.156 46.257C33.5686 45.8445 33.8003 45.2849 33.8003 44.7014V35.9017C33.8003 35.3183 33.5686 34.7587 33.156 34.3461C32.7434 33.9336 32.1839 33.7018 31.6004 33.7018Z" fill="url(#paint0_linear_13908_10118)" fill-opacity="0.5"/>
</g>
</g>
<defs>
<linearGradient id="paint0_linear_13908_10118" x1="36.0003" y1="22.7021" x2="36.0003" y2="57.901" gradientUnits="userSpaceOnUse">
<stop stop-color="white"/>
<stop offset="1" stop-color="white" stop-opacity="0"/>
</linearGradient>
<clipPath id="clip0_13908_10118">
<rect width="56" height="56" fill="white"/>
</clipPath>
<clipPath id="clip1_13908_10118">
<rect width="44" height="44" fill="white" transform="translate(14 19)"/>
</clipPath>
</defs>
</svg>
