<svg width="40" height="40" viewBox="0 0 40 40" fill="none" xmlns="http://www.w3.org/2000/svg">
<path d="M0 20C0 8.95431 8.95431 0 20 0C31.0457 0 40 8.95431 40 20C40 31.0457 31.0457 40 20 40C8.95431 40 0 31.0457 0 20Z" fill="#B676FF"/>
<path fill-rule="evenodd" clip-rule="evenodd" d="M16.7587 13H23.2413C24.0463 13 24.7106 13 25.2518 13.0442C25.8139 13.0901 26.3306 13.1887 26.816 13.436C27.5686 13.8195 28.1805 14.4314 28.564 15.184C28.8113 15.6694 28.9099 16.1861 28.9558 16.7482C29 17.2894 29 17.9537 29 18.7587V23.2413C29 24.0463 29 24.7106 28.9558 25.2518C28.9099 25.8139 28.8113 26.3306 28.564 26.816C28.1805 27.5686 27.5686 28.1805 26.816 28.564C26.3306 28.8113 25.8139 28.9099 25.2518 28.9558C24.7106 29 24.0463 29 23.2413 29H16.7587C15.9537 29 15.2894 29 14.7482 28.9558C14.1861 28.9099 13.6694 28.8113 13.184 28.564C12.4314 28.1805 11.8195 27.5686 11.436 26.816C11.1887 26.3306 11.0901 25.8139 11.0442 25.2518C11 24.7106 11 24.0463 11 23.2413V18.7587C11 17.9537 11 17.2894 11.0442 16.7482C11.0901 16.1861 11.1887 15.6694 11.436 15.184C11.8195 14.4314 12.4314 13.8195 13.184 13.436C13.6694 13.1887 14.1861 13.0901 14.7482 13.0442C15.2894 13 15.9537 13 16.7587 13ZM14.911 15.0376C14.4726 15.0734 14.2484 15.1383 14.092 15.218C13.7157 15.4097 13.4097 15.7157 13.218 16.092C13.1383 16.2484 13.0734 16.4726 13.0376 16.911C13.0008 17.3611 13 17.9434 13 18.8V23.2C13 24.0566 13.0008 24.6389 13.0376 25.089C13.0734 25.5274 13.1383 25.7516 13.218 25.908C13.4097 26.2843 13.7157 26.5903 14.092 26.782C14.2484 26.8617 14.4726 26.9266 14.911 26.9624C15.3611 26.9992 15.9434 27 16.8 27H23.2C24.0566 27 24.6389 26.9992 25.089 26.9624C25.5274 26.9266 25.7516 26.8617 25.908 26.782C26.2843 26.5903 26.5903 26.2843 26.782 25.908C26.8617 25.7516 26.9266 25.5274 26.9624 25.089C26.9992 24.6389 27 24.0566 27 23.2V18.8C27 17.9434 26.9992 17.3611 26.9624 16.911C26.9266 16.4726 26.8617 16.2484 26.782 16.092C26.5903 15.7157 26.2843 15.4097 25.908 15.218C25.7516 15.1383 25.5274 15.0734 25.089 15.0376C24.6389 15.0008 24.0566 15 23.2 15H16.8C15.9434 15 15.3611 15.0008 14.911 15.0376Z" fill="white"/>
<path fill-rule="evenodd" clip-rule="evenodd" d="M23.7071 18.2909C24.0976 18.6815 24.0976 19.3146 23.7071 19.7052L19.7071 23.7052C19.3166 24.0957 18.6834 24.0957 18.2929 23.7052L16.2929 21.7052C15.9024 21.3146 15.9024 20.6815 16.2929 20.2909C16.6834 19.9004 17.3166 19.9004 17.7071 20.2909L19 21.5838L22.2929 18.2909C22.6834 17.9004 23.3166 17.9004 23.7071 18.2909Z" fill="white"/>
<path d="M17 12C17 11.4477 16.5523 11 16 11C15.4477 11 15 11.4477 15 12V14C15 14.5523 15.4477 15 16 15C16.5523 15 17 14.5523 17 14V12Z" fill="white"/>
<path d="M25 12C25 11.4477 24.5523 11 24 11C23.4477 11 23 11.4477 23 12V14C23 14.5523 23.4477 15 24 15C24.5523 15 25 14.5523 25 14V12Z" fill="white"/>
</svg>
