<svg width="16" height="16" viewBox="0 0 16 16" fill="none" xmlns="http://www.w3.org/2000/svg">
<path fill-rule="evenodd" clip-rule="evenodd" d="M11.3299 3.88248C11.2691 2.83261 10.3985 2 9.33333 2H4L3.88248 2.0034C2.83261 2.06423 2 2.93488 2 4V9.33333L2.0034 9.45085C2.06423 10.5007 2.93488 11.3333 4 11.3333H4.66667V12C4.66667 13.1046 5.5621 14 6.66667 14H12C13.1046 14 14 13.1046 14 12V6.66667C14 5.5621 13.1046 4.66667 12 4.66667H11.3333V4L11.3299 3.88248ZM10 4.66667V4C10 3.65811 9.74264 3.37633 9.41108 3.33782L9.33333 3.33333H4C3.65811 3.33333 3.37633 3.59069 3.33782 3.92225L3.33333 4V9.33333C3.33333 9.67522 3.59069 9.957 3.92225 9.99551L4 10H4.66667V6.66667C4.66667 5.5621 5.5621 4.66667 6.66667 4.66667H10ZM6 10.6667L6 12C6 12.3682 6.29848 12.6667 6.66667 12.6667H12C12.3682 12.6667 12.6667 12.3682 12.6667 12V6.66667C12.6667 6.29848 12.3682 6 12 6L10.6667 6L6.66667 6C6.29848 6 6 6.29848 6 6.66667L6 10.6667Z" fill="white"/>
</svg>
