<svg width="24" height="24" viewBox="0 0 24 24" fill="none" xmlns="http://www.w3.org/2000/svg">
<path d="M3 14.5C3 18.0899 5.91015 21 9.5 21C13.0899 21 16 18.0899 16 14.5C16 10.9101 13.0899 8 9.5 8C5.91015 8 3 10.9101 3 14.5Z" fill="#2935CC"/>
<path d="M9.28958 5.61288C9.16776 5.7759 9.2962 6 9.49971 6C14.1941 6 17.9997 9.80558 17.9997 14.5C17.9997 14.7035 18.2238 14.8319 18.3868 14.7101C19.9729 13.5249 20.9997 11.6323 20.9997 9.5C20.9997 5.91015 18.0896 3 14.4997 3C12.3674 3 10.4748 4.02678 9.28958 5.61288Z" fill="#2935CC"/>
</svg>
