<svg width="16" height="16" viewBox="0 0 16 16" fill="none" xmlns="http://www.w3.org/2000/svg">
<path fill-rule="evenodd" clip-rule="evenodd" d="M7.99999 3.99984C4.76317 3.99984 3.25987 6.51489 2.73122 7.70212C2.64602 7.89347 2.64602 8.1062 2.73122 8.29755C3.25988 9.48478 4.76317 11.9998 7.99999 11.9998C11.2369 11.9998 12.74 9.48468 13.2686 8.2975C13.3537 8.10618 13.3537 7.8935 13.2686 7.70218C12.74 6.51499 11.2369 3.99984 7.99999 3.99984ZM1.51318 7.15975C2.09274 5.85821 3.92749 2.6665 7.99999 2.6665C12.0726 2.6665 13.9072 5.85838 14.4866 7.15987C14.7255 7.6964 14.7255 8.30328 14.4866 8.8398C13.9072 10.1413 12.0726 13.3332 7.99999 13.3332C3.92749 13.3332 2.09274 10.1415 1.51319 8.83992C1.27425 8.30333 1.27425 7.69634 1.51318 7.15975Z" fill="#252C2F"/>
<path fill-rule="evenodd" clip-rule="evenodd" d="M7.99967 5.3335C6.52692 5.3335 5.33301 6.5274 5.33301 8.00016C5.33301 9.47292 6.52692 10.6668 7.99967 10.6668C9.47243 10.6668 10.6663 9.47292 10.6663 8.00016C10.6663 6.5274 9.47243 5.3335 7.99967 5.3335ZM7.94319 6.668C7.96192 6.66722 7.98075 6.66683 7.99967 6.66683C8.73605 6.66683 9.33301 7.26378 9.33301 8.00016C9.33301 8.73654 8.73605 9.3335 7.99967 9.3335C7.26329 9.3335 6.66634 8.73654 6.66634 8.00016C6.66634 7.98124 6.66674 7.96241 6.66752 7.94367C6.77144 7.98026 6.88324 8.00016 6.99967 8.00016C7.55196 8.00016 7.99967 7.55245 7.99967 7.00016C7.99967 6.88372 7.97977 6.77193 7.94319 6.668Z" fill="#252C2F"/>
</svg>
