<svg width="16" height="16" viewBox="0 0 16 16" fill="none" xmlns="http://www.w3.org/2000/svg">
<path fill-rule="evenodd" clip-rule="evenodd" d="M1.52892 1.52876C1.76924 1.28844 2.1474 1.26995 2.40893 1.4733L2.47173 1.52876L11.9892 11.0462C12.026 11.0758 12.0601 11.1097 12.0907 11.1477L14.4717 13.5288C14.7321 13.7891 14.7321 14.2112 14.4717 14.4716C14.2314 14.7119 13.8533 14.7304 13.5917 14.527L13.5289 14.4716L11.471 12.4137C10.4017 13.0256 9.24186 13.3335 8.00033 13.3335C5.06992 13.3335 2.64264 11.6344 0.754838 8.33094C0.637697 8.12595 0.637711 7.8743 0.754875 7.66932C1.54881 6.28038 2.43547 5.17618 3.41838 4.36103L1.52892 2.47157C1.26857 2.21122 1.26857 1.78911 1.52892 1.52876ZM4.36606 5.30871C3.60657 5.91674 2.89757 6.74017 2.24146 7.78229L2.10766 8.00016L2.18605 8.12956C3.75367 10.6625 5.61733 11.9269 7.80633 11.9971L8.00033 12.0002C8.8843 12.0002 9.70992 11.8105 10.4857 11.4283L8.86345 9.8061C8.11939 10.1624 7.20066 10.0321 6.58439 9.41543C5.96847 8.79907 5.83864 7.88095 6.19472 7.13736L4.36606 5.30871ZM7.49266 8.43531L7.56551 8.50816C7.55251 8.497 7.53984 8.48527 7.52753 8.47295C7.51534 8.46075 7.50372 8.44819 7.49266 8.43531ZM8.00003 2.66679C10.9304 2.66679 13.3577 4.36589 15.2455 7.66939C15.3627 7.87438 15.3626 8.12604 15.2455 8.33101C14.7022 9.28132 14.1169 10.0971 13.4876 10.778C13.2377 11.0484 12.8159 11.065 12.5455 10.8151C12.2751 10.5652 12.2585 10.1434 12.5085 9.87299C12.942 9.40392 13.357 8.8555 13.7531 8.22731L13.8927 8.00016L13.8143 7.87076C12.2467 5.33783 10.3829 4.0734 8.19189 4.00321L7.99772 4.00012C7.46593 3.99827 6.93659 4.07155 6.42539 4.21779C6.0714 4.31905 5.70234 4.11418 5.60108 3.76018C5.49981 3.40619 5.70469 3.03714 6.05868 2.93587C6.69063 2.75509 7.34499 2.66451 8.00003 2.66679Z" fill="#252C2F"/>
</svg>
