<svg width="56" height="56" viewBox="0 0 56 56" fill="none" xmlns="http://www.w3.org/2000/svg">
<g clip-path="url(#clip0_34110_15831)">
<path d="M33 19C45.7024 19 56 29.2975 56 42C56 54.7027 45.7024 65 33 65C20.2975 65 10 54.7027 10 42C10 29.2975 20.2974 19 33 19ZM26 35L29.9854 43.0352H26.7236V45.459H30.7969V46.3223H26.7236V48.7461H30.7969V52H36.0127V48.7461H39.5918V46.3223H36.0127V45.459H39.5918V43.0352H36.9854L41 35H35.708L33.5059 40.207L31.292 35H26Z" fill="url(#paint0_linear_34110_15831)" fill-opacity="0.5"/>
</g>
<defs>
<linearGradient id="paint0_linear_34110_15831" x1="33" y1="19" x2="33" y2="65" gradientUnits="userSpaceOnUse">
<stop stop-color="white"/>
<stop offset="1" stop-color="white" stop-opacity="0"/>
</linearGradient>
<clipPath id="clip0_34110_15831">
<rect width="56" height="56" fill="white"/>
</clipPath>
</defs>
</svg>
