<svg width="17" height="20" viewBox="0 0 17 20" fill="none" xmlns="http://www.w3.org/2000/svg">
<path fill-rule="evenodd" clip-rule="evenodd" d="M8.5 19.273C13.4582 19.273 17 17.5032 17 13.5663C17 9.28503 14.8734 7.11656 10.6253 4.97723L12.4626 2.08284C12.5348 1.94328 12.5704 1.78754 12.5663 1.63026C12.5622 1.47298 12.5185 1.31935 12.4391 1.18381C12.3598 1.04827 12.2476 0.93529 12.1129 0.855499C11.9783 0.775707 11.8257 0.73173 11.6696 0.727706H5.66316C5.49656 0.724523 5.33223 0.766941 5.18769 0.850435C5.04315 0.933929 4.92381 1.05537 4.84241 1.20181C4.76101 1.34825 4.72059 1.51419 4.72547 1.68195C4.73035 1.8497 4.78034 2.01298 4.87011 2.15437L6.37467 4.97723C2.12533 7.1457 0 9.31418 0 13.5942C0 17.5032 3.54178 19.273 8.5 19.273ZM8.24429 8.80647C6.34069 7.60072 3.83915 8.86215 3.67689 11.1096C3.59337 12.2537 4.17384 13.3441 5.16955 13.9137C5.17709 13.918 5.1848 13.9221 5.19267 13.9259C5.42244 14.0363 5.68556 13.8566 5.66627 13.6024C5.65634 13.5072 5.65634 13.4103 5.65634 13.3135V13.3134C5.65752 11.6184 6.65213 10.0815 8.19793 9.38599C8.20278 9.38383 8.20757 9.38154 8.21231 9.37915C8.43984 9.2642 8.45761 8.94604 8.24429 8.80647ZM11.4515 15.8945C9.46458 17.0417 6.98095 15.6077 6.98095 13.3134C6.98095 11.6674 8.3153 10.3331 9.96131 10.3331C10.4845 10.3331 10.9984 10.4708 11.4515 10.7324C13.4384 11.8795 13.4384 14.7474 11.4515 15.8945Z" fill="white"/>
</svg>
