<svg width="64" height="64" viewBox="0 0 64 64" fill="none" xmlns="http://www.w3.org/2000/svg">
<g filter="url(#filter0_i_36819_13370)">
<path d="M0 32C0 14.3269 14.3269 0 32 0C49.6731 0 64 14.3269 64 32C64 49.6731 49.6731 64 32 64C14.3269 64 0 49.6731 0 32Z" fill="#01003E"/>
<g clip-path="url(#clip0_36819_13370)">
<g filter="url(#filter1_i_36819_13370)">
<path d="M31.7949 21C32.8574 21 33.9097 21.2093 34.8913 21.6159C35.8731 22.0225 36.7652 22.6187 37.5166 23.3701C38.268 24.1215 38.8642 25.0137 39.2709 25.9954C39.6774 26.9771 39.8867 28.0293 39.8867 29.0919C39.8867 30.1544 39.6774 31.2067 39.2709 32.1883C38.8966 33.092 38.361 33.9192 37.6923 34.6311C37.7067 34.6411 37.7215 34.6508 37.7358 34.6611C37.7149 34.6572 37.6938 34.6546 37.6727 34.6522C37.6213 34.7065 37.5696 34.7606 37.5166 34.8136C36.7653 35.565 35.873 36.1612 34.8913 36.5679C33.9097 36.9745 32.8574 37.1837 31.7949 37.1837C30.9315 37.1837 30.0747 37.0456 29.2573 36.7756C28.7716 36.7422 28.3389 37.096 28.2853 37.5815C28.2592 37.8206 28.3299 38.0604 28.4817 38.248C28.6336 38.4355 28.8544 38.556 29.0954 38.5823C29.8322 38.6626 30.5169 38.6988 31.1505 38.6988C36.4573 38.6988 38.2434 36.1812 38.3264 36.061C38.3937 35.9624 38.4408 35.8516 38.465 35.7349C38.4892 35.6183 38.4902 35.498 38.4675 35.381C38.4448 35.264 38.3989 35.1526 38.3328 35.0531C38.3235 35.0391 38.3129 35.0259 38.3029 35.0125C40.12 34.6269 42.1305 33.5326 43.0195 35.1975C44.0048 37.0425 41.9599 38.7675 37.4746 41.1773C35.9356 42.0914 34.0498 43.5982 30.2563 42.7497C27.212 42.069 23.0914 40.7063 21.5817 40.1947C21.4113 40.1366 21.2633 40.0263 21.159 39.8796C21.0546 39.7329 20.9989 39.5567 21 39.3767L21.0253 34.8464C21.0265 34.6196 21.1173 34.4023 21.278 34.2423C21.4388 34.0823 21.6567 33.9925 21.8835 33.9925H25.3567C24.9356 33.4393 24.5861 32.8334 24.3189 32.1883C23.9123 31.2066 23.703 30.1544 23.703 29.0919C23.703 28.0293 23.9123 26.9771 24.3189 25.9954C24.7255 25.0137 25.3217 24.1215 26.0731 23.3701C26.8245 22.6188 27.7164 22.0225 28.698 21.6159C29.6798 21.2092 30.7323 21 31.7949 21Z" fill="url(#paint0_linear_36819_13370)"/>
<path d="M31.7949 21C32.8574 21 33.9097 21.2093 34.8913 21.6159C35.8731 22.0225 36.7652 22.6187 37.5166 23.3701C38.268 24.1215 38.8642 25.0137 39.2709 25.9954C39.6774 26.9771 39.8867 28.0293 39.8867 29.0919C39.8867 30.1544 39.6774 31.2067 39.2709 32.1883C38.8966 33.092 38.361 33.9192 37.6923 34.6311C37.7067 34.6411 37.7215 34.6508 37.7358 34.6611C37.7149 34.6572 37.6938 34.6546 37.6727 34.6522C37.6213 34.7065 37.5696 34.7606 37.5166 34.8136C36.7653 35.565 35.873 36.1612 34.8913 36.5679C33.9097 36.9745 32.8574 37.1837 31.7949 37.1837C30.9315 37.1837 30.0747 37.0456 29.2573 36.7756C28.7716 36.7422 28.3389 37.096 28.2853 37.5815C28.2592 37.8206 28.3299 38.0604 28.4817 38.248C28.6336 38.4355 28.8544 38.556 29.0954 38.5823C29.8322 38.6626 30.5169 38.6988 31.1505 38.6988C36.4573 38.6988 38.2434 36.1812 38.3264 36.061C38.3937 35.9624 38.4408 35.8516 38.465 35.7349C38.4892 35.6183 38.4902 35.498 38.4675 35.381C38.4448 35.264 38.3989 35.1526 38.3328 35.0531C38.3235 35.0391 38.3129 35.0259 38.3029 35.0125C40.12 34.6269 42.1305 33.5326 43.0195 35.1975C44.0048 37.0425 41.9599 38.7675 37.4746 41.1773C35.9356 42.0914 34.0498 43.5982 30.2563 42.7497C27.212 42.069 23.0914 40.7063 21.5817 40.1947C21.4113 40.1366 21.2633 40.0263 21.159 39.8796C21.0546 39.7329 20.9989 39.5567 21 39.3767L21.0253 34.8464C21.0265 34.6196 21.1173 34.4023 21.278 34.2423C21.4388 34.0823 21.6567 33.9925 21.8835 33.9925H25.3567C24.9356 33.4393 24.5861 32.8334 24.3189 32.1883C23.9123 31.2066 23.703 30.1544 23.703 29.0919C23.703 28.0293 23.9123 26.9771 24.3189 25.9954C24.7255 25.0137 25.3217 24.1215 26.0731 23.3701C26.8245 22.6188 27.7164 22.0225 28.698 21.6159C29.6798 21.2092 30.7323 21 31.7949 21Z" fill="url(#paint1_radial_36819_13370)"/>
<path d="M31.7949 21C32.8574 21 33.9097 21.2093 34.8913 21.6159C35.8731 22.0225 36.7652 22.6187 37.5166 23.3701C38.268 24.1215 38.8642 25.0137 39.2709 25.9954C39.6774 26.9771 39.8867 28.0293 39.8867 29.0919C39.8867 30.1544 39.6774 31.2067 39.2709 32.1883C38.8966 33.092 38.361 33.9192 37.6923 34.6311C37.7067 34.6411 37.7215 34.6508 37.7358 34.6611C37.7149 34.6572 37.6938 34.6546 37.6727 34.6522C37.6213 34.7065 37.5696 34.7606 37.5166 34.8136C36.7653 35.565 35.873 36.1612 34.8913 36.5679C33.9097 36.9745 32.8574 37.1837 31.7949 37.1837C30.9315 37.1837 30.0747 37.0456 29.2573 36.7756C28.7716 36.7422 28.3389 37.096 28.2853 37.5815C28.2592 37.8206 28.3299 38.0604 28.4817 38.248C28.6336 38.4355 28.8544 38.556 29.0954 38.5823C29.8322 38.6626 30.5169 38.6988 31.1505 38.6988C36.4573 38.6988 38.2434 36.1812 38.3264 36.061C38.3937 35.9624 38.4408 35.8516 38.465 35.7349C38.4892 35.6183 38.4902 35.498 38.4675 35.381C38.4448 35.264 38.3989 35.1526 38.3328 35.0531C38.3235 35.0391 38.3129 35.0259 38.3029 35.0125C40.12 34.6269 42.1305 33.5326 43.0195 35.1975C44.0048 37.0425 41.9599 38.7675 37.4746 41.1773C35.9356 42.0914 34.0498 43.5982 30.2563 42.7497C27.212 42.069 23.0914 40.7063 21.5817 40.1947C21.4113 40.1366 21.2633 40.0263 21.159 39.8796C21.0546 39.7329 20.9989 39.5567 21 39.3767L21.0253 34.8464C21.0265 34.6196 21.1173 34.4023 21.278 34.2423C21.4388 34.0823 21.6567 33.9925 21.8835 33.9925H25.3567C24.9356 33.4393 24.5861 32.8334 24.3189 32.1883C23.9123 31.2066 23.703 30.1544 23.703 29.0919C23.703 28.0293 23.9123 26.9771 24.3189 25.9954C24.7255 25.0137 25.3217 24.1215 26.0731 23.3701C26.8245 22.6188 27.7164 22.0225 28.698 21.6159C29.6798 21.2092 30.7323 21 31.7949 21Z" fill="url(#paint2_radial_36819_13370)"/>
<path d="M31.7949 21C32.8574 21 33.9097 21.2093 34.8913 21.6159C35.8731 22.0225 36.7652 22.6187 37.5166 23.3701C38.268 24.1215 38.8642 25.0137 39.2709 25.9954C39.6774 26.9771 39.8867 28.0293 39.8867 29.0919C39.8867 30.1544 39.6774 31.2067 39.2709 32.1883C38.8966 33.092 38.361 33.9192 37.6923 34.6311C37.7067 34.6411 37.7215 34.6508 37.7358 34.6611C37.7149 34.6572 37.6938 34.6546 37.6727 34.6522C37.6213 34.7065 37.5696 34.7606 37.5166 34.8136C36.7653 35.565 35.873 36.1612 34.8913 36.5679C33.9097 36.9745 32.8574 37.1837 31.7949 37.1837C30.9315 37.1837 30.0747 37.0456 29.2573 36.7756C28.7716 36.7422 28.3389 37.096 28.2853 37.5815C28.2592 37.8206 28.3299 38.0604 28.4817 38.248C28.6336 38.4355 28.8544 38.556 29.0954 38.5823C29.8322 38.6626 30.5169 38.6988 31.1505 38.6988C36.4573 38.6988 38.2434 36.1812 38.3264 36.061C38.3937 35.9624 38.4408 35.8516 38.465 35.7349C38.4892 35.6183 38.4902 35.498 38.4675 35.381C38.4448 35.264 38.3989 35.1526 38.3328 35.0531C38.3235 35.0391 38.3129 35.0259 38.3029 35.0125C40.12 34.6269 42.1305 33.5326 43.0195 35.1975C44.0048 37.0425 41.9599 38.7675 37.4746 41.1773C35.9356 42.0914 34.0498 43.5982 30.2563 42.7497C27.212 42.069 23.0914 40.7063 21.5817 40.1947C21.4113 40.1366 21.2633 40.0263 21.159 39.8796C21.0546 39.7329 20.9989 39.5567 21 39.3767L21.0253 34.8464C21.0265 34.6196 21.1173 34.4023 21.278 34.2423C21.4388 34.0823 21.6567 33.9925 21.8835 33.9925H25.3567C24.9356 33.4393 24.5861 32.8334 24.3189 32.1883C23.9123 31.2066 23.703 30.1544 23.703 29.0919C23.703 28.0293 23.9123 26.9771 24.3189 25.9954C24.7255 25.0137 25.3217 24.1215 26.0731 23.3701C26.8245 22.6188 27.7164 22.0225 28.698 21.6159C29.6798 21.2092 30.7323 21 31.7949 21Z" fill="url(#paint3_radial_36819_13370)"/>
<path d="M31.7949 21C32.8574 21 33.9097 21.2093 34.8913 21.6159C35.8731 22.0225 36.7652 22.6187 37.5166 23.3701C38.268 24.1215 38.8642 25.0137 39.2709 25.9954C39.6774 26.9771 39.8867 28.0293 39.8867 29.0919C39.8867 30.1544 39.6774 31.2067 39.2709 32.1883C38.8966 33.092 38.361 33.9192 37.6923 34.6311C37.7067 34.6411 37.7215 34.6508 37.7358 34.6611C37.7149 34.6572 37.6938 34.6546 37.6727 34.6522C37.6213 34.7065 37.5696 34.7606 37.5166 34.8136C36.7653 35.565 35.873 36.1612 34.8913 36.5679C33.9097 36.9745 32.8574 37.1837 31.7949 37.1837C30.9315 37.1837 30.0747 37.0456 29.2573 36.7756C28.7716 36.7422 28.3389 37.096 28.2853 37.5815C28.2592 37.8206 28.3299 38.0604 28.4817 38.248C28.6336 38.4355 28.8544 38.556 29.0954 38.5823C29.8322 38.6626 30.5169 38.6988 31.1505 38.6988C36.4573 38.6988 38.2434 36.1812 38.3264 36.061C38.3937 35.9624 38.4408 35.8516 38.465 35.7349C38.4892 35.6183 38.4902 35.498 38.4675 35.381C38.4448 35.264 38.3989 35.1526 38.3328 35.0531C38.3235 35.0391 38.3129 35.0259 38.3029 35.0125C40.12 34.6269 42.1305 33.5326 43.0195 35.1975C44.0048 37.0425 41.9599 38.7675 37.4746 41.1773C35.9356 42.0914 34.0498 43.5982 30.2563 42.7497C27.212 42.069 23.0914 40.7063 21.5817 40.1947C21.4113 40.1366 21.2633 40.0263 21.159 39.8796C21.0546 39.7329 20.9989 39.5567 21 39.3767L21.0253 34.8464C21.0265 34.6196 21.1173 34.4023 21.278 34.2423C21.4388 34.0823 21.6567 33.9925 21.8835 33.9925H25.3567C24.9356 33.4393 24.5861 32.8334 24.3189 32.1883C23.9123 31.2066 23.703 30.1544 23.703 29.0919C23.703 28.0293 23.9123 26.9771 24.3189 25.9954C24.7255 25.0137 25.3217 24.1215 26.0731 23.3701C26.8245 22.6188 27.7164 22.0225 28.698 21.6159C29.6798 21.2092 30.7323 21 31.7949 21Z" fill="url(#paint4_radial_36819_13370)" fill-opacity="0.64"/>
<path d="M31.7949 21C32.8574 21 33.9097 21.2093 34.8913 21.6159C35.8731 22.0225 36.7652 22.6187 37.5166 23.3701C38.268 24.1215 38.8642 25.0137 39.2709 25.9954C39.6774 26.9771 39.8867 28.0293 39.8867 29.0919C39.8867 30.1544 39.6774 31.2067 39.2709 32.1883C38.8966 33.092 38.361 33.9192 37.6923 34.6311C37.7067 34.6411 37.7215 34.6508 37.7358 34.6611C37.7149 34.6572 37.6938 34.6546 37.6727 34.6522C37.6213 34.7065 37.5696 34.7606 37.5166 34.8136C36.7653 35.565 35.873 36.1612 34.8913 36.5679C33.9097 36.9745 32.8574 37.1837 31.7949 37.1837C30.9315 37.1837 30.0747 37.0456 29.2573 36.7756C28.7716 36.7422 28.3389 37.096 28.2853 37.5815C28.2592 37.8206 28.3299 38.0604 28.4817 38.248C28.6336 38.4355 28.8544 38.556 29.0954 38.5823C29.8322 38.6626 30.5169 38.6988 31.1505 38.6988C36.4573 38.6988 38.2434 36.1812 38.3264 36.061C38.3937 35.9624 38.4408 35.8516 38.465 35.7349C38.4892 35.6183 38.4902 35.498 38.4675 35.381C38.4448 35.264 38.3989 35.1526 38.3328 35.0531C38.3235 35.0391 38.3129 35.0259 38.3029 35.0125C40.12 34.6269 42.1305 33.5326 43.0195 35.1975C44.0048 37.0425 41.9599 38.7675 37.4746 41.1773C35.9356 42.0914 34.0498 43.5982 30.2563 42.7497C27.212 42.069 23.0914 40.7063 21.5817 40.1947C21.4113 40.1366 21.2633 40.0263 21.159 39.8796C21.0546 39.7329 20.9989 39.5567 21 39.3767L21.0253 34.8464C21.0265 34.6196 21.1173 34.4023 21.278 34.2423C21.4388 34.0823 21.6567 33.9925 21.8835 33.9925H25.3567C24.9356 33.4393 24.5861 32.8334 24.3189 32.1883C23.9123 31.2066 23.703 30.1544 23.703 29.0919C23.703 28.0293 23.9123 26.9771 24.3189 25.9954C24.7255 25.0137 25.3217 24.1215 26.0731 23.3701C26.8245 22.6188 27.7164 22.0225 28.698 21.6159C29.6798 21.2092 30.7323 21 31.7949 21Z" fill="url(#paint5_radial_36819_13370)"/>
</g>
<path d="M31.7949 21C32.8574 21 33.9097 21.2093 34.8913 21.6159C35.8731 22.0225 36.7652 22.6187 37.5166 23.3701C38.268 24.1215 38.8642 25.0137 39.2709 25.9954C39.6774 26.9771 39.8867 28.0293 39.8867 29.0919C39.8867 30.1544 39.6774 31.2067 39.2709 32.1883C38.8966 33.092 38.361 33.9192 37.6923 34.6311C37.7067 34.6411 37.7215 34.6508 37.7358 34.6611C37.7149 34.6572 37.6938 34.6546 37.6727 34.6522C37.6213 34.7065 37.5696 34.7606 37.5166 34.8136C36.7653 35.565 35.873 36.1612 34.8913 36.5679C33.9097 36.9745 32.8574 37.1837 31.7949 37.1837C30.9315 37.1837 30.0747 37.0456 29.2573 36.7756C28.7716 36.7422 28.3389 37.096 28.2853 37.5815C28.2592 37.8206 28.3299 38.0604 28.4817 38.248C28.6336 38.4355 28.8544 38.556 29.0954 38.5823C29.8322 38.6626 30.5169 38.6988 31.1505 38.6988C36.4573 38.6988 38.2434 36.1812 38.3264 36.061C38.3937 35.9624 38.4408 35.8516 38.465 35.7349C38.4892 35.6183 38.4902 35.498 38.4675 35.381C38.4448 35.264 38.3989 35.1526 38.3328 35.0531C38.3235 35.0391 38.3129 35.0259 38.3029 35.0125C40.12 34.6269 42.1305 33.5326 43.0195 35.1975C44.0048 37.0425 41.9599 38.7675 37.4746 41.1773C35.9356 42.0914 34.0498 43.5982 30.2563 42.7497C27.212 42.069 23.0914 40.7063 21.5817 40.1947C21.4113 40.1366 21.2633 40.0263 21.159 39.8796C21.0546 39.7329 20.9989 39.5567 21 39.3767L21.0253 34.8464C21.0265 34.6196 21.1173 34.4023 21.278 34.2423C21.4388 34.0823 21.6567 33.9925 21.8835 33.9925H25.3567C24.9356 33.4393 24.5861 32.8334 24.3189 32.1883C23.9123 31.2066 23.703 30.1544 23.703 29.0919C23.703 28.0293 23.9123 26.9771 24.3189 25.9954C24.7255 25.0137 25.3217 24.1215 26.0731 23.3701C26.8245 22.6188 27.7164 22.0225 28.698 21.6159C29.6798 21.2092 30.7323 21 31.7949 21Z" stroke="url(#paint6_linear_36819_13370)" stroke-width="0.729921" stroke-linejoin="round"/>
<path d="M33.5823 26.1451C33.4873 26.1489 33.3939 26.1713 33.3076 26.2112C33.2212 26.2511 33.1436 26.3078 33.0791 26.3777L31.926 27.6265L30.8166 26.4137C30.546 26.1188 30.0882 26.0991 29.794 26.3687C29.499 26.6384 29.479 27.0962 29.7487 27.3912L30.3896 28.0908H30.1226C29.7226 28.0908 29.3985 28.4149 29.3984 28.8149C29.3985 29.2148 29.7226 29.5387 30.1226 29.5387H31.2038V29.9949H30.1226C29.7226 29.9949 29.3985 30.3188 29.3984 30.7188C29.3984 31.1188 29.7226 31.4429 30.1226 31.4429H31.2038V31.9451C31.2038 32.3451 31.528 32.669 31.928 32.669C32.3279 32.6689 32.6518 32.3451 32.6518 31.9451V31.4429H33.7333C34.1333 31.4429 34.4575 31.1188 34.4575 30.7188C34.4574 30.3189 34.1332 29.996 33.7333 29.9959H32.6518V29.5397H33.7333C34.1333 29.5397 34.4575 29.2155 34.4575 28.8156C34.4574 28.4157 34.1332 28.0918 33.7333 28.0917H33.4673L34.1435 27.3595C34.4148 27.0654 34.3967 26.6075 34.1027 26.3369C34.0328 26.2724 33.9509 26.2221 33.8616 26.1892C33.7724 26.1563 33.6774 26.1413 33.5823 26.1451Z" fill="#030346"/>
</g>
</g>
<defs>
<filter id="filter0_i_36819_13370" x="0" y="0" width="64" height="64" filterUnits="userSpaceOnUse" color-interpolation-filters="sRGB">
<feFlood flood-opacity="0" result="BackgroundImageFix"/>
<feBlend mode="normal" in="SourceGraphic" in2="BackgroundImageFix" result="shape"/>
<feColorMatrix in="SourceAlpha" type="matrix" values="0 0 0 0 0 0 0 0 0 0 0 0 0 0 0 0 0 0 127 0" result="hardAlpha"/>
<feOffset/>
<feGaussianBlur stdDeviation="7.8"/>
<feComposite in2="hardAlpha" operator="arithmetic" k2="-1" k3="1"/>
<feColorMatrix type="matrix" values="0 0 0 0 0.2306 0 0 0 0 0.311979 0 0 0 0 1 0 0 0 1 0"/>
<feBlend mode="normal" in2="shape" result="effect1_innerShadow_36819_13370"/>
</filter>
<filter id="filter1_i_36819_13370" x="20.6367" y="19.1749" width="22.9922" height="24.1903" filterUnits="userSpaceOnUse" color-interpolation-filters="sRGB">
<feFlood flood-opacity="0" result="BackgroundImageFix"/>
<feBlend mode="normal" in="SourceGraphic" in2="BackgroundImageFix" result="shape"/>
<feColorMatrix in="SourceAlpha" type="matrix" values="0 0 0 0 0 0 0 0 0 0 0 0 0 0 0 0 0 0 127 0" result="hardAlpha"/>
<feOffset dy="-1.45984"/>
<feGaussianBlur stdDeviation="1.18612"/>
<feComposite in2="hardAlpha" operator="arithmetic" k2="-1" k3="1"/>
<feColorMatrix type="matrix" values="0 0 0 0 1 0 0 0 0 0.97829 0 0 0 0 0.891451 0 0 0 0.82 0"/>
<feBlend mode="normal" in2="shape" result="effect1_innerShadow_36819_13370"/>
</filter>
<linearGradient id="paint0_linear_36819_13370" x1="41.9852" y1="35.9634" x2="21.1411" y2="34.5003" gradientUnits="userSpaceOnUse">
<stop offset="0.0288461" stop-color="#6D4BD9"/>
<stop offset="1" stop-color="#B875DE"/>
</linearGradient>
<radialGradient id="paint1_radial_36819_13370" cx="0" cy="0" r="1" gradientTransform="matrix(-3.11674 11.1803 12.6898 5.22233 35.3964 21)" gradientUnits="userSpaceOnUse">
<stop stop-color="#56CCFF"/>
<stop offset="1" stop-color="#8367FF" stop-opacity="0"/>
</radialGradient>
<radialGradient id="paint2_radial_36819_13370" cx="0" cy="0" r="1" gradientTransform="matrix(0.200846 -15.6755 29.8289 0.564212 32.0788 43.528)" gradientUnits="userSpaceOnUse">
<stop stop-color="#FFDAB3"/>
<stop offset="0.824833" stop-color="#8057DA" stop-opacity="0"/>
</radialGradient>
<radialGradient id="paint3_radial_36819_13370" cx="0" cy="0" r="1" gradientTransform="matrix(12.6154 13.5246 -11.1517 10.1892 21.7421 23.7049)" gradientUnits="userSpaceOnUse">
<stop stop-color="#FFA5F1"/>
<stop offset="0.704754" stop-color="#C795FF" stop-opacity="0"/>
</radialGradient>
<radialGradient id="paint4_radial_36819_13370" cx="0" cy="0" r="1" gradientTransform="matrix(-12.467 -8.65574 5.75356 -10.0734 43.2624 39.3934)" gradientUnits="userSpaceOnUse">
<stop stop-color="#D097FF"/>
<stop offset="0.644421" stop-color="#9068D9" stop-opacity="0"/>
</radialGradient>
<radialGradient id="paint5_radial_36819_13370" cx="0" cy="0" r="1" gradientTransform="matrix(4.00723 14.6066 -8.45972 3.42623 28.2724 21)" gradientUnits="userSpaceOnUse">
<stop stop-color="#F4F4FF"/>
<stop offset="1" stop-color="#B59DE4" stop-opacity="0"/>
</radialGradient>
<linearGradient id="paint6_linear_36819_13370" x1="34.0606" y1="35.6066" x2="18.9217" y2="35.4844" gradientUnits="userSpaceOnUse">
<stop stop-color="#FFF6E1"/>
<stop offset="1" stop-color="#E697FF"/>
</linearGradient>
<clipPath id="clip0_36819_13370">
<rect width="24" height="24" fill="white" transform="translate(20 20)"/>
</clipPath>
</defs>
</svg>
