<svg width="48" height="48" viewBox="0 0 48 48" fill="none" xmlns="http://www.w3.org/2000/svg">
<path d="M0 24C0 10.7452 10.7452 0 24 0C37.2548 0 48 10.7452 48 24C48 37.2548 37.2548 48 24 48C10.7452 48 0 37.2548 0 24Z" fill="#2935CC"/>
<path d="M0 24C0 10.7452 10.7452 0 24 0C37.2548 0 48 10.7452 48 24C48 37.2548 37.2548 48 24 48C10.7452 48 0 37.2548 0 24Z" fill="url(#paint0_linear_30673_16275)" fill-opacity="0.2"/>
<path d="M24.9003 18.0028C25.0881 15.4012 27.9838 13.941 30.1874 15.3367C30.4343 15.4983 30.4138 15.8666 30.1504 15.9996C30.1449 16.0024 30.1394 16.0051 30.1337 16.0076C28.3444 16.8126 27.193 18.5918 27.1917 20.5539C27.1917 20.666 27.1917 20.7781 27.2032 20.8883C27.2255 21.1826 26.9209 21.3907 26.6549 21.2629C26.6458 21.2585 26.6369 21.2538 26.6282 21.2487C25.4756 20.5894 24.8036 19.3271 24.9003 18.0028ZM35.625 27.8957C35.6278 28.7894 35.1224 29.607 34.3217 30.004L34.2795 30.0232L30.5583 31.6083C30.5215 31.6245 30.4833 31.6373 30.4442 31.6466L24.3109 33.1799C24.2502 33.1956 24.1877 33.2036 24.125 33.2039H14.1583C13.3115 33.2039 12.625 32.5174 12.625 31.6705V27.8372C12.625 26.9904 13.3115 26.3039 14.1583 26.3039H16.9078L19.0755 24.1352C19.6497 23.5585 20.4305 23.2352 21.2442 23.2372H26.0417C27.7736 23.237 29.0521 24.8533 28.6531 26.5387L32.6628 25.6168C34.1587 25.2206 35.6244 26.3482 35.625 27.8957ZM34.0917 27.8957C34.0911 27.3522 33.5744 26.9576 33.0499 27.1003L33.0202 27.1079L26.5994 28.5847C26.5431 28.5973 26.4856 28.6037 26.4279 28.6039H23.3583C22.7681 28.6039 22.3993 27.965 22.6944 27.4539C22.8313 27.2167 23.0844 27.0706 23.3583 27.0706H26.0417C26.9269 27.0706 27.4802 26.1122 27.0376 25.3456C26.8322 24.9897 26.4525 24.7706 26.0417 24.7706H21.2442C20.8374 24.7693 20.4469 24.9312 20.1604 25.22L17.9917 27.3878V31.6705H24.0292L30.012 30.1746L33.6537 28.624C33.9239 28.4817 34.0926 28.201 34.0917 27.8957ZM28.725 20.5539C28.725 23.2097 31.6 24.8696 33.9 23.5417C36.2 22.2138 36.2 18.894 33.9 17.5661C33.3755 17.2633 32.7806 17.1039 32.175 17.1039C30.2696 17.1039 28.725 18.6485 28.725 20.5539Z" fill="white"/>
<defs>
<linearGradient id="paint0_linear_30673_16275" x1="10.3125" y1="36" x2="39.3125" y2="7.5" gradientUnits="userSpaceOnUse">
<stop stop-color="#B9E7FF" stop-opacity="0"/>
<stop offset="1" stop-color="#B9E7FF"/>
</linearGradient>
</defs>
</svg>
