<svg width="48" height="48" viewBox="0 0 48 48" fill="none" xmlns="http://www.w3.org/2000/svg">
<path d="M0 24C0 10.7452 10.7452 0 24 0C37.2548 0 48 10.7452 48 24C48 37.2548 37.2548 48 24 48C10.7452 48 0 37.2548 0 24Z" fill="#2935CC"/>
<path d="M0 24C0 10.7452 10.7452 0 24 0C37.2548 0 48 10.7452 48 24C48 37.2548 37.2548 48 24 48C10.7452 48 0 37.2548 0 24Z" fill="url(#paint0_linear_30673_16279)" fill-opacity="0.2"/>
<path fill-rule="evenodd" clip-rule="evenodd" d="M26.4463 18.7141C26.4463 21.3177 24.3357 23.4284 21.7321 23.4284C19.1285 23.4284 17.0179 21.3177 17.0179 18.7141C17.0179 16.1105 19.1285 14 21.7321 14C24.3357 14 26.4463 16.1105 26.4463 18.7141ZM21.7321 24.9998C17.3928 24.9998 13.875 28.5176 13.875 32.8568C13.875 33.2907 14.2268 33.6425 14.6607 33.6425H28.8034C29.2375 33.6425 29.5891 33.2907 29.5891 32.8568C29.5891 28.5176 26.0715 24.9998 21.7321 24.9998ZM35.0893 33.6425H31.4397C31.5138 33.3937 31.5536 33.1299 31.5536 32.8568C31.5536 29.6495 30.0161 26.8012 27.638 25.0088C27.7639 25.0029 27.8905 24.9998 28.0179 24.9998C32.3572 24.9998 35.875 28.5176 35.875 32.8568C35.875 33.2907 35.5232 33.6425 35.0893 33.6425ZM28.0179 23.4284C27.5437 23.4284 27.0859 23.3585 26.6542 23.2281C27.7449 22.0395 28.4107 20.4546 28.4107 18.7141C28.4107 16.9737 27.7449 15.3888 26.6542 14.2001C27.0859 14.0699 27.5437 14 28.0179 14C30.6215 14 32.7321 16.1105 32.7321 18.7141C32.7321 21.3177 30.6215 23.4284 28.0179 23.4284Z" fill="white"/>
<defs>
<linearGradient id="paint0_linear_30673_16279" x1="10.3125" y1="36" x2="39.3125" y2="7.5" gradientUnits="userSpaceOnUse">
<stop stop-color="#B9E7FF" stop-opacity="0"/>
<stop offset="1" stop-color="#B9E7FF"/>
</linearGradient>
</defs>
</svg>
