<svg width="48" height="48" viewBox="0 0 48 48" fill="none" xmlns="http://www.w3.org/2000/svg">
<path d="M0 24C0 10.7452 10.7452 0 24 0C37.2548 0 48 10.7452 48 24C48 37.2548 37.2548 48 24 48C10.7452 48 0 37.2548 0 24Z" fill="#0066FF"/>
<path fill-rule="evenodd" clip-rule="evenodd" d="M26.4463 18.3938C26.4463 20.9974 24.3357 23.1081 21.7321 23.1081C19.1285 23.1081 17.0179 20.9974 17.0179 18.3938C17.0179 15.7902 19.1285 13.6797 21.7321 13.6797C24.3357 13.6797 26.4463 15.7902 26.4463 18.3938ZM21.7321 24.6795C17.3928 24.6795 13.875 28.1973 13.875 32.5365C13.875 32.9704 14.2268 33.3222 14.6607 33.3222H28.8034C29.2375 33.3222 29.5891 32.9704 29.5891 32.5365C29.5891 28.1973 26.0715 24.6795 21.7321 24.6795ZM35.0893 33.3222H31.4397C31.5138 33.0734 31.5536 32.8096 31.5536 32.5365C31.5536 29.3292 30.0161 26.4809 27.638 24.6885C27.7639 24.6826 27.8905 24.6795 28.0179 24.6795C32.3572 24.6795 35.875 28.1973 35.875 32.5365C35.875 32.9704 35.5232 33.3222 35.0893 33.3222ZM28.0179 23.1081C27.5437 23.1081 27.0859 23.0382 26.6542 22.9078C27.7449 21.7191 28.4107 20.1343 28.4107 18.3938C28.4107 16.6534 27.7449 15.0685 26.6542 13.8798C27.0859 13.7496 27.5437 13.6797 28.0179 13.6797C30.6215 13.6797 32.7321 15.7902 32.7321 18.3938C32.7321 20.9974 30.6215 23.1081 28.0179 23.1081Z" fill="white"/>
</svg>
