<svg width="64" height="64" viewBox="0 0 64 64" fill="none" xmlns="http://www.w3.org/2000/svg">
<g filter="url(#filter0_i_36819_13376)">
<path d="M0 32C0 14.3269 14.3269 0 32 0C49.6731 0 64 14.3269 64 32C64 49.6731 49.6731 64 32 64C14.3269 64 0 49.6731 0 32Z" fill="#01003E"/>
<g filter="url(#filter1_i_36819_13376)">
<path d="M37.2422 31C40.4219 31 43 33.5781 43 36.7578C43 38.1328 41.8828 39.25 40.5078 39.25H31.7422C30.3643 39.25 29.25 38.1328 29.25 36.7578C29.25 33.5781 31.8281 31 35.0078 31H37.2422ZM35.4375 22.75C36.3492 22.75 37.2235 23.1122 37.8682 23.7568C38.5128 24.4015 38.875 25.2758 38.875 26.1875C38.875 27.0992 38.5128 27.9735 37.8682 28.6182C37.2235 29.2628 36.3492 29.625 35.4375 29.625C34.5258 29.625 33.6515 29.2628 33.0068 28.6182C32.3622 27.9735 32 27.0992 32 26.1875C32 25.2758 32.3622 24.4015 33.0068 23.7568C33.6515 23.1122 34.5258 22.75 35.4375 22.75Z" fill="url(#paint0_linear_36819_13376)"/>
<path d="M37.2422 31C40.4219 31 43 33.5781 43 36.7578C43 38.1328 41.8828 39.25 40.5078 39.25H31.7422C30.3643 39.25 29.25 38.1328 29.25 36.7578C29.25 33.5781 31.8281 31 35.0078 31H37.2422ZM35.4375 22.75C36.3492 22.75 37.2235 23.1122 37.8682 23.7568C38.5128 24.4015 38.875 25.2758 38.875 26.1875C38.875 27.0992 38.5128 27.9735 37.8682 28.6182C37.2235 29.2628 36.3492 29.625 35.4375 29.625C34.5258 29.625 33.6515 29.2628 33.0068 28.6182C32.3622 27.9735 32 27.0992 32 26.1875C32 25.2758 32.3622 24.4015 33.0068 23.7568C33.6515 23.1122 34.5258 22.75 35.4375 22.75Z" fill="url(#paint1_radial_36819_13376)"/>
<path d="M37.2422 31C40.4219 31 43 33.5781 43 36.7578C43 38.1328 41.8828 39.25 40.5078 39.25H31.7422C30.3643 39.25 29.25 38.1328 29.25 36.7578C29.25 33.5781 31.8281 31 35.0078 31H37.2422ZM35.4375 22.75C36.3492 22.75 37.2235 23.1122 37.8682 23.7568C38.5128 24.4015 38.875 25.2758 38.875 26.1875C38.875 27.0992 38.5128 27.9735 37.8682 28.6182C37.2235 29.2628 36.3492 29.625 35.4375 29.625C34.5258 29.625 33.6515 29.2628 33.0068 28.6182C32.3622 27.9735 32 27.0992 32 26.1875C32 25.2758 32.3622 24.4015 33.0068 23.7568C33.6515 23.1122 34.5258 22.75 35.4375 22.75Z" fill="url(#paint2_radial_36819_13376)"/>
<path d="M37.2422 31C40.4219 31 43 33.5781 43 36.7578C43 38.1328 41.8828 39.25 40.5078 39.25H31.7422C30.3643 39.25 29.25 38.1328 29.25 36.7578C29.25 33.5781 31.8281 31 35.0078 31H37.2422ZM35.4375 22.75C36.3492 22.75 37.2235 23.1122 37.8682 23.7568C38.5128 24.4015 38.875 25.2758 38.875 26.1875C38.875 27.0992 38.5128 27.9735 37.8682 28.6182C37.2235 29.2628 36.3492 29.625 35.4375 29.625C34.5258 29.625 33.6515 29.2628 33.0068 28.6182C32.3622 27.9735 32 27.0992 32 26.1875C32 25.2758 32.3622 24.4015 33.0068 23.7568C33.6515 23.1122 34.5258 22.75 35.4375 22.75Z" fill="url(#paint3_radial_36819_13376)"/>
<path d="M37.2422 31C40.4219 31 43 33.5781 43 36.7578C43 38.1328 41.8828 39.25 40.5078 39.25H31.7422C30.3643 39.25 29.25 38.1328 29.25 36.7578C29.25 33.5781 31.8281 31 35.0078 31H37.2422ZM35.4375 22.75C36.3492 22.75 37.2235 23.1122 37.8682 23.7568C38.5128 24.4015 38.875 25.2758 38.875 26.1875C38.875 27.0992 38.5128 27.9735 37.8682 28.6182C37.2235 29.2628 36.3492 29.625 35.4375 29.625C34.5258 29.625 33.6515 29.2628 33.0068 28.6182C32.3622 27.9735 32 27.0992 32 26.1875C32 25.2758 32.3622 24.4015 33.0068 23.7568C33.6515 23.1122 34.5258 22.75 35.4375 22.75Z" fill="url(#paint4_radial_36819_13376)" fill-opacity="0.64"/>
<path d="M37.2422 31C40.4219 31 43 33.5781 43 36.7578C43 38.1328 41.8828 39.25 40.5078 39.25H31.7422C30.3643 39.25 29.25 38.1328 29.25 36.7578C29.25 33.5781 31.8281 31 35.0078 31H37.2422ZM35.4375 22.75C36.3492 22.75 37.2235 23.1122 37.8682 23.7568C38.5128 24.4015 38.875 25.2758 38.875 26.1875C38.875 27.0992 38.5128 27.9735 37.8682 28.6182C37.2235 29.2628 36.3492 29.625 35.4375 29.625C34.5258 29.625 33.6515 29.2628 33.0068 28.6182C32.3622 27.9735 32 27.0992 32 26.1875C32 25.2758 32.3622 24.4015 33.0068 23.7568C33.6515 23.1122 34.5258 22.75 35.4375 22.75Z" fill="url(#paint5_radial_36819_13376)"/>
</g>
<path d="M43 36.7578H43.1467H43ZM31.7422 39.25V39.3967V39.25ZM29.25 36.7578H29.1033H29.25ZM35.0078 31V30.8533V31ZM35.4375 22.75V22.6033V22.75ZM37.8682 23.7568L37.9719 23.6531V23.6531L37.8682 23.7568ZM38.875 26.1875H39.0217H38.875ZM37.8682 28.6182L37.9719 28.7219L37.8682 28.6182ZM35.4375 29.625V29.7717V29.625ZM33.0068 28.6182L32.9031 28.7219L33.0068 28.6182ZM32 26.1875H31.8533H32ZM33.0068 23.7568L32.9031 23.6531V23.6531L33.0068 23.7568ZM37.2422 31V31.1467C40.3409 31.1467 42.8533 33.6591 42.8533 36.7578H43H43.1467C43.1467 33.4971 40.5029 30.8533 37.2422 30.8533V31ZM43 36.7578H42.8533C42.8533 38.0518 41.8018 39.1033 40.5078 39.1033V39.25V39.3967C41.9638 39.3967 43.1467 38.2138 43.1467 36.7578H43ZM40.5078 39.25V39.1033H31.7422V39.25V39.3967H40.5078V39.25ZM31.7422 39.25V39.1033C30.4454 39.1033 29.3967 38.0519 29.3967 36.7578H29.25H29.1033C29.1033 38.2137 30.2832 39.3967 31.7422 39.3967V39.25ZM29.25 36.7578H29.3967C29.3967 33.6591 31.9091 31.1467 35.0078 31.1467V31V30.8533C31.7471 30.8533 29.1033 33.4971 29.1033 36.7578H29.25ZM35.0078 31V31.1467H37.2422V31V30.8533H35.0078V31ZM35.4375 22.75V22.8967C36.3103 22.8967 37.1473 23.2434 37.7645 23.8605L37.8682 23.7568L37.9719 23.6531C37.2997 22.981 36.3881 22.6033 35.4375 22.6033V22.75ZM37.8682 23.7568L37.7645 23.8605C38.3816 24.4777 38.7283 25.3147 38.7283 26.1875H38.875H39.0217C39.0217 25.2369 38.644 24.3253 37.9719 23.6531L37.8682 23.7568ZM38.875 26.1875H38.7283C38.7283 27.0603 38.3816 27.8973 37.7645 28.5145L37.8682 28.6182L37.9719 28.7219C38.644 28.0497 39.0217 27.1381 39.0217 26.1875H38.875ZM37.8682 28.6182L37.7645 28.5145C37.1473 29.1316 36.3103 29.4783 35.4375 29.4783V29.625V29.7717C36.3881 29.7717 37.2997 29.394 37.9719 28.7219L37.8682 28.6182ZM35.4375 29.625V29.4783C34.5647 29.4783 33.7277 29.1316 33.1105 28.5145L33.0068 28.6182L32.9031 28.7219C33.5753 29.394 34.4869 29.7717 35.4375 29.7717V29.625ZM33.0068 28.6182L33.1105 28.5145C32.4934 27.8973 32.1467 27.0603 32.1467 26.1875H32H31.8533C31.8533 27.1381 32.231 28.0497 32.9031 28.7219L33.0068 28.6182ZM32 26.1875H32.1467C32.1467 25.3147 32.4934 24.4777 33.1105 23.8605L33.0068 23.7568L32.9031 23.6531C32.231 24.3253 31.8533 25.2369 31.8533 26.1875H32ZM33.0068 23.7568L33.1105 23.8605C33.7277 23.2434 34.5647 22.8967 35.4375 22.8967V22.75V22.6033C34.4869 22.6033 33.5753 22.981 32.9031 23.6531L33.0068 23.7568Z" fill="url(#paint6_linear_36819_13376)"/>
<g filter="url(#filter2_i_36819_13376)">
<path d="M31.1348 31C35.4087 31 38.875 34.4663 38.875 38.7402C38.8749 40.5391 37.4141 41.9999 35.6152 42H24.2598C22.4609 41.9999 21.0001 40.5391 21 38.7402C21 34.4663 24.4663 31 28.7402 31H31.1348ZM29.9375 21C30.5695 21 31.1954 21.1244 31.7793 21.3662C32.3631 21.6081 32.894 21.9623 33.3408 22.4092C33.7877 22.856 34.1419 23.3869 34.3838 23.9707C34.6256 24.5546 34.75 25.1805 34.75 25.8125C34.75 26.4445 34.6256 27.0704 34.3838 27.6543C34.1419 28.2381 33.7877 28.769 33.3408 29.2158C32.894 29.6627 32.3631 30.0169 31.7793 30.2588C31.1954 30.5006 30.5695 30.625 29.9375 30.625C29.3055 30.625 28.6796 30.5006 28.0957 30.2588C27.5119 30.0169 26.981 29.6627 26.5342 29.2158C26.0873 28.769 25.7331 28.2381 25.4912 27.6543C25.2494 27.0704 25.125 26.4445 25.125 25.8125C25.125 25.1805 25.2494 24.5546 25.4912 23.9707C25.7331 23.3869 26.0873 22.856 26.5342 22.4092C26.981 21.9623 27.5119 21.6081 28.0957 21.3662C28.6796 21.1244 29.3055 21 29.9375 21Z" fill="url(#paint7_linear_36819_13376)"/>
<path d="M31.1348 31C35.4087 31 38.875 34.4663 38.875 38.7402C38.8749 40.5391 37.4141 41.9999 35.6152 42H24.2598C22.4609 41.9999 21.0001 40.5391 21 38.7402C21 34.4663 24.4663 31 28.7402 31H31.1348ZM29.9375 21C30.5695 21 31.1954 21.1244 31.7793 21.3662C32.3631 21.6081 32.894 21.9623 33.3408 22.4092C33.7877 22.856 34.1419 23.3869 34.3838 23.9707C34.6256 24.5546 34.75 25.1805 34.75 25.8125C34.75 26.4445 34.6256 27.0704 34.3838 27.6543C34.1419 28.2381 33.7877 28.769 33.3408 29.2158C32.894 29.6627 32.3631 30.0169 31.7793 30.2588C31.1954 30.5006 30.5695 30.625 29.9375 30.625C29.3055 30.625 28.6796 30.5006 28.0957 30.2588C27.5119 30.0169 26.981 29.6627 26.5342 29.2158C26.0873 28.769 25.7331 28.2381 25.4912 27.6543C25.2494 27.0704 25.125 26.4445 25.125 25.8125C25.125 25.1805 25.2494 24.5546 25.4912 23.9707C25.7331 23.3869 26.0873 22.856 26.5342 22.4092C26.981 21.9623 27.5119 21.6081 28.0957 21.3662C28.6796 21.1244 29.3055 21 29.9375 21Z" fill="url(#paint8_radial_36819_13376)"/>
<path d="M31.1348 31C35.4087 31 38.875 34.4663 38.875 38.7402C38.8749 40.5391 37.4141 41.9999 35.6152 42H24.2598C22.4609 41.9999 21.0001 40.5391 21 38.7402C21 34.4663 24.4663 31 28.7402 31H31.1348ZM29.9375 21C30.5695 21 31.1954 21.1244 31.7793 21.3662C32.3631 21.6081 32.894 21.9623 33.3408 22.4092C33.7877 22.856 34.1419 23.3869 34.3838 23.9707C34.6256 24.5546 34.75 25.1805 34.75 25.8125C34.75 26.4445 34.6256 27.0704 34.3838 27.6543C34.1419 28.2381 33.7877 28.769 33.3408 29.2158C32.894 29.6627 32.3631 30.0169 31.7793 30.2588C31.1954 30.5006 30.5695 30.625 29.9375 30.625C29.3055 30.625 28.6796 30.5006 28.0957 30.2588C27.5119 30.0169 26.981 29.6627 26.5342 29.2158C26.0873 28.769 25.7331 28.2381 25.4912 27.6543C25.2494 27.0704 25.125 26.4445 25.125 25.8125C25.125 25.1805 25.2494 24.5546 25.4912 23.9707C25.7331 23.3869 26.0873 22.856 26.5342 22.4092C26.981 21.9623 27.5119 21.6081 28.0957 21.3662C28.6796 21.1244 29.3055 21 29.9375 21Z" fill="url(#paint9_radial_36819_13376)"/>
<path d="M31.1348 31C35.4087 31 38.875 34.4663 38.875 38.7402C38.8749 40.5391 37.4141 41.9999 35.6152 42H24.2598C22.4609 41.9999 21.0001 40.5391 21 38.7402C21 34.4663 24.4663 31 28.7402 31H31.1348ZM29.9375 21C30.5695 21 31.1954 21.1244 31.7793 21.3662C32.3631 21.6081 32.894 21.9623 33.3408 22.4092C33.7877 22.856 34.1419 23.3869 34.3838 23.9707C34.6256 24.5546 34.75 25.1805 34.75 25.8125C34.75 26.4445 34.6256 27.0704 34.3838 27.6543C34.1419 28.2381 33.7877 28.769 33.3408 29.2158C32.894 29.6627 32.3631 30.0169 31.7793 30.2588C31.1954 30.5006 30.5695 30.625 29.9375 30.625C29.3055 30.625 28.6796 30.5006 28.0957 30.2588C27.5119 30.0169 26.981 29.6627 26.5342 29.2158C26.0873 28.769 25.7331 28.2381 25.4912 27.6543C25.2494 27.0704 25.125 26.4445 25.125 25.8125C25.125 25.1805 25.2494 24.5546 25.4912 23.9707C25.7331 23.3869 26.0873 22.856 26.5342 22.4092C26.981 21.9623 27.5119 21.6081 28.0957 21.3662C28.6796 21.1244 29.3055 21 29.9375 21Z" fill="url(#paint10_radial_36819_13376)"/>
<path d="M31.1348 31C35.4087 31 38.875 34.4663 38.875 38.7402C38.8749 40.5391 37.4141 41.9999 35.6152 42H24.2598C22.4609 41.9999 21.0001 40.5391 21 38.7402C21 34.4663 24.4663 31 28.7402 31H31.1348ZM29.9375 21C30.5695 21 31.1954 21.1244 31.7793 21.3662C32.3631 21.6081 32.894 21.9623 33.3408 22.4092C33.7877 22.856 34.1419 23.3869 34.3838 23.9707C34.6256 24.5546 34.75 25.1805 34.75 25.8125C34.75 26.4445 34.6256 27.0704 34.3838 27.6543C34.1419 28.2381 33.7877 28.769 33.3408 29.2158C32.894 29.6627 32.3631 30.0169 31.7793 30.2588C31.1954 30.5006 30.5695 30.625 29.9375 30.625C29.3055 30.625 28.6796 30.5006 28.0957 30.2588C27.5119 30.0169 26.981 29.6627 26.5342 29.2158C26.0873 28.769 25.7331 28.2381 25.4912 27.6543C25.2494 27.0704 25.125 26.4445 25.125 25.8125C25.125 25.1805 25.2494 24.5546 25.4912 23.9707C25.7331 23.3869 26.0873 22.856 26.5342 22.4092C26.981 21.9623 27.5119 21.6081 28.0957 21.3662C28.6796 21.1244 29.3055 21 29.9375 21Z" fill="url(#paint11_radial_36819_13376)" fill-opacity="0.64"/>
<path d="M31.1348 31C35.4087 31 38.875 34.4663 38.875 38.7402C38.8749 40.5391 37.4141 41.9999 35.6152 42H24.2598C22.4609 41.9999 21.0001 40.5391 21 38.7402C21 34.4663 24.4663 31 28.7402 31H31.1348ZM29.9375 21C30.5695 21 31.1954 21.1244 31.7793 21.3662C32.3631 21.6081 32.894 21.9623 33.3408 22.4092C33.7877 22.856 34.1419 23.3869 34.3838 23.9707C34.6256 24.5546 34.75 25.1805 34.75 25.8125C34.75 26.4445 34.6256 27.0704 34.3838 27.6543C34.1419 28.2381 33.7877 28.769 33.3408 29.2158C32.894 29.6627 32.3631 30.0169 31.7793 30.2588C31.1954 30.5006 30.5695 30.625 29.9375 30.625C29.3055 30.625 28.6796 30.5006 28.0957 30.2588C27.5119 30.0169 26.981 29.6627 26.5342 29.2158C26.0873 28.769 25.7331 28.2381 25.4912 27.6543C25.2494 27.0704 25.125 26.4445 25.125 25.8125C25.125 25.1805 25.2494 24.5546 25.4912 23.9707C25.7331 23.3869 26.0873 22.856 26.5342 22.4092C26.981 21.9623 27.5119 21.6081 28.0957 21.3662C28.6796 21.1244 29.3055 21 29.9375 21Z" fill="url(#paint12_radial_36819_13376)"/>
</g>
<path d="M38.875 38.7402L39.0217 38.7402V38.7402H38.875ZM35.6152 42V42.1467H35.6152L35.6152 42ZM24.2598 42L24.2598 42.1467H24.2598V42ZM21 38.7402H20.8533V38.7402L21 38.7402ZM29.9375 21V20.8533V21ZM31.7793 21.3662L31.8354 21.2307L31.8354 21.2307L31.7793 21.3662ZM33.3408 22.4092L33.4445 22.3055L33.3408 22.4092ZM34.3838 23.9707L34.5193 23.9146L34.5193 23.9146L34.3838 23.9707ZM34.75 25.8125H34.6033H34.75ZM34.3838 27.6543L34.5193 27.7104L34.5193 27.7104L34.3838 27.6543ZM33.3408 29.2158L33.4445 29.3195L33.3408 29.2158ZM31.7793 30.2588L31.8354 30.3943L31.8354 30.3943L31.7793 30.2588ZM29.9375 30.625V30.7717V30.625ZM28.0957 30.2588L28.0396 30.3943L28.0396 30.3943L28.0957 30.2588ZM26.5342 29.2158L26.4305 29.3195L26.5342 29.2158ZM25.4912 27.6543L25.3557 27.7104L25.3557 27.7104L25.4912 27.6543ZM25.125 25.8125H25.2717H25.125ZM25.4912 23.9707L25.3557 23.9146L25.3557 23.9146L25.4912 23.9707ZM26.5342 22.4092L26.4305 22.3055L26.5342 22.4092ZM28.0957 21.3662L28.0396 21.2307L28.0396 21.2307L28.0957 21.3662ZM31.1348 31V31.1467C35.3277 31.1467 38.7283 34.5473 38.7283 38.7402H38.875H39.0217C39.0217 34.3853 35.4897 30.8533 31.1348 30.8533V31ZM38.875 38.7402L38.7283 38.7402C38.7283 40.4581 37.3331 41.8533 35.6152 41.8533L35.6152 42L35.6152 42.1467C37.4951 42.1466 39.0216 40.6201 39.0217 38.7402L38.875 38.7402ZM35.6152 42V41.8533H24.2598V42V42.1467H35.6152V42ZM24.2598 42L24.2598 41.8533C22.5419 41.8533 21.1467 40.4581 21.1467 38.7402L21 38.7402L20.8533 38.7402C20.8534 40.6201 22.3799 42.1466 24.2598 42.1467L24.2598 42ZM21 38.7402H21.1467C21.1467 34.5473 24.5473 31.1467 28.7402 31.1467V31V30.8533C24.3853 30.8533 20.8533 34.3853 20.8533 38.7402H21ZM28.7402 31V31.1467H31.1348V31V30.8533H28.7402V31ZM29.9375 21V21.1467C30.5502 21.1467 31.1571 21.2672 31.7232 21.5017L31.7793 21.3662L31.8354 21.2307C31.2337 20.9815 30.5887 20.8533 29.9375 20.8533V21ZM31.7793 21.3662L31.7232 21.5017C32.2893 21.7362 32.8039 22.0797 33.2371 22.5129L33.3408 22.4092L33.4445 22.3055C32.984 21.8449 32.437 21.4799 31.8354 21.2307L31.7793 21.3662ZM33.3408 22.4092L33.2371 22.5129C33.6703 22.9461 34.0138 23.4607 34.2483 24.0268L34.3838 23.9707L34.5193 23.9146C34.2701 23.313 33.9051 22.766 33.4445 22.3055L33.3408 22.4092ZM34.3838 23.9707L34.2483 24.0268C34.4828 24.5929 34.6033 25.1998 34.6033 25.8125H34.75H34.8967C34.8967 25.1613 34.7685 24.5163 34.5193 23.9146L34.3838 23.9707ZM34.75 25.8125H34.6033C34.6033 26.4252 34.4828 27.0321 34.2483 27.5982L34.3838 27.6543L34.5193 27.7104C34.7685 27.1087 34.8967 26.4637 34.8967 25.8125H34.75ZM34.3838 27.6543L34.2483 27.5982C34.0138 28.1643 33.6703 28.6789 33.2371 29.1121L33.3408 29.2158L33.4445 29.3195C33.9051 28.859 34.2701 28.312 34.5193 27.7104L34.3838 27.6543ZM33.3408 29.2158L33.2371 29.1121C32.8039 29.5453 32.2893 29.8888 31.7232 30.1233L31.7793 30.2588L31.8354 30.3943C32.437 30.1451 32.984 29.7801 33.4445 29.3195L33.3408 29.2158ZM31.7793 30.2588L31.7232 30.1233C31.1571 30.3578 30.5502 30.4783 29.9375 30.4783V30.625V30.7717C30.5887 30.7717 31.2337 30.6435 31.8354 30.3943L31.7793 30.2588ZM29.9375 30.625V30.4783C29.3248 30.4783 28.7179 30.3578 28.1518 30.1233L28.0957 30.2588L28.0396 30.3943C28.6413 30.6435 29.2863 30.7717 29.9375 30.7717V30.625ZM28.0957 30.2588L28.1518 30.1233C27.5857 29.8888 27.0711 29.5453 26.6379 29.1121L26.5342 29.2158L26.4305 29.3195C26.891 29.7801 27.438 30.1451 28.0396 30.3943L28.0957 30.2588ZM26.5342 29.2158L26.6379 29.1121C26.2047 28.6789 25.8612 28.1643 25.6267 27.5982L25.4912 27.6543L25.3557 27.7104C25.6049 28.312 25.9699 28.859 26.4305 29.3195L26.5342 29.2158ZM25.4912 27.6543L25.6267 27.5982C25.3922 27.0321 25.2717 26.4252 25.2717 25.8125H25.125H24.9783C24.9783 26.4637 25.1065 27.1087 25.3557 27.7104L25.4912 27.6543ZM25.125 25.8125H25.2717C25.2717 25.1998 25.3922 24.5929 25.6267 24.0268L25.4912 23.9707L25.3557 23.9146C25.1065 24.5163 24.9783 25.1613 24.9783 25.8125H25.125ZM25.4912 23.9707L25.6267 24.0268C25.8612 23.4607 26.2047 22.9461 26.6379 22.5129L26.5342 22.4092L26.4305 22.3055C25.9699 22.766 25.6049 23.313 25.3557 23.9146L25.4912 23.9707ZM26.5342 22.4092L26.6379 22.5129C27.0711 22.0797 27.5857 21.7362 28.1518 21.5017L28.0957 21.3662L28.0396 21.2307C27.438 21.4799 26.891 21.8449 26.4305 22.3055L26.5342 22.4092ZM28.0957 21.3662L28.1518 21.5017C28.7179 21.2672 29.3248 21.1467 29.9375 21.1467V21V20.8533C29.2863 20.8533 28.6413 20.9815 28.0396 21.2307L28.0957 21.3662Z" fill="url(#paint13_linear_36819_13376)"/>
<path d="M30.8484 34.4492C31.7685 34.4492 32.3583 35.1871 32.3583 36.1802C32.3583 36.9509 31.661 37.7996 30.2871 38.7533C30.1968 38.8157 30.0897 38.8492 29.9799 38.8492C29.8702 38.8492 29.7631 38.8157 29.6728 38.7533C28.2989 37.7996 27.6016 36.9509 27.6016 36.1802C27.6016 35.1871 28.1913 34.4492 29.1115 34.4492C29.4439 34.4492 29.6693 34.5653 29.9799 34.8288C30.2907 34.5654 30.516 34.4492 30.8484 34.4492Z" fill="#030346"/>
</g>
<defs>
<filter id="filter0_i_36819_13376" x="0" y="0" width="64" height="64" filterUnits="userSpaceOnUse" color-interpolation-filters="sRGB">
<feFlood flood-opacity="0" result="BackgroundImageFix"/>
<feBlend mode="normal" in="SourceGraphic" in2="BackgroundImageFix" result="shape"/>
<feColorMatrix in="SourceAlpha" type="matrix" values="0 0 0 0 0 0 0 0 0 0 0 0 0 0 0 0 0 0 127 0" result="hardAlpha"/>
<feOffset/>
<feGaussianBlur stdDeviation="7.8"/>
<feComposite in2="hardAlpha" operator="arithmetic" k2="-1" k3="1"/>
<feColorMatrix type="matrix" values="0 0 0 0 0.2306 0 0 0 0 0.311979 0 0 0 0 1 0 0 0 1 0"/>
<feBlend mode="normal" in2="shape" result="effect1_innerShadow_36819_13376"/>
</filter>
<filter id="filter1_i_36819_13376" x="29.1016" y="22.0168" width="14.0469" height="17.3796" filterUnits="userSpaceOnUse" color-interpolation-filters="sRGB">
<feFlood flood-opacity="0" result="BackgroundImageFix"/>
<feBlend mode="normal" in="SourceGraphic" in2="BackgroundImageFix" result="shape"/>
<feColorMatrix in="SourceAlpha" type="matrix" values="0 0 0 0 0 0 0 0 0 0 0 0 0 0 0 0 0 0 127 0" result="hardAlpha"/>
<feOffset dy="-0.586667"/>
<feGaussianBlur stdDeviation="0.476667"/>
<feComposite in2="hardAlpha" operator="arithmetic" k2="-1" k3="1"/>
<feColorMatrix type="matrix" values="0 0 0 0 1 0 0 0 0 0.97829 0 0 0 0 0.891451 0 0 0 0.82 0"/>
<feBlend mode="normal" in2="shape" result="effect1_innerShadow_36819_13376"/>
</filter>
<filter id="filter2_i_36819_13376" x="20.8516" y="20.2668" width="18.1719" height="21.8796" filterUnits="userSpaceOnUse" color-interpolation-filters="sRGB">
<feFlood flood-opacity="0" result="BackgroundImageFix"/>
<feBlend mode="normal" in="SourceGraphic" in2="BackgroundImageFix" result="shape"/>
<feColorMatrix in="SourceAlpha" type="matrix" values="0 0 0 0 0 0 0 0 0 0 0 0 0 0 0 0 0 0 127 0" result="hardAlpha"/>
<feOffset dy="-0.586667"/>
<feGaussianBlur stdDeviation="0.476667"/>
<feComposite in2="hardAlpha" operator="arithmetic" k2="-1" k3="1"/>
<feColorMatrix type="matrix" values="0 0 0 0 1 0 0 0 0 0.97829 0 0 0 0 0.891451 0 0 0 0.82 0"/>
<feBlend mode="normal" in2="shape" result="effect1_innerShadow_36819_13376"/>
</filter>
<linearGradient id="paint0_linear_36819_13376" x1="42.2112" y1="33.9725" x2="29.3168" y2="33.2272" gradientUnits="userSpaceOnUse">
<stop offset="0.0288461" stop-color="#6D4BD9"/>
<stop offset="1" stop-color="#B875DE"/>
</linearGradient>
<radialGradient id="paint1_radial_36819_13376" cx="0" cy="0" r="1" gradientTransform="matrix(-1.925 8.38525 7.83763 3.91674 38.1417 22.75)" gradientUnits="userSpaceOnUse">
<stop stop-color="#56CCFF"/>
<stop offset="1" stop-color="#8367FF" stop-opacity="0"/>
</radialGradient>
<radialGradient id="paint2_radial_36819_13376" cx="0" cy="0" r="1" gradientTransform="matrix(0.124049 -11.7567 18.4233 0.423159 36.0926 39.646)" gradientUnits="userSpaceOnUse">
<stop stop-color="#FFDAB3"/>
<stop offset="0.824833" stop-color="#8057DA" stop-opacity="0"/>
</radialGradient>
<radialGradient id="paint3_radial_36819_13376" cx="0" cy="0" r="1" gradientTransform="matrix(7.79167 10.1434 -6.88762 7.64192 29.7083 24.7787)" gradientUnits="userSpaceOnUse">
<stop stop-color="#FFA5F1"/>
<stop offset="0.704754" stop-color="#C795FF" stop-opacity="0"/>
</radialGradient>
<radialGradient id="paint4_radial_36819_13376" cx="0" cy="0" r="1" gradientTransform="matrix(-7.7 -6.4918 3.55359 -7.55505 43 36.5451)" gradientUnits="userSpaceOnUse">
<stop stop-color="#D097FF"/>
<stop offset="0.644421" stop-color="#9068D9" stop-opacity="0"/>
</radialGradient>
<radialGradient id="paint5_radial_36819_13376" cx="0" cy="0" r="1" gradientTransform="matrix(2.475 10.9549 -5.225 2.56967 33.7417 22.75)" gradientUnits="userSpaceOnUse">
<stop stop-color="#F4F4FF"/>
<stop offset="1" stop-color="#B59DE4" stop-opacity="0"/>
</radialGradient>
<linearGradient id="paint6_linear_36819_13376" x1="37.3167" y1="33.7049" x2="27.9662" y2="33.6428" gradientUnits="userSpaceOnUse">
<stop stop-color="#FFF6E1"/>
<stop offset="1" stop-color="#E697FF"/>
</linearGradient>
<linearGradient id="paint7_linear_36819_13376" x1="37.8495" y1="34.9634" x2="21.0841" y2="34.0185" gradientUnits="userSpaceOnUse">
<stop offset="0.0288461" stop-color="#6D4BD9"/>
<stop offset="1" stop-color="#B875DE"/>
</linearGradient>
<radialGradient id="paint8_radial_36819_13376" cx="0" cy="0" r="1" gradientTransform="matrix(-2.5025 11.1803 10.1889 5.22233 32.5592 20)" gradientUnits="userSpaceOnUse">
<stop stop-color="#56CCFF"/>
<stop offset="1" stop-color="#8367FF" stop-opacity="0"/>
</radialGradient>
<radialGradient id="paint9_radial_36819_13376" cx="0" cy="0" r="1" gradientTransform="matrix(0.161264 -15.6755 23.9503 0.564212 29.8954 42.528)" gradientUnits="userSpaceOnUse">
<stop stop-color="#FFDAB3"/>
<stop offset="0.824833" stop-color="#8057DA" stop-opacity="0"/>
</radialGradient>
<radialGradient id="paint10_radial_36819_13376" cx="0" cy="0" r="1" gradientTransform="matrix(10.1292 13.5246 -8.95391 10.1892 21.5958 22.7049)" gradientUnits="userSpaceOnUse">
<stop stop-color="#FFA5F1"/>
<stop offset="0.704754" stop-color="#C795FF" stop-opacity="0"/>
</radialGradient>
<radialGradient id="paint11_radial_36819_13376" cx="0" cy="0" r="1" gradientTransform="matrix(-10.01 -8.65574 4.61966 -10.0734 38.875 38.3934)" gradientUnits="userSpaceOnUse">
<stop stop-color="#D097FF"/>
<stop offset="0.644421" stop-color="#9068D9" stop-opacity="0"/>
</radialGradient>
<radialGradient id="paint12_radial_36819_13376" cx="0" cy="0" r="1" gradientTransform="matrix(3.2175 14.6066 -6.7925 3.42623 26.8392 20)" gradientUnits="userSpaceOnUse">
<stop stop-color="#F4F4FF"/>
<stop offset="1" stop-color="#B59DE4" stop-opacity="0"/>
</radialGradient>
<linearGradient id="paint13_linear_36819_13376" x1="31.4867" y1="34.6066" x2="19.331" y2="34.5278" gradientUnits="userSpaceOnUse">
<stop stop-color="#FFF6E1"/>
<stop offset="1" stop-color="#E697FF"/>
</linearGradient>
</defs>
</svg>
