<svg width="56" height="56" viewBox="0 0 56 56" fill="none" xmlns="http://www.w3.org/2000/svg">
<g clip-path="url(#clip0_13908_10123)">
<path fill-rule="evenodd" clip-rule="evenodd" d="M33.2389 22.5H41.7601C49.7926 22.5 53.8089 22.5 56.3058 24.9905C58.027 26.7032 58.5604 29.1364 58.7283 33.1016C58.7601 33.8879 58.7771 34.2831 58.6305 34.5445C58.4818 34.8059 57.8974 35.1352 56.7244 35.7897C56.0636 36.1581 55.5133 36.6962 55.1301 37.3485C54.747 38.0008 54.545 38.7435 54.545 39.5C54.545 40.2565 54.747 40.9992 55.1301 41.6515C55.5133 42.3038 56.0636 42.8419 56.7244 43.2103C57.8974 43.8669 58.4839 44.1941 58.6305 44.4555C58.7771 44.7169 58.7601 45.11 58.7261 45.8962C58.5604 49.8636 58.0249 52.2967 56.3058 54.0095C53.811 56.5 49.7948 56.5 41.7601 56.5H33.2389C25.2064 56.5 21.1901 56.5 18.6933 54.0095C16.972 52.2967 16.4386 49.8636 16.2708 45.8984C16.2389 45.1121 16.2219 44.7169 16.3685 44.4555C16.5173 44.1941 17.1016 43.8669 18.2746 43.2103C18.9354 42.8419 19.4858 42.3038 19.8689 41.6515C20.2521 40.9992 20.4541 40.2565 20.4541 39.5C20.4541 38.7435 20.2521 38.0008 19.8689 37.3485C19.4858 36.6962 18.9354 36.1581 18.2746 35.7897C17.1016 35.1352 16.5151 34.8059 16.3685 34.5445C16.2219 34.2831 16.2389 33.89 16.2729 33.1016C16.4386 29.1364 16.9741 26.7054 18.6933 24.9905C21.188 22.5 25.2043 22.5 33.2389 22.5ZM45.039 31.9988C45.3375 32.2976 45.5051 32.7027 45.5051 33.125C45.5051 33.5473 45.3375 33.9524 45.039 34.2512L32.2571 47.0012C31.9572 47.3001 31.5511 47.4679 31.1277 47.4679C30.7043 47.4679 30.2982 47.3001 29.9983 47.0012C29.6998 46.7024 29.5322 46.2973 29.5322 45.875C29.5322 45.4527 29.6998 45.0476 29.9983 44.7488L42.7801 31.9988C43.0801 31.6999 43.4862 31.5321 43.9096 31.5321C44.333 31.5321 44.7391 31.6999 45.039 31.9988ZM42.8439 46.9375C43.1309 46.9503 43.4176 46.9049 43.6866 46.8039C43.9556 46.7029 44.2014 46.5484 44.4091 46.3498C44.6167 46.1513 44.782 45.9126 44.8949 45.6484C45.0079 45.3842 45.0661 45.0998 45.0661 44.8125C45.0661 44.5252 45.0079 44.2408 44.8949 43.9766C44.782 43.7124 44.6167 43.4737 44.4091 43.2752C44.2014 43.0766 43.9556 42.9221 43.6866 42.8211C43.4176 42.7201 43.1309 42.6747 42.8439 42.6875C41.6666 42.6875 40.7125 43.6395 40.7125 44.8125C40.7125 45.9855 41.6688 46.9375 42.8439 46.9375ZM32.1913 36.3125C33.3685 36.3125 34.3226 35.3605 34.3226 34.1875C34.3226 33.0145 33.3685 32.0625 32.1913 32.0625C31.9042 32.0497 31.6175 32.0951 31.3485 32.1961C31.0795 32.2971 30.8338 32.4516 30.6261 32.6502C30.4184 32.8487 30.2531 33.0873 30.1402 33.3516C30.0273 33.6158 29.9691 33.9002 29.9691 34.1875C29.9691 34.4748 30.0273 34.7592 30.1402 35.0234C30.2531 35.2877 30.4184 35.5263 30.6261 35.7248C30.8338 35.9234 31.0795 36.0779 31.3485 36.1789C31.6175 36.2799 31.9042 36.3253 32.1913 36.3125Z" fill="url(#paint0_linear_13908_10123)" fill-opacity="0.5"/>
</g>
<defs>
<linearGradient id="paint0_linear_13908_10123" x1="37.4995" y1="22.5" x2="37.4995" y2="56.5" gradientUnits="userSpaceOnUse">
<stop stop-color="white"/>
<stop offset="1" stop-color="white" stop-opacity="0"/>
</linearGradient>
<clipPath id="clip0_13908_10123">
<rect width="56" height="56" fill="white"/>
</clipPath>
</defs>
</svg>
