<svg width="20" height="20" viewBox="0 0 20 20" fill="none" xmlns="http://www.w3.org/2000/svg">
<g clip-path="url(#clip0_36819_4758)">
<path fill-rule="evenodd" clip-rule="evenodd" d="M15.7019 12.7746C16.0815 12.4085 16.6971 12.4085 17.0768 12.7746L19.0212 14.6496C19.4009 15.0157 19.4009 15.6093 19.0212 15.9754C18.6416 16.3415 18.026 16.3415 17.6463 15.9754L17.3615 15.7008V19.0625C17.3615 19.5803 16.9263 20 16.3893 20C15.8524 20 15.4171 19.5803 15.4171 19.0625V15.7008L15.1323 15.9754C14.7527 16.3415 14.1371 16.3415 13.7574 15.9754C13.3777 15.6093 13.3777 15.0157 13.7574 14.6496L15.7019 12.7746Z" fill="white"/>
<path d="M5 12.4993C5 12.0391 5.3731 11.666 5.83333 11.666H9.16667C9.6269 11.666 10 12.0391 10 12.4993C10 12.9596 9.6269 13.3327 9.16667 13.3327H5.83333C5.3731 13.3327 5 12.9596 5 12.4993Z" fill="white"/>
<path d="M1.66797 7.5H18.3346V9.16667H1.66797V7.5Z" fill="white"/>
<path fill-rule="evenodd" clip-rule="evenodd" d="M6.46689 3.33398H13.5357C14.2065 3.33397 14.7602 3.33397 15.2112 3.37081C15.6796 3.40908 16.1102 3.49122 16.5146 3.6973C17.1418 4.01687 17.6517 4.52681 17.9713 5.15402C18.1774 5.55846 18.2595 5.98905 18.2978 6.45746C18.3347 6.90845 18.3346 7.46208 18.3346 8.13288V10.0007C18.3346 10.4609 17.9615 10.834 17.5013 10.834C17.0411 10.834 16.668 10.4609 16.668 10.0007V8.16732C16.668 7.4535 16.6673 6.96826 16.6367 6.59318C16.6068 6.22784 16.5527 6.041 16.4863 5.91067C16.3265 5.59706 16.0716 5.3421 15.758 5.18231C15.6276 5.1159 15.4408 5.06179 15.0754 5.03194C14.7004 5.0013 14.2151 5.00065 13.5013 5.00065H6.5013C5.78749 5.00065 5.30224 5.0013 4.92717 5.03194C4.56182 5.06179 4.37498 5.1159 4.24465 5.18231C3.93105 5.3421 3.67608 5.59706 3.51629 5.91067C3.44988 6.041 3.39578 6.22784 3.36593 6.59318C3.33528 6.96826 3.33464 7.4535 3.33464 8.16732V11.834C3.33464 12.5478 3.33528 13.033 3.36593 13.4081C3.39578 13.7735 3.44988 13.9603 3.51629 14.0906C3.67608 14.4042 3.93105 14.6592 4.24465 14.819C4.37498 14.8854 4.56182 14.9395 4.92717 14.9694C5.30224 15 5.78749 15.0007 6.5013 15.0007H10.8346C11.2949 15.0007 11.668 15.3737 11.668 15.834C11.668 16.2942 11.2949 16.6673 10.8346 16.6673H6.46691C5.79609 16.6673 5.24245 16.6673 4.79145 16.6305C4.32303 16.5922 3.89245 16.5101 3.488 16.304C2.86079 15.9844 2.35086 15.4745 2.03128 14.8473C1.82521 14.4428 1.74307 14.0123 1.7048 13.5438C1.66795 13.0928 1.66796 12.5392 1.66797 11.8684V8.1329C1.66796 7.46209 1.66795 6.90846 1.7048 6.45746C1.74307 5.98905 1.82521 5.55846 2.03128 5.15402C2.35086 4.52681 2.86079 4.01687 3.488 3.6973C3.89245 3.49122 4.32303 3.40908 4.79145 3.37081C5.24244 3.33397 5.79608 3.33397 6.46689 3.33398Z" fill="white"/>
</g>
<defs>
<clipPath id="clip0_36819_4758">
<rect width="20" height="20" fill="white"/>
</clipPath>
</defs>
</svg>
