<svg width="56" height="56" viewBox="0 0 56 56" fill="none" xmlns="http://www.w3.org/2000/svg">
<g clip-path="url(#clip0_34110_15862)">
<path fill-rule="evenodd" clip-rule="evenodd" d="M33.5 62.0909C46.6247 62.0909 56 57.4063 56 46.9851C56 35.6522 50.3706 29.9121 39.1259 24.2492L43.9893 16.5876C44.1802 16.2181 44.2747 15.8059 44.2638 15.3896C44.253 14.9732 44.1371 14.5665 43.9271 14.2078C43.7171 13.849 43.42 13.5499 43.0636 13.3387C42.7073 13.1275 42.3034 13.0111 41.8901 13.0004H25.9907C25.5497 12.992 25.1147 13.1043 24.7321 13.3253C24.3495 13.5463 24.0336 13.8678 23.8181 14.2554C23.6027 14.643 23.4957 15.0823 23.5086 15.5264C23.5215 15.9704 23.6538 16.4026 23.8915 16.7769L27.8741 24.2492C16.6259 29.9893 11 35.7293 11 47.0587C11 57.4063 20.3753 62.0909 33.5 62.0909ZM32.825 34.3863C27.786 31.1946 21.1643 34.5337 20.7348 40.4829C20.5137 43.5112 22.0502 46.3977 24.6859 47.9053C24.7059 47.9169 24.7263 47.9277 24.7471 47.9377C25.3554 48.2299 26.0518 47.7542 26.0008 47.0813C25.9745 46.8293 25.9745 46.5729 25.9745 46.3166V46.3165C25.9776 41.8296 28.6104 37.7612 32.7022 35.9203C32.7151 35.9146 32.7278 35.9085 32.7403 35.9022C33.3426 35.5979 33.3896 34.7557 32.825 34.3863ZM41.3146 53.1487C36.0551 56.1853 29.4808 52.3896 29.4808 46.3165C29.4808 41.9594 33.0129 38.4273 37.37 38.4273C38.7549 38.4273 40.1153 38.7918 41.3146 39.4843C46.5741 42.5208 46.5741 50.1122 41.3146 53.1487Z" fill="url(#paint0_linear_34110_15862)" fill-opacity="0.5"/>
</g>
<defs>
<linearGradient id="paint0_linear_34110_15862" x1="33.5" y1="1.83917" x2="33.5" y2="62.0911" gradientUnits="userSpaceOnUse">
<stop stop-color="white"/>
<stop offset="1" stop-color="white" stop-opacity="0"/>
</linearGradient>
<clipPath id="clip0_34110_15862">
<rect width="56" height="56" fill="white"/>
</clipPath>
</defs>
</svg>
