<svg width="45" height="44" viewBox="0 0 45 44" fill="none" xmlns="http://www.w3.org/2000/svg">
<path d="M22.375 0.5C34.2491 0.5 43.875 10.1259 43.875 22C43.875 33.8741 34.2491 43.5 22.375 43.5C10.5009 43.5 0.875 33.8741 0.875 22C0.875 10.1259 10.5009 0.5 22.375 0.5Z" stroke="url(#paint0_linear_69_1628)"/>
<path d="M22.375 13.667C26.975 13.667 30.708 17.3917 30.708 22C30.708 26.6 26.975 30.333 22.375 30.333C17.7667 30.333 14.042 26.6 14.042 22C14.042 17.3917 17.7667 13.667 22.375 13.667ZM22.375 15.333C18.6917 15.333 15.708 18.3167 15.708 22C15.708 25.675 18.6917 28.667 22.375 28.667C26.05 28.667 29.042 25.675 29.042 22C29.042 18.3167 26.05 15.333 22.375 15.333ZM21.7744 18.0664C22.0994 17.7331 22.6247 17.7332 22.958 18.0664C22.9607 18.0691 22.9631 18.0724 22.9658 18.0752L26.2998 21.4082C26.6248 21.7249 26.6248 22.259 26.2998 22.584H26.291C26.1327 22.7338 25.9158 22.8252 25.6992 22.8252L25.709 22.834C25.484 22.834 25.2672 22.7418 25.1172 22.5918L23.208 20.6826V25.333C23.208 25.7913 22.8333 26.167 22.375 26.167C21.9083 26.167 21.542 25.7913 21.542 25.333V20.666L19.625 22.583C19.4667 22.7329 19.2498 22.8251 19.0332 22.8252L19.041 22.833C18.8161 22.8329 18.5992 22.7417 18.4492 22.5918C18.116 22.2668 18.1164 21.7332 18.4414 21.4082V21.4004L21.7744 18.0664Z" fill="url(#paint1_linear_69_1628)"/>
<defs>
<linearGradient id="paint0_linear_69_1628" x1="0.375" y1="22" x2="44.375" y2="22" gradientUnits="userSpaceOnUse">
<stop stop-color="#000000"/>
<stop offset="1" stop-color="#A119B4"/>
</linearGradient>
<linearGradient id="paint1_linear_69_1628" x1="14.042" y1="22" x2="30.708" y2="22" gradientUnits="userSpaceOnUse">
<stop stop-color="#000000"/>
<stop offset="1" stop-color="#A119B4"/>
</linearGradient>
</defs>
</svg>
