<svg width="20" height="20" viewBox="0 0 20 20" fill="none" xmlns="http://www.w3.org/2000/svg">
<rect width="20" height="20" rx="10" fill="#00C800"/>
<path d="M8.09172 11.5907C8.02857 11.6217 7.95731 11.6396 7.88162 11.6396C7.70668 11.6396 7.55454 11.546 7.4747 11.4077L7.44409 11.3425L6.16973 8.62591C6.15598 8.59624 6.14738 8.56295 6.14738 8.53051C6.14738 8.40525 6.25185 8.30367 6.38077 8.30367C6.43313 8.30367 6.48141 8.32049 6.52047 8.3487L8.02414 9.38877C8.13409 9.45874 8.26526 9.49965 8.40636 9.49965C8.49074 9.49965 8.57093 9.48443 8.64584 9.45789L15.7178 6.4C14.4503 4.94863 12.3625 4 9.99994 4C6.13389 4 3 6.53724 3 9.66714C3 11.3749 3.94294 12.912 5.41868 13.9508C5.53715 14.0328 5.61456 14.1677 5.61456 14.32C5.61456 14.3703 5.60343 14.4165 5.59003 14.4644C5.47216 14.8917 5.2834 15.5756 5.27461 15.6076C5.25992 15.6612 5.23686 15.7172 5.23686 15.7733C5.23686 15.8985 5.34142 16 5.47035 16C5.52114 16 5.56237 15.9817 5.60517 15.9578L7.13763 15.0984C7.25289 15.0336 7.37494 14.9937 7.50933 14.9937C7.58084 14.9937 7.64999 15.0043 7.71516 15.0237C8.43002 15.2234 9.20133 15.3345 9.99995 15.3345C13.8658 15.3345 17 12.7972 17 9.66717C17 8.71924 16.7109 7.82637 16.2027 7.04111L8.14277 11.562L8.09172 11.5907Z" fill="white"/>
</svg>
