<svg width="20" height="20" viewBox="0 0 20 20" fill="none" xmlns="http://www.w3.org/2000/svg">
<path d="M0 10C0 12.6522 1.05357 15.1957 2.92893 17.0711C4.8043 18.9464 7.34784 20 10 20C12.6522 20 15.1957 18.9464 17.0711 17.0711C18.9464 15.1957 20 12.6522 20 10C20 7.34784 18.9464 4.8043 17.0711 2.92893C15.1957 1.05357 12.6522 0 10 0C7.34784 0 4.8043 1.05357 2.92893 2.92893C1.05357 4.8043 0 7.34784 0 10Z" fill="#003DA0"/>
<path d="M15.7176 10.9846C15.7176 10.0999 13.6672 9.36918 11.0118 9.25379V7.79226H13.7344V5.71533H6.27226V7.79226H8.99495V9.25379C6.30587 9.40764 4.28906 10.1384 4.28906 10.9846C4.28906 11.8307 6.33948 12.5999 8.99495 12.7153V15.7153H11.0118V12.7153C13.7008 12.5999 15.7176 11.8692 15.7176 10.9846ZM10.0033 12.3692C6.57478 12.3692 4.49074 11.4846 4.49074 10.8307C4.49074 10.2538 6.17142 9.48456 8.99495 9.33072V12.1384C9.33108 12.1769 9.70083 12.1769 10.0706 12.1769C10.4067 12.1769 10.7092 12.1769 11.0118 12.1384V9.33072C13.8353 9.48456 15.516 10.2538 15.516 10.8307C15.516 11.4846 13.4319 12.3692 10.0033 12.3692Z" fill="white"/>
</svg>
