<svg width="20" height="20" viewBox="0 0 20 20" fill="none" xmlns="http://www.w3.org/2000/svg">
<path fill-rule="evenodd" clip-rule="evenodd" d="M15.7019 19.7254C16.0815 20.0915 16.6971 20.0915 17.0768 19.7254L19.0212 17.8504C19.4009 17.4843 19.4009 16.8907 19.0212 16.5246C18.6416 16.1585 18.026 16.1585 17.6463 16.5246L17.3615 16.7992V13.4375C17.3615 12.9197 16.9263 12.5 16.3893 12.5C15.8524 12.5 15.4171 12.9197 15.4171 13.4375V16.7992L15.1323 16.5246C14.7527 16.1585 14.1371 16.1585 13.7574 16.5246C13.3777 16.8907 13.3777 17.4843 13.7574 17.8504L15.7019 19.7254Z" fill="#9AEEDE"/>
<path d="M5 12.4993C5 12.0391 5.3731 11.666 5.83333 11.666H9.16667C9.6269 11.666 10 12.0391 10 12.4993C10 12.9596 9.6269 13.3327 9.16667 13.3327H5.83333C5.3731 13.3327 5 12.9596 5 12.4993Z" fill="white"/>
<path d="M1.66699 7.5H18.3337V9.16667H1.66699V7.5Z" fill="white"/>
<path fill-rule="evenodd" clip-rule="evenodd" d="M6.46591 3.33398H13.5347C14.2056 3.33397 14.7592 3.33397 15.2102 3.37081C15.6786 3.40908 16.1092 3.49122 16.5136 3.6973C17.1408 4.01687 17.6508 4.52681 17.9703 5.15402C18.1764 5.55846 18.2586 5.98905 18.2968 6.45746C18.3337 6.90845 18.3337 7.46208 18.3337 8.13288V10.0007C18.3337 10.4609 17.9606 10.834 17.5003 10.834C17.0401 10.834 16.667 10.4609 16.667 10.0007V8.16732C16.667 7.4535 16.6663 6.96826 16.6357 6.59318C16.6058 6.22784 16.5517 6.041 16.4853 5.91067C16.3255 5.59706 16.0706 5.3421 15.757 5.18231C15.6266 5.1159 15.4398 5.06179 15.0745 5.03194C14.6994 5.0013 14.2141 5.00065 13.5003 5.00065H6.50033C5.78651 5.00065 5.30127 5.0013 4.92619 5.03194C4.56084 5.06179 4.37401 5.1159 4.24368 5.18231C3.93007 5.3421 3.6751 5.59706 3.51532 5.91067C3.44891 6.041 3.3948 6.22784 3.36495 6.59318C3.33431 6.96826 3.33366 7.4535 3.33366 8.16732V11.834C3.33366 12.5478 3.33431 13.033 3.36495 13.4081C3.3948 13.7735 3.44891 13.9603 3.51532 14.0906C3.6751 14.4042 3.93007 14.6592 4.24368 14.819C4.37401 14.8854 4.56084 14.9395 4.92619 14.9694C5.30127 15 5.78651 15.0007 6.50033 15.0007H10.8337C11.2939 15.0007 11.667 15.3737 11.667 15.834C11.667 16.2942 11.2939 16.6673 10.8337 16.6673H6.46593C5.79511 16.6673 5.24147 16.6673 4.79047 16.6305C4.32206 16.5922 3.89147 16.5101 3.48702 16.304C2.85982 15.9844 2.34988 15.4745 2.0303 14.8473C1.82423 14.4428 1.74209 14.0123 1.70382 13.5438C1.66697 13.0928 1.66698 12.5392 1.66699 11.8684V8.1329C1.66698 7.46209 1.66697 6.90846 1.70382 6.45746C1.74209 5.98905 1.82423 5.55846 2.0303 5.15402C2.34988 4.52681 2.85982 4.01687 3.48702 3.6973C3.89147 3.49122 4.32206 3.40908 4.79047 3.37081C5.24147 3.33397 5.7951 3.33397 6.46591 3.33398Z" fill="white"/>
</svg>
