<svg width="64" height="64" viewBox="0 0 64 64" fill="none" xmlns="http://www.w3.org/2000/svg">
<g filter="url(#filter0_i_36819_1824)">
<path d="M0 32C0 14.3269 14.3269 0 32 0C49.6731 0 64 14.3269 64 32C64 49.6731 49.6731 64 32 64C14.3269 64 0 49.6731 0 32Z" fill="#01003E"/>
<g clip-path="url(#clip0_36819_1824)">
<g filter="url(#filter1_i_36819_1824)">
<path d="M36.8729 26.1032C37.428 25.437 37.7529 24.705 37.7529 24.0142C37.7529 22.8875 37.0045 21 32 21C29.8535 21 26.2471 21.3907 26.2471 24.0142C26.2471 24.705 26.5679 25.437 27.1271 26.1032C23.4591 28.3196 21 32.5675 21 35.1047C21 39.8994 25.3178 43 32 43C38.6822 43 43 39.8994 43 35.1047C43 32.5634 40.5368 28.3155 36.8729 26.1032Z" fill="url(#paint0_linear_36819_1824)"/>
<path d="M36.8729 26.1032C37.428 25.437 37.7529 24.705 37.7529 24.0142C37.7529 22.8875 37.0045 21 32 21C29.8535 21 26.2471 21.3907 26.2471 24.0142C26.2471 24.705 26.5679 25.437 27.1271 26.1032C23.4591 28.3196 21 32.5675 21 35.1047C21 39.8994 25.3178 43 32 43C38.6822 43 43 39.8994 43 35.1047C43 32.5634 40.5368 28.3155 36.8729 26.1032Z" fill="url(#paint1_radial_36819_1824)" fill-opacity="0.92"/>
<path d="M36.8729 26.1032C37.428 25.437 37.7529 24.705 37.7529 24.0142C37.7529 22.8875 37.0045 21 32 21C29.8535 21 26.2471 21.3907 26.2471 24.0142C26.2471 24.705 26.5679 25.437 27.1271 26.1032C23.4591 28.3196 21 32.5675 21 35.1047C21 39.8994 25.3178 43 32 43C38.6822 43 43 39.8994 43 35.1047C43 32.5634 40.5368 28.3155 36.8729 26.1032Z" fill="url(#paint2_radial_36819_1824)"/>
<path d="M36.8729 26.1032C37.428 25.437 37.7529 24.705 37.7529 24.0142C37.7529 22.8875 37.0045 21 32 21C29.8535 21 26.2471 21.3907 26.2471 24.0142C26.2471 24.705 26.5679 25.437 27.1271 26.1032C23.4591 28.3196 21 32.5675 21 35.1047C21 39.8994 25.3178 43 32 43C38.6822 43 43 39.8994 43 35.1047C43 32.5634 40.5368 28.3155 36.8729 26.1032Z" fill="url(#paint3_radial_36819_1824)"/>
<path d="M36.8729 26.1032C37.428 25.437 37.7529 24.705 37.7529 24.0142C37.7529 22.8875 37.0045 21 32 21C29.8535 21 26.2471 21.3907 26.2471 24.0142C26.2471 24.705 26.5679 25.437 27.1271 26.1032C23.4591 28.3196 21 32.5675 21 35.1047C21 39.8994 25.3178 43 32 43C38.6822 43 43 39.8994 43 35.1047C43 32.5634 40.5368 28.3155 36.8729 26.1032Z" fill="url(#paint4_radial_36819_1824)"/>
<path d="M36.8729 26.1032C37.428 25.437 37.7529 24.705 37.7529 24.0142C37.7529 22.8875 37.0045 21 32 21C29.8535 21 26.2471 21.3907 26.2471 24.0142C26.2471 24.705 26.5679 25.437 27.1271 26.1032C23.4591 28.3196 21 32.5675 21 35.1047C21 39.8994 25.3178 43 32 43C38.6822 43 43 39.8994 43 35.1047C43 32.5634 40.5368 28.3155 36.8729 26.1032Z" fill="url(#paint5_radial_36819_1824)" fill-opacity="0.64"/>
</g>
<path d="M36.8729 26.1032C37.428 25.437 37.7529 24.705 37.7529 24.0142C37.7529 22.8875 37.0045 21 32 21C29.8535 21 26.2471 21.3907 26.2471 24.0142C26.2471 24.705 26.5679 25.437 27.1271 26.1032C23.4591 28.3196 21 32.5675 21 35.1047C21 39.8994 25.3178 43 32 43C38.6822 43 43 39.8994 43 35.1047C43 32.5634 40.5368 28.3155 36.8729 26.1032Z" stroke="url(#paint6_linear_36819_1824)" stroke-width="0.382804"/>
<path d="M34.2853 33.4279C34.6784 33.4279 35 33.1349 35 32.774C35 32.413 34.682 32.12 34.2853 32.12H33.3026L34.3961 31.1158C34.6748 30.8585 34.6748 30.4476 34.3961 30.1903C34.1173 29.9366 33.6671 29.9366 33.3883 30.1903L32.0375 31.4303L30.6903 30.1903C30.4116 29.9366 29.9613 29.9366 29.6825 30.1903C29.4038 30.4476 29.4038 30.8585 29.6825 31.1158L30.7761 32.12H29.7755C29.3824 32.12 29.0608 32.413 29.0608 32.774C29.0608 33.1349 29.3824 33.4279 29.7755 33.4279H31.3192V34.1391H29.7111C29.318 34.1391 29 34.4321 29 34.793C29 35.154 29.318 35.447 29.7111 35.447H31.3192V36.6977C31.3192 37.0587 31.6373 37.3517 32.0304 37.3517C32.4235 37.3517 32.7415 37.0587 32.7415 36.6977V35.447H34.221C34.6141 35.447 34.9321 35.154 34.9321 34.793C34.9321 34.4321 34.6141 34.1391 34.221 34.1391H32.7415V33.4279H34.2853Z" fill="#030346"/>
</g>
</g>
<defs>
<filter id="filter0_i_36819_1824" x="0" y="0" width="64" height="64" filterUnits="userSpaceOnUse" color-interpolation-filters="sRGB">
<feFlood flood-opacity="0" result="BackgroundImageFix"/>
<feBlend mode="normal" in="SourceGraphic" in2="BackgroundImageFix" result="shape"/>
<feColorMatrix in="SourceAlpha" type="matrix" values="0 0 0 0 0 0 0 0 0 0 0 0 0 0 0 0 0 0 127 0" result="hardAlpha"/>
<feOffset/>
<feGaussianBlur stdDeviation="7.8"/>
<feComposite in2="hardAlpha" operator="arithmetic" k2="-1" k3="1"/>
<feColorMatrix type="matrix" values="0 0 0 0 0.2306 0 0 0 0 0.311979 0 0 0 0 1 0 0 0 1 0"/>
<feBlend mode="normal" in2="shape" result="effect1_innerShadow_36819_1824"/>
</filter>
<filter id="filter1_i_36819_1824" x="20.8086" y="20.043" width="22.3828" height="23.1484" filterUnits="userSpaceOnUse" color-interpolation-filters="sRGB">
<feFlood flood-opacity="0" result="BackgroundImageFix"/>
<feBlend mode="normal" in="SourceGraphic" in2="BackgroundImageFix" result="shape"/>
<feColorMatrix in="SourceAlpha" type="matrix" values="0 0 0 0 0 0 0 0 0 0 0 0 0 0 0 0 0 0 127 0" result="hardAlpha"/>
<feOffset dy="-0.765608"/>
<feGaussianBlur stdDeviation="0.622056"/>
<feComposite in2="hardAlpha" operator="arithmetic" k2="-1" k3="1"/>
<feColorMatrix type="matrix" values="0 0 0 0 1 0 0 0 0 0.97829 0 0 0 0 0.891451 0 0 0 0.82 0"/>
<feBlend mode="normal" in2="shape" result="effect1_innerShadow_36819_1824"/>
</filter>
<linearGradient id="paint0_linear_36819_1824" x1="41.7379" y1="35.9634" x2="21.1371" y2="34.5344" gradientUnits="userSpaceOnUse">
<stop offset="0.0288461" stop-color="#6D4BD9"/>
<stop offset="1" stop-color="#B875DE"/>
</linearGradient>
<radialGradient id="paint1_radial_36819_1824" cx="0" cy="0" r="1" gradientTransform="matrix(-3.08 11.1803 12.5402 5.22233 35.2267 21)" gradientUnits="userSpaceOnUse">
<stop stop-color="#67D1FF"/>
<stop offset="1" stop-color="#8367FF" stop-opacity="0"/>
</radialGradient>
<radialGradient id="paint2_radial_36819_1824" cx="0" cy="0" r="1" gradientTransform="matrix(5.13333 11.9016 -10.3583 7.19349 26.28 21)" gradientUnits="userSpaceOnUse">
<stop offset="0.125" stop-color="#F0F1FF"/>
<stop offset="1" stop-color="#AC97D4" stop-opacity="0"/>
</radialGradient>
<radialGradient id="paint3_radial_36819_1824" cx="0" cy="0" r="1" gradientTransform="matrix(0.198479 -15.6755 29.4773 0.564212 31.9482 43.528)" gradientUnits="userSpaceOnUse">
<stop stop-color="#FFDAB3"/>
<stop offset="0.824833" stop-color="#8057DA" stop-opacity="0"/>
</radialGradient>
<radialGradient id="paint4_radial_36819_1824" cx="0" cy="0" r="1" gradientTransform="matrix(11.3432 12.5165 -10.1663 9.23579 19.9733 26.5902)" gradientUnits="userSpaceOnUse">
<stop stop-color="#FFA5F1"/>
<stop offset="0.578076" stop-color="#C795FF" stop-opacity="0"/>
</radialGradient>
<radialGradient id="paint5_radial_36819_1824" cx="0" cy="0" r="1" gradientTransform="matrix(-12.32 -8.65574 5.68574 -10.0734 43 39.3934)" gradientUnits="userSpaceOnUse">
<stop stop-color="#D097FF"/>
<stop offset="0.644421" stop-color="#9068D9" stop-opacity="0"/>
</radialGradient>
<linearGradient id="paint6_linear_36819_1824" x1="33.9067" y1="35.6066" x2="18.9462" y2="35.4873" gradientUnits="userSpaceOnUse">
<stop stop-color="#FFF6E1"/>
<stop offset="1" stop-color="#E697FF"/>
</linearGradient>
<clipPath id="clip0_36819_1824">
<rect width="24" height="24" fill="white" transform="translate(20 20)"/>
</clipPath>
</defs>
</svg>
