<svg width="48" height="48" viewBox="0 0 48 48" fill="none" xmlns="http://www.w3.org/2000/svg">
<path d="M0 24C0 10.7452 10.7452 0 24 0C37.2548 0 48 10.7452 48 24C48 37.2548 37.2548 48 24 48C10.7452 48 0 37.2548 0 24Z" fill="#0066FF"/>
<path fill-rule="evenodd" clip-rule="evenodd" d="M24.125 34.5C29.7395 34.5 33.75 32.496 33.75 28.0381C33.75 23.1901 31.3419 20.7346 26.5316 18.3121L28.6121 15.0347C28.6938 14.8767 28.7342 14.7003 28.7295 14.5222C28.7249 14.3441 28.6753 14.1701 28.5855 14.0167C28.4957 13.8632 28.3686 13.7352 28.2161 13.6449C28.0637 13.5545 27.8909 13.5047 27.7141 13.5002H20.9127C20.724 13.4966 20.538 13.5446 20.3743 13.6392C20.2106 13.7337 20.0755 13.8712 19.9833 14.037C19.8911 14.2029 19.8454 14.3908 19.8509 14.5807C19.8564 14.7707 19.913 14.9556 20.0147 15.1157L21.7184 18.3121C16.9066 20.7676 14.5 23.2231 14.5 28.0696C14.5 32.496 18.5105 34.5 24.125 34.5ZM23.8372 22.6492C21.6816 21.2838 18.849 22.7122 18.6652 25.2572C18.5707 26.5526 19.228 27.7874 20.3555 28.4323C20.364 28.4373 20.3727 28.4419 20.3816 28.4462C20.6418 28.5712 20.9398 28.3677 20.9179 28.0798C20.9067 27.972 20.9067 27.8624 20.9067 27.7527V27.7527C20.908 25.8333 22.0343 24.0929 23.7847 23.3054C23.7901 23.3029 23.7956 23.3004 23.8009 23.2977C24.0586 23.1675 24.0787 22.8072 23.8372 22.6492ZM27.4688 30.6753C25.219 31.9743 22.4066 30.3506 22.4066 27.7527C22.4066 25.8888 23.9176 24.3778 25.7814 24.3778C26.3738 24.3778 26.9558 24.5338 27.4688 24.83C29.7187 26.1289 29.7187 29.3764 27.4688 30.6753Z" fill="white"/>
<path d="M26.5316 18.3121L26.3206 18.1782L26.1726 18.4113L26.4192 18.5354L26.5316 18.3121ZM28.6121 15.0347L28.8232 15.1687L28.8291 15.1593L28.8342 15.1495L28.6121 15.0347ZM28.7295 14.5222L28.4796 14.5287L28.4796 14.5287L28.7295 14.5222ZM28.5855 14.0167L28.8013 13.8904V13.8904L28.5855 14.0167ZM28.2161 13.6449L28.0886 13.86L28.0886 13.86L28.2161 13.6449ZM27.7141 13.5002L27.7205 13.2502H27.7141V13.5002ZM20.9127 13.5002L20.9079 13.7502H20.9127V13.5002ZM20.3743 13.6392L20.4993 13.8556L20.3743 13.6392ZM19.8509 14.5807L19.601 14.588L19.8509 14.5807ZM20.0147 15.1157L20.2353 14.9981L20.2308 14.9897L20.2257 14.9817L20.0147 15.1157ZM21.7184 18.3121L21.832 18.5348L22.0587 18.4191L21.939 18.1946L21.7184 18.3121ZM18.6652 25.2572L18.9146 25.2754L18.9146 25.2752L18.6652 25.2572ZM23.8372 22.6492L23.974 22.44L23.9709 22.438L23.8372 22.6492ZM20.3555 28.4323L20.4812 28.2162L20.4796 28.2153L20.3555 28.4323ZM20.3816 28.4462L20.4899 28.2208H20.4899L20.3816 28.4462ZM20.9179 28.0798L21.1673 28.0609L21.1666 28.0539L20.9179 28.0798ZM20.9067 27.7527L20.6567 27.7525V27.7527H20.9067ZM23.7847 23.3054L23.6828 23.0771L23.6821 23.0774L23.7847 23.3054ZM23.8009 23.2977L23.9136 23.5208L23.9137 23.5208L23.8009 23.2977ZM27.4688 30.6753L27.5938 30.8919L27.4688 30.6753ZM27.4688 24.83L27.3438 25.0465L27.4688 24.83ZM33.75 28.0381H33.5C33.5 30.1769 32.5453 31.7137 30.9111 32.7284C29.2621 33.7522 26.9087 34.25 24.125 34.25V34.5V34.75C26.9557 34.75 29.4149 34.2458 31.1748 33.1532C32.9495 32.0513 34 30.3572 34 28.0381H33.75ZM26.5316 18.3121L26.4192 18.5354C28.8135 19.7412 30.5791 20.9408 31.7485 22.4206C32.9112 23.8918 33.5 25.6602 33.5 28.0381H33.75H34C34 25.5679 33.3848 23.6847 32.1408 22.1105C30.9036 20.5449 29.06 19.3056 26.6441 18.0889L26.5316 18.3121ZM28.6121 15.0347L28.401 14.9007L26.3206 18.1782L26.5316 18.3121L26.7427 18.4461L28.8232 15.1687L28.6121 15.0347ZM28.7295 14.5222L28.4796 14.5287C28.4832 14.6648 28.4523 14.7994 28.39 14.9199L28.6121 15.0347L28.8342 15.1495C28.9352 14.9539 28.9852 14.7358 28.9794 14.5157L28.7295 14.5222ZM28.5855 14.0167L28.3697 14.1429C28.4382 14.2599 28.4761 14.3927 28.4796 14.5287L28.7295 14.5222L28.9794 14.5157C28.9737 14.2955 28.9124 14.0803 28.8013 13.8904L28.5855 14.0167ZM28.2161 13.6449L28.0886 13.86C28.2045 13.9286 28.3012 14.0259 28.3697 14.1429L28.5855 14.0167L28.8013 13.8904C28.6901 13.7004 28.5326 13.5419 28.3436 13.4298L28.2161 13.6449ZM27.7141 13.5002L27.7076 13.7501C27.8417 13.7536 27.9728 13.7913 28.0886 13.86L28.2161 13.6449L28.3436 13.4298C28.1545 13.3178 27.9401 13.2559 27.7205 13.2503L27.7141 13.5002ZM20.9127 13.5002V13.7502H27.7141V13.5002V13.2502H20.9127V13.5002ZM20.3743 13.6392L20.4993 13.8556C20.6237 13.7838 20.7649 13.7474 20.9079 13.7501L20.9127 13.5002L20.9175 13.2502C20.6832 13.2458 20.4523 13.3054 20.2492 13.4227L20.3743 13.6392ZM19.9833 14.037L20.2018 14.1585C20.2721 14.0321 20.375 13.9275 20.4993 13.8556L20.3743 13.6392L20.2492 13.4227C20.0462 13.5399 19.8789 13.7104 19.7648 13.9156L19.9833 14.037ZM19.8509 14.5807L20.1008 14.5735C20.0966 14.4284 20.1315 14.2849 20.2018 14.1585L19.9833 14.037L19.7648 13.9156C19.6507 14.1208 19.5942 14.3532 19.601 14.588L19.8509 14.5807ZM20.0147 15.1157L20.2257 14.9817C20.1482 14.8596 20.105 14.7185 20.1008 14.5735L19.8509 14.5807L19.601 14.588C19.6078 14.8228 19.6778 15.0515 19.8036 15.2497L20.0147 15.1157ZM21.7184 18.3121L21.939 18.1946L20.2353 14.9981L20.0147 15.1157L19.7941 15.2333L21.4978 18.4297L21.7184 18.3121ZM14.5 28.0696H14.75C14.75 25.6925 15.3384 23.9243 16.5011 22.449C17.6706 20.9651 19.4366 19.7572 21.832 18.5348L21.7184 18.3121L21.6047 18.0895C19.1884 19.3226 17.3452 20.5702 16.1084 22.1395C14.8649 23.7174 14.25 25.6001 14.25 28.0696H14.5ZM24.125 34.5V34.25C21.3413 34.25 18.9877 33.7522 17.3386 32.7321C15.7041 31.7211 14.75 30.1919 14.75 28.0696H14.5H14.25C14.25 30.3737 15.3012 32.0597 17.0756 33.1573C18.8353 34.2458 21.2942 34.75 24.125 34.75V34.5ZM18.6652 25.2572L18.9146 25.2752C19.0847 22.9188 21.7075 21.5962 23.7034 22.8604L23.8372 22.6492L23.9709 22.438C21.6557 20.9715 18.6132 22.5057 18.4159 25.2392L18.6652 25.2572ZM20.3555 28.4323L20.4796 28.2153C19.4356 27.6182 18.827 26.4749 18.9146 25.2754L18.6652 25.2572L18.4159 25.239C18.3143 26.6304 19.0203 27.9566 20.2313 28.6493L20.3555 28.4323ZM20.3816 28.4462L20.4899 28.2208C20.4869 28.2194 20.484 28.2179 20.4812 28.2162L20.3555 28.4323L20.2297 28.6484C20.244 28.6567 20.2586 28.6644 20.2734 28.6715L20.3816 28.4462ZM20.9179 28.0798L20.6686 28.0987C20.6759 28.1947 20.5766 28.2625 20.4899 28.2208L20.3816 28.4462L20.2734 28.6715C20.707 28.8799 21.2036 28.5407 21.1672 28.0609L20.9179 28.0798ZM20.9067 27.7527H20.6567C20.6567 27.8601 20.6565 27.9828 20.6693 28.1058L20.9179 28.0798L21.1666 28.0539C21.1569 27.9612 21.1567 27.8647 21.1567 27.7527H20.9067ZM20.9067 27.7527H20.6567V27.7527H20.9067H21.1567V27.7527H20.9067ZM23.7847 23.3054L23.6821 23.0774C21.842 23.9053 20.6581 25.7348 20.6567 27.7525L20.9067 27.7527L21.1567 27.7528C21.158 25.9318 22.2265 24.2806 23.8872 23.5334L23.7847 23.3054ZM23.8009 23.2977L23.6882 23.0745C23.6865 23.0754 23.6846 23.0763 23.6828 23.0771L23.7847 23.3054L23.8865 23.5337C23.8956 23.5296 23.9047 23.5253 23.9136 23.5208L23.8009 23.2977ZM23.8372 22.6492L23.7003 22.8584C23.7808 22.9111 23.7741 23.0311 23.6882 23.0745L23.8009 23.2977L23.9137 23.5208C24.3431 23.3039 24.3766 22.7034 23.974 22.44L23.8372 22.6492ZM22.4066 27.7527H22.1566C22.1566 30.543 25.1773 32.287 27.5938 30.8919L27.4688 30.6753L27.3438 30.4588C25.2606 31.6616 22.6566 30.1581 22.6566 27.7527H22.4066ZM25.7814 24.3778V24.1278C23.7795 24.1278 22.1566 25.7507 22.1566 27.7527H22.4066H22.6566C22.6566 26.0269 24.0556 24.6278 25.7814 24.6278V24.3778ZM27.4688 24.83L27.5938 24.6135C27.0428 24.2953 26.4177 24.1278 25.7814 24.1278V24.3778V24.6278C26.3299 24.6278 26.8688 24.7722 27.3438 25.0465L27.4688 24.83ZM27.4688 30.6753L27.5938 30.8919C30.0104 29.4967 30.0104 26.0087 27.5938 24.6135L27.4688 24.83L27.3438 25.0465C29.4271 26.2492 29.4271 29.2561 27.3438 30.4588L27.4688 30.6753Z" fill="white"/>
</svg>
