<svg width="48" height="48" viewBox="0 0 48 48" fill="none" xmlns="http://www.w3.org/2000/svg">
<path d="M0 24C0 10.7452 10.7452 0 24 0C37.2548 0 48 10.7452 48 24C48 37.2548 37.2548 48 24 48C10.7452 48 0 37.2548 0 24Z" fill="#2935CC"/>
<path d="M0 24C0 10.7452 10.7452 0 24 0C37.2548 0 48 10.7452 48 24C48 37.2548 37.2548 48 24 48C10.7452 48 0 37.2548 0 24Z" fill="url(#paint0_linear_30673_16269)" fill-opacity="0.2"/>
<path fill-rule="evenodd" clip-rule="evenodd" d="M24.125 34C29.7395 34 33.75 31.996 33.75 27.5381C33.75 22.6901 31.3419 20.2346 26.5316 17.8121L28.6121 14.5347C28.6938 14.3767 28.7342 14.2003 28.7295 14.0222C28.7249 13.8441 28.6753 13.6701 28.5855 13.5167C28.4957 13.3632 28.3686 13.2352 28.2161 13.1449C28.0637 13.0545 27.8909 13.0047 27.7141 13.0002H20.9127C20.724 12.9966 20.538 13.0446 20.3743 13.1392C20.2106 13.2337 20.0755 13.3712 19.9833 13.537C19.8911 13.7029 19.8454 13.8908 19.8509 14.0807C19.8564 14.2707 19.913 14.4556 20.0147 14.6157L21.7184 17.8121C16.9066 20.2676 14.5 22.7231 14.5 27.5696C14.5 31.996 18.5105 34 24.125 34ZM23.8372 22.1492C21.6816 20.7838 18.849 22.2122 18.6652 24.7572C18.5707 26.0526 19.228 27.2874 20.3555 27.9323C20.364 27.9373 20.3727 27.9419 20.3816 27.9462C20.6418 28.0712 20.9398 27.8677 20.9179 27.5798C20.9067 27.472 20.9067 27.3624 20.9067 27.2527V27.2527C20.908 25.3333 22.0343 23.5929 23.7847 22.8054C23.7901 22.8029 23.7956 22.8004 23.8009 22.7977C24.0586 22.6675 24.0787 22.3072 23.8372 22.1492ZM27.4688 30.1753C25.219 31.4743 22.4066 29.8506 22.4066 27.2527C22.4066 25.3888 23.9176 23.8778 25.7814 23.8778C26.3738 23.8778 26.9558 24.0338 27.4688 24.33C29.7187 25.6289 29.7187 28.8764 27.4688 30.1753Z" fill="white"/>
<path d="M26.5316 17.8121L26.3206 17.6782L26.1726 17.9113L26.4192 18.0354L26.5316 17.8121ZM28.6121 14.5347L28.8232 14.6687L28.8291 14.6593L28.8342 14.6495L28.6121 14.5347ZM28.7295 14.0222L28.4796 14.0287L28.4796 14.0287L28.7295 14.0222ZM28.5855 13.5167L28.8013 13.3904L28.5855 13.5167ZM28.2161 13.1449L28.0886 13.36L28.0886 13.36L28.2161 13.1449ZM27.7141 13.0002L27.7205 12.7502H27.7141V13.0002ZM20.9127 13.0002L20.9079 13.2502H20.9127V13.0002ZM20.3743 13.1392L20.4993 13.3556L20.3743 13.1392ZM19.8509 14.0807L19.601 14.088L19.8509 14.0807ZM20.0147 14.6157L20.2353 14.4981L20.2308 14.4897L20.2257 14.4817L20.0147 14.6157ZM21.7184 17.8121L21.832 18.0348L22.0587 17.9191L21.939 17.6946L21.7184 17.8121ZM18.6652 24.7572L18.9146 24.7754L18.9146 24.7752L18.6652 24.7572ZM23.8372 22.1492L23.974 21.94L23.9709 21.938L23.8372 22.1492ZM20.3555 27.9323L20.4812 27.7162L20.4796 27.7153L20.3555 27.9323ZM20.3816 27.9462L20.4899 27.7208H20.4899L20.3816 27.9462ZM20.9179 27.5798L21.1673 27.5609L21.1666 27.5539L20.9179 27.5798ZM20.9067 27.2527L20.6567 27.2525V27.2527H20.9067ZM23.7847 22.8054L23.6828 22.5771L23.6821 22.5774L23.7847 22.8054ZM23.8009 22.7977L23.9136 23.0208L23.9137 23.0208L23.8009 22.7977ZM27.4688 30.1753L27.5938 30.3919L27.4688 30.1753ZM27.4688 24.33L27.3438 24.5465L27.4688 24.33ZM33.75 27.5381H33.5C33.5 29.6769 32.5453 31.2137 30.9111 32.2284C29.2621 33.2522 26.9087 33.75 24.125 33.75V34V34.25C26.9557 34.25 29.4149 33.7458 31.1748 32.6532C32.9495 31.5513 34 29.8572 34 27.5381H33.75ZM26.5316 17.8121L26.4192 18.0354C28.8135 19.2412 30.5791 20.4408 31.7485 21.9206C32.9112 23.3918 33.5 25.1602 33.5 27.5381H33.75H34C34 25.0679 33.3848 23.1847 32.1408 21.6105C30.9036 20.0449 29.06 18.8056 26.6441 17.5889L26.5316 17.8121ZM28.6121 14.5347L28.401 14.4007L26.3206 17.6782L26.5316 17.8121L26.7427 17.9461L28.8232 14.6687L28.6121 14.5347ZM28.7295 14.0222L28.4796 14.0287C28.4832 14.1648 28.4523 14.2994 28.39 14.4199L28.6121 14.5347L28.8342 14.6495C28.9352 14.4539 28.9852 14.2358 28.9794 14.0157L28.7295 14.0222ZM28.5855 13.5167L28.3697 13.6429C28.4382 13.7599 28.4761 13.8927 28.4796 14.0287L28.7295 14.0222L28.9794 14.0157C28.9737 13.7955 28.9124 13.5803 28.8013 13.3904L28.5855 13.5167ZM28.2161 13.1449L28.0886 13.36C28.2045 13.4286 28.3012 13.5259 28.3697 13.6429L28.5855 13.5167L28.8013 13.3904C28.6901 13.2004 28.5326 13.0419 28.3436 12.9298L28.2161 13.1449ZM27.7141 13.0002L27.7076 13.2501C27.8417 13.2536 27.9728 13.2913 28.0886 13.36L28.2161 13.1449L28.3436 12.9298C28.1545 12.8178 27.9401 12.7559 27.7205 12.7503L27.7141 13.0002ZM20.9127 13.0002V13.2502H27.7141V13.0002V12.7502H20.9127V13.0002ZM20.3743 13.1392L20.4993 13.3556C20.6237 13.2838 20.7649 13.2474 20.9079 13.2501L20.9127 13.0002L20.9175 12.7502C20.6832 12.7458 20.4523 12.8054 20.2492 12.9227L20.3743 13.1392ZM19.9833 13.537L20.2018 13.6585C20.2721 13.5321 20.375 13.4275 20.4993 13.3556L20.3743 13.1392L20.2492 12.9227C20.0462 13.0399 19.8789 13.2104 19.7648 13.4156L19.9833 13.537ZM19.8509 14.0807L20.1008 14.0735C20.0966 13.9284 20.1315 13.7849 20.2018 13.6585L19.9833 13.537L19.7648 13.4156C19.6507 13.6208 19.5942 13.8532 19.601 14.088L19.8509 14.0807ZM20.0147 14.6157L20.2257 14.4817C20.1482 14.3596 20.105 14.2185 20.1008 14.0735L19.8509 14.0807L19.601 14.088C19.6078 14.3228 19.6778 14.5515 19.8036 14.7497L20.0147 14.6157ZM21.7184 17.8121L21.939 17.6946L20.2353 14.4981L20.0147 14.6157L19.7941 14.7333L21.4978 17.9297L21.7184 17.8121ZM14.5 27.5696H14.75C14.75 25.1925 15.3384 23.4243 16.5011 21.949C17.6706 20.4651 19.4366 19.2572 21.832 18.0348L21.7184 17.8121L21.6047 17.5895C19.1884 18.8226 17.3452 20.0702 16.1084 21.6395C14.8649 23.2174 14.25 25.1001 14.25 27.5696H14.5ZM24.125 34V33.75C21.3413 33.75 18.9877 33.2522 17.3386 32.2321C15.7041 31.2211 14.75 29.6919 14.75 27.5696H14.5H14.25C14.25 29.8737 15.3012 31.5597 17.0756 32.6573C18.8353 33.7458 21.2942 34.25 24.125 34.25V34ZM18.6652 24.7572L18.9146 24.7752C19.0847 22.4188 21.7075 21.0962 23.7034 22.3604L23.8372 22.1492L23.9709 21.938C21.6557 20.4715 18.6132 22.0057 18.4159 24.7392L18.6652 24.7572ZM20.3555 27.9323L20.4796 27.7153C19.4356 27.1182 18.827 25.9749 18.9146 24.7754L18.6652 24.7572L18.4159 24.739C18.3143 26.1304 19.0203 27.4566 20.2313 28.1493L20.3555 27.9323ZM20.3816 27.9462L20.4899 27.7208C20.4869 27.7194 20.484 27.7179 20.4812 27.7162L20.3555 27.9323L20.2297 28.1484C20.244 28.1567 20.2586 28.1644 20.2734 28.1715L20.3816 27.9462ZM20.9179 27.5798L20.6686 27.5987C20.6759 27.6947 20.5766 27.7625 20.4899 27.7208L20.3816 27.9462L20.2734 28.1715C20.707 28.3799 21.2036 28.0407 21.1672 27.5609L20.9179 27.5798ZM20.9067 27.2527H20.6567C20.6567 27.3601 20.6565 27.4828 20.6693 27.6058L20.9179 27.5798L21.1666 27.5539C21.1569 27.4612 21.1567 27.3647 21.1567 27.2527H20.9067ZM20.9067 27.2527H20.6567V27.2527H20.9067H21.1567V27.2527H20.9067ZM23.7847 22.8054L23.6821 22.5774C21.842 23.4053 20.6581 25.2348 20.6567 27.2525L20.9067 27.2527L21.1567 27.2528C21.158 25.4318 22.2265 23.7806 23.8872 23.0334L23.7847 22.8054ZM23.8009 22.7977L23.6882 22.5745C23.6865 22.5754 23.6846 22.5763 23.6828 22.5771L23.7847 22.8054L23.8865 23.0337C23.8956 23.0296 23.9047 23.0253 23.9136 23.0208L23.8009 22.7977ZM23.8372 22.1492L23.7003 22.3584C23.7808 22.4111 23.7741 22.5311 23.6882 22.5745L23.8009 22.7977L23.9137 23.0208C24.3431 22.8039 24.3766 22.2034 23.974 21.94L23.8372 22.1492ZM22.4066 27.2527H22.1566C22.1566 30.043 25.1773 31.787 27.5938 30.3919L27.4688 30.1753L27.3438 29.9588C25.2606 31.1616 22.6566 29.6581 22.6566 27.2527H22.4066ZM25.7814 23.8778V23.6278C23.7795 23.6278 22.1566 25.2507 22.1566 27.2527H22.4066H22.6566C22.6566 25.5269 24.0556 24.1278 25.7814 24.1278V23.8778ZM27.4688 24.33L27.5938 24.1135C27.0428 23.7953 26.4177 23.6278 25.7814 23.6278V23.8778V24.1278C26.3299 24.1278 26.8688 24.2722 27.3438 24.5465L27.4688 24.33ZM27.4688 30.1753L27.5938 30.3919C30.0104 28.9967 30.0104 25.5087 27.5938 24.1135L27.4688 24.33L27.3438 24.5465C29.4271 25.7492 29.4271 28.7561 27.3438 29.9588L27.4688 30.1753Z" fill="white"/>
<defs>
<linearGradient id="paint0_linear_30673_16269" x1="10.3125" y1="36" x2="39.3125" y2="7.5" gradientUnits="userSpaceOnUse">
<stop stop-color="#B9E7FF" stop-opacity="0"/>
<stop offset="1" stop-color="#B9E7FF"/>
</linearGradient>
</defs>
</svg>
