<svg width="64" height="64" viewBox="0 0 64 64" fill="none" xmlns="http://www.w3.org/2000/svg">
<g filter="url(#filter0_i_36819_11245)">
<path d="M0 32C0 14.3269 14.3269 0 32 0C49.6731 0 64 14.3269 64 32C64 49.6731 49.6731 64 32 64C14.3269 64 0 49.6731 0 32Z" fill="#01003E"/>
<g filter="url(#filter1_i_36819_11245)">
<path d="M41.9961 37.5527C41.9961 39.4561 40.4531 40.9998 38.5498 41H26.4424C24.539 40.9999 22.9961 39.4561 22.9961 37.5527V28.3789H41.9961V37.5527ZM38.5498 23C40.4532 23.0001 41.9961 24.5439 41.9961 26.4473V26.7246H22.9961V26.4473C22.9961 24.5439 24.5391 23.0002 26.4424 23H38.5498Z" fill="url(#paint0_linear_36819_11245)"/>
<path d="M41.9961 37.5527C41.9961 39.4561 40.4531 40.9998 38.5498 41H26.4424C24.539 40.9999 22.9961 39.4561 22.9961 37.5527V28.3789H41.9961V37.5527ZM38.5498 23C40.4532 23.0001 41.9961 24.5439 41.9961 26.4473V26.7246H22.9961V26.4473C22.9961 24.5439 24.5391 23.0002 26.4424 23H38.5498Z" fill="url(#paint1_radial_36819_11245)"/>
<path d="M41.9961 37.5527C41.9961 39.4561 40.4531 40.9998 38.5498 41H26.4424C24.539 40.9999 22.9961 39.4561 22.9961 37.5527V28.3789H41.9961V37.5527ZM38.5498 23C40.4532 23.0001 41.9961 24.5439 41.9961 26.4473V26.7246H22.9961V26.4473C22.9961 24.5439 24.5391 23.0002 26.4424 23H38.5498Z" fill="url(#paint2_radial_36819_11245)"/>
<path d="M41.9961 37.5527C41.9961 39.4561 40.4531 40.9998 38.5498 41H26.4424C24.539 40.9999 22.9961 39.4561 22.9961 37.5527V28.3789H41.9961V37.5527ZM38.5498 23C40.4532 23.0001 41.9961 24.5439 41.9961 26.4473V26.7246H22.9961V26.4473C22.9961 24.5439 24.5391 23.0002 26.4424 23H38.5498Z" fill="url(#paint3_radial_36819_11245)"/>
<path d="M41.9961 37.5527C41.9961 39.4561 40.4531 40.9998 38.5498 41H26.4424C24.539 40.9999 22.9961 39.4561 22.9961 37.5527V28.3789H41.9961V37.5527ZM38.5498 23C40.4532 23.0001 41.9961 24.5439 41.9961 26.4473V26.7246H22.9961V26.4473C22.9961 24.5439 24.5391 23.0002 26.4424 23H38.5498Z" fill="url(#paint4_radial_36819_11245)" fill-opacity="0.64"/>
<path d="M41.9961 37.5527C41.9961 39.4561 40.4531 40.9998 38.5498 41H26.4424C24.539 40.9999 22.9961 39.4561 22.9961 37.5527V28.3789H41.9961V37.5527ZM38.5498 23C40.4532 23.0001 41.9961 24.5439 41.9961 26.4473V26.7246H22.9961V26.4473C22.9961 24.5439 24.5391 23.0002 26.4424 23H38.5498Z" fill="url(#paint5_radial_36819_11245)"/>
</g>
<path d="M38.5498 41V41.2331H38.5498L38.5498 41ZM26.4424 41L26.4424 41.2331H26.4424V41ZM22.9961 28.3789V28.1458H22.763V28.3789H22.9961ZM41.9961 28.3789H42.2292V28.1458H41.9961V28.3789ZM38.5498 23L38.5498 22.7669H38.5498V23ZM41.9961 26.4473H41.763H41.9961ZM41.9961 26.7246V26.9577H42.2292V26.7246H41.9961ZM22.9961 26.7246H22.763V26.9577H22.9961V26.7246ZM22.9961 26.4473H22.763H22.9961ZM26.4424 23V22.7669H26.4424L26.4424 23ZM41.9961 37.5527H41.763C41.763 39.3274 40.3243 40.7667 38.5498 40.7669L38.5498 41L38.5498 41.2331C40.5819 41.2329 42.2292 39.5847 42.2292 37.5527H41.9961ZM38.5498 41V40.7669H26.4424V41V41.2331H38.5498V41ZM26.4424 41L26.4424 40.7669C24.6678 40.7668 23.2292 39.3275 23.2292 37.5527H22.9961H22.763C22.763 39.5848 24.4102 41.233 26.4424 41.2331L26.4424 41ZM22.9961 37.5527H23.2292V28.3789H22.9961H22.763V37.5527H22.9961ZM22.9961 28.3789V28.612H41.9961V28.3789V28.1458H22.9961V28.3789ZM41.9961 28.3789H41.763V37.5527H41.9961H42.2292V28.3789H41.9961ZM38.5498 23L38.5498 23.2331C40.3243 23.2332 41.763 24.6725 41.763 26.4473H41.9961H42.2292C42.2292 24.4152 40.582 22.767 38.5498 22.7669L38.5498 23ZM41.9961 26.4473H41.763V26.7246H41.9961H42.2292V26.4473H41.9961ZM41.9961 26.7246V26.4915H22.9961V26.7246V26.9577H41.9961V26.7246ZM22.9961 26.7246H23.2292V26.4473H22.9961H22.763V26.7246H22.9961ZM22.9961 26.4473H23.2292C23.2292 24.6726 24.6679 23.2333 26.4424 23.2331L26.4424 23L26.4424 22.7669C24.4103 22.7671 22.763 24.4153 22.763 26.4473H22.9961ZM26.4424 23V23.2331H38.5498V23V22.7669H26.4424V23Z" fill="url(#paint6_linear_36819_11245)"/>
<path d="M31.4006 36.7401C31.5002 36.6036 31.553 36.4324 31.5496 36.2568C31.5462 36.0813 31.4868 35.9127 31.382 35.7811H34.5531C34.9049 35.7811 35.1898 35.4557 35.1898 35.0543C35.1898 34.6535 34.9049 34.3276 34.5531 34.3276H29.6384C29.0432 34.3276 28.7732 35.1752 29.2292 35.6114L30.503 36.8303C30.7725 37.0879 31.1742 37.0478 31.4001 36.7401H31.4006ZM32.7898 31.0509C32.6903 31.1875 32.6375 31.3587 32.6411 31.5343C32.6446 31.7099 32.704 31.8784 32.8089 32.0099H29.6379C29.286 32.0099 29.0007 32.3353 29.0007 32.7367C29.0007 33.1375 29.286 33.4635 29.6379 33.4635H34.552C35.1467 33.4635 35.4167 32.6159 34.9612 32.1797L33.6869 30.9607C33.6234 30.8995 33.5494 30.8532 33.4693 30.8245C33.3892 30.7959 33.3048 30.7854 33.221 30.7938C33.1372 30.8023 33.0558 30.8294 32.9817 30.8736C32.9076 30.9177 32.8424 30.9781 32.7898 31.0509Z" fill="#030346"/>
</g>
<defs>
<filter id="filter0_i_36819_11245" x="0" y="0" width="64" height="64" filterUnits="userSpaceOnUse" color-interpolation-filters="sRGB">
<feFlood flood-opacity="0" result="BackgroundImageFix"/>
<feBlend mode="normal" in="SourceGraphic" in2="BackgroundImageFix" result="shape"/>
<feColorMatrix in="SourceAlpha" type="matrix" values="0 0 0 0 0 0 0 0 0 0 0 0 0 0 0 0 0 0 127 0" result="hardAlpha"/>
<feOffset/>
<feGaussianBlur stdDeviation="7.8"/>
<feComposite in2="hardAlpha" operator="arithmetic" k2="-1" k3="1"/>
<feColorMatrix type="matrix" values="0 0 0 0 0.2306 0 0 0 0 0.311979 0 0 0 0 1 0 0 0 1 0"/>
<feBlend mode="normal" in2="shape" result="effect1_innerShadow_36819_11245"/>
</filter>
<filter id="filter1_i_36819_11245" x="22.7617" y="21.8352" width="19.4688" height="19.3973" filterUnits="userSpaceOnUse" color-interpolation-filters="sRGB">
<feFlood flood-opacity="0" result="BackgroundImageFix"/>
<feBlend mode="normal" in="SourceGraphic" in2="BackgroundImageFix" result="shape"/>
<feColorMatrix in="SourceAlpha" type="matrix" values="0 0 0 0 0 0 0 0 0 0 0 0 0 0 0 0 0 0 127 0" result="hardAlpha"/>
<feOffset dy="-0.93241"/>
<feGaussianBlur stdDeviation="0.757583"/>
<feComposite in2="hardAlpha" operator="arithmetic" k2="-1" k3="1"/>
<feColorMatrix type="matrix" values="0 0 0 0 1 0 0 0 0 0.97829 0 0 0 0 0.891451 0 0 0 0.82 0"/>
<feBlend mode="normal" in2="shape" result="effect1_innerShadow_36819_11245"/>
</filter>
<linearGradient id="paint0_linear_36819_11245" x1="40.9061" y1="35.2428" x2="23.1242" y2="33.9408" gradientUnits="userSpaceOnUse">
<stop offset="0.0288461" stop-color="#6D4BD9"/>
<stop offset="1" stop-color="#B875DE"/>
</linearGradient>
<radialGradient id="paint1_radial_36819_11245" cx="0" cy="0" r="1" gradientTransform="matrix(-2.66 9.14754 10.8302 4.27281 35.2828 23)" gradientUnits="userSpaceOnUse">
<stop stop-color="#56CCFF"/>
<stop offset="1" stop-color="#8367FF" stop-opacity="0"/>
</radialGradient>
<radialGradient id="paint2_radial_36819_11245" cx="0" cy="0" r="1" gradientTransform="matrix(0.171413 -12.8254 25.4577 0.461628 32.4513 41.432)" gradientUnits="userSpaceOnUse">
<stop stop-color="#FFDAB3"/>
<stop offset="0.824833" stop-color="#8057DA" stop-opacity="0"/>
</radialGradient>
<radialGradient id="paint3_radial_36819_11245" cx="0" cy="0" r="1" gradientTransform="matrix(10.7667 11.0656 -9.51745 8.33664 23.6294 25.2131)" gradientUnits="userSpaceOnUse">
<stop stop-color="#FFA5F1"/>
<stop offset="0.704754" stop-color="#C795FF" stop-opacity="0"/>
</radialGradient>
<radialGradient id="paint4_radial_36819_11245" cx="0" cy="0" r="1" gradientTransform="matrix(-10.64 -7.08197 4.91041 -8.24187 41.9961 38.0492)" gradientUnits="userSpaceOnUse">
<stop stop-color="#D097FF"/>
<stop offset="0.644421" stop-color="#9068D9" stop-opacity="0"/>
</radialGradient>
<radialGradient id="paint5_radial_36819_11245" cx="0" cy="0" r="1" gradientTransform="matrix(3.42 11.9508 -7.22 2.80328 29.2028 23)" gradientUnits="userSpaceOnUse">
<stop stop-color="#F4F4FF"/>
<stop offset="1" stop-color="#B59DE4" stop-opacity="0"/>
</radialGradient>
<linearGradient id="paint6_linear_36819_11245" x1="34.1428" y1="34.9508" x2="21.2224" y2="34.8421" gradientUnits="userSpaceOnUse">
<stop stop-color="#FFF6E1"/>
<stop offset="1" stop-color="#E697FF"/>
</linearGradient>
</defs>
</svg>
