<svg width="48" height="48" viewBox="0 0 48 48" fill="none" xmlns="http://www.w3.org/2000/svg">
<path d="M0 24C0 10.7452 10.7452 0 24 0C37.2548 0 48 10.7452 48 24C48 37.2548 37.2548 48 24 48C10.7452 48 0 37.2548 0 24Z" fill="#2935CC"/>
<path d="M0 24C0 10.7452 10.7452 0 24 0C37.2548 0 48 10.7452 48 24C48 37.2548 37.2548 48 24 48C10.7452 48 0 37.2548 0 24Z" fill="url(#paint0_linear_30673_16265)" fill-opacity="0.2"/>
<path fill-rule="evenodd" clip-rule="evenodd" d="M34.8321 30.2929C35.2226 30.6834 35.2226 31.3166 34.8321 31.7071L32.8321 33.7071C32.4416 34.0976 31.8084 34.0976 31.4179 33.7071C31.0274 33.3166 31.0274 32.6834 31.4179 32.2929L31.7108 32L28.125 32C27.5727 32 27.125 31.5523 27.125 31C27.125 30.4477 27.5727 30 28.125 30L31.7108 30L31.4179 29.7071C31.0274 29.3166 31.0274 28.6834 31.4179 28.2929C31.8084 27.9024 32.4416 27.9024 32.8321 28.2929L34.8321 30.2929Z" fill="white"/>
<path d="M14.3983 19.9425C14.5076 20 14.6491 20 14.9323 20H33.3177C33.6009 20 33.7424 20 33.8517 19.9425C33.9456 19.8932 34.0258 19.8094 34.0711 19.7135C34.1238 19.6018 34.118 19.466 34.1063 19.1944C34.0764 18.5015 33.9989 18.0323 33.798 17.638C33.5104 17.0735 33.0515 16.6146 32.487 16.327C31.8452 16 31.0052 16 29.325 16H18.925C17.2448 16 16.4048 16 15.763 16.327C15.1985 16.6146 14.7396 17.0735 14.452 17.638C14.2511 18.0323 14.1736 18.5015 14.1437 19.1944C14.132 19.466 14.1262 19.6018 14.1789 19.7135C14.2242 19.8094 14.3044 19.8932 14.3983 19.9425Z" fill="white"/>
<path fill-rule="evenodd" clip-rule="evenodd" d="M14.1795 22.273C14.125 22.38 14.125 22.52 14.125 22.8V27.2C14.125 28.8802 14.125 29.7202 14.452 30.362C14.7396 30.9265 15.1985 31.3854 15.763 31.673C16.4048 32 17.2448 32 18.925 32H24.325C24.605 32 24.745 32 24.852 31.9455C24.9461 31.8976 25.0226 31.8211 25.0705 31.727C25.125 31.62 25.125 31.48 25.125 31.2V31C25.125 27.6863 27.8113 25 31.125 25H33.325C33.605 25 33.745 25 33.852 24.9455C33.9461 24.8976 34.0226 24.8211 34.0705 24.727C34.125 24.62 34.125 24.48 34.125 24.2V22.8C34.125 22.52 34.125 22.38 34.0705 22.273C34.0226 22.1789 33.9461 22.1024 33.852 22.0545C33.745 22 33.605 22 33.325 22H14.925C14.645 22 14.505 22 14.398 22.0545C14.3039 22.1024 14.2274 22.1789 14.1795 22.273ZM18.125 27C18.125 26.4477 18.5727 26 19.125 26H23.125C23.6773 26 24.125 26.4477 24.125 27C24.125 27.5523 23.6773 28 23.125 28H19.125C18.5727 28 18.125 27.5523 18.125 27Z" fill="white"/>
<defs>
<linearGradient id="paint0_linear_30673_16265" x1="10.3125" y1="36" x2="39.3125" y2="7.5" gradientUnits="userSpaceOnUse">
<stop stop-color="#B9E7FF" stop-opacity="0"/>
<stop offset="1" stop-color="#B9E7FF"/>
</linearGradient>
</defs>
</svg>
