<svg width="56" height="56" viewBox="0 0 56 56" fill="none" xmlns="http://www.w3.org/2000/svg">
<path d="M14.4874 42.3412C14.4874 43.4719 15.5094 44.3946 16.7576 44.3946H19.0305V51.5919C19.0305 53.2986 20.5502 54.6746 22.4372 54.6746C24.3215 54.6746 25.8439 53.2959 25.8439 51.5919V44.3972H30.3843V51.5919C30.3843 53.2986 31.9067 54.6746 33.791 54.6746C35.6754 54.6746 37.1977 53.2959 37.1977 51.5919V44.3972H39.468C40.7188 44.3972 41.7381 43.4719 41.7381 42.3439V21.7839H14.4874V42.3386V42.3412ZM8.81048 21.7866C6.92618 21.7866 5.40381 23.1652 5.40381 24.8693V39.2586C5.40381 40.9652 6.92618 42.3413 8.81048 42.3413C10.6948 42.3413 12.2171 40.9652 12.2171 39.2586V24.8692C12.2171 23.1626 10.6948 21.7866 8.81048 21.7866ZM47.4151 21.7866C45.5308 21.7866 44.0084 23.1652 44.0084 24.8693V39.2586C44.0084 40.9652 45.5308 42.3413 47.4151 42.3413C49.2994 42.3413 50.8218 40.9652 50.8218 39.2586V24.8692C50.8218 23.1626 49.2994 21.7866 47.4151 21.7866ZM36.1305 9.7839L39.0927 7.10126C39.1967 7.01164 39.2803 6.90054 39.3375 6.77559C39.3948 6.65063 39.4244 6.51475 39.4244 6.37725C39.4244 6.23975 39.3948 6.10388 39.3375 5.97892C39.2803 5.85396 39.1967 5.74287 39.0927 5.65324C38.8709 5.46002 38.5868 5.3536 38.2929 5.3536C37.999 5.3536 37.7149 5.46002 37.4931 5.65324L34.1317 8.68255C32.2383 7.83542 30.1877 7.39834 28.1142 7.39991C25.9317 7.39991 23.8904 7.87186 22.062 8.69327L18.6898 5.64258C18.4678 5.44864 18.1833 5.3418 17.8888 5.3418C17.5942 5.3418 17.3097 5.44864 17.0877 5.64258C16.9836 5.7322 16.9001 5.8433 16.8428 5.96825C16.7856 6.09321 16.7559 6.22909 16.7559 6.36659C16.7559 6.50409 16.7856 6.63996 16.8428 6.76492C16.9001 6.88988 16.9836 7.00097 17.0877 7.0906L20.0631 9.78396C16.6911 12.0346 14.4874 15.6506 14.4874 19.7306H41.7408C41.7408 15.6426 39.5239 12.0239 36.1305 9.7839ZM23.571 15.6212H21.3007V13.5679H23.571V15.6212ZM34.9248 15.6212H32.6545V13.5679H34.9248V15.6212Z" fill="white"/>
</svg>
