<svg width="20" height="20" viewBox="0 0 20 20" fill="none" xmlns="http://www.w3.org/2000/svg">
<path fill-rule="evenodd" clip-rule="evenodd" d="M5.51205 4.34175C5.18514 4.08756 4.71245 4.11067 4.41205 4.41107C4.08661 4.73651 4.08661 5.26414 4.41205 5.58958L8.82279 10.0003L4.41205 14.4111L4.34272 14.4896C4.08854 14.8165 4.11164 15.2892 4.41205 15.5896C4.73748 15.915 5.26512 15.915 5.59056 15.5896L10.0013 11.1788L14.412 15.5896L14.4906 15.6589C14.8175 15.9131 15.2902 15.89 15.5906 15.5896C15.916 15.2641 15.916 14.7365 15.5906 14.4111L11.1798 10.0003L15.5906 5.58958L15.6599 5.51108C15.9141 5.18417 15.891 4.71147 15.5906 4.41107C15.2651 4.08563 14.7375 4.08563 14.412 4.41107L10.0013 8.82181L5.59056 4.41107L5.51205 4.34175Z" fill="#252C2F" fill-opacity="0.75"/>
</svg>
