<svg width="32" height="32" viewBox="0 0 32 32" fill="none" xmlns="http://www.w3.org/2000/svg">
<path d="M0 16C0 7.16344 7.16344 0 16 0C24.8366 0 32 7.16344 32 16C32 24.8366 24.8366 32 16 32C7.16344 32 0 24.8366 0 16Z" fill="#EFEDE7"/>
<path fill-rule="evenodd" clip-rule="evenodd" d="M22 11.9997C22 11.6315 21.7015 11.333 21.3333 11.333H10.6667L10.5889 11.3375C10.2574 11.376 10 11.6578 10 11.9997C10 12.3679 10.2985 12.6663 10.6667 12.6663H21.3333L21.4111 12.6619C21.7426 12.6233 22 12.3416 22 11.9997ZM14.6667 17.9997C14.6667 16.1587 16.1591 14.6663 18 14.6663C19.8409 14.6663 21.3333 16.1587 21.3333 17.9997C21.3333 18.6798 21.1296 19.3124 20.7799 19.8397L20.8047 19.8616L22.4714 21.5283C22.7318 21.7886 22.7318 22.2107 22.4714 22.4711C22.2311 22.7114 21.8529 22.7299 21.5914 22.5265L21.5286 22.4711L19.8619 20.8044C19.854 20.7965 19.8464 20.7885 19.839 20.7803C19.3119 21.1296 18.6797 21.333 18 21.333C16.1591 21.333 14.6667 19.8406 14.6667 17.9997ZM20 17.9997C20 16.8951 19.1046 15.9997 18 15.9997C16.8954 15.9997 16 16.8951 16 17.9997C16 19.1042 16.8954 19.9997 18 19.9997C19.1046 19.9997 20 19.1042 20 17.9997ZM13.3333 15.333C13.7015 15.333 14 15.6315 14 15.9997C14 16.3416 13.7426 16.6233 13.4111 16.6619L13.3333 16.6663H10.6667C10.2985 16.6663 10 16.3679 10 15.9997C10 15.6578 10.2574 15.376 10.5889 15.3375L10.6667 15.333H13.3333ZM14 19.9997C14 19.6315 13.7015 19.333 13.3333 19.333H10.6667L10.5889 19.3375C10.2574 19.376 10 19.6578 10 19.9997C10 20.3679 10.2985 20.6663 10.6667 20.6663H13.3333L13.4111 20.6619C13.7426 20.6233 14 20.3416 14 19.9997Z" fill="black"/>
</svg>
