<svg width="20" height="20" viewBox="0 0 20 20" fill="none" xmlns="http://www.w3.org/2000/svg">
<path d="M0 10C0 4.47715 4.47715 0 10 0C15.5228 0 20 4.47715 20 10C20 15.5228 15.5228 20 10 20C4.47715 20 0 15.5228 0 10Z" fill="#0066FF"/>
<g clip-path="url(#clip0_32354_17019)">
<path fill-rule="evenodd" clip-rule="evenodd" d="M8.28571 9.14265C9.46918 9.14265 10.4286 8.18326 10.4286 6.99979C10.4286 5.81632 9.46918 4.85693 8.28571 4.85693C7.10225 4.85693 6.14286 5.81632 6.14286 6.99979C6.14286 8.18326 7.10225 9.14265 8.28571 9.14265ZM8.28571 9.99979C5.91878 9.99979 4 11.9186 4 14.2855V14.7141C4 14.9507 4.19188 15.1426 4.42857 15.1426H12.1429C12.3795 15.1426 12.5714 14.9507 12.5714 14.7141V14.2855C12.5714 11.9186 10.6526 9.99979 8.28571 9.99979ZM15.5714 15.1426H13.5807C13.6211 15.0069 13.6429 14.863 13.6429 14.7141V14.2855C13.6429 12.536 12.8042 10.9824 11.507 10.0047C11.5757 10.0014 11.6448 9.99979 11.7143 9.99979C14.0812 9.99979 16 11.9186 16 14.2855V14.7141C16 14.9507 15.8081 15.1426 15.5714 15.1426ZM11.7143 9.14265C11.4016 9.14265 11.1046 9.07571 10.8368 8.95536C11.2527 8.41361 11.5 7.73557 11.5 6.99979C11.5 6.26401 11.2527 5.58598 10.8368 5.04422C11.1046 4.92388 11.4016 4.85693 11.7143 4.85693C12.8977 4.85693 13.8571 5.81632 13.8571 6.99979C13.8571 8.18326 12.8977 9.14265 11.7143 9.14265Z" fill="white"/>
</g>
<defs>
<clipPath id="clip0_32354_17019">
<rect width="12" height="12" fill="white" transform="translate(4 4)"/>
</clipPath>
</defs>
</svg>
