<svg width="24" height="24" viewBox="0 0 24 24" fill="none" xmlns="http://www.w3.org/2000/svg">
<path d="M0 12C0 5.37258 5.37258 0 12 0C18.6274 0 24 5.37258 24 12C24 18.6274 18.6274 24 12 24C5.37258 24 0 18.6274 0 12Z" fill="#0066FF"/>
<path fill-rule="evenodd" clip-rule="evenodd" d="M10.0714 9.21422C10.0714 8.1491 10.9349 7.28564 12 7.28564C13.0651 7.28564 13.9286 8.1491 13.9286 9.21422C13.9286 10.2793 13.0651 11.1428 12 11.1428C10.9349 11.1428 10.0714 10.2793 10.0714 9.21422ZM17.5714 10.9285C17.5714 10.1001 16.8999 9.4285 16.0714 9.4285C15.243 9.4285 14.5714 10.1001 14.5714 10.9285C14.5714 11.7569 15.243 12.4285 16.0714 12.4285C16.8999 12.4285 17.5714 11.7569 17.5714 10.9285ZM7.71429 16.2856C7.71429 16.4359 7.74007 16.5802 7.78744 16.7142H6.42857C6.19188 16.7142 6 16.5223 6 16.2856V15.2142C6 14.1491 6.86345 13.2856 7.92857 13.2856C8.0452 13.2856 8.15942 13.296 8.27034 13.3158C7.91639 13.9393 7.71429 14.6603 7.71429 15.4285V16.2856ZM15.4286 16.2856C15.4286 16.5223 15.2367 16.7142 15 16.7142H9C8.76331 16.7142 8.57143 16.5223 8.57143 16.2856V15.4285C8.57143 13.535 10.1065 11.9999 12 11.9999C13.8935 11.9999 15.4286 13.535 15.4286 15.4285V16.2856ZM6.42857 10.9285C6.42857 10.1001 7.10014 9.4285 7.92857 9.4285C8.757 9.4285 9.42857 10.1001 9.42857 10.9285C9.42857 11.7569 8.757 12.4285 7.92857 12.4285C7.10014 12.4285 6.42857 11.7569 6.42857 10.9285ZM16.2857 16.2856C16.2857 16.4359 16.2599 16.5802 16.2125 16.7142H17.5714C17.8081 16.7142 18 16.5223 18 16.2856V15.2142C18 14.1491 17.1365 13.2856 16.0714 13.2856C15.9548 13.2856 15.8406 13.296 15.7297 13.3158C16.0836 13.9393 16.2857 14.6603 16.2857 15.4285V16.2856Z" fill="white"/>
</svg>
