<svg width="20" height="20" viewBox="0 0 20 20" fill="none" xmlns="http://www.w3.org/2000/svg">
<path d="M0 10C0 4.47715 4.47715 0 10 0C15.5228 0 20 4.47715 20 10C20 15.5228 15.5228 20 10 20C4.47715 20 0 15.5228 0 10Z" fill="#0066FF"/>
<path fill-rule="evenodd" clip-rule="evenodd" d="M10.0417 16C12.9826 16 15.0833 14.9503 15.0833 12.6152C15.0833 10.0758 13.8219 8.78957 11.3023 7.52065L12.3921 5.80388C12.4348 5.7211 12.456 5.62872 12.4536 5.53544C12.4511 5.44215 12.4252 5.35102 12.3781 5.27063C12.3311 5.19024 12.2645 5.12322 12.1846 5.0759C12.1048 5.02857 12.0143 5.00249 11.9217 5.0001H8.35903C8.26022 4.99821 8.16275 5.02337 8.07701 5.07289C7.99128 5.12242 7.9205 5.19445 7.87221 5.28131C7.82393 5.36816 7.79996 5.46659 7.80285 5.56609C7.80575 5.6656 7.8354 5.76244 7.88864 5.84631L8.78105 7.52065C6.26061 8.80685 5 10.0931 5 12.6317C5 14.9503 7.10076 16 10.0417 16ZM10.5056 10.7008C9.56473 10.1048 8.32827 10.7283 8.24807 11.8392C8.20679 12.4047 8.4937 12.9436 8.98586 13.2252C8.98959 13.2273 8.9934 13.2293 8.99729 13.2312C9.11086 13.2858 9.24091 13.1969 9.23138 13.0713C9.22647 13.0242 9.22647 12.9764 9.22647 12.9285V12.9285C9.22706 12.0907 9.71867 11.331 10.4827 10.9872L10.4898 10.9838C10.6023 10.927 10.6111 10.7698 10.5056 10.7008ZM12.0909 14.2043C11.1088 14.7713 9.8812 14.0625 9.8812 12.9285C9.8812 12.1149 10.5407 11.4553 11.3543 11.4553C11.6129 11.4553 11.867 11.5234 12.0909 11.6527C13.073 12.2197 13.073 13.6372 12.0909 14.2043Z" fill="white"/>
</svg>
