<svg width="25" height="24" viewBox="0 0 25 24" fill="none" xmlns="http://www.w3.org/2000/svg">
<path fill-rule="evenodd" clip-rule="evenodd" d="M3.5 11C3.5 6.02944 7.52944 2 12.5 2C17.4706 2 21.5 6.02944 21.5 11C21.5 11.3907 21.4696 11.7748 21.412 12.1513C21.3284 12.6972 20.8182 13.072 20.2722 12.9885C19.7263 12.905 19.3515 12.3947 19.435 11.8487C19.4777 11.5695 19.5 11.2866 19.5 11C19.5 7.13401 16.366 4 12.5 4C8.63401 4 5.5 7.13401 5.5 11C5.5 13.2055 6.83544 15.2674 8.70492 16.8876L12.1463 19.8702C12.248 19.9583 12.373 20.0021 12.5 20.0021C13.0523 20.0021 13.5 20.4498 13.5 21.0021C13.5 21.5544 13.0523 22.0021 12.5 22.0021C11.9079 22.0021 11.3137 21.7952 10.8365 21.3816L7.39505 18.399C5.30897 16.5911 3.5 14.0257 3.5 11Z" fill="black"/>
<path d="M14.5 11C14.5 12.1046 13.6046 13 12.5 13C11.3954 13 10.5 12.1046 10.5 11C10.5 9.89543 11.3954 9 12.5 9C13.6046 9 14.5 9.89543 14.5 11Z" fill="black"/>
<path fill-rule="evenodd" clip-rule="evenodd" d="M19.5 15C20.0523 15 20.5 15.4477 20.5 16V18H22.5C23.0523 18 23.5 18.4477 23.5 19C23.5 19.5523 23.0523 20 22.5 20H20.5V22C20.5 22.5523 20.0523 23 19.5 23C18.9477 23 18.5 22.5523 18.5 22V20H16.5C15.9477 20 15.5 19.5523 15.5 19C15.5 18.4477 15.9477 18 16.5 18H18.5V16C18.5 15.4477 18.9477 15 19.5 15Z" fill="black"/>
</svg>
