<svg width="60" height="60" viewBox="0 0 60 60" fill="none" xmlns="http://www.w3.org/2000/svg">
<path fill-rule="evenodd" clip-rule="evenodd" d="M5 30C5 16.1929 16.1929 5 30 5C43.8071 5 55 16.1929 55 30C55 43.8071 43.8071 55 30 55C16.1929 55 5 43.8071 5 30ZM39.2678 26.7678C40.2441 25.7915 40.2441 24.2085 39.2678 23.2322C38.2915 22.2559 36.7085 22.2559 35.7322 23.2322L27.5 31.4645L24.2678 28.2322C23.2915 27.2559 21.7085 27.2559 20.7322 28.2322C19.7559 29.2085 19.7559 30.7915 20.7322 31.7678L25.7322 36.7678C26.7085 37.7441 28.2915 37.7441 29.2678 36.7678L39.2678 26.7678Z" fill="#000000"/>
</svg>
