<svg width="17" height="16" viewBox="0 0 17 16" fill="none" xmlns="http://www.w3.org/2000/svg">
<path d="M12.5 2C13.6044 2.00018 14.5 2.89554 14.5 4V9.33301C14.5 10.4375 13.6044 11.3328 12.5 11.333H11.833V12C11.833 13.065 11.0009 13.9361 9.95117 13.9971L9.83301 14H4.5C3.43488 14 2.56376 13.1671 2.50293 12.1172L2.5 12V6.66699C2.5 5.60187 3.33294 4.73075 4.38281 4.66992L4.5 4.66699H5.16699V4C5.16699 2.89543 6.06242 2 7.16699 2H12.5ZM4.5 6C4.15813 6 3.87643 6.25734 3.83789 6.58887L3.83301 6.66699V12C3.83301 12.3418 4.0905 12.6234 4.42188 12.6621L4.5 12.667H9.83301C10.1748 12.667 10.4564 12.4095 10.4951 12.0781L10.5 12V11.333H7.16699C6.06242 11.333 5.16699 10.4376 5.16699 9.33301V6H4.5ZM7.16699 3.33301C6.7988 3.33301 6.5 3.63181 6.5 4V9.33301C6.5 9.7012 6.7988 10 7.16699 10H12.5C12.868 9.99982 13.167 9.70109 13.167 9.33301V4C13.167 3.63192 12.868 3.33318 12.5 3.33301H7.16699Z" fill="#2A877C"/>
</svg>
