<svg width="20" height="20" viewBox="0 0 20 20" fill="none" xmlns="http://www.w3.org/2000/svg">
<path d="M11.667 2.5C12.9982 2.50017 14.0861 3.54128 14.1621 4.85352L14.167 5V5.83301H15C16.3805 5.83318 17.4998 6.95255 17.5 8.33301V15C17.4998 16.3805 16.3805 17.4998 15 17.5H8.33301C6.95255 17.4998 5.83318 16.3805 5.83301 15V14.167H5C3.6686 14.167 2.57994 13.1258 2.50391 11.8135L2.5 11.667V5C2.5 3.6686 3.54118 2.57994 4.85352 2.50391L5 2.5H11.667ZM8.33301 7.5C7.87303 7.50018 7.50018 7.87303 7.5 8.33301V15C7.50018 15.46 7.87303 15.8328 8.33301 15.833H15C15.46 15.8328 15.8328 15.46 15.833 15V8.33301C15.8328 7.87303 15.46 7.50018 15 7.5H8.33301ZM5 4.16699C4.57278 4.16699 4.2202 4.4881 4.17188 4.90234L4.16699 5V11.667C4.16716 12.094 4.48824 12.4458 4.90234 12.4941L5 12.5H5.83301V8.33301C5.83318 6.95255 6.95255 5.83318 8.33301 5.83301H12.5V5C12.5 4.57264 12.1781 4.22001 11.7637 4.17188L11.667 4.16699H5Z" fill="white"/>
</svg>
