<svg width="12" height="14" viewBox="0 0 12 14" fill="none" xmlns="http://www.w3.org/2000/svg">
<path d="M8.66699 0C9.00873 0.000163373 9.29059 0.257424 9.3291 0.588867L9.33301 0.666992V1.33301H10C11.1045 1.33301 11.9998 2.22859 12 3.33301V11.333C12 12.4376 11.1046 13.333 10 13.333H2C0.895431 13.333 0 12.4376 0 11.333V3.33301C0.000175958 2.22859 0.895539 1.33301 2 1.33301H2.66699V0.666992C2.66699 0.298911 2.96497 0.00017582 3.33301 0C3.67487 0 3.95656 0.257355 3.99512 0.588867L4 0.666992V1.33301H8V0.666992C8 0.298802 8.2988 0 8.66699 0ZM1.33301 11.333C1.33301 11.7012 1.63181 12 2 12H10C10.3682 12 10.667 11.7012 10.667 11.333V6.66699H1.33301V11.333ZM4.66699 8C5.03503 8.00018 5.33301 8.29891 5.33301 8.66699V10C5.33301 10.3681 5.03503 10.6668 4.66699 10.667H3.33301C2.96497 10.6668 2.66699 10.3681 2.66699 10V8.66699C2.66699 8.29891 2.96497 8.00018 3.33301 8H4.66699ZM2 2.66602C1.63192 2.66602 1.33318 2.96497 1.33301 3.33301V5.33301H10.667V3.33301C10.6668 2.96497 10.3681 2.66602 10 2.66602H9.33301V3.33301C9.33301 3.70109 9.03503 3.99982 8.66699 4C8.32514 4 8.04344 3.74265 8.00488 3.41113L8 3.33301V2.66602H4V3.33301C4 3.7012 3.7012 4 3.33301 4C2.99127 3.99984 2.70941 3.74258 2.6709 3.41113L2.66699 3.33301V2.66602H2Z" fill="#010101"/>
</svg>
