<svg width="32" height="32" viewBox="0 0 32 32" fill="none" xmlns="http://www.w3.org/2000/svg">
<path d="M0 16C0 7.16344 7.16344 0 16 0C24.8366 0 32 7.16344 32 16C32 24.8366 24.8366 32 16 32C7.16344 32 0 24.8366 0 16Z" fill="white" fill-opacity="0.1"/>
<path fill-rule="evenodd" clip-rule="evenodd" d="M18.6667 9.33398C19.0086 9.33398 19.2903 9.59134 19.3288 9.9229L19.3333 10.0007V10.6673H20C21.1046 10.6673 22 11.5627 22 12.6673V15.334V20.6673C22 21.7719 21.1046 22.6673 20 22.6673H12C10.8954 22.6673 10 21.7719 10 20.6673V15.334V12.6673C10 11.5627 10.8954 10.6673 12 10.6673H12.6667V10.0007C12.6667 9.63246 12.9651 9.33398 13.3333 9.33398C13.6752 9.33398 13.957 9.59134 13.9955 9.9229L14 10.0007V10.6673H18V10.0007C18 9.63246 18.2985 9.33398 18.6667 9.33398ZM20.6667 12.6673V14.6673H11.3333V12.6673C11.3333 12.2991 11.6318 12.0007 12 12.0007H12.6667V12.6673L12.6712 12.7451C12.7097 13.0766 12.9914 13.334 13.3333 13.334C13.7015 13.334 14 13.0355 14 12.6673V12.0007H18V12.6673L18.0045 12.7451C18.043 13.0766 18.3248 13.334 18.6667 13.334C19.0349 13.334 19.3333 13.0355 19.3333 12.6673V12.0007H20C20.3682 12.0007 20.6667 12.2991 20.6667 12.6673ZM20.6667 16.0007H11.3333V20.6673C11.3333 21.0355 11.6318 21.334 12 21.334H20C20.3682 21.334 20.6667 21.0355 20.6667 20.6673V16.0007ZM12.6667 18.0007C12.6667 17.6325 12.9651 17.334 13.3333 17.334H14.6667C15.0349 17.334 15.3333 17.6325 15.3333 18.0007V19.334C15.3333 19.7022 15.0349 20.0007 14.6667 20.0007H13.3333C12.9651 20.0007 12.6667 19.7022 12.6667 19.334V18.0007Z" fill="white"/>
</svg>
