<svg width="16" height="16" viewBox="0 0 16 16" fill="none" xmlns="http://www.w3.org/2000/svg">
<path fill-rule="evenodd" clip-rule="evenodd" d="M10.6667 1.33325C11.0086 1.33325 11.2903 1.59061 11.3288 1.92217L11.3333 1.99992V2.66659H12C13.1046 2.66659 14 3.56202 14 4.66659V7.33325V12.6666C14 13.7712 13.1046 14.6666 12 14.6666H4C2.89543 14.6666 2 13.7712 2 12.6666V7.33325V4.66659C2 3.56202 2.89543 2.66659 4 2.66659H4.66667V1.99992C4.66667 1.63173 4.96514 1.33325 5.33333 1.33325C5.67522 1.33325 5.957 1.59061 5.99551 1.92217L6 1.99992V2.66659H10V1.99992C10 1.63173 10.2985 1.33325 10.6667 1.33325ZM12.6667 4.66659V6.66658H3.33333V4.66659C3.33333 4.2984 3.63181 3.99992 4 3.99992H4.66667V4.66659L4.67115 4.74433C4.70966 5.07589 4.99144 5.33325 5.33333 5.33325C5.70152 5.33325 6 5.03478 6 4.66659V3.99992H10V4.66659L10.0045 4.74433C10.043 5.07589 10.3248 5.33325 10.6667 5.33325C11.0349 5.33325 11.3333 5.03478 11.3333 4.66659V3.99992H12C12.3682 3.99992 12.6667 4.2984 12.6667 4.66659ZM12.6667 7.99992H3.33333V12.6666C3.33333 13.0348 3.63181 13.3333 4 13.3333H12C12.3682 13.3333 12.6667 13.0348 12.6667 12.6666V7.99992ZM4.66667 9.99992C4.66667 9.63173 4.96514 9.33325 5.33333 9.33325H6.66667C7.03486 9.33325 7.33333 9.63173 7.33333 9.99992V11.3333C7.33333 11.7014 7.03486 11.9999 6.66667 11.9999H5.33333C4.96514 11.9999 4.66667 11.7014 4.66667 11.3333V9.99992Z" fill="white"/>
</svg>
