<svg width="16" height="16" viewBox="0 0 16 16" fill="none" xmlns="http://www.w3.org/2000/svg">
<path d="M10.667 1.33325C11.0087 1.33342 11.2906 1.59068 11.3291 1.92212L11.333 2.00024V2.66626H12C13.1045 2.66626 13.9998 3.56184 14 4.66626V12.6663C14 13.7708 13.1046 14.6663 12 14.6663H4C2.89543 14.6663 2 13.7708 2 12.6663V4.66626C2.00018 3.56184 2.89554 2.66626 4 2.66626H4.66699V2.00024C4.66699 1.63216 4.96497 1.33343 5.33301 1.33325C5.67487 1.33325 5.95656 1.59061 5.99512 1.92212L6 2.00024V2.66626H10V2.00024C10 1.63205 10.2988 1.33325 10.667 1.33325ZM3.33301 12.6663C3.33301 13.0344 3.63181 13.3333 4 13.3333H12C12.3682 13.3333 12.667 13.0344 12.667 12.6663V8.00024H3.33301V12.6663ZM6.66699 9.33325C7.03503 9.33343 7.33301 9.63216 7.33301 10.0002V11.3333C7.33301 11.7013 7.03503 12.0001 6.66699 12.0002H5.33301C4.96497 12.0001 4.66699 11.7013 4.66699 11.3333V10.0002C4.66699 9.63216 4.96497 9.33343 5.33301 9.33325H6.66699ZM4 3.99927C3.63192 3.99927 3.33318 4.29822 3.33301 4.66626V6.66626H12.667V4.66626C12.6668 4.29822 12.3681 3.99927 12 3.99927H11.333V4.66626C11.333 5.03434 11.035 5.33308 10.667 5.33325C10.3251 5.33325 10.0434 5.0759 10.0049 4.74438L10 4.66626V3.99927H6V4.66626C6 5.03445 5.7012 5.33325 5.33301 5.33325C4.99127 5.33309 4.70941 5.07583 4.6709 4.74438L4.66699 4.66626V3.99927H4Z" fill="#252628"/>
</svg>
