<svg width="16" height="16" viewBox="0 0 16 16" fill="none" xmlns="http://www.w3.org/2000/svg">
<path fill-rule="evenodd" clip-rule="evenodd" d="M10.663 2.56708C10.6121 1.87717 10.0362 1.33325 9.33333 1.33325H6.66667L6.56716 1.33691C5.87725 1.38781 5.33333 1.96368 5.33333 2.66659V3.99992H3.3411H3.32706H2.66667L2.58892 4.0044C2.25736 4.04291 2 4.32469 2 4.66659C2 5.03478 2.29848 5.33325 2.66667 5.33325H2.71991L3.33564 12.7219L3.33879 12.8337C3.39756 13.834 4.26821 14.6666 5.33333 14.6666H10.6667L10.7842 14.6632C11.8341 14.6024 12.6667 13.7317 12.6667 12.6666L13.2799 5.33325H13.3333L13.4111 5.32877C13.7426 5.29026 14 5.00848 14 4.66659C14 4.2984 13.7015 3.99992 13.3333 3.99992H10.6667V2.66659L10.663 2.56708ZM9.33333 3.99992V2.66659H6.66667V3.99992H9.33333ZM6 5.33325H4.05766L4.66667 12.6666C4.66667 13.0085 4.92403 13.2903 5.25559 13.3288L5.33333 13.3333H10.6667C11.0103 13.3333 11.2932 13.0732 11.3313 12.6942L11.3356 12.6112L11.9421 5.33325H10H6ZM6.66667 6.66658C7.00856 6.66658 7.29034 6.92394 7.32885 7.2555L7.33333 7.33325V11.3333C7.33333 11.7014 7.03486 11.9999 6.66667 11.9999C6.32478 11.9999 6.043 11.7426 6.00449 11.411L6 11.3333V7.33325C6 6.96506 6.29848 6.66658 6.66667 6.66658ZM9.99551 7.2555C9.95701 6.92394 9.67522 6.66658 9.33333 6.66658C8.96514 6.66658 8.66667 6.96506 8.66667 7.33325V11.3333L8.67115 11.411C8.70966 11.7426 8.99144 11.9999 9.33333 11.9999C9.70152 11.9999 10 11.7014 10 11.3333V7.33325L9.99551 7.2555Z" fill="#FF6B75"/>
</svg>
