<svg width="16" height="16" viewBox="0 0 16 16" fill="none" xmlns="http://www.w3.org/2000/svg">
<path d="M6 3.9989C6.36814 3.9989 6.66691 4.29777 6.66699 4.66589C6.66699 5.00765 6.40949 5.28931 6.07812 5.328L6 5.33288H4C3.65811 5.33288 3.3764 5.59019 3.33789 5.92175L3.33301 5.9989V11.9989C3.33301 12.3407 3.59047 12.6233 3.92188 12.662L4 12.6659H10C10.3419 12.6659 10.6236 12.4086 10.6621 12.077L10.667 11.9989V9.9989C10.6672 9.63104 10.9651 9.33306 11.333 9.33288C11.6749 9.33288 11.9566 9.59019 11.9951 9.92175L12 9.9989V11.9989C12 13.064 11.1671 13.9351 10.1172 13.996L10 13.9989H4C2.93493 13.9989 2.06383 13.1669 2.00293 12.1171L2 11.9989V5.9989C2.00025 4.934 2.8331 4.06363 3.88281 4.00281L4 3.9989H6ZM11.1953 1.8612C12.0079 1.04888 13.3251 1.04886 14.1377 1.8612C14.9191 2.64258 14.9488 3.8906 14.2275 4.70788L14.1377 4.80456L8.4707 10.4706C8.36655 10.5746 8.23125 10.6409 8.08691 10.66L8 10.6659H6C5.65826 10.6657 5.3764 10.4085 5.33789 10.077L5.33301 9.9989V7.9989C5.33311 7.85181 5.38228 7.70916 5.4707 7.59363L5.52832 7.5282L11.1953 1.8612ZM6.66602 8.27527V9.33191H7.72266L11.7227 5.33191L10.666 4.27527L6.66602 8.27527ZM13.1953 2.80456C12.9243 2.53365 12.4965 2.51377 12.2031 2.74597L12.1377 2.80456L11.6084 3.33191L12.666 4.38952L13.1953 3.8612C13.4662 3.59011 13.4852 3.16236 13.2529 2.86902L13.1953 2.80456Z" fill="#252628"/>
</svg>
