<svg width="24" height="24" viewBox="0 0 24 24" fill="none" xmlns="http://www.w3.org/2000/svg">
<path d="M0 12C0 5.37258 5.37258 0 12 0C18.6274 0 24 5.37258 24 12C24 18.6274 18.6274 24 12 24C5.37258 24 0 18.6274 0 12Z" fill="#0066FF"/>
<path d="M12 5.33301C14.98 5.33301 18 6.24667 18 8V16C18 17.7533 14.98 18.667 12 18.667C9.02 18.667 6 17.7533 6 16V8C6 6.24667 9.02 5.33301 12 5.33301ZM16.667 13.7373C15.5091 14.351 13.748 14.667 12 14.667C10.252 14.667 8.49095 14.351 7.33301 13.7373V16C7.33301 16.3867 8.96667 17.333 12 17.333C15.0333 17.333 16.667 16.3867 16.667 16V13.7373ZM16.667 9.7373C15.5091 10.351 13.748 10.667 12 10.667C10.252 10.667 8.49095 10.351 7.33301 9.7373V12C7.33301 12.3867 8.96667 13.333 12 13.333C15.0333 13.333 16.667 12.3867 16.667 12V9.7373ZM12 6.66699C8.96667 6.66699 7.33301 7.61333 7.33301 8C7.33301 8.38667 8.96667 9.33301 12 9.33301C15.0333 9.33301 16.667 8.38667 16.667 8C16.667 7.61333 15.0333 6.66699 12 6.66699Z" fill="white"/>
</svg>
