<svg width="21" height="21" viewBox="0 0 21 21" fill="none" xmlns="http://www.w3.org/2000/svg">
<path fill-rule="evenodd" clip-rule="evenodd" d="M13.1352 8.68681C13.8951 8.02233 14.375 7.04573 14.375 5.95703C14.375 3.955 12.752 2.33203 10.75 2.33203C8.74797 2.33203 7.125 3.955 7.125 5.95703C7.125 7.04573 7.60493 8.02233 8.36477 8.68681C5.68835 9.45838 3.5 11.3905 3.5 13.2053C3.5 15.541 6.03826 17.6262 10.75 17.6262C15.4617 17.6262 18 15.541 18 13.2053C18 11.3905 15.8116 9.45838 13.1352 8.68681Z" fill="white"/>
<path fill-rule="evenodd" clip-rule="evenodd" d="M11.3066 11.3871C11.3066 11.0913 11.0669 10.8516 10.7711 10.8516C10.4754 10.8516 10.2356 11.0913 10.2356 11.3871V12.5245H9.05504C8.75929 12.5245 8.51953 12.7642 8.51953 13.06C8.51953 13.3557 8.75929 13.5955 9.05504 13.5955H10.2356V14.7776C10.2356 15.0733 10.4754 15.3131 10.7711 15.3131C11.0669 15.3131 11.3066 15.0733 11.3066 14.7776V13.5955H12.4456C12.7413 13.5955 12.9811 13.3557 12.9811 13.06C12.9811 12.7642 12.7413 12.5245 12.4456 12.5245H11.3066V11.3871Z" fill="white"/>
</svg>
