<svg width="16" height="16" viewBox="0 0 16 16" fill="none" xmlns="http://www.w3.org/2000/svg">
<path d="M10 6.66602C11.8406 6.66619 13.3336 8.15848 13.334 9.99902C13.334 10.6791 13.1291 11.3115 12.7793 11.8389L12.8047 11.8613L14.4717 13.5283C14.7318 13.7886 14.7316 14.2104 14.4717 14.4707C14.2314 14.711 13.8533 14.7296 13.5918 14.5264L13.5283 14.4707L11.8623 12.8047C11.854 12.7964 11.8476 12.7859 11.8398 12.7773C11.3123 13.1276 10.6805 13.3329 10 13.333C8.1592 13.3328 6.66699 11.8399 6.66699 9.99902C6.66734 8.15848 8.15942 6.66619 10 6.66602ZM5.33301 11.333C5.7012 11.333 6 11.6318 6 12C5.99984 12.3417 5.74258 12.6236 5.41113 12.6621L5.33301 12.666H2.66699C2.29891 12.666 2.00018 12.368 2 12C2 11.6581 2.25735 11.3764 2.58887 11.3379L2.66699 11.333H5.33301ZM10 7.99902C8.8958 7.9992 8.00035 8.89486 8 9.99902C8 11.1035 8.89558 11.9988 10 11.999C11.1044 11.9988 12 11.1035 12 9.99902C11.9996 8.89486 11.1042 7.9992 10 7.99902ZM5.33301 7.33301C5.7012 7.33301 6 7.63181 6 8C5.99984 8.34174 5.74258 8.6236 5.41113 8.66211L5.33301 8.66602H2.66699C2.29891 8.66602 2.00018 8.36804 2 8C2 7.65814 2.25735 7.37644 2.58887 7.33789L2.66699 7.33301H5.33301ZM13.333 3.33301C13.7012 3.33301 14 3.63181 14 4C13.9998 4.34174 13.7426 4.6236 13.4111 4.66211L13.333 4.66602H2.66699C2.29891 4.66602 2.00018 4.36804 2 4C2 3.65814 2.25735 3.37644 2.58887 3.33789L2.66699 3.33301H13.333Z" fill="#010101"/>
</svg>
