<svg width="20" height="20" viewBox="0 0 20 20" fill="none" xmlns="http://www.w3.org/2000/svg">
<g clip-path="url(#clip0_33466_13349)">
<rect width="20" height="20" rx="10" fill="white"/>
<g clip-path="url(#clip1_33466_13349)">
<path d="M0 7.11111C0 4.62199 0 3.37743 0.484416 2.42671C0.910519 1.59043 1.59043 0.910519 2.42671 0.484416C3.37743 0 4.62199 0 7.11111 0H12.8889C15.378 0 16.6226 0 17.5733 0.484416C18.4096 0.910519 19.0895 1.59043 19.5156 2.42671C20 3.37743 20 4.62199 20 7.11111V12.8889C20 15.378 20 16.6226 19.5156 17.5733C19.0895 18.4096 18.4096 19.0895 17.5733 19.5156C16.6226 20 15.378 20 12.8889 20H7.11111C4.62199 20 3.37743 20 2.42671 19.5156C1.59043 19.0895 0.910519 18.4096 0.484416 17.5733C0 16.6226 0 15.378 0 12.8889V7.11111Z" fill="url(#paint0_linear_33466_13349)"/>
<g clip-path="url(#clip2_33466_13349)">
<path d="M14.561 5.93506C14.6129 5.94713 14.6658 5.95467 14.7166 5.97233C14.9025 6.03695 15.0021 6.1699 15.0217 6.36246C15.0324 6.46763 15.0327 6.57371 15.0236 6.67945C15.0189 6.73458 14.9849 6.76989 14.9295 6.77338C14.8843 6.77625 14.8387 6.77645 14.7935 6.77345C14.7322 6.76941 14.6965 6.72949 14.6942 6.66423C14.6923 6.61077 14.694 6.55724 14.6931 6.50378C14.6928 6.47824 14.6923 6.45242 14.6885 6.42729C14.6685 6.29616 14.6034 6.23488 14.4713 6.22427C14.4274 6.22078 14.3832 6.22092 14.3393 6.22944C14.2299 6.25051 14.1661 6.32135 14.1578 6.43281C14.1534 6.49199 14.1513 6.5511 14.1513 6.61049C14.1517 7.00125 14.1513 7.39208 14.1519 7.78284C14.1519 7.81989 14.1544 7.8573 14.1593 7.89408C14.1738 8.00344 14.233 8.06451 14.3419 8.08391C14.4091 8.09592 14.4763 8.0948 14.5422 8.07596C14.6099 8.05662 14.6554 8.01356 14.6755 7.94545C14.6865 7.90846 14.693 7.87077 14.693 7.83204C14.6931 7.70879 14.6924 7.58547 14.694 7.46222C14.6944 7.42921 14.6815 7.4202 14.6507 7.42055C14.5985 7.42111 14.546 7.42488 14.494 7.41588C14.4492 7.40806 14.4146 7.37582 14.4084 7.33136C14.4033 7.29563 14.4033 7.2592 14.4084 7.22353C14.4161 7.17077 14.454 7.13678 14.5138 7.13588C14.6487 7.13378 14.7836 7.13329 14.9185 7.13616C14.9864 7.13755 15.0205 7.17356 15.0239 7.2414C15.0336 7.43311 15.026 7.62504 15.028 7.81689C15.0287 7.88319 15.0264 7.94957 15.013 8.01468C14.9789 8.18022 14.883 8.29496 14.7207 8.34381C14.5115 8.40676 14.2997 8.40774 14.0936 8.3323C13.935 8.27423 13.8527 8.14945 13.8278 7.98488C13.8214 7.94224 13.8203 7.89932 13.8203 7.85619C13.8207 7.37582 13.8201 6.89552 13.8211 6.41515C13.8213 6.31318 13.8459 6.21673 13.9064 6.13243C13.9845 6.02362 14.0971 5.9733 14.2238 5.94755C14.2454 5.94315 14.267 5.93925 14.2887 5.93513C14.3794 5.93513 14.4701 5.93513 14.5609 5.93513L14.561 5.93506Z" fill="white"/>
<path d="M4.17287 5.93471C4.22724 5.94671 4.28265 5.95383 4.33534 5.97302C4.51806 6.03954 4.61765 6.17025 4.63579 6.36295C4.64829 6.4952 4.64061 6.62794 4.64047 6.7604C4.6404 6.83005 4.60048 6.86774 4.53146 6.8706C4.49314 6.87221 4.45462 6.87235 4.41637 6.87039C4.35028 6.86697 4.31162 6.82677 4.31071 6.76019C4.30959 6.67414 4.31113 6.58802 4.30987 6.50197C4.30938 6.46959 4.3068 6.43678 4.30094 6.40496C4.2807 6.29525 4.22473 6.24256 4.10811 6.2256C4.05388 6.21771 3.99895 6.21973 3.94542 6.23425C3.85128 6.25972 3.79893 6.33042 3.79119 6.44265C3.78972 6.46351 3.78972 6.48452 3.78972 6.50539C3.78965 6.94039 3.78958 7.3754 3.78965 7.8104C3.78965 7.84411 3.79084 7.87761 3.79705 7.91104C3.81499 8.00742 3.86963 8.06416 3.9651 8.0828C4.01815 8.09319 4.0714 8.09361 4.12451 8.08384C4.23701 8.06318 4.29263 7.99954 4.30464 7.8848C4.31182 7.81627 4.30952 7.7478 4.31022 7.67927C4.31085 7.61764 4.30945 7.55595 4.31071 7.49432C4.31203 7.4283 4.35195 7.38761 4.41742 7.38503C4.45692 7.38349 4.49656 7.38349 4.53599 7.38517C4.59371 7.38754 4.62853 7.41923 4.63858 7.47555C4.63921 7.47897 4.64019 7.48246 4.64019 7.48588C4.64068 7.63816 4.65157 7.79114 4.63621 7.94259C4.6113 8.18923 4.49223 8.31708 4.24992 8.36629C4.10364 8.39595 3.95624 8.39385 3.81052 8.35854C3.61504 8.31115 3.49681 8.19055 3.46561 7.98921C3.46471 7.98355 3.46254 7.97804 3.46094 7.97246C3.46094 7.43039 3.46094 6.8884 3.46094 6.34634C3.46296 6.33733 3.46519 6.3284 3.46694 6.31933C3.49988 6.14408 3.60094 6.0283 3.76962 5.97051C3.82148 5.95272 3.87542 5.94581 3.9286 5.93457H4.17287V5.93471Z" fill="white"/>
<path d="M3.46101 12.0001C3.47266 11.954 3.4816 11.9071 3.50121 11.8633C3.55264 11.7482 3.64016 11.6713 3.75839 11.6329C3.95436 11.5691 4.1527 11.5664 4.34714 11.6363C4.52287 11.6995 4.61667 11.8318 4.63537 12.0165C4.64898 12.1509 4.64047 12.286 4.64033 12.4207C4.64033 12.4868 4.59922 12.5264 4.53327 12.5306C4.49621 12.5329 4.4588 12.5328 4.42168 12.5308C4.34986 12.5271 4.31113 12.4863 4.3105 12.4143C4.30973 12.3295 4.31036 12.2445 4.31022 12.1597C4.31022 12.1235 4.30533 12.0878 4.29829 12.0525C4.27937 11.958 4.22131 11.9049 4.12702 11.8888C4.06888 11.8789 4.01117 11.8796 3.95387 11.8919C3.85609 11.913 3.80026 11.9853 3.7914 12.1002C3.78979 12.1211 3.78972 12.142 3.78972 12.1629C3.78965 12.599 3.78958 13.035 3.78979 13.4711C3.78979 13.5012 3.78979 13.5313 3.79565 13.5614C3.81813 13.677 3.87703 13.7346 3.99358 13.748C4.03727 13.753 4.08159 13.7526 4.12555 13.7441C4.23471 13.723 4.29242 13.658 4.30436 13.5469C4.31322 13.4644 4.30868 13.382 4.31008 13.2996C4.31092 13.2507 4.30966 13.2018 4.31064 13.1531C4.31189 13.0915 4.3463 13.0542 4.40737 13.045C4.45497 13.0378 4.50249 13.0394 4.54988 13.0459C4.59776 13.0524 4.62721 13.0809 4.63705 13.128C4.63803 13.1325 4.6397 13.1371 4.63963 13.1417C4.63858 13.3124 4.65499 13.4839 4.63007 13.6536C4.60187 13.8459 4.48553 13.9621 4.30003 14.0124C4.28775 14.0157 4.27574 14.0201 4.2636 14.0239H3.8309C3.81652 14.0195 3.80228 14.0149 3.78784 14.0107C3.64602 13.9691 3.53966 13.8874 3.48962 13.7439C3.47713 13.708 3.47036 13.6701 3.46094 13.6332C3.46094 13.0888 3.46094 12.5444 3.46094 12.0001L3.46101 12.0001Z" fill="white"/>
<path d="M16.3935 8.31486C16.3632 8.3485 16.3245 8.3582 16.2803 8.35806C16.0257 8.35729 15.771 8.35778 15.5163 8.35757C15.4141 8.3575 15.3793 8.32338 15.3793 8.22204C15.379 7.5069 15.3789 6.79175 15.3789 6.07661C15.3789 6.00123 15.4169 5.96257 15.4917 5.96026C15.7509 5.95217 16.0102 5.95859 16.2695 5.95671C16.3212 5.95636 16.3662 5.97004 16.3936 6.01875V6.19323C16.3658 6.23733 16.3242 6.25087 16.2742 6.25066C16.1009 6.24983 15.9276 6.25108 15.7543 6.24976C15.7213 6.24948 15.7101 6.25883 15.7103 6.29296C15.7116 6.51161 15.7117 6.73026 15.7103 6.94892C15.7101 6.98354 15.719 6.99519 15.7551 6.9947C15.897 6.99275 16.0388 6.99365 16.1807 6.994C16.2492 6.99414 16.284 7.02415 16.2933 7.09199C16.2966 7.116 16.2966 7.1407 16.2957 7.16506C16.2927 7.25139 16.2535 7.28894 16.1664 7.28908C16.0303 7.28936 15.8942 7.28908 15.7581 7.28915C15.7115 7.28915 15.711 7.28964 15.711 7.33535C15.7109 7.56217 15.711 7.78892 15.711 8.01574C15.711 8.06278 15.7111 8.06299 15.7603 8.06299C15.9348 8.06299 16.1092 8.06348 16.2837 8.06271C16.3267 8.0625 16.3639 8.07318 16.3935 8.10563V8.315V8.31486Z" fill="white"/>
<path d="M6.74886 6.78782C6.74886 6.80052 6.74886 6.81322 6.74886 6.82592C6.74886 7.27831 6.74886 7.73069 6.74886 8.18307C6.74886 8.19703 6.74914 8.21099 6.74865 8.22495C6.74502 8.31923 6.70573 8.3572 6.61165 8.35748C6.58723 8.35755 6.56273 8.35853 6.53844 8.35664C6.47431 8.35176 6.43683 8.31225 6.43397 8.24798C6.43348 8.23639 6.43369 8.22474 6.43369 8.21308C6.43369 7.51071 6.43369 6.80827 6.43369 6.10589C6.43369 6.09075 6.4332 6.0756 6.43446 6.0606C6.43962 6.001 6.47542 5.96401 6.5353 5.96087C6.58164 5.95843 6.62833 5.95808 6.67453 5.96157C6.7356 5.96617 6.7684 6.00658 6.78725 6.06123C6.81488 6.14149 6.8428 6.22161 6.87058 6.30187C6.99564 6.66338 7.12071 7.0249 7.24591 7.38634C7.24961 7.39695 7.25038 7.40923 7.26315 7.41963C7.27327 7.39262 7.28325 7.36722 7.29225 7.34147C7.43881 6.92349 7.58516 6.50545 7.73172 6.0874C7.73863 6.06765 7.74533 6.04762 7.75489 6.02912C7.77604 5.98816 7.80919 5.96422 7.85658 5.96017C7.90655 5.95591 7.95631 5.95466 8.00621 5.96052C8.06309 5.96722 8.09694 6.00044 8.10329 6.05697C8.10454 6.06849 8.10434 6.08021 8.10434 6.0918C8.10434 6.80233 8.10434 7.51287 8.10434 8.22341C8.10434 8.23388 8.10447 8.24435 8.10371 8.25482C8.09917 8.31512 8.06107 8.3535 8.00056 8.35685C7.9681 8.35867 7.93544 8.35797 7.90292 8.35748C7.82301 8.35622 7.78113 8.31379 7.78113 8.23304C7.78093 7.76321 7.781 7.29338 7.781 6.82362C7.781 6.80736 7.781 6.79117 7.781 6.77491C7.7796 6.77449 7.77813 6.77407 7.77674 6.77372C7.76124 6.81769 7.7454 6.86159 7.73019 6.90569C7.61671 7.23427 7.50323 7.56284 7.38989 7.89149C7.36693 7.95807 7.33308 7.98619 7.27306 7.98787C7.20222 7.98982 7.16139 7.96456 7.13711 7.89686C7.09893 7.79078 7.06355 7.68365 7.02698 7.57701C6.93883 7.31969 6.85069 7.0623 6.76247 6.80499C6.76031 6.79871 6.75759 6.79256 6.75514 6.78642C6.75305 6.78698 6.75096 6.78754 6.74886 6.78817V6.78782Z" fill="white"/>
<path d="M6.12954 9.52995C6.12954 9.54209 6.12954 9.55424 6.12954 9.56631C6.12954 10.0583 6.12947 10.5502 6.12954 11.0422C6.12954 11.0655 6.13016 11.0888 6.12298 11.1113C6.11013 11.1516 6.0825 11.1769 6.04118 11.1832C5.99987 11.1896 5.9582 11.1919 5.91619 11.1851C5.86063 11.1761 5.82609 11.1419 5.82113 11.0861C5.82002 11.0734 5.82036 11.0606 5.82036 11.0478C5.82036 10.3395 5.82036 9.63121 5.82036 8.92291C5.82036 8.90086 5.81974 8.8788 5.82727 8.85738C5.83984 8.82157 5.86363 8.7975 5.90097 8.79031C5.96441 8.77809 6.02862 8.77816 6.09164 8.79094C6.13819 8.80036 6.1689 8.83204 6.1853 8.87664C6.29564 9.17674 6.40584 9.47698 6.51611 9.77708C6.58953 9.97682 6.66302 10.1765 6.73651 10.3762C6.73881 10.3823 6.74146 10.3883 6.74879 10.3936C6.74879 10.3813 6.74879 10.369 6.74879 10.3568C6.74879 9.87876 6.74879 9.40077 6.74879 8.92277C6.74879 8.82674 6.77957 8.79289 6.87483 8.78389C6.90875 8.78068 6.94246 8.78417 6.97554 8.79031C7.01427 8.7975 7.03884 8.82276 7.05105 8.85996C7.05803 8.88124 7.05817 8.90337 7.05817 8.92556C7.0581 9.63268 7.0581 10.3398 7.05817 11.0469C7.05817 11.0679 7.05761 11.0887 7.05224 11.1092C7.04135 11.1508 7.01378 11.176 6.97268 11.1829C6.9174 11.1922 6.86143 11.1928 6.80595 11.1833C6.75284 11.1742 6.72436 11.1378 6.70698 11.0903C6.67614 11.0062 6.64557 10.9221 6.61486 10.838C6.4609 10.4165 6.30701 9.99503 6.15299 9.57357C6.14754 9.55863 6.14126 9.54398 6.1354 9.52918C6.13351 9.52946 6.13163 9.52967 6.12982 9.52995H6.12954Z" fill="white"/>
<path d="M5.13517 10.3984C5.13517 9.90641 5.13517 9.41453 5.13531 8.92257C5.13531 8.9052 5.13545 8.88747 5.13908 8.87065C5.14913 8.82403 5.1804 8.7959 5.22723 8.78851C5.26652 8.78223 5.30574 8.78153 5.34531 8.78739C5.40275 8.79597 5.43499 8.8271 5.44246 8.88461C5.44442 8.89954 5.44393 8.91476 5.44393 8.9299C5.44393 9.63465 5.44393 10.3395 5.444 11.0442C5.444 11.0711 5.44379 11.0976 5.43318 11.1231C5.41901 11.1571 5.39382 11.1776 5.35794 11.1835C5.30246 11.1927 5.2467 11.192 5.19122 11.1832C5.13894 11.1749 5.11186 11.1387 5.09483 11.0925C5.06036 10.9986 5.02609 10.9048 4.99182 10.8108C4.83905 10.3926 4.68642 9.97446 4.53344 9.55634C4.53002 9.54706 4.52932 9.53589 4.51913 9.52892C4.51285 9.54134 4.51606 9.55404 4.51606 9.56618C4.51585 10.0535 4.51487 10.5407 4.51655 11.028C4.51704 11.1644 4.46742 11.1943 4.34096 11.1871C4.33049 11.1864 4.32009 11.1857 4.30962 11.1849C4.25169 11.1809 4.21526 11.1468 4.20828 11.0892C4.20661 11.0755 4.2071 11.0614 4.2071 11.0474C4.2071 10.3403 4.2071 9.63325 4.2071 8.92613C4.2071 8.90408 4.20626 8.88203 4.21331 8.86046C4.22636 8.82026 4.25274 8.79542 4.29489 8.78886C4.35394 8.77964 4.41326 8.7802 4.47209 8.78948C4.52646 8.79807 4.55591 8.83568 4.57392 8.88426C4.60141 8.95838 4.62863 9.03263 4.65585 9.10682C4.80974 9.52598 4.96356 9.94508 5.11752 10.3642C5.12191 10.3761 5.12673 10.3878 5.13133 10.3996C5.13266 10.3991 5.13399 10.3986 5.13524 10.3982L5.13517 10.3984Z" fill="white"/>
<path d="M15.3757 9.53049V9.57208C15.3757 10.0594 15.3757 10.5467 15.3757 11.034C15.3757 11.1543 15.3363 11.1926 15.2155 11.1896C15.1981 11.1891 15.1808 11.1866 15.1634 11.1847C15.1112 11.1792 15.0779 11.1491 15.0694 11.0975C15.0664 11.0793 15.0665 11.0604 15.0665 11.0419C15.0664 10.3371 15.0665 9.63231 15.0664 8.9275C15.0664 8.90419 15.0656 8.88081 15.0733 8.8584C15.087 8.81862 15.114 8.79217 15.1566 8.78938C15.2064 8.7861 15.2565 8.78547 15.3064 8.78666C15.3711 8.7882 15.4115 8.82351 15.4331 8.88339C15.4702 8.98619 15.5081 9.08864 15.5458 9.19124C15.6916 9.58848 15.8375 9.98566 15.9833 10.3828C15.9849 10.387 15.9868 10.3911 15.9946 10.3951V10.3594C15.9946 9.88258 15.9946 9.4057 15.9946 8.92889C15.9946 8.90677 15.9946 8.88472 16.001 8.86322C16.0136 8.82121 16.0411 8.79622 16.0843 8.78882C16.1271 8.7815 16.1699 8.78129 16.2127 8.78847C16.259 8.79622 16.2883 8.82253 16.2976 8.86887C16.3017 8.88925 16.3034 8.9104 16.3034 8.93113C16.3037 9.63594 16.3037 10.3407 16.3034 11.0455C16.3034 11.0663 16.3015 11.0875 16.297 11.1077C16.2876 11.1489 16.2611 11.1753 16.2193 11.1833C16.1604 11.1945 16.101 11.1932 16.0425 11.181C15.9941 11.1709 15.9698 11.134 15.9539 11.0907C15.8835 10.8985 15.8133 10.7063 15.7431 10.5141C15.6262 10.1941 15.5093 9.87414 15.3924 9.55422C15.3892 9.5457 15.3854 9.5374 15.3819 9.52902C15.3798 9.52951 15.3777 9.53 15.3756 9.53049H15.3757Z" fill="white"/>
<path d="M9.41623 7.11064C9.51841 7.13884 9.59141 7.19376 9.63209 7.2863C9.65575 7.34004 9.66873 7.39664 9.66901 7.45555C9.66964 7.59736 9.6702 7.73925 9.66964 7.88106C9.66874 8.10048 9.54856 8.25981 9.33821 8.32284C9.26311 8.34538 9.18627 8.35703 9.10804 8.35738C8.94061 8.35801 8.77318 8.35787 8.60582 8.35759C8.51998 8.35745 8.48055 8.31753 8.48055 8.23099C8.48048 7.51599 8.48041 6.80098 8.48055 6.08598C8.48055 6.00174 8.51112 5.96412 8.59473 5.95986C8.69446 5.95484 8.79454 5.95686 8.89455 5.95672C9.00719 5.95658 9.12025 5.95205 9.23212 5.96866C9.36445 5.98834 9.48407 6.03531 9.56859 6.14607C9.62232 6.21648 9.65192 6.29758 9.65401 6.38545C9.65722 6.51791 9.65827 6.65058 9.65359 6.78297C9.64996 6.88431 9.61674 6.97664 9.53809 7.04741C9.50459 7.07756 9.46474 7.09557 9.41623 7.11064ZM8.81603 7.65885C8.81603 7.78321 8.81631 7.90765 8.81582 8.03202C8.81575 8.05533 8.82071 8.0697 8.84849 8.0688C8.94947 8.06559 9.05067 8.07382 9.15159 8.06314C9.25969 8.05177 9.32425 7.98868 9.33193 7.88071C9.34281 7.72864 9.34149 7.57635 9.33165 7.42435C9.32697 7.35212 9.28838 7.30068 9.21817 7.27577C9.18711 7.26474 9.15515 7.26034 9.12227 7.26041C9.03622 7.26062 8.95024 7.26048 8.86419 7.26041C8.83213 7.26041 8.8161 7.27695 8.8161 7.31003C8.8161 7.4263 8.8161 7.54258 8.8161 7.65878L8.81603 7.65885ZM8.81603 6.60864C8.81603 6.71779 8.81645 6.82701 8.81575 6.93617C8.81561 6.96164 8.82238 6.97483 8.851 6.97441C8.94389 6.97301 9.03692 6.97581 9.12974 6.97239C9.23443 6.96855 9.30638 6.91041 9.31622 6.81829C9.33046 6.68534 9.33046 6.55141 9.31573 6.41853C9.30457 6.31796 9.23771 6.26045 9.13714 6.24991C9.0432 6.24007 8.94912 6.24782 8.85519 6.24405C8.82399 6.24279 8.8152 6.2548 8.81554 6.28453C8.8168 6.39257 8.81603 6.5006 8.8161 6.60857L8.81603 6.60864Z" fill="white"/>
<path d="M9.99624 7.15445C9.99624 6.7974 9.9961 6.44035 9.99638 6.08331C9.99638 6.00319 10.0281 5.96843 10.1067 5.95936C10.1159 5.95831 10.1251 5.95663 10.1344 5.9567C10.3228 5.9574 10.5113 5.95112 10.6995 5.96229C10.7916 5.96773 10.881 5.98867 10.9637 6.03271C11.1073 6.10913 11.1777 6.2337 11.1896 6.39066C11.2037 6.57505 11.203 6.76034 11.1894 6.94473C11.1772 7.10944 11.0984 7.23583 10.9476 7.31085C10.9199 7.3246 10.9172 7.33821 10.927 7.36515C11.0266 7.6395 11.1254 7.91412 11.2238 8.18889C11.2663 8.30753 11.2302 8.35736 11.1033 8.35757C11.0836 8.35757 11.0638 8.35771 11.044 8.3575C10.9664 8.35673 10.9284 8.32966 10.9035 8.25679C10.8295 8.03996 10.7558 7.82312 10.6819 7.60628C10.6597 7.54137 10.6364 7.47681 10.6155 7.41149C10.6077 7.38734 10.5943 7.37869 10.5697 7.37904C10.5046 7.38008 10.4394 7.38085 10.3744 7.37876C10.3399 7.37764 10.331 7.39139 10.3312 7.42377C10.3321 7.68779 10.3317 7.95181 10.3317 8.21583C10.3317 8.31996 10.2945 8.35743 10.1914 8.3575C10.1635 8.3575 10.1355 8.35834 10.1076 8.35715C10.0411 8.35422 10 8.31305 9.99659 8.24661C9.99582 8.23153 9.99617 8.21639 9.99617 8.20124C9.99617 7.85236 9.99617 7.5034 9.99617 7.15452L9.99624 7.15445ZM10.3317 6.66801C10.3317 6.79468 10.3323 6.92135 10.3313 7.04802C10.3311 7.0767 10.3412 7.0871 10.3699 7.08662C10.4594 7.08501 10.5489 7.08731 10.6383 7.08445C10.7646 7.08033 10.8374 7.01145 10.8545 6.88632C10.8649 6.81101 10.8594 6.73543 10.8598 6.66005C10.8603 6.5881 10.8636 6.51608 10.8539 6.44426C10.8398 6.33999 10.7792 6.27376 10.6762 6.25764C10.5758 6.24187 10.4743 6.2545 10.3735 6.2499C10.3416 6.24843 10.3307 6.25925 10.3312 6.29149C10.3326 6.41697 10.3317 6.54253 10.3318 6.66801H10.3317Z" fill="white"/>
<path d="M12.2815 7.15557C12.2815 6.80082 12.2815 6.44608 12.2815 6.09133C12.2815 5.99635 12.3082 5.96208 12.4028 5.9588C12.5666 5.95315 12.7307 5.95468 12.8946 5.95845C12.988 5.96061 13.0801 5.96983 13.1688 6.00158C13.3428 6.06383 13.4382 6.1882 13.4634 6.36938C13.4694 6.41216 13.4705 6.45501 13.4704 6.49807C13.4701 6.95171 13.4705 7.40528 13.4698 7.85892C13.4697 7.9606 13.449 8.05782 13.3925 8.1445C13.3137 8.26552 13.1934 8.318 13.0575 8.34299C13.0003 8.35353 12.9424 8.35792 12.884 8.35764C12.727 8.35702 12.57 8.35764 12.4129 8.35736C12.3182 8.35722 12.2814 8.32065 12.2813 8.22679C12.2812 7.86974 12.2813 7.51262 12.2813 7.15557H12.2815ZM12.6125 7.15473C12.6125 7.36403 12.6125 7.57341 12.6125 7.78271C12.6125 7.86408 12.6128 7.94553 12.6124 8.02691C12.6123 8.04798 12.615 8.06313 12.6418 8.06278C12.7326 8.06173 12.8234 8.06515 12.9139 8.06082C13.0443 8.05454 13.1143 7.98803 13.1314 7.85962C13.1355 7.8287 13.1344 7.79695 13.1344 7.76554C13.1346 7.36082 13.1346 6.95618 13.1346 6.55146C13.1346 6.52703 13.1345 6.50261 13.1335 6.47818C13.1286 6.35026 13.067 6.27607 12.9412 6.25604C12.8479 6.24117 12.7532 6.25227 12.6591 6.25038C12.6128 6.24941 12.6126 6.25038 12.6126 6.29652C12.6126 6.58259 12.6126 6.86866 12.6126 7.15473H12.6125Z" fill="white"/>
<path d="M14.7055 9.98755C14.7055 10.226 14.7061 10.4643 14.7051 10.7027C14.7048 10.7821 14.6941 10.8604 14.6626 10.9344C14.6032 11.0743 14.4925 11.1533 14.3494 11.1875C14.1902 11.2254 14.0284 11.2268 13.8688 11.1906C13.6319 11.137 13.4994 10.9753 13.4981 10.7326C13.4955 10.235 13.4952 9.73728 13.4985 9.2396C13.4996 9.06959 13.5634 8.9261 13.7182 8.83691C13.7791 8.80181 13.8459 8.78101 13.9157 8.77187C14.0629 8.7526 14.21 8.74925 14.3553 8.78687C14.5634 8.84082 14.6829 8.98536 14.7007 9.19947C14.7044 9.24365 14.7054 9.28762 14.7055 9.3318C14.7056 9.55038 14.7055 9.76904 14.7055 9.98762V9.98755ZM14.37 9.98937C14.37 9.77085 14.37 9.55234 14.3699 9.33382C14.3699 9.31177 14.3701 9.28957 14.368 9.26766C14.3559 9.14357 14.2954 9.07553 14.1773 9.0585C14.121 9.0504 14.0638 9.05082 14.0072 9.06157C13.9176 9.0786 13.8635 9.13185 13.8425 9.22027C13.8321 9.26382 13.8328 9.30793 13.8328 9.35204C13.8327 9.77741 13.8328 10.2029 13.8328 10.6282C13.8328 10.6527 13.8328 10.6771 13.8344 10.7014C13.8424 10.8234 13.9043 10.8949 14.0218 10.9135C14.0781 10.9223 14.1353 10.9216 14.1919 10.9116C14.2863 10.8948 14.342 10.8388 14.3615 10.7454C14.368 10.7145 14.3701 10.6834 14.37 10.6519C14.3699 10.4311 14.37 10.2102 14.3699 9.98937H14.37Z" fill="white"/>
<path d="M7.41832 9.9833C7.41832 9.7368 7.41832 9.49023 7.41832 9.24373C7.41832 9.1828 7.42774 9.12327 7.44784 9.06569C7.49537 8.92946 7.59098 8.83866 7.72679 8.79888C7.92982 8.73935 8.13619 8.73544 8.33704 8.80816C8.51983 8.87432 8.60623 9.01635 8.62123 9.20583C8.62821 9.29405 8.6264 9.3824 8.6264 9.47076C8.6264 9.86382 8.62667 10.2569 8.62605 10.6499C8.62598 10.6998 8.62479 10.7502 8.6176 10.7995C8.58655 11.014 8.46595 11.1469 8.25246 11.1906C8.06688 11.2286 7.87991 11.2316 7.69923 11.1628C7.54073 11.1023 7.45301 10.9825 7.42572 10.8166C7.41985 10.7809 7.4179 10.7451 7.41797 10.709C7.41832 10.4671 7.41811 10.2252 7.41811 9.98337H7.41825L7.41832 9.9833ZM8.29084 9.98714C8.29084 9.77546 8.29056 9.56386 8.29112 9.35218C8.29119 9.31477 8.28805 9.27778 8.28282 9.24107C8.26879 9.1426 8.21505 9.08335 8.11755 9.06269C8.0486 9.0481 7.97867 9.04922 7.90992 9.06548C7.83706 9.08272 7.79016 9.1285 7.76818 9.20039C7.75234 9.25224 7.74989 9.30584 7.74976 9.35909C7.74906 9.78125 7.74927 10.2033 7.74976 10.6255C7.74976 10.6591 7.75192 10.6931 7.75736 10.7261C7.77202 10.8153 7.81389 10.8837 7.90818 10.9065C7.97692 10.9231 8.04685 10.9242 8.11581 10.9101C8.21372 10.8901 8.2676 10.8317 8.28233 10.7331C8.28742 10.6988 8.29112 10.6641 8.29098 10.629C8.29035 10.415 8.2907 10.201 8.29077 9.98707L8.29084 9.98714Z" fill="white"/>
<path d="M10.2644 11.6154C10.2923 11.6154 10.3202 11.6153 10.3481 11.6154C10.4309 11.616 10.4728 11.651 10.4898 11.7347C10.5357 11.959 10.5813 12.1834 10.6269 12.4078C10.7263 12.8977 10.8259 13.3875 10.925 13.8774C10.9432 13.9676 10.9139 14.0064 10.8224 14.0149C10.7843 14.0184 10.7459 14.0179 10.7076 14.0132C10.6406 14.005 10.606 13.974 10.5934 13.9061C10.5695 13.777 10.5463 13.6477 10.5237 13.5183C10.5122 13.4529 10.513 13.4528 10.4454 13.4528C10.3117 13.4528 10.178 13.4535 10.0443 13.4522C10.0129 13.4519 9.99939 13.4614 9.99395 13.4937C9.97085 13.6313 9.94537 13.7684 9.91997 13.9056C9.90671 13.9773 9.87544 14.0045 9.8037 14.0134C9.76168 14.0186 9.72002 14.0165 9.67856 14.0111C9.63208 14.005 9.60458 13.9731 9.60186 13.9259C9.59956 13.8857 9.61101 13.8475 9.61875 13.8088C9.74465 13.1784 9.87084 12.5481 9.99702 11.9178C10.0096 11.8551 10.0214 11.7922 10.0353 11.7299C10.0535 11.6473 10.0935 11.6159 10.1771 11.6153C10.2062 11.6151 10.2353 11.6153 10.2643 11.6153L10.2644 11.6154ZM10.2605 12.0706C10.2589 12.0711 10.2571 12.0717 10.2555 12.0722C10.1914 12.4243 10.1273 12.7763 10.0632 13.1284C10.0557 13.1696 10.0575 13.1722 10.1 13.1723C10.2046 13.1725 10.3092 13.1724 10.4138 13.1723C10.4455 13.1723 10.4586 13.1568 10.453 13.1259C10.4084 12.8801 10.3639 12.6343 10.3192 12.3885C10.2998 12.2825 10.2801 12.1765 10.2605 12.0705L10.2605 12.0706Z" fill="white"/>
<path d="M5.50212 5.95668C5.54086 5.95738 5.58385 5.95543 5.62677 5.96031C5.68693 5.96715 5.72531 6.00093 5.73802 6.06297C5.78868 6.31017 5.839 6.55737 5.88939 6.80464C5.9841 7.26951 6.07873 7.73432 6.17337 8.1992C6.17567 8.21057 6.17735 8.22209 6.1793 8.23353C6.19194 8.30821 6.15676 8.35343 6.08125 8.35713C6.04531 8.35888 6.00915 8.35818 5.97314 8.35748C5.9023 8.35615 5.8598 8.32161 5.84668 8.25168C5.82051 8.11238 5.79483 7.97293 5.77131 7.83314C5.76614 7.80264 5.75463 7.79232 5.72406 7.79253C5.57987 7.79371 5.43561 7.79371 5.29143 7.79253C5.26253 7.79232 5.25088 7.80174 5.24599 7.8307C5.22303 7.96714 5.19812 8.10323 5.1732 8.23939C5.15757 8.32503 5.11876 8.35713 5.0325 8.35755C5.00689 8.35769 4.98128 8.35825 4.95573 8.35727C4.88811 8.35469 4.85161 8.31833 4.85579 8.25112C4.86075 8.17093 4.88308 8.09332 4.89878 8.01481C5.02783 7.36757 5.15771 6.72054 5.28745 6.07351C5.30371 5.99255 5.34209 5.96129 5.42473 5.96003C5.44908 5.95968 5.47351 5.95787 5.50212 5.95654V5.95668ZM5.51043 6.39427C5.44287 6.76409 5.37734 7.12379 5.31111 7.48335C5.30622 7.50987 5.31899 7.51259 5.33951 7.51252C5.44873 7.51218 5.55796 7.51246 5.66718 7.51239C5.69835 7.51239 5.71105 7.49668 5.70528 7.46528C5.65915 7.21173 5.61302 6.95825 5.56689 6.7047C5.54867 6.60448 5.53046 6.50419 5.51043 6.3942V6.39427Z" fill="white"/>
<path d="M5.50418 13.4528C5.43327 13.4528 5.3623 13.4539 5.29139 13.4523C5.26319 13.4516 5.25084 13.4592 5.24589 13.4894C5.22467 13.619 5.20059 13.7482 5.17721 13.8774C5.17393 13.8957 5.17009 13.914 5.16493 13.9319C5.15153 13.9778 5.11977 14.0037 5.07322 14.0116C5.02577 14.0197 4.9781 14.0176 4.93078 14.0111C4.88437 14.0048 4.85576 13.9728 4.85548 13.9253C4.85499 13.8514 4.8776 13.7808 4.89184 13.7093C5.02311 13.0496 5.15551 12.3901 5.28769 11.7306C5.30374 11.6506 5.34652 11.6157 5.42874 11.6154C5.48338 11.6152 5.53803 11.6152 5.59267 11.6154C5.68312 11.6155 5.72402 11.6488 5.74224 11.738C5.77916 11.9191 5.81559 12.1003 5.85244 12.2814C5.9567 12.7941 6.06104 13.3067 6.16531 13.8193C6.17019 13.8432 6.17501 13.8672 6.17961 13.8911C6.19385 13.9646 6.1563 14.0109 6.08065 14.0125C6.04345 14.0133 6.00625 14.0132 5.96906 14.0125C5.90248 14.0114 5.86165 13.9802 5.84783 13.9147C5.83157 13.8374 5.81887 13.7594 5.80477 13.6817C5.79318 13.6177 5.78062 13.5538 5.77078 13.4895C5.76659 13.4622 5.75515 13.452 5.72751 13.4525C5.65311 13.4538 5.57872 13.4529 5.50425 13.4529L5.50418 13.4528ZM5.51207 12.0632C5.51074 12.0633 5.50941 12.0634 5.50809 12.0634C5.44269 12.4233 5.37751 12.7832 5.3117 13.1431C5.30702 13.1688 5.31868 13.1726 5.33989 13.1725C5.44451 13.1719 5.54906 13.1723 5.65367 13.1723C5.71488 13.1723 5.71411 13.1724 5.70287 13.1112C5.65716 12.8611 5.61208 12.6109 5.56664 12.3607C5.54864 12.2615 5.53021 12.1623 5.512 12.0632H5.51207Z" fill="white"/>
<path d="M6.43367 12.8157C6.43367 12.4668 6.43367 12.1178 6.43367 11.769C6.43367 11.7527 6.43325 11.7364 6.43437 11.7201C6.43835 11.6607 6.47359 11.617 6.53263 11.6173C6.76259 11.6185 6.99346 11.5973 7.22231 11.631C7.36705 11.6523 7.49023 11.7163 7.56644 11.8492C7.61027 11.9256 7.62863 12.0095 7.62932 12.0968C7.63058 12.2503 7.62988 12.4038 7.62974 12.5573C7.62946 12.8338 7.48716 13.0015 7.21435 13.0487C7.10115 13.0683 6.98704 13.0599 6.87328 13.0625C6.83999 13.0632 6.79679 13.0477 6.77592 13.0695C6.75541 13.0911 6.77013 13.1338 6.76999 13.1673C6.76936 13.3952 6.76978 13.6232 6.76964 13.8512C6.76957 13.9828 6.73621 14.0161 6.60424 14.0158C6.58107 14.0158 6.55783 14.0138 6.53466 14.0118C6.47527 14.0068 6.43932 13.9706 6.43444 13.9111C6.43339 13.8984 6.43381 13.8856 6.43381 13.8727C6.43381 13.5203 6.43381 13.1679 6.43381 12.8155H6.43367V12.8157ZM6.76978 12.3382C6.76978 12.4673 6.76992 12.5963 6.76964 12.7254C6.76964 12.7481 6.77048 12.7674 6.80182 12.7665C6.89938 12.7635 6.99709 12.7714 7.09459 12.7607C7.21477 12.7476 7.28665 12.6766 7.29161 12.5557C7.29761 12.4105 7.29761 12.265 7.29154 12.1197C7.28672 12.0049 7.22077 11.9341 7.10813 11.9165C7.0123 11.9015 6.91544 11.9122 6.81912 11.91C6.77055 11.9089 6.76985 11.9104 6.76985 11.9579C6.76971 12.0846 6.76985 12.2114 6.76985 12.3382H6.76978Z" fill="white"/>
<path d="M9.49106 10.6063C9.51493 10.4737 9.53887 10.3412 9.56253 10.2085C9.64035 9.77241 9.71788 9.33629 9.79605 8.90023C9.8098 8.82367 9.84427 8.79513 9.92335 8.78655C9.95957 8.78257 9.99523 8.78313 10.0311 8.78836C10.0895 8.79687 10.1206 8.83198 10.1162 8.89123C10.1109 8.95977 10.0924 9.02628 10.0789 9.09348C9.96683 9.65453 9.85398 10.2154 9.74154 10.7763C9.72123 10.8778 9.70162 10.9793 9.68152 11.0808C9.66798 11.149 9.62702 11.184 9.55799 11.1852C9.50802 11.1862 9.45798 11.1859 9.40794 11.1854C9.33124 11.1846 9.29244 11.1524 9.2773 11.0769C9.23151 10.8489 9.18601 10.6208 9.14044 10.3928C9.04336 9.90703 8.94621 9.42129 8.84934 8.93555C8.84571 8.9174 8.84362 8.8987 8.84376 8.8802C8.84411 8.83058 8.87342 8.79715 8.92269 8.78913C8.97587 8.78047 9.02933 8.78054 9.08244 8.78955C9.13639 8.79869 9.16828 8.83379 9.18008 8.89807C9.19927 9.00332 9.21742 9.1087 9.23605 9.21401C9.31352 9.65251 9.39105 10.0911 9.46859 10.5296C9.4732 10.5555 9.47801 10.5813 9.48276 10.6072C9.48555 10.6069 9.48834 10.6066 9.49106 10.6063Z" fill="white"/>
<path d="M10.7431 9.33059C10.7188 9.46585 10.695 9.59782 10.6714 9.72993C10.598 10.1407 10.5248 10.5516 10.4514 10.9624C10.4451 10.9978 10.4393 11.0334 10.4315 11.0686C10.4184 11.1283 10.3792 11.161 10.3184 11.1629C10.2824 11.1641 10.2463 11.1643 10.2103 11.1628C10.1484 11.1603 10.1126 11.123 10.1177 11.061C10.1243 10.9797 10.1462 10.9009 10.1621 10.8212C10.2914 10.1725 10.4213 9.52384 10.5511 8.87521C10.5654 8.80402 10.5981 8.77171 10.6703 8.76445C10.7246 8.75894 10.7796 8.75866 10.8339 8.7648C10.9092 8.77331 10.9404 8.80346 10.9552 8.8773C10.9875 9.03803 11.0194 9.19876 11.0515 9.35949C11.1233 9.71856 11.1952 10.0776 11.267 10.4366C11.3062 10.6327 11.3456 10.8287 11.3844 11.0249C11.4028 11.1179 11.3659 11.1628 11.272 11.1634C11.2418 11.1636 11.2116 11.1637 11.1813 11.1632C11.1067 11.162 11.0675 11.1297 11.0539 11.0557C11.0343 10.9494 11.0162 10.8428 10.9973 10.7364C10.9173 10.2831 10.8373 9.82987 10.7569 9.37665C10.7544 9.36228 10.7548 9.34664 10.7432 9.33052L10.7431 9.33059Z" fill="#E73428"/>
<path d="M12.1455 10.0945C12.1455 10.4143 12.1454 10.7341 12.1457 11.0539C12.1457 11.0861 12.1416 11.1168 12.1227 11.1435C12.1041 11.1699 12.0778 11.184 12.0456 11.1847C12.0014 11.1855 11.9572 11.1864 11.9131 11.1846C11.8597 11.1823 11.8256 11.1508 11.814 11.098C11.8092 11.0761 11.8097 11.0541 11.8097 11.032C11.8097 10.4005 11.8097 9.76902 11.8096 9.13748C11.8096 9.10068 11.7908 9.08225 11.7532 9.08221C11.6788 9.08221 11.6044 9.08284 11.53 9.082C11.4288 9.08081 11.391 9.04222 11.3907 8.94151C11.3907 8.92755 11.3903 8.91359 11.3911 8.89964C11.3949 8.83327 11.4274 8.79725 11.4932 8.78769C11.5127 8.7849 11.5326 8.78343 11.5522 8.78343C11.8348 8.78316 12.1175 8.78316 12.4001 8.78329C12.5335 8.78329 12.5654 8.81526 12.5648 8.94723C12.5643 9.0381 12.535 9.07439 12.4448 9.0797C12.359 9.08472 12.2727 9.08367 12.1868 9.0813C12.1515 9.08032 12.1449 9.09219 12.145 9.12457C12.1462 9.44791 12.1457 9.77118 12.1457 10.0945L12.1455 10.0945Z" fill="white"/>
<path d="M9.2437 12.9272C9.2437 13.2446 9.2437 13.5621 9.2437 13.8795C9.2437 13.9724 9.21397 14.0057 9.12254 14.0149C9.08074 14.019 9.03879 14.0174 8.99734 14.0108C8.95009 14.0033 8.92022 13.9729 8.91331 13.9255C8.90954 13.8991 8.90766 13.8723 8.90766 13.8456C8.90738 13.219 8.90745 12.5922 8.90738 11.9656C8.90738 11.9286 8.88879 11.9101 8.85161 11.91C8.77373 11.91 8.69584 11.9104 8.61796 11.9099C8.53323 11.9093 8.49191 11.8689 8.48877 11.7842C8.48815 11.7668 8.48794 11.7492 8.48926 11.7319C8.49519 11.6551 8.53658 11.6156 8.61328 11.6155C8.92141 11.6152 9.22946 11.6151 9.53759 11.6155C9.6251 11.6157 9.66195 11.6537 9.66258 11.7421C9.66272 11.7583 9.66279 11.7746 9.66258 11.7909C9.66139 11.8691 9.62273 11.9088 9.54401 11.9098C9.46263 11.9109 9.38126 11.9101 9.29988 11.9102C9.26252 11.9102 9.24384 11.9283 9.24384 11.9647C9.24384 12.2856 9.24384 12.6065 9.24384 12.9274L9.2437 12.9272Z" fill="white"/>
<path d="M11.1798 12.8132C11.1798 12.4678 11.1798 12.1223 11.1798 11.7769C11.1798 11.7665 11.1797 11.756 11.1798 11.7455C11.1813 11.654 11.2193 11.616 11.31 11.6155C11.3402 11.6154 11.3705 11.6148 11.4007 11.6158C11.4665 11.618 11.5069 11.6551 11.5144 11.7202C11.5164 11.7374 11.5157 11.755 11.5157 11.7725C11.5157 12.4017 11.5157 13.0309 11.5157 13.6601C11.5157 13.6973 11.5341 13.7159 11.5709 13.716C11.7245 13.716 11.878 13.7159 12.0315 13.7161C12.1264 13.7162 12.1649 13.7548 12.1649 13.8498C12.1649 13.8776 12.167 13.9055 12.16 13.9331C12.1488 13.9776 12.1185 14.0064 12.0732 14.0116C12.0466 14.0147 12.0198 14.0165 11.9932 14.0165C11.778 14.0169 11.5629 14.0169 11.3477 14.0165C11.3268 14.0165 11.3059 14.0146 11.2851 14.0128C11.2193 14.0068 11.1866 13.9743 11.1807 13.9088C11.1793 13.8938 11.1798 13.8786 11.1798 13.8635C11.1798 13.5135 11.1798 13.1634 11.1798 12.8133V12.8132Z" fill="white"/>
<path d="M7.92969 12.8167C7.92969 12.4631 7.92969 12.1096 7.92969 11.7561C7.92969 11.6523 7.96675 11.6155 8.07073 11.6154C8.09746 11.6154 8.12426 11.6148 8.15099 11.6157C8.2166 11.618 8.25687 11.6551 8.26433 11.7204C8.26608 11.7353 8.26566 11.7506 8.26566 11.7657C8.26566 12.4658 8.26566 13.1659 8.26566 13.866C8.26566 13.8834 8.26608 13.9011 8.26329 13.9182C8.25394 13.9763 8.22225 14.0056 8.16377 14.0128C8.11966 14.0182 8.07569 14.0181 8.03158 14.0128C7.96961 14.0054 7.93778 13.9742 7.93087 13.9122C7.92934 13.8984 7.92983 13.8843 7.92983 13.8704C7.92983 13.5192 7.92983 13.1679 7.92983 12.8168L7.92969 12.8167Z" fill="white"/>
<path d="M11.8944 7.15597C11.8944 7.50946 11.8944 7.86295 11.8944 8.21643C11.8944 8.31979 11.8567 8.3572 11.7531 8.35727C11.724 8.35727 11.6949 8.35832 11.666 8.35664C11.6087 8.35329 11.5734 8.32196 11.5632 8.26578C11.5599 8.24763 11.5588 8.22886 11.5588 8.21036C11.5586 7.50918 11.5586 6.80799 11.5587 6.1068C11.5587 6.09054 11.5589 6.07414 11.5612 6.05816C11.5703 5.99472 11.5996 5.96743 11.6637 5.95975C11.7078 5.95452 11.7519 5.95494 11.7959 5.96038C11.8537 5.96757 11.8886 6.00302 11.8937 6.06067C11.895 6.07568 11.8945 6.09089 11.8945 6.10597C11.8945 6.45597 11.8945 6.80597 11.8945 7.15597H11.8944Z" fill="white"/>
<path d="M13.1243 9.98614C13.1243 10.3409 13.1243 10.6956 13.1243 11.0504C13.1243 11.145 13.0943 11.179 13.0009 11.1879C12.9604 11.1917 12.9195 11.1914 12.8793 11.1835C12.8299 11.174 12.7975 11.1376 12.7939 11.0871C12.7928 11.0709 12.793 11.0546 12.793 11.0382C12.793 10.3368 12.793 9.63551 12.793 8.93412C12.793 8.91667 12.7927 8.89915 12.7941 8.88185C12.7982 8.83523 12.8302 8.79845 12.8758 8.78951C12.9312 8.77863 12.9871 8.77946 13.0422 8.79021C13.0925 8.79998 13.1232 8.84102 13.1239 8.89748C13.1249 8.97076 13.1242 9.04404 13.1242 9.11732C13.1242 9.40695 13.1242 9.69658 13.1242 9.98621L13.1243 9.98614Z" fill="white"/>
<path d="M3.48871 9.98562C3.48871 9.62627 3.48885 9.26685 3.48857 8.9075C3.48857 8.86032 3.49743 8.81489 3.54587 8.79814C3.61538 8.77413 3.68803 8.77587 3.75831 8.798C3.79069 8.80819 3.80737 8.83666 3.81317 8.86932C3.81722 8.89207 3.81917 8.91552 3.81917 8.93862C3.81945 9.63765 3.81945 10.3366 3.81917 11.0356C3.81917 11.0587 3.81735 11.0822 3.81296 11.1049C3.80437 11.1496 3.77164 11.1788 3.72684 11.1842C3.67819 11.1901 3.62969 11.192 3.58083 11.185C3.52437 11.1769 3.49108 11.1427 3.48906 11.0848C3.48766 11.0464 3.48857 11.008 3.48857 10.9696C3.48857 10.6417 3.48857 10.3136 3.48857 9.98569H3.48871V9.98562Z" fill="white"/>
</g>
</g>
</g>
<defs>
<linearGradient id="paint0_linear_33466_13349" x1="-2.29607" y1="14.4436" x2="13.2401" y2="15.5164" gradientUnits="userSpaceOnUse">
<stop stop-color="#4E4244"/>
<stop offset="1" stop-color="#2B2527"/>
</linearGradient>
<clipPath id="clip0_33466_13349">
<rect width="20" height="20" rx="10" fill="white"/>
</clipPath>
<clipPath id="clip1_33466_13349">
<rect width="20" height="20" fill="white"/>
</clipPath>
<clipPath id="clip2_33466_13349">
<rect width="14" height="8.85643" fill="white" transform="translate(3 5.6001)"/>
</clipPath>
</defs>
</svg>
