<svg width="21" height="20" viewBox="0 0 21 20" fill="none" xmlns="http://www.w3.org/2000/svg">
<path fill-rule="evenodd" clip-rule="evenodd" d="M4.66699 6.66732C4.66699 6.20708 5.04009 5.83398 5.50033 5.83398H15.5003C15.9606 5.83398 16.3337 6.20708 16.3337 6.66732V17.084C16.3337 17.3813 16.0312 17.583 15.7567 17.4686L14.1005 16.7785C13.9277 16.7065 13.7356 16.6948 13.5553 16.7453L11.1744 17.4119C10.7335 17.5354 10.2672 17.5354 9.82625 17.4119L7.44536 16.7453C7.26505 16.6948 7.07299 16.7065 6.90016 16.7785L5.24392 17.4686C4.96946 17.583 4.66699 17.3813 4.66699 17.084V6.66732ZM7.16699 9.16732C7.16699 8.70708 7.54009 8.33398 8.00033 8.33398H9.66699C10.1272 8.33398 10.5003 8.70708 10.5003 9.16732C10.5003 9.62755 10.1272 10.0007 9.66699 10.0007H8.00033C7.54009 10.0007 7.16699 9.62755 7.16699 9.16732ZM13.0003 8.33398C12.5401 8.33398 12.167 8.70708 12.167 9.16732C12.167 9.62755 12.5401 10.0007 13.0003 10.0007C13.4606 10.0007 13.8337 9.62755 13.8337 9.16732C13.8337 8.70708 13.4606 8.33398 13.0003 8.33398ZM7.16699 12.5007C7.16699 12.0404 7.54009 11.6673 8.00033 11.6673H9.66699C10.1272 11.6673 10.5003 12.0404 10.5003 12.5007C10.5003 12.9609 10.1272 13.334 9.66699 13.334H8.00033C7.54009 13.334 7.16699 12.9609 7.16699 12.5007ZM13.0003 11.6673C12.5401 11.6673 12.167 12.0404 12.167 12.5007C12.167 12.9609 12.5401 13.334 13.0003 13.334C13.4606 13.334 13.8337 12.9609 13.8337 12.5007C13.8337 12.0404 13.4606 11.6673 13.0003 11.6673Z" fill="#252C2F"/>
<path d="M3 3.33333C3 2.8731 3.3731 2.5 3.83333 2.5H17.1667C17.6269 2.5 18 2.8731 18 3.33333C18 3.79357 17.6269 4.16667 17.1667 4.16667H3.83333C3.3731 4.16667 3 3.79357 3 3.33333Z" fill="#252C2F"/>
</svg>
