<svg width="24" height="24" viewBox="0 0 24 24" fill="none" xmlns="http://www.w3.org/2000/svg">
<path fill-rule="evenodd" clip-rule="evenodd" d="M7.71261 2.57171C7.71261 1.62493 6.94509 0.857422 5.99833 0.857422C5.05156 0.857422 4.28404 1.62493 4.28404 2.57171V4.28599H3.4269C2.00673 4.28599 0.855469 5.43726 0.855469 6.85742V20.5717C0.855469 21.9918 2.00673 23.1431 3.4269 23.1431H20.5698C21.9899 23.1431 23.1412 21.9918 23.1412 20.5717V6.85742C23.1412 5.43726 21.9899 4.28599 20.5698 4.28599H19.7126V2.57171C19.7126 1.62493 18.9451 0.857422 17.9983 0.857422C17.0515 0.857422 16.284 1.62493 16.284 2.57171V4.28599H7.71261V2.57171ZM17.6802 11.5612C18.1478 11.0268 18.0936 10.2146 17.5593 9.74697C17.0249 9.27938 16.2126 9.33352 15.745 9.86791L10.5302 15.8277L8.05547 13.9717C7.48741 13.5457 6.68152 13.6608 6.25547 14.2289C5.82942 14.7969 5.94455 15.6028 6.51261 16.0289L9.94118 18.6003C10.4792 19.0038 11.2373 18.9244 11.6802 18.4184L17.6802 11.5612Z" fill="url(#paint0_linear_32343_3938)"/>
<defs>
<linearGradient id="paint0_linear_32343_3938" x1="-0.109137" y1="8.92133" x2="20.4396" y2="16.4025" gradientUnits="userSpaceOnUse">
<stop stop-color="white"/>
<stop offset="1" stop-color="#FFDABD"/>
</linearGradient>
</defs>
</svg>
