<svg width="23" height="23" viewBox="0 0 23 23" fill="none" xmlns="http://www.w3.org/2000/svg">
<path fill-rule="evenodd" clip-rule="evenodd" d="M6.85714 1.71429C6.85714 0.767511 6.08962 0 5.14286 0C4.19609 0 3.42857 0.767511 3.42857 1.71429V3.42857H2.57143C1.15126 3.42857 0 4.57983 0 6V19.7143C0 21.1344 1.15126 22.2857 2.57143 22.2857H19.7143C21.1344 22.2857 22.2857 21.1344 22.2857 19.7143V6C22.2857 4.57983 21.1344 3.42857 19.7143 3.42857H18.8571V1.71429C18.8571 0.767511 18.0897 0 17.1429 0C16.1961 0 15.4286 0.767511 15.4286 1.71429V3.42857H6.85714V1.71429ZM16.8247 10.7038C17.2923 10.1694 17.2382 9.35714 16.7038 8.88955C16.1694 8.42196 15.3571 8.4761 14.8895 9.01049L9.67471 14.9703L7.2 13.1143C6.63194 12.6882 5.82605 12.8034 5.4 13.3714C4.97395 13.9395 5.08908 14.7454 5.65714 15.1714L9.08571 17.7429C9.62374 18.1464 10.3819 18.067 10.8247 17.561L16.8247 10.7038Z" fill="url(#paint0_linear_34291_5493)"/>
<defs>
<linearGradient id="paint0_linear_34291_5493" x1="11.1429" y1="0" x2="11.1429" y2="22.2857" gradientUnits="userSpaceOnUse">
<stop stop-color="#415EFF"/>
<stop offset="1" stop-color="#0CD2F2"/>
</linearGradient>
</defs>
</svg>
