<svg width="16" height="16" viewBox="0 0 16 16" fill="none" xmlns="http://www.w3.org/2000/svg">
<path fill-rule="evenodd" clip-rule="evenodd" d="M11.3346 1.3335H4.66797C3.5634 1.3335 2.66797 2.22893 2.66797 3.3335V12.6668C2.66797 13.7714 3.5634 14.6668 4.66797 14.6668H11.3346C12.4392 14.6668 13.3346 13.7714 13.3346 12.6668V3.3335C13.3346 2.22893 12.4392 1.3335 11.3346 1.3335ZM4.66797 2.66683H11.3346C11.7028 2.66683 12.0013 2.96531 12.0013 3.3335V12.6668C12.0013 13.035 11.7028 13.3335 11.3346 13.3335H4.66797C4.29978 13.3335 4.0013 13.035 4.0013 12.6668V3.3335C4.0013 2.96531 4.29978 2.66683 4.66797 2.66683ZM10.668 4.66683C10.668 4.29864 10.3695 4.00016 10.0013 4.00016H6.0013L5.92355 4.00465C5.592 4.04316 5.33464 4.32494 5.33464 4.66683C5.33464 5.03502 5.63311 5.3335 6.0013 5.3335H10.0013L10.079 5.32901C10.4106 5.2905 10.668 5.00872 10.668 4.66683ZM10.0013 6.66683C10.3695 6.66683 10.668 6.96531 10.668 7.3335C10.668 7.67539 10.4106 7.95717 10.079 7.99568L10.0013 8.00016H6.0013C5.63311 8.00016 5.33464 7.70169 5.33464 7.3335C5.33464 6.99161 5.592 6.70983 5.92355 6.67131L6.0013 6.66683H10.0013ZM9.33464 10.0002C9.33464 9.63197 9.03616 9.3335 8.66797 9.3335H6.0013L5.92355 9.33798C5.592 9.37649 5.33464 9.65827 5.33464 10.0002C5.33464 10.3684 5.63311 10.6668 6.0013 10.6668H8.66797L8.74572 10.6623C9.07728 10.6238 9.33464 10.3421 9.33464 10.0002Z" fill="white"/>
</svg>
