<svg width="16" height="16" viewBox="0 0 16 16" fill="none" xmlns="http://www.w3.org/2000/svg">
<path d="M11.335 1.3335C12.4394 1.33367 13.335 2.22904 13.335 3.3335V12.6665C13.335 13.771 12.4394 14.6663 11.335 14.6665H4.66797C3.5634 14.6665 2.66797 13.7711 2.66797 12.6665V3.3335C2.66797 2.22893 3.5634 1.3335 4.66797 1.3335H11.335ZM4.66797 2.6665C4.29978 2.6665 4.00098 2.96531 4.00098 3.3335V12.6665C4.00098 13.0347 4.29978 13.3335 4.66797 13.3335H11.335C11.703 13.3333 12.001 13.0346 12.001 12.6665V3.3335C12.001 2.96541 11.703 2.66668 11.335 2.6665H4.66797ZM8.66797 9.3335C9.03616 9.3335 9.33496 9.6323 9.33496 10.0005C9.3348 10.3421 9.07738 10.6239 8.74609 10.6626L8.66797 10.6665H6.00098C5.63304 10.6663 5.33514 10.3684 5.33496 10.0005C5.33496 9.6586 5.59227 9.37689 5.92383 9.33838L6.00098 9.3335H8.66797ZM10.001 6.6665C10.3692 6.6665 10.668 6.96531 10.668 7.3335C10.668 7.67537 10.4106 7.95707 10.0791 7.99561L10.001 8.00049H6.00098C5.63294 8.00031 5.33496 7.70158 5.33496 7.3335C5.33496 6.99161 5.59227 6.7099 5.92383 6.67139L6.00098 6.6665H10.001ZM10.001 4.00049C10.3691 4.00049 10.6678 4.29846 10.668 4.6665C10.668 5.00836 10.4106 5.29006 10.0791 5.32861L10.001 5.3335H6.00098C5.63294 5.33332 5.33496 5.03459 5.33496 4.6665C5.33512 4.32476 5.59237 4.04289 5.92383 4.00439L6.00098 4.00049H10.001Z" fill="#010101"/>
</svg>
