<svg width="16" height="17" viewBox="0 0 16 17" fill="none" xmlns="http://www.w3.org/2000/svg">
<path d="M7.9987 11.1673C8.34059 11.1673 8.62237 11.4247 8.66088 11.7562L8.66536 11.8407C8.66536 12.2088 8.36689 12.5073 7.9987 12.5073C7.65681 12.5073 7.37503 12.25 7.33652 11.9184L7.33203 11.834C7.33203 11.4658 7.63051 11.1673 7.9987 11.1673Z" fill="black"/>
<path d="M8.78055 4.59675C7.81079 4.2851 6.74993 4.61955 6.13426 5.43103C5.91171 5.72435 5.96909 6.14255 6.26241 6.36509C6.55573 6.58764 6.97393 6.53026 7.19647 6.23694L7.25805 6.16293C7.53725 5.85651 7.97238 5.73753 8.3726 5.86615C8.8036 6.00466 9.10022 6.40015 9.11251 6.8527C9.12481 7.30525 8.85009 7.71626 8.42724 7.87796C7.74407 8.11793 7.29108 8.79742 7.3331 9.5384C7.35395 9.906 7.66885 10.1871 8.03645 10.1662C8.40405 10.1454 8.68514 9.8305 8.66429 9.4629L8.66569 9.40805C8.67931 9.28208 8.76399 9.17265 8.88652 9.12957L9.01082 9.07819C9.90743 8.67891 10.4718 7.79046 10.4454 6.8165C10.4177 5.79827 9.75031 4.90841 8.78055 4.59675Z" fill="black"/>
<path fill-rule="evenodd" clip-rule="evenodd" d="M1.33203 8.50065C1.33203 4.81875 4.3168 1.83398 7.9987 1.83398C11.6806 1.83398 14.6654 4.81875 14.6654 8.50065C14.6654 12.1826 11.6806 15.1673 7.9987 15.1673C4.3168 15.1673 1.33203 12.1826 1.33203 8.50065ZM13.332 8.50065C13.332 5.55513 10.9442 3.16732 7.9987 3.16732C5.05318 3.16732 2.66536 5.55513 2.66536 8.50065C2.66536 11.4462 5.05318 13.834 7.9987 13.834C10.9442 13.834 13.332 11.4462 13.332 8.50065Z" fill="black"/>
</svg>
