<svg width="96" height="96" viewBox="0 0 96 96" fill="none" xmlns="http://www.w3.org/2000/svg">
<g clip-path="url(#clip0_33363_11365)">
<path d="M99.0078 52.9636V46.6304C99.0078 43.5258 96.4977 41.0156 93.393 41.0156H30.6226C27.518 41.0156 25.0078 43.5258 25.0078 46.6304V52.9636C25.0078 53.5086 25.4537 53.9545 25.9987 53.9545H98.017C98.5619 53.9545 99.0078 53.5086 99.0078 52.9636ZM98.017 59.206H25.9987C25.4537 59.206 25.0078 59.6519 25.0078 60.1968V92.4242C25.0078 95.5289 27.518 98.0391 30.6226 98.0391H93.393C96.4977 98.0391 99.0078 95.5289 99.0078 92.4242V60.1968C99.0078 59.6519 98.5619 59.206 98.017 59.206ZM61.9913 79.9065L60.4803 88.4773C60.3977 88.948 59.9848 89.2948 59.5059 89.2948H56.2361C55.6168 89.2948 55.1544 88.7416 55.2618 88.1306L56.7728 79.5597C56.8554 79.089 57.2682 78.7422 57.7472 78.7422H61.017C61.6362 78.7505 62.0986 79.3037 61.9913 79.9065ZM72.5686 79.9065L71.0576 88.4773C70.975 88.948 70.5622 89.2948 70.0832 89.2948H66.8134C66.1942 89.2948 65.7318 88.7416 65.8391 88.1306L67.3501 79.5597C67.4327 79.089 67.8456 78.7422 68.3245 78.7422H71.5943C72.2136 78.7505 72.676 79.3037 72.5686 79.9065ZM88.4222 79.9065L86.9112 88.4773C86.8286 88.948 86.4158 89.2948 85.9368 89.2948H77.3908C76.7715 89.2948 76.3091 88.7416 76.4164 88.1306L77.9275 79.5597C78.01 79.089 78.4229 78.7422 78.9018 78.7422H87.4479C88.0589 78.7505 88.5296 79.3037 88.4222 79.9065Z" fill="white" fill-opacity="0.6"/>
</g>
<defs>
<clipPath id="clip0_33363_11365">
<rect width="96" height="96" fill="white"/>
</clipPath>
</defs>
</svg>
