<svg width="96" height="96" viewBox="0 0 96 96" fill="none" xmlns="http://www.w3.org/2000/svg">
<g clip-path="url(#clip0_33363_13412)">
<path d="M69.3521 66.0537C74.4402 56.8377 76.2641 48.0538 76.2641 48.0538H59.1761V41.5738H79.4801V38.7897H59.1761V29.0938H49.9121V38.7897H31.4321V41.5738H49.9121V48.0538H34.2161V50.8377H66.0882C66.0882 51.3177 66.0881 51.3177 65.6081 51.7497C65.6081 54.9657 63.3042 59.5738 61.4322 63.3178C37.9122 54.0538 30.9522 59.6217 29.1282 60.5337C13.4322 71.6217 28.2161 85.4938 30.5202 85.0138C47.1281 88.7098 57.7841 81.7978 65.1761 73.0138C65.6562 73.4938 66.0882 73.4938 66.5682 73.4938C71.6562 76.2778 96.1361 87.7978 96.1361 87.7978V73.9258C92.4401 73.8778 79.0481 69.2697 69.3521 66.0537ZM57.3521 70.1818C45.7841 84.9658 31.9601 80.3577 29.6561 79.3978C24.1361 78.0057 22.2642 67.8298 29.1762 64.6138C40.7442 60.9178 50.8722 65.0938 58.2641 68.7897C57.7841 69.7498 57.3521 70.1818 57.3521 70.1818Z" fill="white" fill-opacity="0.33"/>
</g>
<defs>
<clipPath id="clip0_33363_13412">
<rect width="96" height="96" fill="white"/>
</clipPath>
</defs>
</svg>
