<svg width="96" height="96" viewBox="0 0 96 96" fill="none" xmlns="http://www.w3.org/2000/svg">
<path d="M102 75.2077C102 67.9538 85.3147 61.9615 63.7059 61.0154V49.0308H85.8618V32H25.1382V49.0308H47.2941V61.0154C25.4118 62.2769 9 68.2692 9 75.2077C9 82.1461 25.6853 88.4538 47.2941 89.4V114H63.7059V89.4C85.5882 88.4538 102 82.4615 102 75.2077ZM55.5 86.5615C27.6 86.5615 10.6412 79.3077 10.6412 73.9462C10.6412 69.2154 24.3176 62.9077 47.2941 61.6462V84.6692C50.0294 84.9846 53.0382 84.9846 56.0471 84.9846C58.7824 84.9846 61.2441 84.9846 63.7059 84.6692V61.6462C86.6824 62.9077 100.359 69.2154 100.359 73.9462C100.359 79.3077 83.4 86.5615 55.5 86.5615Z" fill="white" fill-opacity="0.33"/>
</svg>
