<svg width="96" height="96" viewBox="0 0 96 96" fill="none" xmlns="http://www.w3.org/2000/svg">
<g clip-path="url(#clip0_33363_8754)">
<path d="M50.9134 85.2984C50.5796 85.4671 50.2029 85.5645 49.8029 85.5645C48.8782 85.5645 48.074 85.0551 47.652 84.3028L47.4902 83.9479L40.7543 69.168C40.6816 69.0066 40.6362 68.8255 40.6362 68.6489C40.6362 67.9675 41.1883 67.4148 41.8698 67.4148C42.1466 67.4148 42.4018 67.5063 42.6082 67.6598L50.5562 73.3184C51.1373 73.6991 51.8307 73.9217 52.5765 73.9217C53.0225 73.9217 53.4464 73.8389 53.8423 73.6945L91.2226 57.0576C84.523 49.1612 73.4876 44 60.9997 44C40.5648 44 24 57.8043 24 74.833C24 84.1244 28.9841 92.487 36.7844 98.1388C37.4106 98.5852 37.8198 99.3191 37.8198 100.148C37.8198 100.421 37.761 100.673 37.6902 100.933C37.0671 103.258 36.0694 106.979 36.0229 107.153C35.9453 107.445 35.8234 107.749 35.8234 108.055C35.8234 108.736 36.3761 109.288 37.0576 109.288C37.326 109.288 37.544 109.189 37.7702 109.058L45.8703 104.382C46.4795 104.03 47.1247 103.813 47.835 103.813C48.213 103.813 48.5785 103.871 48.923 103.976C52.7015 105.063 56.7785 105.667 60.9997 105.667C81.4337 105.667 98 91.8624 98 74.8331C98 69.6758 96.472 64.818 93.7856 60.5457L51.1832 85.1424L50.9134 85.2984Z" fill="white" fill-opacity="0.5"/>
</g>
<defs>
<clipPath id="clip0_33363_8754">
<rect width="96" height="96" fill="white"/>
</clipPath>
</defs>
</svg>
