<svg width="20" height="20" viewBox="0 0 20 20" fill="none" xmlns="http://www.w3.org/2000/svg">
<path fill-rule="evenodd" clip-rule="evenodd" d="M18.9226 15.2447C19.248 15.5702 19.248 16.0978 18.9226 16.4232L17.2559 18.0899C16.9305 18.4153 16.4028 18.4153 16.0774 18.0899C15.752 17.7645 15.752 17.2368 16.0774 16.9114L16.3215 16.6673L13.3333 16.6673C12.8731 16.6673 12.5 16.2942 12.5 15.834C12.5 15.3737 12.8731 15.0007 13.3333 15.0007L16.3215 15.0007L16.0774 14.7566C15.752 14.4311 15.752 13.9035 16.0774 13.5781C16.4028 13.2526 16.9305 13.2526 17.2559 13.5781L18.9226 15.2447Z" fill="white"/>
<path d="M5 12.4993C5 12.0391 5.3731 11.666 5.83333 11.666H9.16667C9.6269 11.666 10 12.0391 10 12.4993C10 12.9596 9.6269 13.3327 9.16667 13.3327H5.83333C5.3731 13.3327 5 12.9596 5 12.4993Z" fill="white"/>
<path d="M1.66797 7.5H18.3346V9.16667H1.66797V7.5Z" fill="white"/>
<path fill-rule="evenodd" clip-rule="evenodd" d="M6.46689 3.33398H13.5357C14.2065 3.33397 14.7602 3.33397 15.2112 3.37081C15.6796 3.40908 16.1102 3.49122 16.5146 3.6973C17.1418 4.01687 17.6517 4.52681 17.9713 5.15402C18.1774 5.55846 18.2595 5.98905 18.2978 6.45746C18.3347 6.90845 18.3346 7.46208 18.3346 8.13288V10.834C18.3346 11.2942 17.9615 11.6673 17.5013 11.6673C17.0411 11.6673 16.668 11.2942 16.668 10.834V8.16732C16.668 7.4535 16.6673 6.96826 16.6367 6.59318C16.6068 6.22784 16.5527 6.041 16.4863 5.91067C16.3265 5.59706 16.0716 5.3421 15.758 5.18231C15.6276 5.1159 15.4408 5.06179 15.0754 5.03194C14.7004 5.0013 14.2151 5.00065 13.5013 5.00065H6.5013C5.78749 5.00065 5.30224 5.0013 4.92717 5.03194C4.56182 5.06179 4.37498 5.1159 4.24465 5.18231C3.93105 5.3421 3.67608 5.59706 3.51629 5.91067C3.44988 6.041 3.39578 6.22784 3.36593 6.59318C3.33528 6.96826 3.33464 7.4535 3.33464 8.16732V11.834C3.33464 12.5478 3.33528 13.033 3.36593 13.4081C3.39578 13.7735 3.44988 13.9603 3.51629 14.0906C3.67608 14.4042 3.93105 14.6592 4.24465 14.819C4.37498 14.8854 4.56182 14.9395 4.92717 14.9694C5.30224 15 5.78749 15.0007 6.5013 15.0007H10.0013C10.4615 15.0007 10.8346 15.3737 10.8346 15.834C10.8346 16.2942 10.4615 16.6673 10.0013 16.6673H6.46691C5.79609 16.6673 5.24245 16.6673 4.79145 16.6305C4.32303 16.5922 3.89245 16.5101 3.488 16.304C2.86079 15.9844 2.35086 15.4745 2.03128 14.8473C1.82521 14.4428 1.74307 14.0123 1.7048 13.5438C1.66795 13.0928 1.66796 12.5392 1.66797 11.8684V8.1329C1.66796 7.46209 1.66795 6.90846 1.7048 6.45746C1.74307 5.98905 1.82521 5.55846 2.03128 5.15402C2.35086 4.52681 2.86079 4.01687 3.488 3.6973C3.89245 3.49122 4.32303 3.40908 4.79145 3.37081C5.24244 3.33397 5.79608 3.33397 6.46689 3.33398Z" fill="white"/>
</svg>
