<svg width="20" height="20" viewBox="0 0 20 20" fill="none" xmlns="http://www.w3.org/2000/svg">
<path fill-rule="evenodd" clip-rule="evenodd" d="M12.7441 15.2438C12.4186 15.5692 12.4186 16.0968 12.7441 16.4223L14.4107 18.0889C14.7362 18.4144 15.2638 18.4144 15.5893 18.0889C15.9147 17.7635 15.9147 17.2359 15.5893 16.9104L15.3452 16.6663L18.3333 16.6663C18.7936 16.6663 19.1667 16.2932 19.1667 15.833C19.1667 15.3728 18.7936 14.9997 18.3333 14.9997L15.3452 14.9997L15.5893 14.7556C15.9147 14.4302 15.9147 13.9025 15.5893 13.5771C15.2638 13.2516 14.7362 13.2516 14.4107 13.5771L12.7441 15.2438Z" fill="white"/>
<path d="M5 12.5003C5 12.0401 5.3731 11.667 5.83333 11.667H9.16667C9.6269 11.667 10 12.0401 10 12.5003C10 12.9606 9.6269 13.3337 9.16667 13.3337H5.83333C5.3731 13.3337 5 12.9606 5 12.5003Z" fill="white"/>
<path d="M1.66797 7.5H18.3346V9.16667H1.66797V7.5Z" fill="white"/>
<path fill-rule="evenodd" clip-rule="evenodd" d="M6.46689 3.33301H13.5357C14.2065 3.333 14.7602 3.33299 15.2112 3.36984C15.6796 3.40811 16.1102 3.49024 16.5146 3.69632C17.1418 4.0159 17.6517 4.52583 17.9713 5.15304C18.1774 5.55749 18.2595 5.98807 18.2978 6.45649C18.3347 6.90748 18.3346 7.46111 18.3346 8.13191V10.833C18.3346 11.2932 17.9615 11.6663 17.5013 11.6663C17.0411 11.6663 16.668 11.2932 16.668 10.833V8.16634C16.668 7.45253 16.6673 6.96728 16.6367 6.59221C16.6068 6.22686 16.5527 6.04002 16.4863 5.90969C16.3265 5.59609 16.0716 5.34112 15.758 5.18133C15.6276 5.11492 15.4408 5.06082 15.0754 5.03097C14.7004 5.00032 14.2151 4.99968 13.5013 4.99968H6.5013C5.78749 4.99968 5.30224 5.00032 4.92717 5.03097C4.56182 5.06082 4.37498 5.11492 4.24465 5.18133C3.93105 5.34112 3.67608 5.59609 3.51629 5.90969C3.44988 6.04002 3.39578 6.22686 3.36593 6.59221C3.33528 6.96728 3.33464 7.45253 3.33464 8.16634V11.833C3.33464 12.5468 3.33528 13.0321 3.36593 13.4071C3.39578 13.7725 3.44988 13.9593 3.51629 14.0897C3.67608 14.4033 3.93105 14.6582 4.24465 14.818C4.37498 14.8844 4.56182 14.9385 4.92717 14.9684C5.30224 14.999 5.78749 14.9997 6.5013 14.9997H10.0013C10.4615 14.9997 10.8346 15.3728 10.8346 15.833C10.8346 16.2932 10.4615 16.6663 10.0013 16.6663H6.46691C5.79609 16.6664 5.24245 16.6664 4.79145 16.6295C4.32303 16.5912 3.89245 16.5091 3.488 16.303C2.86079 15.9835 2.35086 15.4735 2.03128 14.8463C1.82521 14.4419 1.74307 14.0113 1.7048 13.5429C1.66795 13.0919 1.66796 12.5382 1.66797 11.8674V8.13193C1.66796 7.46112 1.66795 6.90748 1.7048 6.45649C1.74307 5.98807 1.82521 5.55749 2.03128 5.15304C2.35086 4.52583 2.86079 4.0159 3.488 3.69632C3.89245 3.49024 4.32303 3.40811 4.79145 3.36984C5.24244 3.33299 5.79608 3.333 6.46689 3.33301Z" fill="white"/>
</svg>
