<svg width="12" height="12" viewBox="0 0 12 12" fill="none" xmlns="http://www.w3.org/2000/svg">
<path d="M9 1C9.82843 1 10.5 1.67157 10.5 2.5V9.5C10.5 10.3284 9.82843 11 9 11H3C2.17157 11 1.5 10.3284 1.5 9.5V2.5C1.5 1.67157 2.17157 1 3 1H9ZM3 2C2.72386 2 2.5 2.22386 2.5 2.5V9.5C2.5 9.77614 2.72386 10 3 10H9C9.27614 10 9.5 9.77614 9.5 9.5V2.5C9.5 2.22386 9.27614 2 9 2H3ZM4 8C4.25634 8 4.46808 8.19285 4.49707 8.44141L4.5 8.50488C4.5 8.78103 4.27614 9.00488 4 9.00488C3.74362 9.00488 3.53186 8.81209 3.50293 8.56348L3.5 8.5C3.5 8.22386 3.72386 8 4 8ZM6 8C6.25634 8 6.46808 8.19285 6.49707 8.44141L6.5 8.50488C6.5 8.78103 6.27614 9.00488 6 9.00488C5.74362 9.00488 5.53186 8.81209 5.50293 8.56348L5.5 8.5C5.5 8.22386 5.72386 8 6 8ZM8 8C8.25634 8 8.46808 8.19285 8.49707 8.44141L8.5 8.50488C8.5 8.78103 8.27614 9.00488 8 9.00488C7.74362 9.00488 7.53186 8.81209 7.50293 8.56348L7.5 8.5C7.5 8.22386 7.72386 8 8 8ZM4 6.5C4.25634 6.5 4.46808 6.69285 4.49707 6.94141L4.5 7.00488C4.5 7.28103 4.27614 7.50488 4 7.50488C3.74362 7.50488 3.53186 7.31209 3.50293 7.06348L3.5 7C3.5 6.72386 3.72386 6.5 4 6.5ZM6 6.5C6.25634 6.5 6.46808 6.69285 6.49707 6.94141L6.5 7.00488C6.5 7.28103 6.27614 7.50488 6 7.50488C5.74362 7.50488 5.53186 7.31209 5.50293 7.06348L5.5 7C5.5 6.72386 5.72386 6.5 6 6.5ZM8 6.5C8.25634 6.5 8.46808 6.69285 8.49707 6.94141L8.5 7.00488C8.5 7.28103 8.27614 7.50488 8 7.50488C7.74362 7.50488 7.53186 7.31209 7.50293 7.06348L7.5 7C7.5 6.72386 7.72386 6.5 8 6.5ZM7.5 3C8.05228 3 8.5 3.44772 8.5 4V4.5C8.5 5.05228 8.05228 5.5 7.5 5.5H4.5C3.94772 5.5 3.5 5.05228 3.5 4.5V4C3.5 3.44772 3.94772 3 4.5 3H7.5ZM4.5 4.5H7.5V4H4.5V4.5Z" fill="white"/>
</svg>
