<svg width="21" height="20" viewBox="0 0 21 20" fill="none" xmlns="http://www.w3.org/2000/svg">
<path fill-rule="evenodd" clip-rule="evenodd" d="M19.1726 15.2438C19.498 15.5692 19.498 16.0968 19.1726 16.4223L17.5059 18.0889C17.1805 18.4144 16.6528 18.4144 16.3274 18.0889C16.002 17.7635 16.002 17.2359 16.3274 16.9104L16.5715 16.6663L13.5833 16.6663C13.1231 16.6663 12.75 16.2932 12.75 15.833C12.75 15.3728 13.1231 14.9997 13.5833 14.9997L16.5715 14.9997L16.3274 14.7556C16.002 14.4302 16.002 13.9025 16.3274 13.5771C16.6528 13.2516 17.1805 13.2516 17.5059 13.5771L19.1726 15.2438Z" fill="#06f"/>
<path d="M5.25 12.5003C5.25 12.0401 5.6231 11.667 6.08333 11.667H9.41667C9.8769 11.667 10.25 12.0401 10.25 12.5003C10.25 12.9606 9.8769 13.3337 9.41667 13.3337H6.08333C5.6231 13.3337 5.25 12.9606 5.25 12.5003Z" fill="#06f"/>
<path d="M1.91797 7.5H18.5846V9.16667H1.91797V7.5Z" fill="#06f"/>
<path fill-rule="evenodd" clip-rule="evenodd" d="M6.71689 3.33301H13.7857C14.4565 3.333 15.0102 3.33299 15.4612 3.36984C15.9296 3.40811 16.3602 3.49024 16.7646 3.69632C17.3918 4.0159 17.9017 4.52583 18.2213 5.15304C18.4274 5.55749 18.5095 5.98807 18.5478 6.45649C18.5847 6.90748 18.5846 7.46111 18.5846 8.13191V10.833C18.5846 11.2932 18.2115 11.6663 17.7513 11.6663C17.2911 11.6663 16.918 11.2932 16.918 10.833V8.16634C16.918 7.45253 16.9173 6.96728 16.8867 6.59221C16.8568 6.22686 16.8027 6.04002 16.7363 5.90969C16.5765 5.59609 16.3216 5.34112 16.008 5.18133C15.8776 5.11492 15.6908 5.06082 15.3254 5.03097C14.9504 5.00032 14.4651 4.99968 13.7513 4.99968H6.7513C6.03749 4.99968 5.55224 5.00032 5.17717 5.03097C4.81182 5.06082 4.62498 5.11492 4.49465 5.18133C4.18105 5.34112 3.92608 5.59609 3.76629 5.90969C3.69988 6.04002 3.64578 6.22686 3.61593 6.59221C3.58528 6.96728 3.58464 7.45253 3.58464 8.16634V11.833C3.58464 12.5468 3.58528 13.0321 3.61593 13.4071C3.64578 13.7725 3.69988 13.9593 3.76629 14.0897C3.92608 14.4033 4.18105 14.6582 4.49465 14.818C4.62498 14.8844 4.81182 14.9385 5.17717 14.9684C5.55224 14.999 6.03749 14.9997 6.7513 14.9997H10.2513C10.7115 14.9997 11.0846 15.3728 11.0846 15.833C11.0846 16.2932 10.7115 16.6663 10.2513 16.6663H6.71691C6.04609 16.6664 5.49245 16.6664 5.04145 16.6295C4.57303 16.5912 4.14245 16.5091 3.738 16.303C3.11079 15.9835 2.60086 15.4735 2.28128 14.8463C2.07521 14.4419 1.99307 14.0113 1.9548 13.5429C1.91795 13.0919 1.91796 12.5382 1.91797 11.8674V8.13193C1.91796 7.46112 1.91795 6.90748 1.9548 6.45649C1.99307 5.98807 2.07521 5.55749 2.28128 5.15304C2.60086 4.52583 3.11079 4.0159 3.738 3.69632C4.14245 3.49024 4.57303 3.40811 5.04145 3.36984C5.49244 3.33299 6.04608 3.333 6.71689 3.33301Z" fill="#06f"/>
</svg>
