<svg width="40" height="40" viewBox="0 0 40 40" fill="none" xmlns="http://www.w3.org/2000/svg">
<path d="M20 0.50293C30.7696 0.50293 39.5 9.23338 39.5 20.0029C39.5 30.7725 30.7696 39.5029 20 39.5029C9.23045 39.5029 0.5 30.7725 0.5 20.0029C0.5 9.23338 9.23045 0.50293 20 0.50293Z" stroke="url(#paint0_linear_26266_1196)"/>
<path fill-rule="evenodd" clip-rule="evenodd" d="M23.8167 19.1748L20.2416 15.6023C19.9083 15.2692 19.9083 14.7446 20.2408 14.4198C20.5658 14.0868 21.0908 14.0868 21.4241 14.419L26.4241 19.4153C26.6333 19.6189 26.7078 19.9121 26.6478 20.1819C26.605 20.3808 26.4905 20.5538 26.333 20.6726L21.416 25.5859C21.2576 25.7358 21.041 25.8274 20.8243 25.8274L20.8326 25.8366C20.6076 25.8366 20.391 25.745 20.241 25.5951C19.9076 25.2703 19.9076 24.7374 20.2326 24.4126V24.4043L23.7994 20.8402H14.1663C13.6997 20.8402 13.333 20.4655 13.333 20.0075C13.333 19.5412 13.6997 19.1748 14.1663 19.1748H23.8167Z" fill="url(#paint1_linear_26266_1196)"/>
<defs>
<linearGradient id="paint0_linear_26266_1196" x1="0" y1="20.0029" x2="40" y2="20.0029" gradientUnits="userSpaceOnUse">
<stop stop-color="#000000"/>
<stop offset="1" stop-color="#A119B4"/>
</linearGradient>
<linearGradient id="paint1_linear_26266_1196" x1="13.333" y1="20.0033" x2="26.6679" y2="20.0033" gradientUnits="userSpaceOnUse">
<stop stop-color="#000000"/>
<stop offset="1" stop-color="#A119B4"/>
</linearGradient>
</defs>
</svg>
