<svg width="25" height="24" viewBox="0 0 25 24" fill="none" xmlns="http://www.w3.org/2000/svg">
<path d="M6.70936 18.1457C6.70936 18.6303 7.14738 19.0257 7.68232 19.0257H8.65643V22.1103C8.65643 22.8417 9.30773 23.4314 10.1164 23.4314C10.924 23.4314 11.5764 22.8406 11.5764 22.1103V19.0269H13.5223V22.1103C13.5223 22.8417 14.1748 23.4314 14.9823 23.4314C15.7899 23.4314 16.4424 22.8406 16.4424 22.1103V19.0269H17.4153C17.9514 19.0269 18.3883 18.6303 18.3883 18.1469V9.33545H6.70936V18.1446V18.1457ZM4.27641 9.33657C3.46885 9.33657 2.81641 9.92743 2.81641 10.6577V16.8246C2.81641 17.556 3.46885 18.1457 4.27641 18.1457C5.08399 18.1457 5.73641 17.556 5.73641 16.8246V10.6577C5.73641 9.9263 5.08399 9.33657 4.27641 9.33657ZM20.8212 9.33657C20.0137 9.33657 19.3612 9.92743 19.3612 10.6577V16.8246C19.3612 17.556 20.0137 18.1457 20.8212 18.1457C21.6288 18.1457 22.2812 17.556 22.2812 16.8246V10.6577C22.2812 9.9263 21.6288 9.33657 20.8212 9.33657ZM15.985 4.19258L17.2545 3.04287C17.2991 3.00446 17.3349 2.95685 17.3594 2.9033C17.384 2.84975 17.3967 2.79151 17.3967 2.73259C17.3967 2.67366 17.384 2.61542 17.3594 2.56187C17.3349 2.50832 17.2991 2.46071 17.2545 2.4223C17.1594 2.33948 17.0377 2.29388 16.9117 2.29388C16.7858 2.29388 16.664 2.33948 16.569 2.4223L15.1284 3.72057C14.3169 3.35751 13.4381 3.1702 12.5494 3.17087C11.6141 3.17087 10.7392 3.37313 9.95561 3.72516L8.51042 2.41773C8.41528 2.33461 8.29332 2.28882 8.1671 2.28882C8.04087 2.28882 7.91891 2.33461 7.82377 2.41773C7.77917 2.45614 7.74338 2.50375 7.71884 2.5573C7.6943 2.61085 7.68159 2.66909 7.68159 2.72801C7.68159 2.78694 7.6943 2.84518 7.71884 2.89873C7.74338 2.95228 7.77917 2.99989 7.82377 3.0383L9.09898 4.1926C7.65383 5.15715 6.70936 6.70686 6.70936 8.45544H18.3894C18.3894 6.70344 17.4393 5.15258 15.985 4.19258ZM10.6023 6.6943H9.62937V5.81429H10.6023V6.6943ZM15.4682 6.6943H14.4953V5.81429H15.4682V6.6943Z" fill="#2FC2B0"/>
</svg>
