<svg width="20" height="20" viewBox="0 0 20 20" fill="none" xmlns="http://www.w3.org/2000/svg">
<path d="M0.832031 15C0.957031 13.5139 1.41203 12.1458 2.19703 10.8958C2.98203 9.64583 4.02703 8.65278 5.33203 7.91667L3.79036 5.25C3.70703 5.125 3.6862 4.99306 3.72786 4.85417C3.76953 4.71528 3.85981 4.61111 3.9987 4.54167C4.10981 4.47222 4.23481 4.45833 4.3737 4.5C4.51259 4.54167 4.6237 4.625 4.70703 4.75L6.2487 7.41667C7.44314 6.91667 8.69314 6.66667 9.9987 6.66667C11.3043 6.66667 12.5543 6.91667 13.7487 7.41667L15.2904 4.75C15.3737 4.625 15.4848 4.54167 15.6237 4.5C15.7626 4.45833 15.8876 4.47222 15.9987 4.54167C16.1376 4.61111 16.2279 4.71528 16.2695 4.85417C16.3112 4.99306 16.2904 5.125 16.207 5.25L14.6654 7.91667C15.9709 8.65278 17.0159 9.64583 17.8004 10.8958C18.5848 12.1458 19.0398 13.5139 19.1654 15H0.832031ZM5.83203 12.7083C6.1237 12.7083 6.37036 12.6075 6.57203 12.4058C6.7737 12.2042 6.87425 11.9578 6.8737 11.6667C6.87314 11.3756 6.77231 11.1289 6.5712 10.9267C6.37009 10.7244 6.1237 10.6239 5.83203 10.625C5.54036 10.6261 5.2937 10.7269 5.09203 10.9275C4.89036 11.1281 4.78981 11.3744 4.79036 11.6667C4.79092 11.9589 4.89175 12.2056 5.09286 12.4067C5.29398 12.6078 5.54036 12.7083 5.83203 12.7083ZM14.1654 12.7083C14.457 12.7083 14.7037 12.6075 14.9054 12.4058C15.107 12.2042 15.2076 11.9578 15.207 11.6667C15.2065 11.3756 15.1056 11.1289 14.9045 10.9267C14.7034 10.7244 14.457 10.6239 14.1654 10.625C13.8737 10.6261 13.627 10.7269 13.4254 10.9275C13.2237 11.1281 13.1231 11.3744 13.1237 11.6667C13.1243 11.9589 13.2251 12.2056 13.4262 12.4067C13.6273 12.6078 13.8737 12.7083 14.1654 12.7083Z" fill="white"/>
</svg>
