<svg width="24" height="24" viewBox="0 0 24 24" fill="none" xmlns="http://www.w3.org/2000/svg">
<path d="M19.1809 6.19777C18.9871 6.02067 18.7336 5.93212 18.4812 5.93212C18.4513 5.93212 18.4363 5.93212 18.4068 5.93212C18.3918 5.93212 18.228 5.94695 17.9749 5.94695C17.543 5.94695 16.7244 5.9173 15.9358 5.72576C14.9231 5.49015 13.7471 4.38385 13.4045 4.16228C13.2411 4.0589 13.0325 4 12.8387 4C12.6454 4 12.4521 4.0589 12.2734 4.16228C12.2289 4.19192 11.0083 5.44529 9.8173 5.72576C9.02828 5.9173 8.1798 5.94695 7.76324 5.94695C7.49511 5.94695 7.33172 5.93212 7.31676 5.93212C7.30179 5.93212 7.27187 5.93212 7.2573 5.93212C6.98918 5.93212 6.75097 6.02067 6.55765 6.19777C6.34937 6.37488 6.23047 6.64014 6.23047 6.90579V9.35361C6.23047 18.3799 12.4076 19.5444 12.6608 19.5888C12.7202 19.6037 12.7801 19.6037 12.8391 19.6037C12.8986 19.6037 12.9588 19.6037 13.0183 19.5888C13.286 19.5444 19.4931 18.3795 19.4931 9.35361V6.90579C19.4931 6.64014 19.3734 6.37488 19.1809 6.19777Z" fill="#415EFF"/>
<path d="M12.3834 16.309C12.3834 18.348 10.7306 20.0008 8.69169 20.0008C6.65283 20.0008 5 18.348 5 16.309C5 14.2701 6.65283 12.6172 8.69169 12.6172C10.7306 12.6172 12.3834 14.2701 12.3834 16.309Z" fill="#0CD2F2"/>
<path d="M8.69172 12.6172C10.7306 12.6172 12.3834 14.2701 12.3834 16.309C12.3834 17.403 11.9072 18.3854 11.1512 19.0615C9.69725 18.3512 7.59399 16.7441 6.68164 13.2129C7.26011 12.8365 7.95017 12.6172 8.69172 12.6172Z" fill="#2935CC"/>
<path d="M15.8183 9.03035C16.0706 8.76499 16.4907 8.75446 16.7562 9.00674C17.0215 9.25906 17.032 9.67919 16.7798 9.94463L12.7896 14.1429C12.4746 14.4743 11.9435 14.4651 11.6402 14.1229L9.17175 11.3374C8.92887 11.0633 8.95407 10.6447 9.22813 10.4018C9.5022 10.1589 9.92079 10.1841 10.1637 10.4581L12.2375 12.7972L15.8183 9.03035Z" fill="white"/>
</svg>
