<svg width="20" height="20" viewBox="0 0 20 20" fill="none" xmlns="http://www.w3.org/2000/svg">
<path fill-rule="evenodd" clip-rule="evenodd" d="M1.66797 9.99935C1.66797 5.39698 5.39893 1.66602 10.0013 1.66602C14.6037 1.66602 18.3346 5.39698 18.3346 9.99935C18.3346 14.6017 14.6037 18.3327 10.0013 18.3327C5.39893 18.3327 1.66797 14.6017 1.66797 9.99935ZM16.668 9.99935C16.668 6.31745 13.6832 3.33268 10.0013 3.33268C6.3194 3.33268 3.33464 6.31745 3.33464 9.99935C3.33464 13.6812 6.3194 16.666 10.0013 16.666C13.6832 16.666 16.668 13.6812 16.668 9.99935ZM12.5013 9.16602C12.9615 9.16602 13.3346 9.53911 13.3346 9.99935C13.3346 10.4267 13.0129 10.7789 12.5985 10.8271L12.5013 10.8327H10.8346V12.4993C10.8346 12.9596 10.4615 13.3327 10.0013 13.3327C9.57394 13.3327 9.22171 13.011 9.17358 12.5965L9.16797 12.4993V10.8327H7.5013C7.04106 10.8327 6.66797 10.4596 6.66797 9.99935C6.66797 9.57199 6.98967 9.21976 7.40412 9.17162L7.5013 9.16602H9.16797V7.49935C9.16797 7.03911 9.54107 6.66602 10.0013 6.66602C10.4287 6.66602 10.7809 6.98772 10.829 7.40216L10.8346 7.49935V9.16602H12.5013Z" fill="url(#paint0_linear_32343_519)"/>
<defs>
<linearGradient id="paint0_linear_32343_519" x1="0.946576" y1="7.69672" x2="16.3142" y2="13.2916" gradientUnits="userSpaceOnUse">
<stop stop-color="white"/>
<stop offset="1" stop-color="#FFDABD"/>
</linearGradient>
</defs>
</svg>
