<svg width="9" height="20" viewBox="0 0 9 20" fill="none" xmlns="http://www.w3.org/2000/svg">
<path d="M3.63119 13.5554C3.42366 13.5558 3.22163 13.4878 3.05559 13.3616L3.04529 13.3537L0.877267 11.6728C0.776857 11.5948 0.692593 11.4975 0.629285 11.3865C0.565976 11.2754 0.524865 11.1529 0.508297 11.0257C0.491729 10.8986 0.500027 10.7694 0.532721 10.6455C0.565415 10.5216 0.621862 10.4055 0.698841 10.3037C0.77582 10.202 0.871824 10.1166 0.981369 10.0524C1.09091 9.98823 1.21185 9.94656 1.33729 9.92977C1.46272 9.91297 1.59019 9.92138 1.71241 9.95452C1.83464 9.98766 1.94923 10.0449 2.04964 10.1229L3.45391 11.2143L6.77228 6.82655C6.84922 6.72483 6.94519 6.63945 7.05469 6.57532C7.16419 6.51118 7.28508 6.46953 7.41046 6.45274C7.53584 6.43596 7.66325 6.44436 7.78543 6.47749C7.9076 6.51061 8.02215 6.5678 8.12251 6.64579L8.12279 6.646L8.1022 6.67499L8.12335 6.646C8.32584 6.80373 8.45832 7.03644 8.49172 7.29306C8.52511 7.54967 8.4567 7.80924 8.30149 8.01479L4.39837 13.1735C4.30807 13.2923 4.19197 13.3885 4.05907 13.4546C3.92617 13.5206 3.78005 13.5547 3.63204 13.5543L3.63119 13.5554Z" fill="white"/>
</svg>
