<svg width="12" height="11" viewBox="0 0 12 11" fill="none" xmlns="http://www.w3.org/2000/svg">
<path d="M4.69679 11C4.38548 11.0005 4.08245 10.8953 3.83339 10.7001L3.81794 10.688L0.5659 8.0878C0.415285 7.96711 0.288889 7.8166 0.193927 7.64485C0.0989642 7.47311 0.0372982 7.28349 0.0124456 7.08684C-0.012407 6.89018 4.00155e-05 6.69034 0.0490809 6.49871C0.0981218 6.30708 0.182793 6.12743 0.298262 5.97C0.41373 5.81258 0.557736 5.68047 0.722053 5.58121C0.88637 5.48196 1.06778 5.4175 1.25593 5.39153C1.44408 5.36555 1.63528 5.37856 1.81862 5.42982C2.00196 5.48108 2.17384 5.56958 2.32446 5.69026L4.43086 7.37858L9.40841 0.591242C9.52383 0.433883 9.66778 0.301823 9.83203 0.202609C9.99628 0.103394 10.1776 0.0389663 10.3657 0.0130015C10.5538 -0.0129634 10.7449 4.47239e-05 10.9281 0.0512826C11.1114 0.10252 11.2832 0.190984 11.4338 0.311624L11.4342 0.311954L11.4033 0.356789L11.435 0.311954C11.7388 0.555943 11.9375 0.91591 11.9876 1.31287C12.0377 1.70982 11.935 2.11134 11.7022 2.4293L5.84755 10.4091C5.7121 10.593 5.53795 10.7418 5.3386 10.8439C5.13926 10.9461 4.92008 10.9989 4.69806 10.9982L4.69679 11Z" fill="#415EFF"/>
</svg>
