<svg width="36" height="28" viewBox="0 0 36 28" fill="none" xmlns="http://www.w3.org/2000/svg">
<g opacity="0.7">
<path d="M0 8C0 3.58172 3.58172 0 8 0H28C32.4183 0 36 3.58172 36 8V20C36 24.4183 32.4183 28 28 28H8C3.58172 28 0 24.4183 0 20V8Z" fill="#4D585B"/>
<path d="M8.34 7.618C8.9 8.346 9.432 9.13 9.936 9.998L9.026 10.46C8.522 9.564 7.99 8.766 7.416 8.066L8.34 7.618ZM13.604 7.492L14.57 7.758C14.234 8.766 13.814 9.676 13.31 10.474H16.194V11.454H11.518V12.112C11.49 12.812 11.434 13.47 11.322 14.058H17.006V15.038H11.91C12.596 16.928 14.402 18.398 17.342 19.448L16.754 20.386C13.674 19.14 11.77 17.446 11.014 15.318C10.748 16.116 10.398 16.816 9.95 17.418C8.998 18.65 7.444 19.616 5.288 20.302L4.742 19.42C6.884 18.734 8.382 17.824 9.222 16.704C9.558 16.2 9.824 15.654 10.02 15.038H4.994V14.058H10.272C10.398 13.442 10.468 12.798 10.482 12.112V11.454H5.792V10.474H12.19C12.722 9.662 13.184 8.668 13.604 7.492ZM25.364 13.162H21.43V12.182H25.602V10.124H26.61V12.182H28.556V13.162H26.61V18.118C26.61 19.014 26.19 19.462 25.364 19.462H23.936L23.712 18.496C24.16 18.538 24.594 18.566 25.014 18.566C25.406 18.566 25.602 18.328 25.602 17.88V14.226C24.734 15.696 23.376 16.984 21.528 18.104L20.996 17.236C23.18 16.032 24.636 14.674 25.364 13.162ZM29.186 20.288H28.01L27.758 19.35L28.976 19.378C29.396 19.378 29.62 19.098 29.62 18.566V9.2H24.216V8.262H30.6V18.846C30.6 19.798 30.124 20.288 29.186 20.288ZM19.386 9.886H20.366V20.414H19.386V9.886ZM21.416 7.464C22.06 8.206 22.648 9.018 23.152 9.914L22.242 10.39C21.71 9.438 21.136 8.598 20.492 7.87L21.416 7.464Z" fill="white"/>
</g>
</svg>
