<svg width="25" height="24" viewBox="0 0 25 24" fill="none" xmlns="http://www.w3.org/2000/svg">
<g clip-path="url(#clip0_34110_17246)">
<path d="M17.4722 15.7096C17.7938 15.7096 17.9736 16.0807 17.7749 16.3339C16.5392 17.9074 14.6206 18.9199 12.4695 18.9199C10.3184 18.9199 8.39968 17.9074 7.16401 16.3339C6.96486 16.0807 7.14463 15.7096 7.46672 15.7096C7.58455 15.7096 7.69637 15.7632 7.76892 15.8561C8.86318 17.2503 10.5633 18.1482 12.4695 18.1482C14.3756 18.1482 16.0757 17.2507 17.17 15.8561C17.243 15.7637 17.3544 15.7096 17.4722 15.7096Z" fill="#010101"/>
<path d="M17.4722 15.7096C17.7938 15.7096 17.9736 16.0807 17.7749 16.3339C16.5392 17.9074 14.6206 18.9199 12.4695 18.9199C10.3184 18.9199 8.39968 17.9074 7.16401 16.3339C6.96486 16.0807 7.14463 15.7096 7.46672 15.7096C7.58455 15.7096 7.69637 15.7632 7.76892 15.8561C8.86318 17.2503 10.5633 18.1482 12.4695 18.1482C14.3756 18.1482 16.0757 17.2507 17.17 15.8561C17.243 15.7637 17.3544 15.7096 17.4722 15.7096Z" fill="#0CD2F2"/>
<path d="M1.45703 14.4952C2.34982 14.3594 3.80176 14.4245 3.56239 14.7374C3.56239 14.7374 3.32024 15.0045 1.45703 14.4952Z" fill="#010101"/>
<path d="M1.45703 14.4952C2.34982 14.3594 3.80176 14.4245 3.56239 14.7374C3.56239 14.7374 3.32024 15.0045 1.45703 14.4952Z" fill="#0CD2F2"/>
<path d="M21.1792 14.5987C20.9398 14.2859 22.3918 14.2207 23.2845 14.3566C21.4276 14.8641 21.1809 14.6005 21.1792 14.5987Z" fill="#010101"/>
<path d="M21.1792 14.5987C20.9398 14.2859 22.3918 14.2207 23.2845 14.3566C21.4276 14.8641 21.1809 14.6005 21.1792 14.5987Z" fill="#0CD2F2"/>
<path d="M4.26755 7.92318C4.26755 7.92318 5.46765 7.51976 10.451 8.96107C4.28427 8.49975 4.26759 7.92628 4.26755 7.92318Z" fill="#010101"/>
<path d="M4.26755 7.92318C4.26755 7.92318 5.46765 7.51976 10.451 8.96107C4.28427 8.49975 4.26759 7.92628 4.26755 7.92318Z" fill="#0CD2F2"/>
<path d="M14.4884 8.96107C19.4717 7.51977 20.6718 7.92318 20.6718 7.92318C20.6718 7.92628 20.6551 8.49975 14.4884 8.96107Z" fill="#010101"/>
<path d="M14.4884 8.96107C19.4717 7.51977 20.6718 7.92318 20.6718 7.92318C20.6718 7.92628 20.6551 8.49975 14.4884 8.96107Z" fill="#0CD2F2"/>
<path d="M12.4695 4.99805C14.3562 4.99805 16.0646 5.77717 17.2897 7.02993C17.5276 7.27346 17.3534 7.68426 17.0129 7.68426C16.9103 7.68425 16.8109 7.64359 16.7393 7.57011C15.6538 6.45968 14.1409 5.76929 12.4695 5.76929C10.7976 5.76929 9.28462 6.45968 8.1996 7.57011C8.12797 7.64359 8.02862 7.68426 7.92603 7.68426C7.58547 7.68426 7.41125 7.27346 7.64922 7.02993C8.87472 5.77717 10.5827 4.99805 12.4695 4.99805Z" fill="#010101"/>
<path d="M12.4695 4.99805C14.3562 4.99805 16.0646 5.77717 17.2897 7.02993C17.5276 7.27346 17.3534 7.68426 17.0129 7.68426C16.9103 7.68425 16.8109 7.64359 16.7393 7.57011C15.6538 6.45968 14.1409 5.76929 12.4695 5.76929C10.7976 5.76929 9.28462 6.45968 8.1996 7.57011C8.12797 7.64359 8.02862 7.68426 7.92603 7.68426C7.58547 7.68426 7.41125 7.27346 7.64922 7.02993C8.87472 5.77717 10.5827 4.99805 12.4695 4.99805Z" fill="#0CD2F2"/>
<path d="M19.1766 7.46728C19.1766 7.46728 20.2676 7.50471 21.4063 7.48576V8.14472H21.2316V8.32402H21.2995C19.47 8.82356 16.2464 9.57956 13.9904 9.879C13.5472 8.61053 13.0602 7.77828 12.3643 7.77828C11.6683 7.77828 11.1522 8.55831 10.7039 9.86006C8.44145 9.54906 5.27464 8.81293 3.45996 8.32402H3.70672V8.14472H3.53204V7.48576C4.67067 7.50471 5.7617 7.46728 5.7617 7.46728C5.76124 7.46728 0.419306 5.13088 0.270508 6.25148C0.270508 6.25148 0.270508 7.11978 1.50294 7.34528C1.86893 7.41229 2.39296 7.45018 2.94933 7.47051V8.14472H2.81671C2.72429 8.11792 2.6388 8.09251 2.56116 8.06894C2.28852 7.9853 2.0302 8.27596 2.0302 8.66598C2.0302 8.93446 2.15543 9.17106 2.33889 9.25008C3.32502 9.67429 6.48351 11.0426 9.04126 12.2588C8.84718 12.4243 8.63415 12.5934 8.39986 12.7635C7.6762 13.2889 6.80745 13.7861 6.02048 14.1955C5.86614 14.1308 5.1679 13.9197 2.97891 14.1521C3.43454 14.2893 3.83934 14.3891 4.1984 14.4589V14.9663H4.08796V15.1086H4.11615C3.94655 15.1844 3.86153 15.4497 3.93454 15.677C3.99276 15.8591 4.13509 15.9585 4.27419 15.9136C5.14849 15.6318 8.21086 14.6678 9.93266 14.4136C10.1646 15.8679 11.0653 16.8337 12.3643 16.8337C13.6632 16.8337 14.5435 15.8249 14.7959 14.4187C16.5237 14.6803 19.5518 15.6341 20.4206 15.9136C20.5597 15.9585 20.702 15.8596 20.7602 15.677C20.8333 15.4497 20.7482 15.1844 20.5786 15.1086H20.6521V14.9663H20.5417V14.4589C20.9007 14.3891 21.3055 14.2893 21.7612 14.1521C19.4215 13.9039 18.7852 14.1618 18.6951 14.2066C17.9026 13.7949 17.025 13.294 16.2945 12.7635C16.0985 12.6211 15.9183 12.4797 15.7506 12.3406C18.2861 11.1142 21.428 9.69416 22.4053 9.2547C22.5869 9.17291 22.7099 8.93723 22.7099 8.6706C22.7099 8.27827 22.4502 7.98669 22.1761 8.07171C22.1179 8.08973 22.0551 8.10868 21.9885 8.12855V7.47051C22.5449 7.45018 23.0689 7.41229 23.4349 7.34528C24.6673 7.11931 24.6673 6.25148 24.6673 6.25148C24.5185 5.13088 19.1766 7.46682 19.1766 7.46682V7.46728ZM5.31993 14.549C5.01494 14.6983 4.73814 14.8277 4.50616 14.9335V14.5135C4.84673 14.5513 5.11244 14.5597 5.31993 14.5486V14.549ZM13.6605 13.7256C13.3324 13.5375 12.8698 13.178 12.3703 13.178C11.8707 13.178 11.4082 13.537 11.0801 13.7256C9.89107 14.4076 10.2885 12.4243 10.477 11.7759C10.6018 11.3476 10.7293 11.2815 10.6651 11.7699C10.5953 12.3009 10.538 12.9224 11.4156 12.5467C11.8046 12.3799 12.0916 12.22 12.3703 12.22C12.6489 12.22 12.9359 12.3799 13.325 12.5467C14.202 12.9224 14.1452 12.3009 14.0754 11.7699C14.0112 11.2815 14.1387 11.3476 14.2635 11.7759C14.452 12.4243 14.8495 14.4076 13.6605 13.7256ZM20.2339 14.5135V14.9543C19.9918 14.8439 19.6956 14.7057 19.3679 14.5453C19.5823 14.5606 19.8638 14.555 20.2339 14.5135Z" fill="#010101"/>
<path d="M19.1766 7.46728C19.1766 7.46728 20.2676 7.50471 21.4063 7.48576V8.14472H21.2316V8.32402H21.2995C19.47 8.82356 16.2464 9.57956 13.9904 9.879C13.5472 8.61053 13.0602 7.77828 12.3643 7.77828C11.6683 7.77828 11.1522 8.55831 10.7039 9.86006C8.44145 9.54906 5.27464 8.81293 3.45996 8.32402H3.70672V8.14472H3.53204V7.48576C4.67067 7.50471 5.7617 7.46728 5.7617 7.46728C5.76124 7.46728 0.419306 5.13088 0.270508 6.25148C0.270508 6.25148 0.270508 7.11978 1.50294 7.34528C1.86893 7.41229 2.39296 7.45018 2.94933 7.47051V8.14472H2.81671C2.72429 8.11792 2.6388 8.09251 2.56116 8.06894C2.28852 7.9853 2.0302 8.27596 2.0302 8.66598C2.0302 8.93446 2.15543 9.17106 2.33889 9.25008C3.32502 9.67429 6.48351 11.0426 9.04126 12.2588C8.84718 12.4243 8.63415 12.5934 8.39986 12.7635C7.6762 13.2889 6.80745 13.7861 6.02048 14.1955C5.86614 14.1308 5.1679 13.9197 2.97891 14.1521C3.43454 14.2893 3.83934 14.3891 4.1984 14.4589V14.9663H4.08796V15.1086H4.11615C3.94655 15.1844 3.86153 15.4497 3.93454 15.677C3.99276 15.8591 4.13509 15.9585 4.27419 15.9136C5.14849 15.6318 8.21086 14.6678 9.93266 14.4136C10.1646 15.8679 11.0653 16.8337 12.3643 16.8337C13.6632 16.8337 14.5435 15.8249 14.7959 14.4187C16.5237 14.6803 19.5518 15.6341 20.4206 15.9136C20.5597 15.9585 20.702 15.8596 20.7602 15.677C20.8333 15.4497 20.7482 15.1844 20.5786 15.1086H20.6521V14.9663H20.5417V14.4589C20.9007 14.3891 21.3055 14.2893 21.7612 14.1521C19.4215 13.9039 18.7852 14.1618 18.6951 14.2066C17.9026 13.7949 17.025 13.294 16.2945 12.7635C16.0985 12.6211 15.9183 12.4797 15.7506 12.3406C18.2861 11.1142 21.428 9.69416 22.4053 9.2547C22.5869 9.17291 22.7099 8.93723 22.7099 8.6706C22.7099 8.27827 22.4502 7.98669 22.1761 8.07171C22.1179 8.08973 22.0551 8.10868 21.9885 8.12855V7.47051C22.5449 7.45018 23.0689 7.41229 23.4349 7.34528C24.6673 7.11931 24.6673 6.25148 24.6673 6.25148C24.5185 5.13088 19.1766 7.46682 19.1766 7.46682V7.46728ZM5.31993 14.549C5.01494 14.6983 4.73814 14.8277 4.50616 14.9335V14.5135C4.84673 14.5513 5.11244 14.5597 5.31993 14.5486V14.549ZM13.6605 13.7256C13.3324 13.5375 12.8698 13.178 12.3703 13.178C11.8707 13.178 11.4082 13.537 11.0801 13.7256C9.89107 14.4076 10.2885 12.4243 10.477 11.7759C10.6018 11.3476 10.7293 11.2815 10.6651 11.7699C10.5953 12.3009 10.538 12.9224 11.4156 12.5467C11.8046 12.3799 12.0916 12.22 12.3703 12.22C12.6489 12.22 12.9359 12.3799 13.325 12.5467C14.202 12.9224 14.1452 12.3009 14.0754 11.7699C14.0112 11.2815 14.1387 11.3476 14.2635 11.7759C14.452 12.4243 14.8495 14.4076 13.6605 13.7256ZM20.2339 14.5135V14.9543C19.9918 14.8439 19.6956 14.7057 19.3679 14.5453C19.5823 14.5606 19.8638 14.555 20.2339 14.5135Z" fill="#415EFF"/>
</g>
<defs>
<clipPath id="clip0_34110_17246">
<rect width="24.4598" height="14" fill="white" transform="translate(0.270508 5)"/>
</clipPath>
</defs>
</svg>
