<svg width="24" height="24" viewBox="0 0 24 24" fill="none" xmlns="http://www.w3.org/2000/svg">
<path d="M5.50202 8.95539L7.83329 10.5425C6.98491 13.2492 8.11391 16.2191 10.6025 17.6555C12.4118 18.6999 14.5948 18.7351 16.4244 17.8033L16.4822 17.7735L16.7378 17.64L16.7438 17.9284C16.761 18.7798 16.4429 19.6091 15.8423 20.2347C15.5635 20.5254 15.1322 20.7452 14.5864 20.9061L14.512 20.9275L14.4983 20.9293C12.5471 21.1629 10.6382 20.8441 9.23099 20.0315C5.39478 17.8164 3.81299 13.1091 5.46687 9.04058L5.50261 8.95479L5.50202 8.95539ZM18.0974 4.67472C18.7068 5.02623 19.2651 5.44447 19.7655 5.9193C20.0867 6.26068 20.3798 6.62351 20.6437 7.00302C21.0411 7.67804 21.3527 8.4037 21.5707 9.16391L21.6005 9.26936L21.6297 9.37839L21.6333 9.39328L21.6381 9.41711L21.6434 9.44631L21.6488 9.47967L21.6542 9.51601L21.6577 9.54223L21.6619 9.58036L21.6655 9.61908L21.6679 9.65364C21.669 9.67509 21.6702 9.69534 21.6702 9.7156V9.74539V9.77101L21.669 9.79067C21.6649 9.85859 21.6559 9.93604 21.6416 10.0218L21.6339 10.0653L21.6256 10.1094L21.6202 10.1356L21.6101 10.1791C21.4075 11.0084 20.8433 11.9081 20.1218 12.5592L20.0676 12.6075L19.7626 12.875L19.7709 12.4693C19.8174 10.256 18.6723 8.17432 16.7253 7.05009C13.9323 5.43732 10.3719 6.28749 8.59053 8.96015L8.53691 9.04177L8.50057 9.09837C8.47793 9.13412 8.45588 9.17046 8.43384 9.2068L5.96196 8.01406L5.97447 7.99142L5.97208 7.99023L6.06026 7.84247L6.1252 7.73166H6.12639C8.63104 3.64343 13.9406 2.27493 18.0974 4.67472Z" fill="white"/>
<path d="M18.8433 3.38166C23.7823 6.23305 25.4671 12.5614 22.6068 17.5159C19.7465 22.4704 13.4235 24.1755 8.48447 21.3241C3.54547 18.4727 1.94343 12.4464 4.52255 7.54912L0 4.47014L0.0571947 4.48623L4.93304 6.83836C7.88452 2.15555 14.0234 0.598184 18.8433 3.38166ZM8.22412 20.347C10.5459 21.6875 13.1959 21.9461 15.5939 21.28C15.6421 21.2663 15.8036 21.2163 16.0115 21.0923C16.2195 20.9678 16.4393 20.7426 16.4834 20.6973C17.7631 19.3771 17.8251 17.274 16.5841 15.8858C16.4041 15.6845 16.2022 15.5051 15.9811 15.3502L15.9418 15.3234L4.52315 7.54912C2.14123 12.1038 3.74506 17.7608 8.22412 20.3464V20.347ZM17.8674 3.64499C13.3883 1.05872 7.68732 2.49812 4.93364 6.83836L17.3753 12.8408C17.6183 12.9582 17.8739 13.047 18.1367 13.1053L18.1831 13.1155C20.0682 13.5093 21.9199 12.3124 22.347 10.4369C22.3792 10.2784 22.3977 10.1396 22.403 10.021C22.4114 9.84287 22.3715 9.60515 22.3512 9.5283C21.7239 7.13148 20.1778 4.97953 17.8668 3.64499H17.8674Z" fill="white"/>
<path d="M11.9498 8.88157C11.8134 9.14014 11.9093 9.46007 12.1637 9.5965L17.1468 12.268C17.288 12.3436 17.4619 12.3121 17.5692 12.1917L18.834 10.7708L18.3729 10.5235L17.3416 11.1711L15.7211 10.3025L17.8134 8.22204L17.1992 7.89258L14.3305 9.55659L12.6576 8.65934C12.5354 8.59381 12.3919 8.58011 12.2596 8.62121C12.1267 8.66232 12.0153 8.75586 11.9498 8.87978V8.88157Z" fill="white"/>
</svg>
