<svg width="32" height="32" viewBox="0 0 32 32" fill="none" xmlns="http://www.w3.org/2000/svg">
<rect width="32" height="32" rx="16" fill="#2A877C"/>
<path fill-rule="evenodd" clip-rule="evenodd" d="M22.4229 9.57773C20.9469 8.1017 18.5538 8.1017 17.0777 9.57773L16.6611 9.99439L16.5917 10.0729C16.3375 10.3998 16.3607 10.8725 16.6611 11.1729C16.9865 11.4983 17.5141 11.4983 17.8396 11.1729L18.2562 10.7562L18.3667 10.6533C19.1968 9.93264 20.4551 9.96696 21.2444 10.7562C22.0695 11.5814 22.0695 12.9192 21.2444 13.7444L17.9111 17.0777L17.7877 17.1941C17.4057 17.5265 16.9209 17.7091 16.417 17.7091C15.8571 17.7091 15.3207 17.4837 14.9289 17.0838C14.6068 16.755 14.0792 16.7496 13.7504 17.0717C13.4217 17.3938 13.4163 17.9215 13.7384 18.2502C14.4437 18.9701 15.4092 19.3757 16.417 19.3757C17.4248 19.3757 18.3902 18.9701 19.0956 18.2502L22.4229 14.9229L22.557 14.7819C23.8975 13.2982 23.8528 11.0076 22.4229 9.57773ZM18.2622 13.7504C17.5569 13.0306 16.5915 12.6249 15.5836 12.6249C14.5758 12.6249 13.6104 13.0306 12.9051 13.7504L9.57773 17.0777L9.44367 17.2187C8.10314 18.7024 8.14782 20.993 9.57773 22.4229C11.0538 23.8989 13.4469 23.8989 14.9229 22.4229L15.3396 22.0062L15.4089 21.9277C15.6631 21.6008 15.64 21.1281 15.3396 20.8277C15.0141 20.5023 14.4865 20.5023 14.1611 20.8277L13.7444 21.2444L13.6339 21.3473C12.8039 22.068 11.5455 22.0337 10.7562 21.2444C9.93108 20.4192 9.93108 19.0814 10.7562 18.2562L14.0896 14.9229L14.213 14.8066C14.5949 14.4741 15.0797 14.2916 15.5836 14.2916C16.1436 14.2916 16.6799 14.5169 17.0717 14.9169C17.3938 15.2456 17.9215 15.251 18.2502 14.9289C18.5789 14.6068 18.5843 14.0792 18.2622 13.7504Z" fill="white"/>
</svg>
