<svg width="20" height="20" viewBox="0 0 20 20" fill="none" xmlns="http://www.w3.org/2000/svg">
<path fill-rule="evenodd" clip-rule="evenodd" d="M7.29892 4.16675H12.7011C13.3719 4.16674 13.9255 4.16673 14.3765 4.20358C14.8449 4.24185 15.2755 4.32398 15.68 4.53006C16.3072 4.84964 16.8171 5.35957 17.1367 5.98678C17.3428 6.39123 17.4249 6.82181 17.4632 7.29023C17.5 7.74122 17.5 8.29485 17.5 8.96565V12.7012C17.5 13.372 17.5 13.9256 17.4632 14.3766C17.4249 14.845 17.3428 15.2756 17.1367 15.68C16.8171 16.3073 16.3072 16.8172 15.68 17.1368C15.2755 17.3428 14.8449 17.425 14.3765 17.4633C13.9255 17.5001 13.3719 17.5001 12.7011 17.5001H7.29894C6.62812 17.5001 6.07448 17.5001 5.62348 17.4633C5.15506 17.425 4.72448 17.3428 4.32003 17.1368C3.69283 16.8172 3.18289 16.3073 2.86331 15.68C2.65724 15.2756 2.5751 14.845 2.53683 14.3766C2.49998 13.9256 2.49999 13.372 2.5 12.7012V8.96567C2.49999 8.29486 2.49998 7.74122 2.53683 7.29023C2.5751 6.82181 2.65724 6.39123 2.86331 5.98678C3.18289 5.35957 3.69283 4.84964 4.32003 4.53006C4.72448 4.32398 5.15506 4.24185 5.62348 4.20358C6.07448 4.16673 6.62811 4.16674 7.29892 4.16675ZM5.7592 5.86471C5.39385 5.89456 5.20702 5.94866 5.07668 6.01507C4.76308 6.17486 4.50811 6.42983 4.34832 6.74343C4.28191 6.87376 4.22781 7.0606 4.19796 7.42595C4.16732 7.80102 4.16667 8.28627 4.16667 9.00008V12.6667C4.16667 13.3806 4.16732 13.8658 4.19796 14.2409C4.22781 14.6062 4.28191 14.7931 4.34832 14.9234C4.50811 15.237 4.76308 15.492 5.07668 15.6518C5.20702 15.7182 5.39385 15.7723 5.7592 15.8021C6.13427 15.8328 6.61952 15.8334 7.33333 15.8334H12.6667C13.3805 15.8334 13.8657 15.8328 14.2408 15.8021C14.6061 15.7723 14.793 15.7182 14.9233 15.6518C15.2369 15.492 15.4919 15.237 15.6517 14.9234C15.7181 14.7931 15.7722 14.6062 15.802 14.2409C15.8327 13.8658 15.8333 13.3806 15.8333 12.6667V9.00008C15.8333 8.28627 15.8327 7.80102 15.802 7.42595C15.7722 7.0606 15.7181 6.87376 15.6517 6.74343C15.4919 6.42983 15.2369 6.17486 14.9233 6.01507C14.793 5.94866 14.6061 5.89456 14.2408 5.86471C13.8657 5.83406 13.3805 5.83342 12.6667 5.83342H7.33333C6.61952 5.83342 6.13427 5.83406 5.7592 5.86471Z" fill="white"/>
<path fill-rule="evenodd" clip-rule="evenodd" d="M13.0896 8.57733C13.415 8.90277 13.415 9.4304 13.0896 9.75584L9.75625 13.0892C9.43081 13.4146 8.90317 13.4146 8.57774 13.0892L6.91107 11.4225C6.58563 11.0971 6.58563 10.5694 6.91107 10.244C7.23651 9.91856 7.76414 9.91856 8.08958 10.244L9.16699 11.3214L11.9111 8.57733C12.2365 8.25189 12.7641 8.25189 13.0896 8.57733Z" fill="white"/>
<path d="M7.50065 3.33333C7.50065 2.8731 7.12755 2.5 6.66732 2.5C6.20708 2.5 5.83398 2.8731 5.83398 3.33333V5C5.83398 5.46024 6.20708 5.83333 6.66732 5.83333C7.12755 5.83333 7.50065 5.46024 7.50065 5V3.33333Z" fill="white"/>
<path d="M14.1673 3.33333C14.1673 2.8731 13.7942 2.5 13.334 2.5C12.8737 2.5 12.5007 2.8731 12.5007 3.33333V5C12.5007 5.46024 12.8737 5.83333 13.334 5.83333C13.7942 5.83333 14.1673 5.46024 14.1673 5V3.33333Z" fill="white"/>
</svg>
