<svg width="24" height="24" viewBox="0 0 24 24" fill="none" xmlns="http://www.w3.org/2000/svg">
<path fill-rule="evenodd" clip-rule="evenodd" d="M11.9676 5.49838L12.0045 5.53185L12.0388 5.50118C13.3236 4.37335 15.0456 3.83599 16.7713 4.06092L17.0178 4.09826C19.2359 4.4813 21.053 6.07355 21.724 8.2221C22.395 10.3706 21.807 12.714 20.2012 14.2913L20.1535 14.3319L12.7042 21.7104C12.3444 22.0667 11.7817 22.0941 11.3907 21.7926L11.2968 21.7104L3.79247 14.2779L3.62087 14.1034C2.14057 12.5331 1.61333 10.2804 2.25805 8.20697C2.92855 6.05057 4.75305 4.45327 6.97918 4.07378C8.79307 3.76456 10.6232 4.30655 11.9676 5.49838ZM5.20416 12.8613L12.0005 19.5919L18.7968 12.8613L18.8355 12.8259L18.9552 12.703C19.9074 11.657 20.2399 10.1791 19.8149 8.81831C19.3676 7.38595 18.1562 6.32445 16.6775 6.06909C15.1988 5.81372 13.7016 6.40746 12.7997 7.60683C12.3983 8.14072 11.5963 8.13848 11.1979 7.60237C10.2998 6.39406 8.79937 5.79234 7.31528 6.04533C5.83119 6.29833 4.61486 7.36319 4.16786 8.8008C3.74321 10.1665 4.08122 11.6489 5.04115 12.6939L5.20416 12.8613Z" fill="black"/>
</svg>
