<svg width="25" height="24" viewBox="0 0 25 24" fill="none" xmlns="http://www.w3.org/2000/svg">
<g clip-path="url(#clip0_22660_15240)">
<path d="M10.1847 17.6676C8.38656 19.2487 6.88703 20.0398 5.6861 20.0409C4.48516 20.042 3.56899 19.2992 2.93758 17.8127L10.1847 17.6664V17.6676ZM14.9228 17.6676L22.1699 17.8127C21.5379 19.2981 20.6217 20.0409 19.4214 20.0409C18.2211 20.0409 16.7216 19.2494 14.9228 17.6664V17.6676ZM0.899456 11.462C3.68071 12.9464 5.46578 13.9256 6.25469 14.3997C7.0436 14.8737 8.38649 15.7244 10.2834 16.9516C7.26617 17.1391 5.29156 17.1416 4.35953 16.9591C3.29336 16.7507 2.46344 16.296 1.75282 15.5842C0.806878 14.6383 0.522425 13.2642 0.899456 11.462ZM24.208 11.462C24.5854 13.2637 24.3009 14.638 23.3547 15.5847C22.6443 16.2965 21.8144 16.7512 20.748 16.9595C19.8161 17.1423 17.8419 17.1398 14.8253 16.952C16.7202 15.7247 18.0627 14.8741 18.8531 14.4002C19.6434 13.9262 21.4284 12.9469 24.208 11.462ZM4.31125 5.34883C5.76563 7.27633 6.76102 8.65086 7.29742 9.47242C7.83383 10.294 9.04477 12.5079 10.9302 16.1141C7.21133 14.4416 4.62625 12.7808 3.175 11.1316C2.13227 9.94703 2.13227 8.00359 3.31563 6.34492C3.4875 6.1043 3.8193 5.7725 4.31102 5.34953L4.31125 5.34883ZM20.7951 5.34883C21.2874 5.77227 21.6192 6.10406 21.7905 6.34422C22.975 8.00289 22.975 9.94539 21.9325 11.1316C20.4813 12.7816 17.8953 14.4427 14.1747 16.1148C16.06 12.5086 17.2709 10.2943 17.8075 9.47195C18.3441 8.64961 19.3399 7.27523 20.7951 5.34883ZM10.8531 1.98438C11.5798 4.13312 11.9905 5.64953 12.085 6.53359C12.1795 7.41766 12.1007 10.3878 11.8485 15.4441C8.68821 10.8945 7.10805 7.59289 7.10805 5.53914C7.10805 3.48539 8.35641 2.30047 10.8531 1.98438ZM14.2565 1.98438C16.7524 2.30125 18.0004 3.48617 18.0004 5.53914C18.0004 7.59211 16.4206 10.8938 13.2611 15.4441C13.0084 10.3886 12.9296 7.41859 13.0246 6.53406C13.1196 5.64953 13.5302 4.13312 14.2565 1.98484V1.98438Z" fill="#FE0000"/>
</g>
<defs>
<clipPath id="clip0_22660_15240">
<rect width="24" height="24" fill="white" transform="translate(0.5)"/>
</clipPath>
</defs>
</svg>
