<svg width="48" height="48" viewBox="0 0 48 48" fill="none" xmlns="http://www.w3.org/2000/svg">
<path d="M0 24C0 10.7452 10.7452 0 24 0C37.2548 0 48 10.7452 48 24C48 37.2548 37.2548 48 24 48C10.7452 48 0 37.2548 0 24Z" fill="white" fill-opacity="0.1"/>
<path d="M20.9995 27.8725L24.8795 23.9925L20.9995 20.1125C20.6095 19.7225 20.6095 19.0925 20.9995 18.7025C21.3895 18.3125 22.0195 18.3125 22.4095 18.7025L26.9995 23.2925C27.3895 23.6825 27.3895 24.3125 26.9995 24.7025L22.4095 29.2925C22.2227 29.4797 21.969 29.585 21.7045 29.585C21.44 29.585 21.1864 29.4797 20.9995 29.2925C20.6195 28.9025 20.6095 28.2625 20.9995 27.8725Z" fill="white"/>
</svg>
