<svg width="24" height="24" viewBox="0 0 24 24" fill="none" xmlns="http://www.w3.org/2000/svg">
<path d="M0 12C0 18.6274 5.37258 24 12 24C18.6274 24 24 18.6274 24 12C24 5.37258 18.6274 0 12 0C5.37258 0 0 5.37258 0 12Z" fill="#010101"/>
<path d="M9.99969 9.41314L12.5864 11.9998L9.99969 14.5865C9.73969 14.8465 9.73969 15.2665 9.99969 15.5265C10.2597 15.7865 10.6797 15.7865 10.9397 15.5265L13.9997 12.4665C14.2597 12.2065 14.2597 11.7865 13.9997 11.5265L10.9397 8.46647C10.8151 8.34164 10.646 8.27148 10.4697 8.27148C10.2933 8.27148 10.1242 8.34164 9.99969 8.46647C9.74635 8.72647 9.73969 9.15314 9.99969 9.41314Z" fill="white"/>
</svg>
