<svg width="61" height="54" viewBox="0 0 61 54" fill="none" xmlns="http://www.w3.org/2000/svg">
<g opacity="0.3">
<g clip-path="url(#clip0_13365_9910)">
<path d="M37.8214 39.6663L37.8208 39.6664L27.4184 41.568C25.3434 41.9447 23.8457 43.7539 23.8457 45.8675C23.8457 47.7581 25.3716 49.2927 27.2598 49.2927C27.3777 49.2927 27.4917 49.2848 27.5818 49.2784L27.5966 49.2771L38.8001 48.1544C38.8005 48.1543 38.8009 48.1543 38.8012 48.1543C39.3026 48.1057 39.7497 48.4653 39.8104 48.9719L39.8155 49.0847C39.8105 49.7701 39.3348 50.3634 38.6658 50.5162C38.6655 50.5163 38.6653 50.5164 38.665 50.5164L33.0361 51.7685L33.036 51.7685C28.5685 52.7637 23.8877 51.9386 20.0288 49.4758L11.1002 43.7709L11.1001 43.7708C9.59035 42.8064 7.62453 43.1601 6.52893 44.5349C6.52174 44.5439 6.51486 44.5532 6.50829 44.5626L6.35958 44.7768L6.35341 44.7857L6.3535 44.7858C5.30055 46.3713 5.60899 48.4992 7.06761 49.7219L7.06822 49.7224L18.2983 59.1071C22.0514 62.2512 27 63.5585 31.8148 62.6804C31.8149 62.6804 31.815 62.6803 31.8151 62.6803L37.8795 61.577L37.8802 61.5769C40.5952 61.079 43.3613 60.9449 46.115 61.1748L57.6099 62.1353C59.6593 62.3092 61.4561 60.7816 61.629 58.73C61.6295 58.724 61.6299 58.718 61.6302 58.7121L61.6366 58.5822C61.6371 58.5736 61.6373 58.5649 61.6373 58.5562V48.1845C61.6373 46.5787 60.6158 45.1506 59.0943 44.6437L37.8214 39.6663ZM37.8214 39.6663C40.5526 39.1703 43.3578 39.3713 45.9894 40.2564L59.0935 44.6434L37.8214 39.6663ZM11.3937 41.4904C11.1977 41.4094 11.0699 41.2183 11.0699 41.0062V15.3951C11.0699 13.3357 12.7315 11.6649 14.7879 11.6649H56.3288C56.6182 11.6649 56.8528 11.8995 56.8528 12.1889V40.8764C56.8528 41.0449 56.7718 41.2031 56.6351 41.3015C56.4984 41.4 56.3226 41.4268 56.1628 41.3734L46.6782 38.2062C43.7034 37.215 40.5276 36.9878 37.4465 37.5496L37.4464 37.5496L27.0436 39.4447C23.9515 40.0091 21.7062 42.7115 21.7062 45.8675C21.7062 46.2522 21.7476 46.6337 21.8193 46.9999C21.8596 47.2057 21.7734 47.4157 21.6001 47.5337C21.4268 47.6518 21.1998 47.6551 21.0231 47.5423L12.2623 41.9476L12.2616 41.9471C11.9812 41.7674 11.6919 41.6137 11.3937 41.4904ZM32.3611 9.50012C32.1357 9.50012 31.9355 9.35595 31.8641 9.14215C31.7927 8.92834 31.866 8.69281 32.0462 8.55733L37.5861 4.39127C37.5862 4.39118 37.5864 4.39108 37.5865 4.39099C38.2265 3.90737 39.0096 3.64275 39.8159 3.64275H53.1284C55.1847 3.64275 56.8463 5.31362 56.8463 7.373V8.97612C56.8463 9.26552 56.6117 9.50012 56.3223 9.50012H32.3611ZM48.331 19.1254H19.5788C18.9869 19.1254 18.5045 19.6072 18.4993 20.2069V22.8867H49.4039V20.2045C49.4039 19.6093 48.919 19.1254 48.331 19.1254Z" fill="#669ED5" stroke="#629CD3" stroke-width="1.048" stroke-linejoin="round"/>
</g>
</g>
<defs>
<clipPath id="clip0_13365_9910">
<rect x="0.5" width="60" height="54" rx="16" fill="white"/>
</clipPath>
</defs>
</svg>
