<svg width="81" height="72" viewBox="0 0 81 72" fill="none" xmlns="http://www.w3.org/2000/svg">
<path d="M71.0127 40.5075V58.0075C71.0127 58.6706 70.7493 59.3064 70.2805 59.7753C69.8116 60.2441 69.1757 60.5075 68.5127 60.5075H33.5127C32.8497 60.5075 32.2138 60.2441 31.7449 59.7753C31.2761 59.3064 31.0127 58.6706 31.0127 58.0075V40.5075H71.0127ZM57.2627 13.0075C58.739 13.0072 60.1913 13.3804 61.4846 14.0924C62.7778 14.8044 63.8699 15.8321 64.6591 17.0797C65.4483 18.3273 65.9091 19.7543 65.9985 21.2279C66.0878 22.7015 65.8029 24.1737 65.1702 25.5075H73.5127C74.1757 25.5075 74.8116 25.7709 75.2805 26.2397C75.7493 26.7086 76.0127 27.3445 76.0127 28.0075V35.5075C76.0127 36.1706 75.7493 36.8064 75.2805 37.2753C74.8116 37.7441 74.1757 38.0075 73.5127 38.0075H28.5127C27.8497 38.0075 27.2138 37.7441 26.7449 37.2753C26.2761 36.8064 26.0127 36.1706 26.0127 35.5075V28.0075C26.0127 27.3445 26.2761 26.7086 26.7449 26.2397C27.2138 25.7709 27.8497 25.5075 28.5127 25.5075H36.8552C35.9646 23.6367 35.7668 21.5105 36.2969 19.5075C36.8271 17.5045 38.0509 15.7546 39.7504 14.5694C41.45 13.3842 43.5149 12.8405 45.5778 13.0352C47.6406 13.2299 49.5674 14.1503 51.0152 15.6325C51.828 14.7993 52.7997 14.1376 53.8729 13.6867C54.946 13.2358 56.0987 13.0049 57.2627 13.0075ZM44.7627 18.0075C43.7994 18.0074 42.8731 18.3779 42.1756 19.0422C41.4781 19.7066 41.0631 20.6139 41.0164 21.5761C40.9698 22.5382 41.2952 23.4814 41.9252 24.21C42.5552 24.9387 43.4414 25.3971 44.4002 25.49L44.7627 25.5075H48.5127V21.7575C48.5126 20.8253 48.1654 19.9265 47.5386 19.2365C46.9119 18.5464 46.0506 18.1145 45.1227 18.025L44.7627 18.0075ZM57.2627 18.0075L56.9002 18.025C56.0349 18.109 55.2257 18.4911 54.611 19.1058C53.9963 19.7205 53.6142 20.5297 53.5302 21.395L53.5127 21.7575V25.5075H57.2627L57.6227 25.49C58.5503 25.4001 59.4111 24.968 60.0375 24.278C60.6638 23.588 61.0108 22.6894 61.0108 21.7575C61.0108 20.8256 60.6638 19.9271 60.0375 19.237C59.4111 18.547 58.5503 18.1149 57.6227 18.025L57.2627 18.0075Z" fill="white" fill-opacity="0.2"/>
</svg>
