<svg width="24" height="24" viewBox="0 0 24 24" fill="none" xmlns="http://www.w3.org/2000/svg">
<g clip-path="url(#clip0_22660_15244)">
<path d="M19.5903 15.8496C20.2463 16.7776 20.9983 17.3776 21.8463 17.6496C21.4783 18.7856 20.8943 19.9696 20.0943 21.2016C18.8623 23.0576 17.6463 23.9856 16.4463 23.9856C15.9983 23.9856 15.3343 23.8336 14.4543 23.5296C13.6383 23.2256 12.9263 23.0736 12.3183 23.0736C11.7103 23.0736 11.0383 23.2336 10.3023 23.5536C9.53431 23.8576 8.90231 24.0096 8.40631 24.0096C6.96631 24.0096 5.55031 22.7856 4.15831 20.3376C2.76631 17.9216 2.07031 15.5456 2.07031 13.2096C2.07031 11.0496 2.59831 9.28157 3.65431 7.90557C4.74231 6.52957 6.08631 5.84157 7.68631 5.84157C8.03831 5.84157 8.43031 5.88557 8.86231 5.97357C9.29431 6.06157 9.74231 6.22556 10.2063 6.46557C10.7023 6.73757 11.1103 6.92556 11.4303 7.02956C11.7503 7.13356 11.9983 7.18556 12.1743 7.18556C12.3823 7.18556 12.7023 7.13757 13.1343 7.04157C13.5663 6.94557 13.9983 6.76957 14.4303 6.51357C14.8943 6.25757 15.2943 6.06557 15.6303 5.93757C15.9663 5.80957 16.3103 5.74557 16.6623 5.74557C17.7823 5.74557 18.7903 6.04957 19.6863 6.65757C20.1663 6.97757 20.6543 7.44957 21.1503 8.07357C20.4143 8.71357 19.8783 9.27357 19.5423 9.75357C18.9183 10.6496 18.6063 11.6256 18.6063 12.6816C18.6063 13.8496 18.9343 14.9056 19.5903 15.8496ZM14.7663 4.64157C14.2063 5.16957 13.6943 5.51357 13.2303 5.67357C13.0703 5.72157 12.8663 5.76557 12.6183 5.80557C12.3703 5.84557 12.0863 5.88157 11.7663 5.91357C11.7823 4.50557 12.1503 3.28956 12.8703 2.26556C13.5903 1.24156 14.7743 0.537565 16.4223 0.153564C16.4543 0.313564 16.4783 0.425564 16.4943 0.489565V0.753565C16.4943 1.32956 16.3583 1.97756 16.0863 2.69757C15.7983 3.40157 15.3583 4.04957 14.7663 4.64157Z" fill="#010101"/>
</g>
<defs>
<clipPath id="clip0_22660_15244">
<rect width="24" height="24" fill="white"/>
</clipPath>
</defs>
</svg>
