<svg width="20" height="20" viewBox="0 0 20 20" fill="none" xmlns="http://www.w3.org/2000/svg">
<path d="M15.9029 12.5272C16.3673 13.1496 16.8997 13.552 17.5 13.7344C17.2395 14.4963 16.8261 15.2904 16.2597 16.1167C15.3875 17.3615 14.5267 17.9839 13.6772 17.9839C13.36 17.9839 12.89 17.882 12.267 17.6781C11.6893 17.4742 11.1853 17.3722 10.7549 17.3722C10.3244 17.3722 9.84871 17.4795 9.32767 17.6942C8.78398 17.8981 8.33657 18 7.98544 18C6.96602 18 5.96359 17.1791 4.97816 15.5372C3.99272 13.9168 3.5 12.3233 3.5 10.7565C3.5 9.30785 3.87379 8.12207 4.62136 7.19919C5.39159 6.27632 6.34304 5.81489 7.47573 5.81489C7.72492 5.81489 8.00243 5.8444 8.30825 5.90342C8.61408 5.96244 8.93123 6.07243 9.25971 6.2334C9.61084 6.41583 9.89968 6.54192 10.1262 6.61167C10.3528 6.68142 10.5283 6.7163 10.6529 6.7163C10.8002 6.7163 11.0267 6.6841 11.3325 6.61972C11.6383 6.55533 11.9442 6.43729 12.25 6.26559C12.5785 6.0939 12.8617 5.96512 13.0995 5.87928C13.3374 5.79343 13.5809 5.7505 13.8301 5.7505C14.623 5.7505 15.3366 5.95439 15.9709 6.36217C16.3107 6.57679 16.6561 6.89336 17.0073 7.31187C16.4862 7.74111 16.1068 8.1167 15.8689 8.43863C15.4272 9.03957 15.2063 9.69416 15.2063 10.4024C15.2063 11.1858 15.4385 11.894 15.9029 12.5272ZM12.4879 5.01006C12.0914 5.36419 11.729 5.5949 11.4005 5.70221C11.2872 5.73441 11.1428 5.76392 10.9672 5.79074C10.7917 5.81757 10.5906 5.84172 10.3641 5.86318C10.3754 4.91885 10.6359 4.10329 11.1456 3.4165C11.6553 2.72971 12.4935 2.25755 13.6602 2C13.6828 2.10731 13.6998 2.18243 13.7112 2.22535V2.40241C13.7112 2.78873 13.6149 3.22334 13.4223 3.70624C13.2184 4.1784 12.907 4.61301 12.4879 5.01006Z" fill="white"/>
</svg>
