<svg width="103" height="32" viewBox="0 0 103 32" fill="none" xmlns="http://www.w3.org/2000/svg">
<g clip-path="url(#clip0_14442_10588)">
<g clip-path="url(#clip1_14442_10588)">
<path d="M0 11.3778C0 7.39518 0 5.40388 0.775065 3.88273C1.45683 2.54469 2.54469 1.45683 3.88273 0.775065C5.40388 0 7.39518 0 11.3778 0H20.6222C24.6048 0 26.5961 0 28.1173 0.775065C29.4553 1.45683 30.5432 2.54469 31.2249 3.88273C32 5.40388 32 7.39518 32 11.3778V20.6222C32 24.6048 32 26.5961 31.2249 28.1173C30.5432 29.4553 29.4553 30.5432 28.1173 31.2249C26.5961 32 24.6048 32 20.6222 32H11.3778C7.39518 32 5.40388 32 3.88273 31.2249C2.54469 30.5432 1.45683 29.4553 0.775065 28.1173C0 26.5961 0 24.6048 0 20.6222V11.3778Z" fill="url(#paint0_linear_14442_10588)"/>
<path d="M15.6004 4.80005H16.3428C17.6312 4.85987 18.9149 5.10943 20.1125 5.59486C22.61 6.58304 24.7176 8.50998 25.9309 10.9057C26.7021 12.407 27.1104 14.0866 27.1465 15.7726V16.1729C27.1108 17.8372 26.7136 19.4948 25.961 20.9814C25.2282 22.4456 24.165 23.7423 22.8788 24.7554C21.5629 25.7933 20.01 26.5297 18.372 26.8862C17.7068 27.0363 17.0268 27.1061 16.3472 27.1467H15.604C14.7131 27.0996 13.8241 26.9796 12.9651 26.7347C10.8849 26.1582 8.98554 24.9566 7.56698 23.3304C6.56926 22.1952 5.80762 20.853 5.34191 19.415C5.00101 18.3692 4.82733 17.2723 4.7998 16.1733V15.7739C4.83957 13.7339 5.43965 11.7071 6.53947 9.98694C7.70568 8.14902 9.4188 6.6621 11.4078 5.77563C12.7237 5.17717 14.1587 4.8651 15.6004 4.80005ZM13.4674 7.18353C12.7595 8.0731 12.2973 9.12758 11.922 10.1934C12.4487 10.3257 12.9895 10.3832 13.5255 10.464C14.1902 10.5326 14.8567 10.5932 15.5258 10.5984C15.5253 8.97783 15.5262 7.35731 15.5253 5.73625C14.6747 5.91561 13.9907 6.51748 13.4674 7.18353ZM16.4204 10.598C17.3248 10.5818 18.2288 10.5068 19.1222 10.3619C19.426 10.323 19.7271 10.2663 20.0243 10.1925C19.5853 8.94505 19.0196 7.70297 18.0917 6.73924C17.6382 6.2639 17.0727 5.87421 16.4218 5.73622C16.4192 7.35689 16.4215 8.97744 16.4204 10.598ZM12.5845 6.2679C11.0046 6.81865 9.56329 7.76354 8.42899 8.99392C9.25866 9.43221 10.1477 9.75607 11.0555 9.9887C11.5296 8.55975 12.1947 7.14648 13.2662 6.06536C13.0331 6.11119 12.8093 6.19236 12.5845 6.2679ZM18.6757 6.05882C18.8987 6.2644 19.078 6.5101 19.2728 6.74096C20.003 7.71642 20.5137 8.83823 20.8929 9.99132C21.8002 9.75473 22.6867 9.42914 23.5199 8.99667C22.2228 7.59077 20.5258 6.55112 18.6757 6.05882ZM7.83312 9.69275C6.54905 11.3596 5.78708 13.4231 5.7054 15.5274C7.19463 15.5247 8.68385 15.5265 10.173 15.5265C10.2017 13.9499 10.4039 12.3753 10.8006 10.8484C9.77184 10.578 8.76764 10.2025 7.83312 9.69275ZM21.1456 10.8484C21.5423 12.3752 21.7444 13.9499 21.7728 15.526C23.2629 15.5256 24.7529 15.526 26.243 15.526C26.1554 13.4223 25.399 11.3575 24.1113 9.69188C23.1791 10.2051 22.1726 10.5753 21.1456 10.8484ZM11.066 15.5225C12.5526 15.5303 14.0392 15.5239 15.5257 15.526V11.4918C14.2317 11.4679 12.9366 11.3334 11.6714 11.0563C11.2869 12.5128 11.0991 14.0176 11.066 15.5225ZM16.4204 11.4914C16.4204 12.8366 16.4204 14.1813 16.4209 15.526C17.9076 15.5234 19.394 15.5309 20.8806 15.5222C20.8471 14.0171 20.6594 12.5123 20.2748 11.0554C19.01 11.3342 17.7146 11.4674 16.4204 11.4914ZM5.70457 16.4203C5.78833 18.5245 6.54873 20.5881 7.8336 22.2549C8.76714 21.7438 9.77271 21.3707 10.8006 21.0983C10.4035 19.5716 10.2031 17.9965 10.1721 16.4203C8.68301 16.4211 7.19379 16.4211 5.70457 16.4203ZM11.0665 16.4238C11.0996 17.9291 11.2851 19.4359 11.6735 20.8923C12.9371 20.6103 14.2325 20.4803 15.5253 20.4553C15.5258 19.1106 15.5258 17.7654 15.5258 16.4208C14.0392 16.4229 12.5526 16.4168 11.0665 16.4238ZM16.4204 16.4208V20.455C17.7155 20.4785 19.0105 20.6147 20.2762 20.8901C20.655 19.431 20.8554 17.9256 20.8751 16.4185C19.3902 16.4238 17.9053 16.4196 16.4204 16.4208ZM21.7724 16.4208C21.7463 17.9968 21.5414 19.5715 21.146 21.0983C22.1735 21.3693 23.1786 21.7425 24.1118 22.2545C25.3993 20.5894 26.1554 18.5245 26.243 16.4212C24.7529 16.4203 23.2624 16.4211 21.7724 16.4208ZM11.9229 21.7513C12.3579 23.0017 12.9279 24.2447 13.8564 25.2093C14.3093 25.6837 14.875 26.0731 15.5253 26.2101C15.5267 24.59 15.5253 22.9695 15.5258 21.3489C14.3163 21.3728 13.106 21.496 11.9229 21.7513ZM16.4204 21.3484C16.4209 22.9689 16.4196 24.59 16.4214 26.2105C17.2702 26.0311 17.9538 25.4314 18.4762 24.7662C19.1855 23.8754 19.6507 22.8197 20.0239 21.7513C19.4814 21.6202 18.9266 21.557 18.3754 21.4771C17.7251 21.4139 17.0743 21.3524 16.4204 21.3484ZM8.42723 22.9506C9.72387 24.3555 11.42 25.3965 13.2697 25.8867C12.1982 24.8029 11.5291 23.3897 11.0559 21.9577C10.1459 22.1872 9.26126 22.5207 8.42723 22.9506ZM20.892 21.9568C20.4158 23.3897 19.7481 24.8047 18.6743 25.8898C20.5228 25.3953 22.2202 24.3583 23.5174 22.9529C22.6885 22.5138 21.799 22.1925 20.892 21.9568Z" fill="white" fill-opacity="0.5"/>
<path d="M18.7439 18.5293C22.8373 18.7577 22.7415 14.5513 25.5908 14.0434C23.3794 15.0586 23.8897 21.8421 16.3624 21.8421C9.43045 21.8421 10.6212 12.4352 4.8375 11.8117C13.1729 9.44246 14.1935 18.2754 18.7439 18.5293Z" fill="url(#paint1_linear_14442_10588)"/>
<path fill-rule="evenodd" clip-rule="evenodd" d="M26.0689 13.894C25.9937 13.6538 25.7517 13.507 25.504 13.5511C24.6602 13.7015 24.0434 14.1284 23.5394 14.6397C23.1816 15.0026 22.857 15.4363 22.5527 15.8428C22.4461 15.9852 22.342 16.1242 22.2399 16.2557C21.8277 16.7864 21.4125 17.2471 20.8818 17.5685C20.3629 17.8828 19.7026 18.082 18.7727 18.0301C17.8097 17.9763 17.001 17.4716 16.1697 16.6778C15.7545 16.2813 15.3474 15.8262 14.9187 15.3377C14.8609 15.272 14.8028 15.2056 14.7443 15.1387C14.3723 14.7138 13.9832 14.2693 13.5717 13.8406C12.6175 12.8465 11.5042 11.8947 10.0624 11.3576C8.60998 10.8164 6.87294 10.7136 4.70169 11.3308C4.47148 11.3962 4.31993 11.6156 4.34019 11.8541C4.36046 12.0925 4.54686 12.2832 4.7848 12.3088C6.07221 12.4476 6.97225 13.0668 7.72064 13.9626C8.39725 14.7725 8.92878 15.7801 9.49663 16.8566C9.5732 17.0017 9.65044 17.1481 9.72877 17.2955C10.3732 18.5075 11.0885 19.7726 12.1099 20.7278C13.1526 21.7027 14.4987 22.3421 16.3633 22.3421C18.3236 22.3421 19.798 21.8993 20.9344 21.1906C22.0682 20.4835 22.8296 19.5344 23.4001 18.58C23.796 17.9178 24.1159 17.2213 24.3965 16.6104C24.5116 16.3597 24.6201 16.1234 24.7245 15.9098C25.1122 15.1169 25.4294 14.6681 25.8003 14.4978C26.029 14.3928 26.1441 14.1342 26.0689 13.894ZM24.2788 14.6446C24.6469 14.3534 25.0699 14.1364 25.5917 14.0434C25.2198 14.2141 24.9248 14.548 24.6557 14.9854C24.4047 15.3932 24.1762 15.891 23.9286 16.4304C22.8629 18.7516 21.4441 21.8421 16.3633 21.8421C12.69 21.8421 11.2975 19.2006 9.93954 16.6243C8.91248 14.6759 7.9051 12.7648 5.94556 12.0619C5.60666 11.9404 5.23928 11.8549 4.8384 11.8117C5.23677 11.6985 5.61843 11.6108 5.98457 11.5466C10.2761 10.7939 12.4348 13.2598 14.3672 15.467C15.7195 17.0117 16.9609 18.4298 18.7448 18.5293C21.0694 18.659 22.043 17.3585 22.9721 16.1174C23.3795 15.5732 23.7784 15.0404 24.2788 14.6446Z" fill="white"/>
<path d="M13.4338 18.5475C9.38538 18.7747 9.48013 14.5912 6.66211 14.0861C8.84923 15.0958 8.34451 21.8422 15.7891 21.8422C22.6449 21.8422 21.4672 12.4868 27.1874 11.8667C18.9436 9.51033 17.9342 18.295 13.4338 18.5475Z" fill="url(#paint2_linear_14442_10588)"/>
<path fill-rule="evenodd" clip-rule="evenodd" d="M6.18526 13.936C6.26077 13.6961 6.5028 13.5496 6.7504 13.594C7.58695 13.7439 8.1981 14.1695 8.69685 14.6782C9.05094 15.0394 9.3722 15.471 9.67313 15.8753C9.77852 16.0169 9.88141 16.1551 9.98234 16.2858C10.39 16.8135 10.8003 17.2711 11.3242 17.5902C11.8363 17.9021 12.4877 18.0998 13.4058 18.0483C14.3555 17.995 15.1538 17.4945 15.9759 16.7051C16.3864 16.3109 16.7889 15.8585 17.2129 15.3726C17.27 15.3072 17.3274 15.2412 17.3853 15.1747C17.7532 14.7521 18.1382 14.31 18.5452 13.8835C19.489 12.8949 20.5908 11.9475 22.0181 11.4127C23.4563 10.8739 25.1761 10.7717 27.3249 11.3859C27.5548 11.4516 27.706 11.6709 27.6856 11.9092C27.6653 12.1475 27.4791 12.338 27.2413 12.3637C25.9707 12.5015 25.0818 13.1159 24.342 14.0065C23.673 14.8117 23.1474 15.8135 22.5858 16.8842C22.5101 17.0285 22.4337 17.1741 22.3562 17.3207C21.719 18.5259 21.0113 19.7846 20.0006 20.735C18.9686 21.7054 17.6356 22.3422 15.7892 22.3422C13.849 22.3422 12.3895 21.9015 11.2643 21.1959C10.142 20.4921 9.38871 19.5475 8.82436 18.5983C8.43274 17.9396 8.11633 17.2468 7.83883 16.6392C7.72497 16.3899 7.61767 16.1549 7.51442 15.9426C7.13071 15.1534 6.81744 14.7085 6.45263 14.5401C6.22424 14.4346 6.10974 14.176 6.18526 13.936ZM7.97199 14.6931C7.60531 14.399 7.18361 14.1796 6.66219 14.0861C7.03247 14.257 7.3256 14.5924 7.5932 15.0316C7.83935 15.4356 8.0639 15.9275 8.30705 16.4601C9.36098 18.7686 10.7642 21.8422 15.7892 21.8422C19.4222 21.8422 20.7993 19.2151 22.1424 16.6529C23.1572 14.7169 24.1527 12.8179 26.0872 12.1174C26.4238 11.9955 26.7889 11.9099 27.1875 11.8667C26.7912 11.7534 26.4116 11.6659 26.0476 11.6019C21.8074 10.8568 19.6735 13.3079 17.7634 15.502C16.4259 17.0382 15.1981 18.4485 13.4338 18.5475C11.1348 18.6765 10.172 17.3831 9.253 16.1488C8.85316 15.6117 8.46163 15.0858 7.97199 14.6931Z" fill="white"/>
</g>
</g>
<path d="M41.5719 8.72H48.1119C49.5319 8.72 50.6519 9.06 51.4519 9.74C52.1919 10.38 52.5719 11.24 52.5719 12.32C52.5719 13.12 52.3719 13.8 51.9919 14.36C51.6119 14.88 51.0719 15.26 50.3519 15.54C51.2919 15.72 51.9919 16.1 52.4719 16.68C52.9319 17.24 53.1719 18.02 53.1719 18.98C53.1719 20.42 52.6719 21.48 51.6919 22.16C50.8519 22.72 49.6519 23 48.1319 23H41.5719V8.72ZM43.9119 10.64V14.72H47.4919C48.4919 14.72 49.1919 14.54 49.6119 14.22C50.0119 13.88 50.2319 13.34 50.2319 12.6C50.2319 11.92 50.0119 11.42 49.6119 11.12C49.1719 10.8 48.4919 10.64 47.5319 10.64H43.9119ZM43.9119 16.64V21.08H47.7919C48.6719 21.08 49.3719 20.94 49.8719 20.66C50.5119 20.3 50.8319 19.74 50.8319 18.94C50.8319 18.12 50.5919 17.54 50.1319 17.18C49.6519 16.82 48.8919 16.64 47.8519 16.64H43.9119ZM55.3805 8.72H61.7405C63.2005 8.72 64.3605 9.04 65.2005 9.7C66.0805 10.42 66.5405 11.46 66.5405 12.82C66.5405 13.56 66.3405 14.22 65.9405 14.8C65.5005 15.44 64.8805 15.86 64.1205 16.06V16.1C65.3605 16.38 66.0605 17.2 66.2205 18.6L66.4605 20.9C66.5405 21.78 66.8405 22.48 67.3205 23H64.7805C64.4405 22.56 64.2405 21.94 64.1605 21.14L63.9805 19.38C63.9005 18.6 63.6605 18.04 63.2605 17.7C62.8405 17.34 62.2205 17.18 61.4205 17.18H57.7205V23H55.3805V8.72ZM57.7205 10.72V15.18H61.4205C62.3405 15.18 63.0405 14.98 63.5205 14.6C63.9605 14.2 64.1805 13.64 64.1805 12.92C64.1805 12.14 63.9605 11.58 63.5205 11.24C63.0805 10.88 62.3805 10.72 61.4205 10.72H57.7205ZM69.3258 8.72H71.6658V23H69.3258V8.72ZM80.6625 8.44C82.5025 8.44 83.9425 8.84 85.0025 9.66C86.0225 10.46 86.6625 11.64 86.9225 13.24H84.5625C84.3625 12.32 83.9225 11.64 83.2825 11.18C82.6225 10.72 81.7425 10.5 80.6625 10.5C79.3225 10.5 78.2625 10.94 77.4825 11.86C76.6225 12.82 76.2025 14.16 76.2025 15.92C76.2025 17.6 76.5825 18.9 77.3425 19.8C78.1625 20.76 79.4425 21.24 81.1825 21.24C81.8625 21.24 82.5025 21.16 83.1025 21C83.6625 20.84 84.1625 20.62 84.6425 20.34V17.4H80.8625V15.4H86.9825V21.44C86.2225 22.04 85.3625 22.48 84.3825 22.8C83.3425 23.12 82.2025 23.28 80.9225 23.28C78.6425 23.28 76.8825 22.56 75.6225 21.12C74.4425 19.78 73.8625 18.04 73.8625 15.92C73.8625 13.78 74.4425 12.02 75.6225 10.64C76.8625 9.16 78.5425 8.44 80.6625 8.44ZM95.7797 8.44C97.4597 8.44 98.8597 8.88 99.9397 9.76C100.98 10.6 101.6 11.76 101.82 13.2H99.5397C99.2997 12.26 98.8597 11.58 98.1997 11.14C97.5597 10.7 96.7397 10.5 95.7397 10.5C94.2397 10.5 93.1197 11 92.3597 12.04C91.6597 12.96 91.3197 14.24 91.3197 15.88C91.3197 17.56 91.6597 18.86 92.3397 19.76C93.0797 20.72 94.2397 21.22 95.7997 21.22C96.8197 21.22 97.6597 20.96 98.2997 20.48C98.9797 19.94 99.4597 19.12 99.7397 18.04H102.02C101.7 19.72 100.96 21.02 99.7797 21.96C98.6797 22.84 97.3597 23.28 95.8197 23.28C93.4397 23.28 91.6597 22.52 90.4997 21.04C89.4797 19.76 88.9797 18.04 88.9797 15.88C88.9797 13.76 89.4997 12.02 90.5597 10.7C91.7597 9.18 93.4997 8.44 95.7797 8.44Z" fill="white"/>
<defs>
<linearGradient id="paint0_linear_14442_10588" x1="16.3125" y1="0.59375" x2="16" y2="32.7187" gradientUnits="userSpaceOnUse">
<stop stop-color="#55F8A4"/>
<stop offset="1" stop-color="#CCFFE5"/>
</linearGradient>
<linearGradient id="paint1_linear_14442_10588" x1="16.7953" y1="11.3467" x2="16.7953" y2="21.8945" gradientUnits="userSpaceOnUse">
<stop stop-color="#0070EE"/>
<stop offset="1" stop-color="#6BB6FF"/>
</linearGradient>
<linearGradient id="paint2_linear_14442_10588" x1="16.9247" y1="15.763" x2="16.9247" y2="21.8174" gradientUnits="userSpaceOnUse">
<stop stop-color="#FF9500"/>
<stop offset="1" stop-color="#FFC500"/>
</linearGradient>
<clipPath id="clip0_14442_10588">
<rect width="32" height="32" rx="16" fill="white"/>
</clipPath>
<clipPath id="clip1_14442_10588">
<rect width="32" height="32" fill="white"/>
</clipPath>
</defs>
</svg>
