<svg width="136" height="136" viewBox="0 0 136 136" fill="none" xmlns="http://www.w3.org/2000/svg">
<circle cx="68" cy="68" r="64" fill="#051F19" fill-opacity="0.54"/>
<path d="M125.5 68.5C125.5 99.3918 99.793 124.5 68 124.5C36.207 124.5 10.5 99.3918 10.5 68.5C10.5 37.6082 36.207 12.5 68 12.5C99.793 12.5 125.5 37.6082 125.5 68.5Z" fill="#6FD727" stroke="#FEF385" stroke-width="3"/>
<mask id="path-3-outside-1_19525_16115" maskUnits="userSpaceOnUse" x="35" y="33" width="66" height="71" fill="black">
<rect fill="white" x="35" y="33" width="66" height="71"/>
<path d="M60.704 45.192C61.536 45.3413 61.8667 45.832 61.696 46.664L59.872 56.456C59.7227 57.2667 59.232 57.5973 58.4 57.448L57.696 57.32C56.864 57.1707 56.5333 56.68 56.704 55.848L58.528 46.056C58.656 45.2453 59.1467 44.9147 60 45.064L60.704 45.192ZM44.096 45.064C44.9493 44.9147 45.44 45.2453 45.568 46.056L47.392 55.848C47.5627 56.68 47.232 57.1707 46.4 57.32L45.696 57.448C44.864 57.5973 44.3733 57.2667 44.224 56.456L42.4 46.664C42.2293 45.832 42.56 45.3413 43.392 45.192L44.096 45.064ZM52.352 35.24C53.2053 35.24 53.632 35.6667 53.632 36.52V39.56C53.632 40.4133 53.2053 40.84 52.352 40.84H51.648C50.7947 40.84 50.368 40.4133 50.368 39.56V36.52C50.368 35.6667 50.7947 35.24 51.648 35.24H52.352ZM64.192 39.208C65.024 39.208 65.44 39.6347 65.44 40.488V41.192C65.44 42.0453 65.024 42.472 64.192 42.472H39.84C39.008 42.472 38.592 42.0453 38.592 41.192V40.488C38.592 39.6347 39.008 39.208 39.84 39.208H64.192ZM65.024 60.328C65.856 60.328 66.272 60.7547 66.272 61.608V62.312C66.272 63.1653 65.856 63.592 65.024 63.592H38.976C38.144 63.592 37.728 63.1653 37.728 62.312V61.608C37.728 60.7547 38.144 60.328 38.976 60.328H65.024ZM95.52 36.104C96.288 36.104 96.8747 36.3067 97.28 36.712C97.6853 37.1173 97.888 37.704 97.888 38.472V58.504C97.888 59.272 97.6853 59.8587 97.28 60.264C96.8747 60.6693 96.288 60.872 95.52 60.872H93.344C92.4693 60.872 92.032 60.4347 92.032 59.56V58.824C92.032 57.928 92.4693 57.48 93.344 57.48H94.688V39.496H89.408V63.176C89.408 64.008 88.992 64.424 88.16 64.424H87.456C86.624 64.424 86.208 64.008 86.208 63.176V38.472C86.208 37.704 86.4107 37.1173 86.816 36.712C87.2213 36.3067 87.808 36.104 88.576 36.104H95.52ZM80.48 42.952C81.2907 42.952 81.696 43.3573 81.696 44.168V44.872C81.696 45.6827 81.2907 46.088 80.48 46.088H73.344C72.5333 46.088 72.128 45.6827 72.128 44.872V44.168C72.128 43.3573 72.5333 42.952 73.344 42.952H80.48ZM81.216 36.008C81.9627 36.008 82.528 36.2 82.912 36.584C83.296 36.968 83.488 37.544 83.488 38.312V50.856C83.488 51.6027 83.296 52.168 82.912 52.552C82.528 52.936 81.9627 53.128 81.216 53.128H73.152C72.3413 53.128 71.936 52.7227 71.936 51.912V51.208C71.936 50.3973 72.3413 49.992 73.152 49.992H80.352V39.144H73.536V60.232L79.808 58.632C80.5973 58.4187 81.088 58.7067 81.28 59.496L81.44 60.2C81.632 60.968 81.344 61.448 80.576 61.64L73.184 63.56C71.3067 64.008 70.368 63.272 70.368 61.352V38.312C70.368 37.5653 70.56 37 70.944 36.616C71.328 36.2107 71.8933 36.008 72.64 36.008H81.216ZM80.288 55.112C81.0347 54.856 81.5573 55.112 81.856 55.88L83.936 62.088C84.2133 62.856 83.968 63.368 83.2 63.624L82.528 63.88C81.7813 64.136 81.2587 63.88 80.96 63.112L78.88 56.904C78.5813 56.136 78.8267 55.624 79.616 55.368L80.288 55.112ZM47.648 78.64C47.648 77.104 48.4053 76.336 49.92 76.336H63.968C65.504 76.336 66.272 77.104 66.272 78.64V98.608C66.272 100.144 65.504 100.912 63.968 100.912H49.92C48.4053 100.912 47.648 100.144 47.648 98.608V78.64ZM63.104 79.536H50.816V97.712H63.104V79.536ZM45.536 86.736C46.3467 86.736 46.752 87.1413 46.752 87.952V88.688C46.752 89.4987 46.3467 89.904 45.536 89.904H38.688C37.856 89.904 37.44 89.488 37.44 88.656V87.984C37.44 87.152 37.856 86.736 38.688 86.736H45.536ZM42.688 72.112C43.52 72.112 43.936 72.528 43.936 73.36V98.736C43.936 100.315 43.1573 101.104 41.6 101.104H39.456C38.6027 101.104 38.176 100.677 38.176 99.824V99.088C38.176 98.2347 38.6027 97.808 39.456 97.808H40.704V73.36C40.704 72.528 41.12 72.112 41.952 72.112H42.688ZM45.536 77.328C46.3467 77.328 46.752 77.7333 46.752 78.544V79.28C46.752 80.0907 46.3467 80.496 45.536 80.496H38.688C37.856 80.496 37.44 80.08 37.44 79.248V78.576C37.44 77.744 37.856 77.328 38.688 77.328H45.536ZM63.456 86.992C64.2667 86.992 64.672 87.408 64.672 88.24V88.944C64.672 89.776 64.2667 90.192 63.456 90.192H50.464C49.632 90.192 49.216 89.776 49.216 88.944V88.24C49.216 87.408 49.632 86.992 50.464 86.992H63.456ZM57.312 72.176C58.144 72.176 58.56 72.5813 58.56 73.392V98.096C58.56 98.9067 58.144 99.312 57.312 99.312H56.608C55.776 99.312 55.36 98.9067 55.36 98.096V73.392C55.36 72.5813 55.776 72.176 56.608 72.176H57.312ZM78.816 72.08C79.648 72.08 80.064 72.496 80.064 73.328V86.608C80.064 87.44 79.648 87.856 78.816 87.856H78.112C77.28 87.856 76.864 87.44 76.864 86.608V73.328C76.864 72.496 77.28 72.08 78.112 72.08H78.816ZM76.672 80.112C77.3973 79.728 77.9413 79.8773 78.304 80.56L78.624 81.2C79.008 81.904 78.848 82.4373 78.144 82.8L71.744 86.416C71.0187 86.8 70.4747 86.6507 70.112 85.968L69.792 85.328C69.408 84.624 69.568 84.0907 70.272 83.728L76.672 80.112ZM72.064 73.296C72.8107 73.0613 73.3013 73.328 73.536 74.096L74.752 78.192C74.9867 78.9387 74.72 79.4293 73.952 79.664L73.312 79.856C72.5653 80.0907 72.0747 79.824 71.84 79.056L70.592 74.96C70.3787 74.2133 70.6453 73.7227 71.392 73.488L72.064 73.296ZM85.216 72.08C86.0267 72.08 86.432 72.496 86.432 73.328V74.288H94.816C95.904 74.288 96.6933 74.5653 97.184 75.12C97.6747 75.6747 97.824 76.4853 97.632 77.552C97.2053 79.536 96.4053 81.264 95.232 82.736C94.08 84.208 92.5333 85.3493 90.592 86.16C88.6507 86.9707 86.368 87.376 83.744 87.376C82.912 87.4187 82.496 87.0133 82.496 86.16V85.456C82.496 84.624 82.912 84.208 83.744 84.208C86.9653 84.08 89.4187 83.4507 91.104 82.32C92.8107 81.1893 93.92 79.5787 94.432 77.488H85.568C84.032 77.488 83.264 76.72 83.264 75.184V73.328C83.264 72.496 83.6693 72.08 84.48 72.08H85.216ZM85.632 78.256C86.2507 77.7653 86.8053 77.84 87.296 78.48L89.024 80.688C89.5147 81.3067 89.4507 81.8613 88.832 82.352L88.256 82.8C87.6373 83.2907 87.0827 83.216 86.592 82.576L84.864 80.368C84.3733 79.7493 84.4373 79.1947 85.056 78.704L85.632 78.256ZM81.952 89.392C82.016 88.944 82.1547 88.624 82.368 88.432C82.5813 88.2187 82.9013 88.112 83.328 88.112H84.032C84.9067 88.112 85.3013 88.528 85.216 89.36C85.024 91.5147 84.3093 93.424 83.072 95.088C81.856 96.7307 80.224 98.0747 78.176 99.12C76.128 100.187 73.7707 100.944 71.104 101.392C70.2933 101.52 69.8347 101.179 69.728 100.368L69.632 99.664C69.5253 98.8747 69.8667 98.416 70.656 98.288C74.24 97.712 76.9813 96.6453 78.88 95.088C80.8 93.5307 81.824 91.632 81.952 89.392ZM96.768 90.096C97.5787 90.096 97.984 90.4907 97.984 91.28V91.984C97.984 92.7733 97.5787 93.168 96.768 93.168H71.232C70.4213 93.168 70.016 92.7733 70.016 91.984V91.28C70.016 90.4907 70.4213 90.096 71.232 90.096H96.768ZM85.216 91.376C85.6 91.248 85.9307 91.248 86.208 91.376C86.4853 91.4827 86.7307 91.7387 86.944 92.144C87.712 93.7227 88.9813 95.0453 90.752 96.112C92.544 97.1573 94.7307 97.8827 97.312 98.288C98.1227 98.416 98.4747 98.8747 98.368 99.664L98.272 100.368C98.2293 100.773 98.0907 101.061 97.856 101.232C97.6213 101.403 97.3013 101.456 96.896 101.392C93.568 100.837 90.7627 99.824 88.48 98.352C86.2187 96.9013 84.6613 95.1733 83.808 93.168C83.4667 92.4 83.7013 91.8773 84.512 91.6L85.216 91.376Z"/>
</mask>
<path d="M60.704 45.192C61.536 45.3413 61.8667 45.832 61.696 46.664L59.872 56.456C59.7227 57.2667 59.232 57.5973 58.4 57.448L57.696 57.32C56.864 57.1707 56.5333 56.68 56.704 55.848L58.528 46.056C58.656 45.2453 59.1467 44.9147 60 45.064L60.704 45.192ZM44.096 45.064C44.9493 44.9147 45.44 45.2453 45.568 46.056L47.392 55.848C47.5627 56.68 47.232 57.1707 46.4 57.32L45.696 57.448C44.864 57.5973 44.3733 57.2667 44.224 56.456L42.4 46.664C42.2293 45.832 42.56 45.3413 43.392 45.192L44.096 45.064ZM52.352 35.24C53.2053 35.24 53.632 35.6667 53.632 36.52V39.56C53.632 40.4133 53.2053 40.84 52.352 40.84H51.648C50.7947 40.84 50.368 40.4133 50.368 39.56V36.52C50.368 35.6667 50.7947 35.24 51.648 35.24H52.352ZM64.192 39.208C65.024 39.208 65.44 39.6347 65.44 40.488V41.192C65.44 42.0453 65.024 42.472 64.192 42.472H39.84C39.008 42.472 38.592 42.0453 38.592 41.192V40.488C38.592 39.6347 39.008 39.208 39.84 39.208H64.192ZM65.024 60.328C65.856 60.328 66.272 60.7547 66.272 61.608V62.312C66.272 63.1653 65.856 63.592 65.024 63.592H38.976C38.144 63.592 37.728 63.1653 37.728 62.312V61.608C37.728 60.7547 38.144 60.328 38.976 60.328H65.024ZM95.52 36.104C96.288 36.104 96.8747 36.3067 97.28 36.712C97.6853 37.1173 97.888 37.704 97.888 38.472V58.504C97.888 59.272 97.6853 59.8587 97.28 60.264C96.8747 60.6693 96.288 60.872 95.52 60.872H93.344C92.4693 60.872 92.032 60.4347 92.032 59.56V58.824C92.032 57.928 92.4693 57.48 93.344 57.48H94.688V39.496H89.408V63.176C89.408 64.008 88.992 64.424 88.16 64.424H87.456C86.624 64.424 86.208 64.008 86.208 63.176V38.472C86.208 37.704 86.4107 37.1173 86.816 36.712C87.2213 36.3067 87.808 36.104 88.576 36.104H95.52ZM80.48 42.952C81.2907 42.952 81.696 43.3573 81.696 44.168V44.872C81.696 45.6827 81.2907 46.088 80.48 46.088H73.344C72.5333 46.088 72.128 45.6827 72.128 44.872V44.168C72.128 43.3573 72.5333 42.952 73.344 42.952H80.48ZM81.216 36.008C81.9627 36.008 82.528 36.2 82.912 36.584C83.296 36.968 83.488 37.544 83.488 38.312V50.856C83.488 51.6027 83.296 52.168 82.912 52.552C82.528 52.936 81.9627 53.128 81.216 53.128H73.152C72.3413 53.128 71.936 52.7227 71.936 51.912V51.208C71.936 50.3973 72.3413 49.992 73.152 49.992H80.352V39.144H73.536V60.232L79.808 58.632C80.5973 58.4187 81.088 58.7067 81.28 59.496L81.44 60.2C81.632 60.968 81.344 61.448 80.576 61.64L73.184 63.56C71.3067 64.008 70.368 63.272 70.368 61.352V38.312C70.368 37.5653 70.56 37 70.944 36.616C71.328 36.2107 71.8933 36.008 72.64 36.008H81.216ZM80.288 55.112C81.0347 54.856 81.5573 55.112 81.856 55.88L83.936 62.088C84.2133 62.856 83.968 63.368 83.2 63.624L82.528 63.88C81.7813 64.136 81.2587 63.88 80.96 63.112L78.88 56.904C78.5813 56.136 78.8267 55.624 79.616 55.368L80.288 55.112ZM47.648 78.64C47.648 77.104 48.4053 76.336 49.92 76.336H63.968C65.504 76.336 66.272 77.104 66.272 78.64V98.608C66.272 100.144 65.504 100.912 63.968 100.912H49.92C48.4053 100.912 47.648 100.144 47.648 98.608V78.64ZM63.104 79.536H50.816V97.712H63.104V79.536ZM45.536 86.736C46.3467 86.736 46.752 87.1413 46.752 87.952V88.688C46.752 89.4987 46.3467 89.904 45.536 89.904H38.688C37.856 89.904 37.44 89.488 37.44 88.656V87.984C37.44 87.152 37.856 86.736 38.688 86.736H45.536ZM42.688 72.112C43.52 72.112 43.936 72.528 43.936 73.36V98.736C43.936 100.315 43.1573 101.104 41.6 101.104H39.456C38.6027 101.104 38.176 100.677 38.176 99.824V99.088C38.176 98.2347 38.6027 97.808 39.456 97.808H40.704V73.36C40.704 72.528 41.12 72.112 41.952 72.112H42.688ZM45.536 77.328C46.3467 77.328 46.752 77.7333 46.752 78.544V79.28C46.752 80.0907 46.3467 80.496 45.536 80.496H38.688C37.856 80.496 37.44 80.08 37.44 79.248V78.576C37.44 77.744 37.856 77.328 38.688 77.328H45.536ZM63.456 86.992C64.2667 86.992 64.672 87.408 64.672 88.24V88.944C64.672 89.776 64.2667 90.192 63.456 90.192H50.464C49.632 90.192 49.216 89.776 49.216 88.944V88.24C49.216 87.408 49.632 86.992 50.464 86.992H63.456ZM57.312 72.176C58.144 72.176 58.56 72.5813 58.56 73.392V98.096C58.56 98.9067 58.144 99.312 57.312 99.312H56.608C55.776 99.312 55.36 98.9067 55.36 98.096V73.392C55.36 72.5813 55.776 72.176 56.608 72.176H57.312ZM78.816 72.08C79.648 72.08 80.064 72.496 80.064 73.328V86.608C80.064 87.44 79.648 87.856 78.816 87.856H78.112C77.28 87.856 76.864 87.44 76.864 86.608V73.328C76.864 72.496 77.28 72.08 78.112 72.08H78.816ZM76.672 80.112C77.3973 79.728 77.9413 79.8773 78.304 80.56L78.624 81.2C79.008 81.904 78.848 82.4373 78.144 82.8L71.744 86.416C71.0187 86.8 70.4747 86.6507 70.112 85.968L69.792 85.328C69.408 84.624 69.568 84.0907 70.272 83.728L76.672 80.112ZM72.064 73.296C72.8107 73.0613 73.3013 73.328 73.536 74.096L74.752 78.192C74.9867 78.9387 74.72 79.4293 73.952 79.664L73.312 79.856C72.5653 80.0907 72.0747 79.824 71.84 79.056L70.592 74.96C70.3787 74.2133 70.6453 73.7227 71.392 73.488L72.064 73.296ZM85.216 72.08C86.0267 72.08 86.432 72.496 86.432 73.328V74.288H94.816C95.904 74.288 96.6933 74.5653 97.184 75.12C97.6747 75.6747 97.824 76.4853 97.632 77.552C97.2053 79.536 96.4053 81.264 95.232 82.736C94.08 84.208 92.5333 85.3493 90.592 86.16C88.6507 86.9707 86.368 87.376 83.744 87.376C82.912 87.4187 82.496 87.0133 82.496 86.16V85.456C82.496 84.624 82.912 84.208 83.744 84.208C86.9653 84.08 89.4187 83.4507 91.104 82.32C92.8107 81.1893 93.92 79.5787 94.432 77.488H85.568C84.032 77.488 83.264 76.72 83.264 75.184V73.328C83.264 72.496 83.6693 72.08 84.48 72.08H85.216ZM85.632 78.256C86.2507 77.7653 86.8053 77.84 87.296 78.48L89.024 80.688C89.5147 81.3067 89.4507 81.8613 88.832 82.352L88.256 82.8C87.6373 83.2907 87.0827 83.216 86.592 82.576L84.864 80.368C84.3733 79.7493 84.4373 79.1947 85.056 78.704L85.632 78.256ZM81.952 89.392C82.016 88.944 82.1547 88.624 82.368 88.432C82.5813 88.2187 82.9013 88.112 83.328 88.112H84.032C84.9067 88.112 85.3013 88.528 85.216 89.36C85.024 91.5147 84.3093 93.424 83.072 95.088C81.856 96.7307 80.224 98.0747 78.176 99.12C76.128 100.187 73.7707 100.944 71.104 101.392C70.2933 101.52 69.8347 101.179 69.728 100.368L69.632 99.664C69.5253 98.8747 69.8667 98.416 70.656 98.288C74.24 97.712 76.9813 96.6453 78.88 95.088C80.8 93.5307 81.824 91.632 81.952 89.392ZM96.768 90.096C97.5787 90.096 97.984 90.4907 97.984 91.28V91.984C97.984 92.7733 97.5787 93.168 96.768 93.168H71.232C70.4213 93.168 70.016 92.7733 70.016 91.984V91.28C70.016 90.4907 70.4213 90.096 71.232 90.096H96.768ZM85.216 91.376C85.6 91.248 85.9307 91.248 86.208 91.376C86.4853 91.4827 86.7307 91.7387 86.944 92.144C87.712 93.7227 88.9813 95.0453 90.752 96.112C92.544 97.1573 94.7307 97.8827 97.312 98.288C98.1227 98.416 98.4747 98.8747 98.368 99.664L98.272 100.368C98.2293 100.773 98.0907 101.061 97.856 101.232C97.6213 101.403 97.3013 101.456 96.896 101.392C93.568 100.837 90.7627 99.824 88.48 98.352C86.2187 96.9013 84.6613 95.1733 83.808 93.168C83.4667 92.4 83.7013 91.8773 84.512 91.6L85.216 91.376Z" fill="#101010"/>
<path d="M60.704 45.192L60.3462 47.1597L60.3507 47.1605L60.704 45.192ZM61.696 46.664L59.7368 46.2621L59.7331 46.2799L59.7298 46.2978L61.696 46.664ZM59.872 56.456L57.9058 56.0898L57.9051 56.0937L59.872 56.456ZM58.4 57.448L58.0422 59.4157L58.0467 59.4165L58.4 57.448ZM57.696 57.32L58.0538 55.3523L58.0493 55.3515L57.696 57.32ZM56.704 55.848L58.6632 56.2499L58.6669 56.2321L58.6702 56.2142L56.704 55.848ZM58.528 46.056L60.4942 46.4222L60.4992 46.3952L60.5035 46.3679L58.528 46.056ZM60 45.064L60.3578 43.0962L60.3448 43.0939L60 45.064ZM44.096 45.064L43.7512 43.0939L43.7382 43.0963L44.096 45.064ZM45.568 46.056L43.5925 46.3679L43.5968 46.3952L43.6018 46.4222L45.568 46.056ZM47.392 55.848L45.4258 56.2142L45.4291 56.2321L45.4328 56.2499L47.392 55.848ZM46.4 57.32L46.0467 55.3515L46.0422 55.3523L46.4 57.32ZM45.696 57.448L46.0493 59.4165L46.0538 59.4157L45.696 57.448ZM44.224 56.456L46.1909 56.0937L46.1902 56.0898L44.224 56.456ZM42.4 46.664L44.3662 46.2978L44.3629 46.2799L44.3592 46.2621L42.4 46.664ZM43.392 45.192L43.7453 47.1605L43.7498 47.1597L43.392 45.192ZM60.3507 47.1605C60.4653 47.1811 60.1641 47.1557 59.9175 46.7897C59.6723 46.4259 59.7616 46.1413 59.7368 46.2621L63.6552 47.0659C63.8011 46.3547 63.8104 45.4088 63.2345 44.5543C62.6572 43.6976 61.7747 43.3522 61.0573 43.2235L60.3507 47.1605ZM59.7298 46.2978L57.9058 56.0898L61.8382 56.8222L63.6622 47.0302L59.7298 46.2978ZM57.9051 56.0937C57.8888 56.1824 57.9222 55.8907 58.2743 55.6535C58.6157 55.4234 58.8774 55.5017 58.7533 55.4795L58.0467 59.4165C58.7546 59.5436 59.6776 59.5313 60.5097 58.9705C61.3524 58.4026 61.7059 57.5403 61.8389 56.8183L57.9051 56.0937ZM58.7578 55.4803L58.0538 55.3523L57.3382 59.2877L58.0422 59.4157L58.7578 55.4803ZM58.0493 55.3515C57.9347 55.3309 58.2359 55.3563 58.4825 55.7223C58.7277 56.0861 58.6384 56.3707 58.6632 56.2499L54.7448 55.4461C54.5989 56.1573 54.5896 57.1032 55.1655 57.9577C55.7428 58.8144 56.6253 59.1598 57.3427 59.2885L58.0493 55.3515ZM58.6702 56.2142L60.4942 46.4222L56.5618 45.6898L54.7378 55.4818L58.6702 56.2142ZM60.5035 46.3679C60.5155 46.2924 60.4809 46.6084 60.1097 46.8585C59.7627 47.0924 59.5035 47.0075 59.6552 47.0341L60.3448 43.0939C59.6432 42.9712 58.712 42.9769 57.8743 43.5415C57.0124 44.1223 56.6686 45.0089 56.5525 45.7441L60.5035 46.3679ZM59.6422 47.0317L60.3462 47.1597L61.0618 43.2243L60.3578 43.0963L59.6422 47.0317ZM44.4408 47.0341C44.5925 47.0075 44.3333 47.0924 43.9863 46.8585C43.6151 46.6084 43.5806 46.2924 43.5925 46.3679L47.5435 45.7441C47.4275 45.0089 47.0836 44.1223 46.2217 43.5415C45.384 42.9769 44.4528 42.9712 43.7512 43.0939L44.4408 47.0341ZM43.6018 46.4222L45.4258 56.2142L49.3582 55.4818L47.5342 45.6898L43.6018 46.4222ZM45.4328 56.2499C45.4576 56.3707 45.3683 56.0861 45.6135 55.7223C45.8601 55.3563 46.1613 55.3309 46.0467 55.3515L46.7533 59.2885C47.4707 59.1598 48.3532 58.8144 48.9305 57.9577C49.5064 57.1032 49.4971 56.1573 49.3512 55.4461L45.4328 56.2499ZM46.0422 55.3523L45.3382 55.4803L46.0538 59.4157L46.7578 59.2877L46.0422 55.3523ZM45.3427 55.4795C45.2186 55.5017 45.4803 55.4234 45.8217 55.6535C46.1738 55.8907 46.2072 56.1824 46.1909 56.0937L42.2571 56.8183C42.3901 57.5403 42.7436 58.4026 43.5863 58.9705C44.4184 59.5313 45.3414 59.5436 46.0493 59.4165L45.3427 55.4795ZM46.1902 56.0898L44.3662 46.2978L40.4338 47.0302L42.2578 56.8222L46.1902 56.0898ZM44.3592 46.2621C44.3344 46.1413 44.4237 46.4259 44.1785 46.7897C43.9319 47.1557 43.6307 47.1811 43.7453 47.1605L43.0387 43.2235C42.3213 43.3522 41.4388 43.6976 40.8615 44.5543C40.2856 45.4088 40.2949 46.3547 40.4408 47.0659L44.3592 46.2621ZM43.7498 47.1597L44.4538 47.0317L43.7382 43.0963L43.0342 43.2243L43.7498 47.1597ZM52.352 37.24C52.4704 37.24 52.1918 37.2682 51.8978 36.9742C51.6038 36.6802 51.632 36.4016 51.632 36.52H55.632C55.632 35.785 55.4469 34.8665 54.7262 34.1458C54.0055 33.4251 53.087 33.24 52.352 33.24V37.24ZM51.632 36.52V39.56H55.632V36.52H51.632ZM51.632 39.56C51.632 39.6784 51.6038 39.3998 51.8978 39.1058C52.1918 38.8118 52.4704 38.84 52.352 38.84V42.84C53.087 42.84 54.0055 42.6549 54.7262 41.9342C55.4469 41.2135 55.632 40.295 55.632 39.56H51.632ZM52.352 38.84H51.648V42.84H52.352V38.84ZM51.648 38.84C51.5296 38.84 51.8082 38.8118 52.1022 39.1058C52.3962 39.3998 52.368 39.6784 52.368 39.56H48.368C48.368 40.295 48.5531 41.2135 49.2738 41.9342C49.9945 42.6549 50.913 42.84 51.648 42.84V38.84ZM52.368 39.56V36.52H48.368V39.56H52.368ZM52.368 36.52C52.368 36.4016 52.3962 36.6802 52.1022 36.9742C51.8082 37.2682 51.5296 37.24 51.648 37.24V33.24C50.913 33.24 49.9945 33.4251 49.2738 34.1458C48.5531 34.8665 48.368 35.785 48.368 36.52H52.368ZM51.648 37.24H52.352V33.24H51.648V37.24ZM64.192 41.208C64.2867 41.208 63.9933 41.2292 63.696 40.9242C63.4078 40.6286 63.44 40.3571 63.44 40.488H67.44C67.44 39.7656 67.2642 38.854 66.56 38.1318C65.8467 37.4002 64.9293 37.208 64.192 37.208V41.208ZM63.44 40.488V41.192H67.44V40.488H63.44ZM63.44 41.192C63.44 41.3229 63.4078 41.0514 63.696 40.7558C63.9933 40.4508 64.2867 40.472 64.192 40.472V44.472C64.9293 44.472 65.8467 44.2798 66.56 43.5482C67.2642 42.826 67.44 41.9144 67.44 41.192H63.44ZM64.192 40.472H39.84V44.472H64.192V40.472ZM39.84 40.472C39.7453 40.472 40.0387 40.4508 40.336 40.7558C40.6242 41.0514 40.592 41.3229 40.592 41.192H36.592C36.592 41.9144 36.7678 42.826 37.472 43.5482C38.1853 44.2798 39.1027 44.472 39.84 44.472V40.472ZM40.592 41.192V40.488H36.592V41.192H40.592ZM40.592 40.488C40.592 40.3571 40.6242 40.6286 40.336 40.9242C40.0387 41.2292 39.7453 41.208 39.84 41.208V37.208C39.1027 37.208 38.1853 37.4002 37.472 38.1318C36.7678 38.854 36.592 39.7656 36.592 40.488H40.592ZM39.84 41.208H64.192V37.208H39.84V41.208ZM65.024 62.328C65.1187 62.328 64.8253 62.3492 64.528 62.0442C64.2398 61.7486 64.272 61.4771 64.272 61.608H68.272C68.272 60.8856 68.0962 59.974 67.392 59.2518C66.6787 58.5202 65.7613 58.328 65.024 58.328V62.328ZM64.272 61.608V62.312H68.272V61.608H64.272ZM64.272 62.312C64.272 62.4429 64.2398 62.1714 64.528 61.8758C64.8253 61.5708 65.1187 61.592 65.024 61.592V65.592C65.7613 65.592 66.6787 65.3998 67.392 64.6682C68.0962 63.946 68.272 63.0344 68.272 62.312H64.272ZM65.024 61.592H38.976V65.592H65.024V61.592ZM38.976 61.592C38.8813 61.592 39.1747 61.5708 39.472 61.8758C39.7602 62.1714 39.728 62.4429 39.728 62.312H35.728C35.728 63.0344 35.9038 63.946 36.608 64.6682C37.3213 65.3998 38.2387 65.592 38.976 65.592V61.592ZM39.728 62.312V61.608H35.728V62.312H39.728ZM39.728 61.608C39.728 61.4771 39.7602 61.7486 39.472 62.0442C39.1747 62.3492 38.8813 62.328 38.976 62.328V58.328C38.2387 58.328 37.3213 58.5202 36.608 59.2518C35.9038 59.974 35.728 60.8856 35.728 61.608H39.728ZM38.976 62.328H65.024V58.328H38.976V62.328ZM97.28 36.712L98.6942 35.2978L98.6942 35.2978L97.28 36.712ZM97.28 60.264L95.8658 58.8498L97.28 60.264ZM94.688 57.48V59.48H96.688V57.48H94.688ZM94.688 39.496H96.688V37.496H94.688V39.496ZM89.408 39.496V37.496H87.408V39.496H89.408ZM86.816 36.712L85.4018 35.2978L85.4018 35.2978L86.816 36.712ZM82.912 36.584L81.4978 37.9982L81.4978 37.9982L82.912 36.584ZM82.912 52.552L84.3262 53.9662V53.9662L82.912 52.552ZM80.352 49.992V51.992H82.352V49.992H80.352ZM80.352 39.144H82.352V37.144H80.352V39.144ZM73.536 39.144V37.144H71.536V39.144H73.536ZM73.536 60.232H71.536V62.8063L74.0304 62.1699L73.536 60.232ZM79.808 58.632L80.3024 60.5699L80.3161 60.5664L80.3298 60.5627L79.808 58.632ZM81.28 59.496L83.2303 59.0528L83.2269 59.038L83.2233 59.0233L81.28 59.496ZM81.44 60.2L79.4897 60.6432L79.4945 60.6642L79.4997 60.6851L81.44 60.2ZM80.576 61.64L80.0909 59.6997L80.0821 59.7019L80.0732 59.7042L80.576 61.64ZM73.184 63.56L73.6482 65.5054L73.6676 65.5008L73.6868 65.4958L73.184 63.56ZM70.944 36.616L72.3582 38.0302L72.3773 38.0111L72.3959 37.9915L70.944 36.616ZM80.288 55.112L79.6394 53.2201L79.6075 53.231L79.576 53.243L80.288 55.112ZM81.856 55.88L83.7524 55.2446L83.7373 55.1995L83.72 55.1551L81.856 55.88ZM83.936 62.088L82.0396 62.7234L82.047 62.7454L82.0549 62.7673L83.936 62.088ZM83.2 63.624L82.5675 61.7266L82.5275 61.74L82.488 61.755L83.2 63.624ZM82.528 63.88L83.1767 65.7719L83.2085 65.761L83.24 65.749L82.528 63.88ZM80.96 63.112L79.0636 63.7474L79.0787 63.7925L79.096 63.8369L80.96 63.112ZM78.88 56.904L80.7764 56.2686L80.7613 56.2235L80.744 56.1791L78.88 56.904ZM79.616 55.368L80.233 57.2704L80.2809 57.2549L80.328 57.237L79.616 55.368ZM95.52 38.104C95.7324 38.104 95.8428 38.1325 95.883 38.1464C95.9139 38.1571 95.8948 38.1553 95.8658 38.1262L98.6942 35.2978C97.8002 34.4037 96.6326 34.104 95.52 34.104V38.104ZM95.8658 38.1262C95.8367 38.0972 95.8349 38.0781 95.8456 38.109C95.8595 38.1492 95.888 38.2596 95.888 38.472H99.888C99.888 37.3594 99.5883 36.1918 98.6942 35.2978L95.8658 38.1262ZM95.888 38.472V58.504H99.888V38.472H95.888ZM95.888 58.504C95.888 58.7164 95.8595 58.8268 95.8456 58.867C95.8349 58.8979 95.8367 58.8788 95.8658 58.8498L98.6942 61.6782C99.5883 60.7842 99.888 59.6166 99.888 58.504H95.888ZM95.8658 58.8498C95.8948 58.8207 95.9139 58.8189 95.883 58.8296C95.8428 58.8435 95.7324 58.872 95.52 58.872V62.872C96.6326 62.872 97.8002 62.5723 98.6942 61.6782L95.8658 58.8498ZM95.52 58.872H93.344V62.872H95.52V58.872ZM93.344 58.872C93.215 58.872 93.4855 58.8411 93.7742 59.1298C94.0629 59.4185 94.032 59.689 94.032 59.56H90.032C90.032 60.3056 90.2198 61.2322 90.9458 61.9582C91.6718 62.6842 92.5984 62.872 93.344 62.872V58.872ZM94.032 59.56V58.824H90.032V59.56H94.032ZM94.032 58.824C94.032 58.6724 94.0692 58.9282 93.7911 59.2131C93.5044 59.5068 93.2273 59.48 93.344 59.48V55.48C92.586 55.48 91.653 55.6772 90.9289 56.4189C90.2135 57.1518 90.032 58.0796 90.032 58.824H94.032ZM93.344 59.48H94.688V55.48H93.344V59.48ZM96.688 57.48V39.496H92.688V57.48H96.688ZM94.688 37.496H89.408V41.496H94.688V37.496ZM87.408 39.496V63.176H91.408V39.496H87.408ZM87.408 63.176C87.408 63.2837 87.3824 62.9971 87.6818 62.6978C87.9811 62.3984 88.2677 62.424 88.16 62.424V66.424C88.8843 66.424 89.7949 66.2416 90.5102 65.5262C91.2256 64.8109 91.408 63.9003 91.408 63.176H87.408ZM88.16 62.424H87.456V66.424H88.16V62.424ZM87.456 62.424C87.3483 62.424 87.6349 62.3984 87.9342 62.6978C88.2336 62.9971 88.208 63.2837 88.208 63.176H84.208C84.208 63.9003 84.3904 64.8109 85.1058 65.5262C85.8211 66.2416 86.7317 66.424 87.456 66.424V62.424ZM88.208 63.176V38.472H84.208V63.176H88.208ZM88.208 38.472C88.208 38.2596 88.2365 38.1492 88.2504 38.109C88.2611 38.0781 88.2593 38.0972 88.2302 38.1262L85.4018 35.2978C84.5077 36.1918 84.208 37.3594 84.208 38.472H88.208ZM88.2302 38.1262C88.2012 38.1553 88.1821 38.1571 88.213 38.1464C88.2532 38.1325 88.3636 38.104 88.576 38.104V34.104C87.4634 34.104 86.2959 34.4037 85.4018 35.2978L88.2302 38.1262ZM88.576 38.104H95.52V34.104H88.576V38.104ZM80.48 44.952C80.577 44.952 80.2825 44.9749 79.9778 44.6702C79.6731 44.3655 79.696 44.071 79.696 44.168H83.696C83.696 43.4544 83.5162 42.5518 82.8062 41.8418C82.0962 41.1318 81.1936 40.952 80.48 40.952V44.952ZM79.696 44.168V44.872H83.696V44.168H79.696ZM79.696 44.872C79.696 44.969 79.6731 44.6745 79.9778 44.3698C80.2825 44.0651 80.577 44.088 80.48 44.088V48.088C81.1936 48.088 82.0962 47.9082 82.8062 47.1982C83.5162 46.4882 83.696 45.5856 83.696 44.872H79.696ZM80.48 44.088H73.344V48.088H80.48V44.088ZM73.344 44.088C73.247 44.088 73.5415 44.0651 73.8462 44.3698C74.1509 44.6745 74.128 44.969 74.128 44.872H70.128C70.128 45.5856 70.3078 46.4882 71.0178 47.1982C71.7278 47.9082 72.6304 48.088 73.344 48.088V44.088ZM74.128 44.872V44.168H70.128V44.872H74.128ZM74.128 44.168C74.128 44.071 74.1509 44.3655 73.8462 44.6702C73.5415 44.9749 73.247 44.952 73.344 44.952V40.952C72.6304 40.952 71.7278 41.1318 71.0178 41.8418C70.3078 42.5518 70.128 43.4544 70.128 44.168H74.128ZM73.344 44.952H80.48V40.952H73.344V44.952ZM81.216 38.008C81.423 38.008 81.5257 38.0352 81.5568 38.0458C81.5784 38.0531 81.5435 38.0439 81.4978 37.9982L84.3262 35.1698C83.4445 34.288 82.2899 34.008 81.216 34.008V38.008ZM81.4978 37.9982C81.4455 37.9459 81.4371 37.9079 81.4466 37.9365C81.4594 37.9747 81.488 38.0887 81.488 38.312H85.488C85.488 37.2357 85.2176 36.0611 84.3262 35.1698L81.4978 37.9982ZM81.488 38.312V50.856H85.488V38.312H81.488ZM81.488 50.856C81.488 51.063 81.4608 51.1657 81.4502 51.1968C81.4429 51.2184 81.4521 51.1835 81.4978 51.1378L84.3262 53.9662C85.208 53.0845 85.488 51.9299 85.488 50.856H81.488ZM81.4978 51.1378C81.5435 51.0921 81.5784 51.0829 81.5568 51.0902C81.5257 51.1008 81.423 51.128 81.216 51.128V55.128C82.2899 55.128 83.4445 54.848 84.3262 53.9662L81.4978 51.1378ZM81.216 51.128H73.152V55.128H81.216V51.128ZM73.152 51.128C73.055 51.128 73.3495 51.1051 73.6542 51.4098C73.9589 51.7145 73.936 52.009 73.936 51.912H69.936C69.936 52.6256 70.1158 53.5282 70.8258 54.2382C71.5358 54.9482 72.4384 55.128 73.152 55.128V51.128ZM73.936 51.912V51.208H69.936V51.912H73.936ZM73.936 51.208C73.936 51.111 73.9589 51.4055 73.6542 51.7102C73.3495 52.0149 73.055 51.992 73.152 51.992V47.992C72.4384 47.992 71.5358 48.1718 70.8258 48.8818C70.1158 49.5918 69.936 50.4944 69.936 51.208H73.936ZM73.152 51.992H80.352V47.992H73.152V51.992ZM82.352 49.992V39.144H78.352V49.992H82.352ZM80.352 37.144H73.536V41.144H80.352V37.144ZM71.536 39.144V60.232H75.536V39.144H71.536ZM74.0304 62.1699L80.3024 60.5699L79.3136 56.6941L73.0416 58.2941L74.0304 62.1699ZM80.3298 60.5627C80.4345 60.5344 80.1438 60.6407 79.7556 60.4128C79.3643 60.1832 79.3132 59.8723 79.3367 59.9687L83.2233 59.0233C83.0548 58.3303 82.6623 57.4808 81.7804 56.9632C80.9016 56.4473 79.9708 56.5162 79.2862 56.7013L80.3298 60.5627ZM79.3297 59.9392L79.4897 60.6432L83.3903 59.7568L83.2303 59.0528L79.3297 59.9392ZM79.4997 60.6851C79.5209 60.77 79.4279 60.4823 79.653 60.107C79.8782 59.7317 80.1758 59.6785 80.0909 59.6997L81.0611 63.5803C81.7442 63.4095 82.5698 63.0203 83.083 62.165C83.5961 61.3097 83.5511 60.398 83.3803 59.7149L79.4997 60.6851ZM80.0732 59.7042L72.6812 61.6242L73.6868 65.4958L81.0788 63.5758L80.0732 59.7042ZM72.7198 61.6146C72.395 61.6921 72.2192 61.6909 72.1555 61.6844C72.1084 61.6796 72.1918 61.6805 72.3061 61.7701C72.4209 61.8602 72.4437 61.9431 72.4297 61.9036C72.4099 61.8477 72.368 61.6817 72.368 61.352H68.368C68.368 62.5524 68.6522 63.9881 69.8379 64.9179C71.0199 65.8446 72.4808 65.784 73.6482 65.5054L72.7198 61.6146ZM72.368 61.352V38.312H68.368V61.352H72.368ZM72.368 38.312C72.368 38.105 72.3952 38.0023 72.4058 37.9712C72.4131 37.9496 72.4039 37.9845 72.3582 38.0302L69.5298 35.2018C68.648 36.0835 68.368 37.2381 68.368 38.312H72.368ZM72.3959 37.9915C72.3794 38.0089 72.3611 38.0236 72.3446 38.0342C72.3287 38.0444 72.322 38.0459 72.3309 38.0427C72.3516 38.0353 72.4429 38.008 72.64 38.008V34.008C71.5369 34.008 70.3686 34.3154 69.4921 35.2405L72.3959 37.9915ZM72.64 38.008H81.216V34.008H72.64V38.008ZM80.9366 57.0039C80.9916 56.985 80.7254 57.087 80.3603 56.9081C80.0131 56.7381 79.9491 56.4946 79.992 56.6049L83.72 55.1551C83.4642 54.4974 82.9896 53.7419 82.1197 53.3159C81.232 52.881 80.331 52.983 79.6394 53.2201L80.9366 57.0039ZM79.9596 56.5154L82.0396 62.7234L85.8324 61.4526L83.7524 55.2446L79.9596 56.5154ZM82.0549 62.7673C82.0919 62.8697 81.9621 62.5893 82.1564 62.1838C82.3527 61.7739 82.6592 61.6961 82.5675 61.7266L83.8325 65.5214C84.5088 65.2959 85.3219 64.8341 85.7636 63.9122C86.2033 62.9947 86.0575 62.0743 85.8171 61.4087L82.0549 62.7673ZM82.488 61.755L81.816 62.011L83.24 65.749L83.912 65.493L82.488 61.755ZM81.8794 61.9881C81.8244 62.007 82.0906 61.905 82.4557 62.0839C82.8029 62.2539 82.8669 62.4974 82.824 62.3871L79.096 63.8369C79.3518 64.4946 79.8264 65.2501 80.6963 65.6761C81.584 66.111 82.485 66.009 83.1767 65.7719L81.8794 61.9881ZM82.8564 62.4766L80.7764 56.2686L76.9836 57.5394L79.0636 63.7474L82.8564 62.4766ZM80.744 56.1791C80.7036 56.0752 80.8506 56.3764 80.6436 56.8082C80.4385 57.2363 80.1174 57.3079 80.233 57.2704L78.999 53.4656C78.3253 53.6841 77.4868 54.1397 77.0364 55.0798C76.5841 56.0236 76.7577 56.9648 77.016 57.6289L80.744 56.1791ZM80.328 57.237L81 56.981L79.576 53.243L78.904 53.499L80.328 57.237ZM63.104 79.536H65.104V77.536H63.104V79.536ZM50.816 79.536V77.536H48.816V79.536H50.816ZM50.816 97.712H48.816V99.712H50.816V97.712ZM63.104 97.712V99.712H65.104V97.712H63.104ZM40.704 97.808V99.808H42.704V97.808H40.704ZM49.648 78.64C49.648 78.4143 49.6765 78.2975 49.69 78.2565C49.7004 78.2249 49.693 78.2626 49.6401 78.3163C49.5865 78.3706 49.5449 78.382 49.5665 78.3747C49.598 78.364 49.7045 78.336 49.92 78.336V74.336C48.8472 74.336 47.6769 74.6103 46.7919 75.5077C45.9121 76.4 45.648 77.5707 45.648 78.64H49.648ZM49.92 78.336H63.968V74.336H49.92V78.336ZM63.968 78.336C64.1913 78.336 64.3053 78.3646 64.3435 78.3774C64.3721 78.3869 64.3341 78.3785 64.2818 78.3262C64.2295 78.2739 64.2211 78.2359 64.2306 78.2645C64.2434 78.3027 64.272 78.4167 64.272 78.64H68.272C68.272 77.5637 68.0016 76.3891 67.1102 75.4978C66.2189 74.6064 65.0443 74.336 63.968 74.336V78.336ZM64.272 78.64V98.608H68.272V78.64H64.272ZM64.272 98.608C64.272 98.8313 64.2434 98.9453 64.2306 98.9835C64.2211 99.0121 64.2295 98.9741 64.2818 98.9218C64.3341 98.8695 64.3721 98.8611 64.3435 98.8706C64.3053 98.8834 64.1913 98.912 63.968 98.912V102.912C65.0443 102.912 66.2189 102.642 67.1102 101.75C68.0016 100.859 68.272 99.6843 68.272 98.608H64.272ZM63.968 98.912H49.92V102.912H63.968V98.912ZM49.92 98.912C49.7045 98.912 49.598 98.884 49.5665 98.8733C49.5449 98.866 49.5865 98.8774 49.6401 98.9317C49.693 98.9854 49.7004 99.0231 49.69 98.9915C49.6765 98.9505 49.648 98.8337 49.648 98.608H45.648C45.648 99.6773 45.9121 100.848 46.7919 101.74C47.6769 102.638 48.8472 102.912 49.92 102.912V98.912ZM49.648 98.608V78.64H45.648V98.608H49.648ZM63.104 77.536H50.816V81.536H63.104V77.536ZM48.816 79.536V97.712H52.816V79.536H48.816ZM50.816 99.712H63.104V95.712H50.816V99.712ZM65.104 97.712V79.536H61.104V97.712H65.104ZM45.536 88.736C45.633 88.736 45.3385 88.7589 45.0338 88.4542C44.7291 88.1495 44.752 87.855 44.752 87.952H48.752C48.752 87.2384 48.5722 86.3358 47.8622 85.6258C47.1522 84.9158 46.2496 84.736 45.536 84.736V88.736ZM44.752 87.952V88.688H48.752V87.952H44.752ZM44.752 88.688C44.752 88.785 44.7291 88.4905 45.0338 88.1858C45.3385 87.8811 45.633 87.904 45.536 87.904V91.904C46.2496 91.904 47.1522 91.7242 47.8622 91.0142C48.5722 90.3042 48.752 89.4016 48.752 88.688H44.752ZM45.536 87.904H38.688V91.904H45.536V87.904ZM38.688 87.904C38.5803 87.904 38.8669 87.8784 39.1662 88.1778C39.4656 88.4771 39.44 88.7637 39.44 88.656H35.44C35.44 89.3803 35.6224 90.2909 36.3378 91.0062C37.0531 91.7216 37.9637 91.904 38.688 91.904V87.904ZM39.44 88.656V87.984H35.44V88.656H39.44ZM39.44 87.984C39.44 87.8763 39.4656 88.1629 39.1662 88.4622C38.8669 88.7616 38.5803 88.736 38.688 88.736V84.736C37.9637 84.736 37.0531 84.9184 36.3378 85.6338C35.6224 86.3491 35.44 87.2597 35.44 87.984H39.44ZM38.688 88.736H45.536V84.736H38.688V88.736ZM42.688 74.112C42.7957 74.112 42.5091 74.1376 42.2098 73.8382C41.9104 73.5389 41.936 73.2523 41.936 73.36H45.936C45.936 72.6357 45.7536 71.7251 45.0382 71.0098C44.3229 70.2944 43.4123 70.112 42.688 70.112V74.112ZM41.936 73.36V98.736H45.936V73.36H41.936ZM41.936 98.736C41.936 98.9723 41.9062 99.0984 41.8901 99.1473C41.8771 99.1868 41.8805 99.1558 41.9282 99.1074C41.9764 99.0585 42.0114 99.0512 41.9818 99.0612C41.9421 99.0746 41.8263 99.104 41.6 99.104V103.104C42.6939 103.104 43.8801 102.824 44.7758 101.917C45.6665 101.014 45.936 99.8268 45.936 98.736H41.936ZM41.6 99.104H39.456V103.104H41.6V99.104ZM39.456 99.104C39.3376 99.104 39.6162 99.0758 39.9102 99.3698C40.2042 99.6638 40.176 99.9424 40.176 99.824H36.176C36.176 100.559 36.3611 101.478 37.0818 102.198C37.8025 102.919 38.721 103.104 39.456 103.104V99.104ZM40.176 99.824V99.088H36.176V99.824H40.176ZM40.176 99.088C40.176 98.9696 40.2042 99.2482 39.9102 99.5422C39.6162 99.8362 39.3376 99.808 39.456 99.808V95.808C38.721 95.808 37.8025 95.9931 37.0818 96.7138C36.3611 97.4345 36.176 98.353 36.176 99.088H40.176ZM39.456 99.808H40.704V95.808H39.456V99.808ZM42.704 97.808V73.36H38.704V97.808H42.704ZM42.704 73.36C42.704 73.2523 42.7296 73.5389 42.4302 73.8382C42.1309 74.1376 41.8443 74.112 41.952 74.112V70.112C41.2277 70.112 40.3171 70.2944 39.6018 71.0098C38.8864 71.7251 38.704 72.6357 38.704 73.36H42.704ZM41.952 74.112H42.688V70.112H41.952V74.112ZM45.536 79.328C45.633 79.328 45.3385 79.3509 45.0338 79.0462C44.7291 78.7415 44.752 78.447 44.752 78.544H48.752C48.752 77.8304 48.5722 76.9278 47.8622 76.2178C47.1522 75.5078 46.2496 75.328 45.536 75.328V79.328ZM44.752 78.544V79.28H48.752V78.544H44.752ZM44.752 79.28C44.752 79.377 44.7291 79.0825 45.0338 78.7778C45.3385 78.4731 45.633 78.496 45.536 78.496V82.496C46.2496 82.496 47.1522 82.3162 47.8622 81.6062C48.5722 80.8962 48.752 79.9936 48.752 79.28H44.752ZM45.536 78.496H38.688V82.496H45.536V78.496ZM38.688 78.496C38.5803 78.496 38.8669 78.4704 39.1662 78.7698C39.4656 79.0691 39.44 79.3557 39.44 79.248H35.44C35.44 79.9723 35.6224 80.8829 36.3378 81.5982C37.0531 82.3136 37.9637 82.496 38.688 82.496V78.496ZM39.44 79.248V78.576H35.44V79.248H39.44ZM39.44 78.576C39.44 78.4683 39.4656 78.7549 39.1662 79.0542C38.8669 79.3536 38.5803 79.328 38.688 79.328V75.328C37.9637 75.328 37.0531 75.5104 36.3378 76.2258C35.6224 76.9411 35.44 77.8517 35.44 78.576H39.44ZM38.688 79.328H45.536V75.328H38.688V79.328ZM63.456 88.992C63.5397 88.992 63.2381 89.0103 62.9355 88.6997C62.6423 88.3988 62.672 88.1194 62.672 88.24H66.672C66.672 87.5286 66.499 86.6252 65.8005 85.9083C65.0925 85.1817 64.183 84.992 63.456 84.992V88.992ZM62.672 88.24V88.944H66.672V88.24H62.672ZM62.672 88.944C62.672 89.0646 62.6423 88.7852 62.9355 88.4843C63.2381 88.1737 63.5397 88.192 63.456 88.192V92.192C64.183 92.192 65.0925 92.0023 65.8005 91.2757C66.499 90.5588 66.672 89.6554 66.672 88.944H62.672ZM63.456 88.192H50.464V92.192H63.456V88.192ZM50.464 88.192C50.3563 88.192 50.6429 88.1664 50.9422 88.4658C51.2416 88.7651 51.216 89.0517 51.216 88.944H47.216C47.216 89.6683 47.3984 90.5789 48.1138 91.2942C48.8291 92.0096 49.7397 92.192 50.464 92.192V88.192ZM51.216 88.944V88.24H47.216V88.944H51.216ZM51.216 88.24C51.216 88.1323 51.2416 88.4189 50.9422 88.7182C50.6429 89.0176 50.3563 88.992 50.464 88.992V84.992C49.7397 84.992 48.8291 85.1744 48.1138 85.8898C47.3984 86.6051 47.216 87.5157 47.216 88.24H51.216ZM50.464 88.992H63.456V84.992H50.464V88.992ZM57.312 74.176C57.4326 74.176 57.1532 74.2057 56.8523 73.9125C56.5417 73.6099 56.56 73.3083 56.56 73.392H60.56C60.56 72.665 60.3703 71.7555 59.6437 71.0475C58.9268 70.349 58.0234 70.176 57.312 70.176V74.176ZM56.56 73.392V98.096H60.56V73.392H56.56ZM56.56 98.096C56.56 98.1797 56.5417 97.8781 56.8523 97.5755C57.1532 97.2823 57.4326 97.312 57.312 97.312V101.312C58.0234 101.312 58.9268 101.139 59.6437 100.44C60.3703 99.7325 60.56 98.823 60.56 98.096H56.56ZM57.312 97.312H56.608V101.312H57.312V97.312ZM56.608 97.312C56.4874 97.312 56.7668 97.2823 57.0677 97.5755C57.3783 97.8781 57.36 98.1797 57.36 98.096H53.36C53.36 98.823 53.5497 99.7325 54.2763 100.44C54.9932 101.139 55.8966 101.312 56.608 101.312V97.312ZM57.36 98.096V73.392H53.36V98.096H57.36ZM57.36 73.392C57.36 73.3083 57.3783 73.6099 57.0677 73.9125C56.7668 74.2057 56.4874 74.176 56.608 74.176V70.176C55.8966 70.176 54.9932 70.349 54.2763 71.0475C53.5497 71.7555 53.36 72.665 53.36 73.392H57.36ZM56.608 74.176H57.312V70.176H56.608V74.176ZM76.672 80.112L75.7362 78.3444L75.712 78.3572L75.6882 78.3707L76.672 80.112ZM78.304 80.56L80.0929 79.6656L80.0818 79.6435L80.0702 79.6217L78.304 80.56ZM78.624 81.2L76.8351 82.0944L76.8511 82.1264L76.8682 82.1577L78.624 81.2ZM78.144 82.8L77.2281 81.022L77.1938 81.0397L77.1602 81.0587L78.144 82.8ZM71.744 86.416L72.6798 88.1836L72.704 88.1708L72.7278 88.1573L71.744 86.416ZM70.112 85.968L68.3231 86.8624L68.3342 86.8845L68.3458 86.9063L70.112 85.968ZM69.792 85.328L71.5809 84.4336L71.5649 84.4016L71.5478 84.3703L69.792 85.328ZM70.272 83.728L71.1879 85.506L71.2222 85.4883L71.2558 85.4693L70.272 83.728ZM72.064 73.296L72.6134 75.219L72.6386 75.2118L72.6637 75.204L72.064 73.296ZM73.536 74.096L75.4533 73.5268L75.451 73.5192L75.4487 73.5116L73.536 74.096ZM74.752 78.192L72.8347 78.7612L72.8392 78.7765L72.844 78.7917L74.752 78.192ZM73.952 79.664L74.5267 81.5797L74.5364 81.5767L73.952 79.664ZM73.312 79.856L72.7373 77.9403L72.7248 77.9441L72.7123 77.948L73.312 79.856ZM71.84 79.056L69.9268 79.6389L69.9273 79.6404L71.84 79.056ZM70.592 74.96L68.669 75.5094L68.6737 75.5262L68.6788 75.5429L70.592 74.96ZM71.392 73.488L70.8426 71.5649L70.8174 71.5722L70.7923 71.58L71.392 73.488ZM86.432 74.288H84.432V76.288H86.432V74.288ZM97.632 77.552L99.5873 77.9725L99.5944 77.9395L99.6004 77.9063L97.632 77.552ZM95.232 82.736L93.6681 81.4894L93.6625 81.4964L93.657 81.5034L95.232 82.736ZM90.592 86.16L91.3627 88.0056L90.592 86.16ZM83.744 87.376V85.376H83.6928L83.6416 85.3786L83.744 87.376ZM83.744 84.208V86.208H83.7837L83.8234 86.2064L83.744 84.208ZM91.104 82.32L89.9994 80.6527L89.9898 80.6591L91.104 82.32ZM94.432 77.488L96.3746 77.9637L96.9809 75.488H94.432V77.488ZM85.632 78.256L86.8599 79.8347L86.8674 79.8289L86.8748 79.823L85.632 78.256ZM87.296 78.48L85.7088 79.6969L85.7149 79.7048L85.721 79.7126L87.296 78.48ZM89.024 80.688L87.449 81.9206L87.457 81.9308L89.024 80.688ZM88.832 82.352L90.0599 83.9307L90.0674 83.9249L90.0748 83.919L88.832 82.352ZM88.256 82.8L87.0281 81.2213L87.0206 81.2271L87.0132 81.233L88.256 82.8ZM86.592 82.576L88.1792 81.3591L88.1732 81.3512L88.167 81.3434L86.592 82.576ZM84.864 80.368L86.439 79.1354L86.431 79.1252L84.864 80.368ZM85.056 78.704L83.8281 77.1253L83.8206 77.1311L83.8132 77.137L85.056 78.704ZM81.952 89.392L79.9721 89.1092L79.9601 89.1932L79.9553 89.2779L81.952 89.392ZM82.368 88.432L83.7059 89.9186L83.745 89.8834L83.7822 89.8462L82.368 88.432ZM85.216 89.36L83.2264 89.1559L83.2251 89.1692L83.2239 89.1825L85.216 89.36ZM83.072 95.088L81.4671 93.8946L81.4645 93.898L83.072 95.088ZM78.176 99.12L77.2668 97.3386L77.2594 97.3424L77.2521 97.3462L78.176 99.12ZM71.104 101.392L71.4159 103.368L71.4256 103.366L71.4354 103.364L71.104 101.392ZM69.728 100.368L71.7109 100.107L71.7097 100.098L69.728 100.368ZM69.632 99.664L67.65 99.9318L67.6503 99.9342L69.632 99.664ZM70.656 98.288L70.3386 96.3133L70.3359 96.3138L70.656 98.288ZM78.88 95.088L77.6201 93.5347L77.6116 93.5416L78.88 95.088ZM85.216 91.376L85.8224 93.2818L85.8355 93.2777L85.8485 93.2734L85.216 91.376ZM86.208 91.376L85.3699 93.1919L85.4291 93.2193L85.49 93.2427L86.208 91.376ZM86.944 92.144L88.7425 91.2691L88.7286 91.2406L88.7138 91.2125L86.944 92.144ZM90.752 96.112L89.72 97.8252L89.7321 97.8324L89.7443 97.8396L90.752 96.112ZM97.312 98.288L97.6239 96.3125L97.6222 96.3122L97.312 98.288ZM98.368 99.664L100.35 99.9342L100.35 99.9318L98.368 99.664ZM98.272 100.368L96.2903 100.098L96.2862 100.128L96.283 100.159L98.272 100.368ZM97.856 101.232L96.6797 99.6145L96.6797 99.6145L97.856 101.232ZM96.896 101.392L96.5672 103.365L96.5756 103.366L96.5841 103.368L96.896 101.392ZM88.48 98.352L89.5639 96.6712L89.5599 96.6686L88.48 98.352ZM83.808 93.168L85.6483 92.3849L85.6421 92.3703L85.6356 92.3557L83.808 93.168ZM84.512 91.6L83.9056 89.6941L83.885 89.7007L83.8646 89.7077L84.512 91.6ZM78.816 74.08C78.9237 74.08 78.6371 74.1056 78.3378 73.8062C78.0384 73.5069 78.064 73.2203 78.064 73.328H82.064C82.064 72.6037 81.8816 71.6931 81.1662 70.9778C80.4509 70.2624 79.5403 70.08 78.816 70.08V74.08ZM78.064 73.328V86.608H82.064V73.328H78.064ZM78.064 86.608C78.064 86.7157 78.0384 86.4291 78.3378 86.1298C78.6371 85.8304 78.9237 85.856 78.816 85.856V89.856C79.5403 89.856 80.4509 89.6736 81.1662 88.9582C81.8816 88.2429 82.064 87.3323 82.064 86.608H78.064ZM78.816 85.856H78.112V89.856H78.816V85.856ZM78.112 85.856C78.0043 85.856 78.2909 85.8304 78.5902 86.1298C78.8896 86.4291 78.864 86.7157 78.864 86.608H74.864C74.864 87.3323 75.0464 88.2429 75.7618 88.9582C76.4771 89.6736 77.3877 89.856 78.112 89.856V85.856ZM78.864 86.608V73.328H74.864V86.608H78.864ZM78.864 73.328C78.864 73.2203 78.8896 73.5069 78.5902 73.8062C78.2909 74.1056 78.0043 74.08 78.112 74.08V70.08C77.3877 70.08 76.4771 70.2624 75.7618 70.9778C75.0464 71.6931 74.864 72.6037 74.864 73.328H78.864ZM78.112 74.08H78.816V70.08H78.112V74.08ZM77.6078 81.8796C77.7232 81.8184 77.4975 81.9753 77.0946 81.8647C76.6619 81.7459 76.516 81.4574 76.5378 81.4983L80.0702 79.6217C79.7293 78.98 79.1301 78.2754 78.1534 78.0073C77.2065 77.7474 76.3461 78.0216 75.7362 78.3444L77.6078 81.8796ZM76.5151 81.4544L76.8351 82.0944L80.4129 80.3056L80.0929 79.6656L76.5151 81.4544ZM76.8682 82.1577C76.9177 82.2484 76.7461 81.9874 76.8763 81.5533C77.0086 81.1126 77.3041 80.9829 77.2281 81.022L79.0599 84.5779C79.6879 84.2545 80.4154 83.6767 80.7077 82.7027C80.9979 81.7353 80.7143 80.8556 80.3798 80.2423L76.8682 82.1577ZM77.1602 81.0587L70.7602 84.6747L72.7278 88.1573L79.1278 84.5413L77.1602 81.0587ZM70.8082 84.6484C70.6928 84.7096 70.9185 84.5527 71.3214 84.6633C71.7541 84.7821 71.9 85.0706 71.8782 85.0297L68.3458 86.9063C68.6867 87.548 69.2859 88.2526 70.2626 88.5207C71.2095 88.7806 72.0699 88.5064 72.6798 88.1836L70.8082 84.6484ZM71.9009 85.0736L71.5809 84.4336L68.0031 86.2224L68.3231 86.8624L71.9009 85.0736ZM71.5478 84.3703C71.4983 84.2796 71.6699 84.5406 71.5397 84.9747C71.4074 85.4154 71.1119 85.5451 71.1879 85.506L69.3561 81.9501C68.7281 82.2735 68.0006 82.8513 67.7083 83.8253C67.4181 84.7927 67.7017 85.6724 68.0362 86.2857L71.5478 84.3703ZM71.2558 85.4693L77.6558 81.8533L75.6882 78.3707L69.2882 81.9867L71.2558 85.4693ZM72.6637 75.204C72.7316 75.1826 72.433 75.2925 72.037 75.0772C71.6529 74.8685 71.5919 74.5778 71.6233 74.6804L75.4487 73.5116C75.2454 72.8462 74.8218 72.0382 73.947 71.5627C73.0603 71.0808 72.1431 71.1747 71.4643 71.388L72.6637 75.204ZM71.6187 74.6652L72.8347 78.7612L76.6693 77.6228L75.4533 73.5268L71.6187 74.6652ZM72.844 78.7917C72.8654 78.8596 72.7555 78.561 72.9708 78.165C73.1795 77.7809 73.4702 77.7199 73.3676 77.7513L74.5364 81.5767C75.2018 81.3734 76.0098 80.9498 76.4852 80.075C76.9672 79.1883 76.8733 78.2711 76.66 77.5923L72.844 78.7917ZM73.3773 77.7483L72.7373 77.9403L73.8867 81.7717L74.5267 81.5797L73.3773 77.7483ZM72.7123 77.948C72.6444 77.9694 72.943 77.8595 73.339 78.0747C73.7231 78.2835 73.7841 78.5742 73.7527 78.4716L69.9273 79.6404C70.1306 80.3058 70.5542 81.1138 71.429 81.5892C72.3157 82.0712 73.2329 81.9773 73.9117 81.764L72.7123 77.948ZM73.7532 78.4731L72.5052 74.3771L68.6788 75.5429L69.9268 79.6389L73.7532 78.4731ZM72.515 74.4106C72.4953 74.3414 72.5903 74.617 72.3892 74.987C72.19 75.3537 71.9126 75.4208 71.9917 75.396L70.7923 71.58C70.1247 71.7898 69.3407 72.2197 68.8748 73.077C68.407 73.9376 68.4754 74.8319 68.669 75.5094L72.515 74.4106ZM71.9414 75.411L72.6134 75.219L71.5146 71.373L70.8426 71.5649L71.9414 75.411ZM85.216 74.08C85.2997 74.08 84.9981 74.0983 84.6955 73.7877C84.4023 73.4868 84.432 73.2074 84.432 73.328H88.432C88.432 72.6166 88.259 71.7132 87.5605 70.9963C86.8525 70.2697 85.943 70.08 85.216 70.08V74.08ZM84.432 73.328V74.288H88.432V73.328H84.432ZM86.432 76.288H94.816V72.288H86.432V76.288ZM94.816 76.288C95.1984 76.288 95.4325 76.3378 95.561 76.3829C95.6224 76.4045 95.6556 76.4235 95.67 76.4329C95.6775 76.4377 95.6815 76.441 95.6832 76.4425C95.6849 76.444 95.6856 76.4447 95.686 76.4451L98.682 73.7949C97.6621 72.6419 96.2038 72.288 94.816 72.288V76.288ZM95.686 76.4451C95.6639 76.4201 95.6806 76.417 95.6971 76.5063C95.7168 76.6133 95.7297 76.8308 95.6636 77.1977L99.6004 77.9063C99.8487 76.527 99.7396 74.9905 98.682 73.7949L95.686 76.4451ZM95.6767 77.1315C95.3098 78.8377 94.6341 80.2774 93.6681 81.4894L96.7959 83.9826C98.1765 82.2506 99.1009 80.2343 99.5873 77.9725L95.6767 77.1315ZM93.657 81.5034C92.7416 82.673 91.4869 83.6189 89.8213 84.3144L91.3627 88.0056C93.5798 87.0797 95.4184 85.743 96.807 83.9686L93.657 81.5034ZM89.8213 84.3144C88.1764 85.0013 86.1667 85.376 83.744 85.376V89.376C86.5693 89.376 89.1249 88.94 91.3627 88.0056L89.8213 84.3144ZM83.6416 85.3786C83.5359 85.384 83.8653 85.3418 84.2037 85.6715C84.532 85.9914 84.496 86.3004 84.496 86.16H80.496C80.496 86.8729 80.668 87.8113 81.4123 88.5365C82.1667 89.2716 83.1201 89.4106 83.8464 89.3734L83.6416 85.3786ZM84.496 86.16V85.456H80.496V86.16H84.496ZM84.496 85.456C84.496 85.3483 84.5216 85.6349 84.2222 85.9342C83.9229 86.2336 83.6363 86.208 83.744 86.208V82.208C83.0197 82.208 82.1091 82.3904 81.3938 83.1058C80.6784 83.8211 80.496 84.7317 80.496 85.456H84.496ZM83.8234 86.2064C87.2164 86.0716 90.0949 85.4054 92.2183 83.9809L89.9898 80.6591C88.7424 81.496 86.7143 82.0884 83.6646 82.2096L83.8234 86.2064ZM92.2086 83.9873C94.3575 82.5636 95.7497 80.5152 96.3746 77.9637L92.4894 77.0123C92.0903 78.6421 91.2638 79.815 89.9994 80.6527L92.2086 83.9873ZM94.432 75.488H85.568V79.488H94.432V75.488ZM85.568 75.488C85.3447 75.488 85.2307 75.4594 85.1925 75.4466C85.1639 75.4371 85.2019 75.4455 85.2542 75.4978C85.3065 75.5501 85.3149 75.5881 85.3054 75.5595C85.2926 75.5213 85.264 75.4073 85.264 75.184H81.264C81.264 76.2603 81.5344 77.4349 82.4258 78.3262C83.3171 79.2176 84.4917 79.488 85.568 79.488V75.488ZM85.264 75.184V73.328H81.264V75.184H85.264ZM85.264 73.328C85.264 73.2074 85.2937 73.4868 85.0005 73.7877C84.6979 74.0983 84.3963 74.08 84.48 74.08V70.08C83.753 70.08 82.8435 70.2697 82.1355 70.9963C81.437 71.7132 81.264 72.6166 81.264 73.328H85.264ZM84.48 74.08H85.216V70.08H84.48V74.08ZM86.8748 79.823C86.9364 79.7742 86.6965 79.9869 86.2452 79.9261C85.8051 79.8669 85.6429 79.6109 85.7088 79.6969L88.8832 77.2631C88.4585 76.7091 87.7735 76.0958 86.7788 75.9619C85.7728 75.8265 84.9463 76.2472 84.3892 76.689L86.8748 79.823ZM85.721 79.7126L87.449 81.9206L90.599 79.4554L88.871 77.2474L85.721 79.7126ZM87.457 81.9308C87.5108 81.9986 87.3069 81.7742 87.3572 81.3388C87.4074 80.9033 87.657 80.7312 87.5892 80.785L90.0748 83.919C90.6257 83.4821 91.2166 82.7874 91.3308 81.7972C91.4451 80.8071 91.0279 79.9961 90.591 79.4452L87.457 81.9308ZM87.6041 80.7733L87.0281 81.2213L89.4839 84.3787L90.0599 83.9307L87.6041 80.7733ZM87.0132 81.233C86.9516 81.2818 87.1915 81.0691 87.6428 81.1299C88.0829 81.1891 88.2451 81.4451 88.1792 81.3591L85.0048 83.7929C85.4295 84.3469 86.1145 84.9602 87.1092 85.0941C88.1152 85.2295 88.9417 84.8088 89.4988 84.367L87.0132 81.233ZM88.167 81.3434L86.439 79.1354L83.289 81.6006L85.017 83.8086L88.167 81.3434ZM86.431 79.1252C86.3772 79.0574 86.5811 79.2818 86.5308 79.7172C86.4806 80.1527 86.231 80.3248 86.2988 80.271L83.8132 77.137C83.2623 77.5739 82.6714 78.2686 82.5572 79.2588C82.4429 80.2489 82.8601 81.0599 83.297 81.6108L86.431 79.1252ZM86.2839 80.2827L86.8599 79.8347L84.4041 76.6773L83.8281 77.1253L86.2839 80.2827ZM83.9319 89.6748C83.9457 89.578 83.9581 89.5675 83.9391 89.6112C83.9183 89.6591 83.8535 89.7857 83.7059 89.9186L81.0301 86.9454C80.3167 87.5875 80.0663 88.4498 79.9721 89.1092L83.9319 89.6748ZM83.7822 89.8462C83.6446 89.9839 83.4999 90.0562 83.4005 90.0894C83.3107 90.1193 83.2754 90.112 83.328 90.112V86.112C82.593 86.112 81.6745 86.2971 80.9538 87.0178L83.7822 89.8462ZM83.328 90.112H84.032V86.112H83.328V90.112ZM84.032 90.112C84.2059 90.112 83.8728 90.1586 83.5331 89.8005C83.1726 89.4206 83.2375 89.0477 83.2264 89.1559L87.2056 89.5641C87.2798 88.8403 87.1901 87.8434 86.4349 87.0475C85.7006 86.2734 84.7328 86.112 84.032 86.112V90.112ZM83.2239 89.1825C83.0632 90.9859 82.4743 92.5401 81.4671 93.8946L84.6769 96.2814C86.1444 94.3079 86.9848 92.0434 87.2081 89.5375L83.2239 89.1825ZM81.4645 93.898C80.4543 95.2627 79.0742 96.4161 77.2668 97.3386L79.0852 100.901C81.3738 99.7332 83.2577 98.1986 84.6795 96.278L81.4645 93.898ZM77.2521 97.3462C75.4187 98.3011 73.2671 99.0006 70.7726 99.4196L71.4354 103.364C74.2742 102.887 76.8373 102.072 79.0999 100.894L77.2521 97.3462ZM70.7921 99.4165C70.6847 99.4334 70.9852 99.359 71.346 99.6275C71.7085 99.8973 71.7244 100.21 71.7109 100.107L67.7451 100.629C67.8383 101.337 68.1368 102.225 68.958 102.836C69.7775 103.446 70.7126 103.479 71.4159 103.368L70.7921 99.4165ZM71.7097 100.098L71.6137 99.3938L67.6503 99.9342L67.7463 100.638L71.7097 100.098ZM71.614 99.3962C71.6028 99.3131 71.6592 99.5904 71.4125 99.922C71.1668 100.252 70.888 100.277 70.9761 100.262L70.3359 96.3138C69.6347 96.4275 68.7905 96.7452 68.2035 97.534C67.6154 98.3242 67.5546 99.2256 67.65 99.9318L71.614 99.3962ZM70.9734 100.263C74.751 99.6555 77.8757 98.4985 80.1484 96.6344L77.6116 93.5416C76.087 94.7922 73.729 95.7685 70.3386 96.3133L70.9734 100.263ZM80.1399 96.6413C82.4475 94.7696 83.7852 92.369 83.9487 89.5061L79.9553 89.2779C79.8629 90.895 79.1525 92.2917 77.6201 93.5347L80.1399 96.6413ZM96.768 92.096C96.8782 92.096 96.5911 92.1232 96.2848 91.8249C95.9686 91.5171 95.984 91.2074 95.984 91.28H99.984C99.984 90.5633 99.7968 89.6616 99.0752 88.9591C98.3636 88.2661 97.4684 88.096 96.768 88.096V92.096ZM95.984 91.28V91.984H99.984V91.28H95.984ZM95.984 91.984C95.984 92.0566 95.9686 91.7469 96.2848 91.4391C96.5911 91.1408 96.8782 91.168 96.768 91.168V95.168C97.4684 95.168 98.3636 94.9979 99.0752 94.3049C99.7968 93.6024 99.984 92.7007 99.984 91.984H95.984ZM96.768 91.168H71.232V95.168H96.768V91.168ZM71.232 91.168C71.1218 91.168 71.4089 91.1408 71.7152 91.4391C72.0314 91.7469 72.016 92.0566 72.016 91.984H68.016C68.016 92.7007 68.2032 93.6024 68.9248 94.3049C69.6364 94.9979 70.5316 95.168 71.232 95.168V91.168ZM72.016 91.984V91.28H68.016V91.984H72.016ZM72.016 91.28C72.016 91.2074 72.0314 91.5171 71.7152 91.8249C71.4089 92.1232 71.1218 92.096 71.232 92.096V88.096C70.5316 88.096 69.6364 88.2661 68.9248 88.9591C68.2032 89.6616 68.016 90.5633 68.016 91.28H72.016ZM71.232 92.096H96.768V88.096H71.232V92.096ZM85.8485 93.2734C85.8805 93.2627 85.8436 93.28 85.752 93.28C85.6522 93.28 85.5151 93.259 85.3699 93.1919L87.0461 89.5601C86.1729 89.157 85.2893 89.2434 84.5835 89.4786L85.8485 93.2734ZM85.49 93.2427C85.3062 93.172 85.1981 93.0757 85.156 93.0318C85.1182 92.9924 85.1306 92.9927 85.1742 93.0755L88.7138 91.2125C88.392 90.601 87.8454 89.8629 86.926 89.5093L85.49 93.2427ZM85.1455 93.0189C86.1108 95.0031 87.678 96.5951 89.72 97.8252L91.784 94.3988C90.2847 93.4956 89.3132 92.4422 88.7425 91.2691L85.1455 93.0189ZM89.7443 97.8396C91.7991 99.0382 94.2358 99.8295 97.0018 100.264L97.6222 96.3122C95.2255 95.9359 93.2889 95.2765 91.7597 94.3844L89.7443 97.8396ZM97.0001 100.264C97.1119 100.281 96.8437 100.267 96.5974 99.9456C96.3422 99.6131 96.3955 99.3257 96.386 99.3962L100.35 99.9318C100.447 99.2129 100.378 98.3016 99.7706 97.5104C99.1723 96.7307 98.3228 96.4228 97.6239 96.3125L97.0001 100.264ZM96.3863 99.3938L96.2903 100.098L100.254 100.638L100.35 99.9342L96.3863 99.3938ZM96.283 100.159C96.2794 100.193 96.2805 100.132 96.334 100.02C96.3932 99.8974 96.5033 99.7428 96.6797 99.6145L99.0323 102.849C99.8864 102.228 100.184 101.311 100.261 100.577L96.283 100.159ZM96.6797 99.6145C97.0253 99.3632 97.3087 99.4324 97.2079 99.4165L96.5841 103.368C97.2939 103.48 98.2174 103.442 99.0323 102.849L96.6797 99.6145ZM97.2248 99.4192C94.1026 98.8988 91.5691 97.9642 89.5639 96.6712L87.3961 100.033C89.9562 101.684 93.0334 102.776 96.5672 103.365L97.2248 99.4192ZM89.5599 96.6686C87.5573 95.3839 86.3111 93.9424 85.6483 92.3849L81.9677 93.9511C83.0116 96.4043 84.88 98.4187 87.4001 100.035L89.5599 96.6686ZM85.6356 92.3557C85.5865 92.2452 85.7593 92.5586 85.5525 93.0192C85.3509 93.4683 85.0185 93.5405 85.1594 93.4923L83.8646 89.7077C83.1949 89.9368 82.3398 90.409 81.9035 91.3808C81.462 92.3641 81.6882 93.3228 81.9804 93.9803L85.6356 92.3557ZM85.1184 93.5059L85.8224 93.2818L84.6096 89.4701L83.9056 89.6941L85.1184 93.5059Z" fill="#FBFCF5" mask="url(#path-3-outside-1_19525_16115)"/>
</svg>
