<svg width="67" height="58" viewBox="0 0 67 58" fill="none" xmlns="http://www.w3.org/2000/svg">
<g opacity="0.3">
<g clip-path="url(#clip0_14476_10690)">
<path opacity="0.5" d="M41.1599 30.773L41.0904 30.4306L39.8052 24.0945L38.6182 30.3968L38.5516 30.7507L38.1973 30.8153C36.464 31.1315 34.8012 31.9633 33.4633 33.3202L33.4626 33.3209C29.9633 36.8569 29.9632 42.5908 33.4624 46.1272L41.1599 30.773ZM41.1599 30.773L41.5027 30.8405M41.1599 30.773L41.5027 30.8405M41.5027 30.8405C43.1899 31.1729 44.8038 32.0001 46.1195 33.3216C49.6177 36.8577 49.6176 42.5911 46.119 46.1272M41.5027 30.8405L46.119 46.1272M46.119 46.1272C42.6231 49.6566 36.9587 49.6567 33.4626 46.1274L46.119 46.1272ZM15.8542 15.53L15.8543 15.5299C22.2475 9.06837 30.7457 5.51179 39.7861 5.51179C48.8266 5.51179 57.3245 9.06829 63.7184 15.5299C70.1123 21.9915 73.6371 30.5824 73.6371 39.7237C73.6371 48.8612 70.112 57.4564 63.7225 63.9184C57.3244 70.3846 48.8265 73.9404 39.7861 73.9404C30.746 73.9404 22.2522 70.3797 15.8541 63.9183C9.45606 57.4565 5.93513 48.8613 5.93513 39.7237C5.93513 30.5824 9.46023 21.9915 15.8542 15.53ZM60.8017 61.7124L61.174 62.0888L61.5465 61.7127C65.4342 57.7877 68.1492 53.0011 69.528 47.775L69.6609 47.2716L69.1583 47.1356L51.2264 42.281C51.5928 40.5992 51.5928 38.8535 51.2264 37.171L69.1583 32.317L69.6613 32.1808L69.5279 31.6771C68.1449 26.4517 65.4347 21.6648 61.5462 17.7395L61.1737 17.3635L60.8014 17.7398L47.6949 30.9906C46.3999 29.7933 44.9023 28.9441 43.3227 28.4393L48.1271 10.3165L48.2609 9.81165L47.7565 9.67615C45.1881 8.98614 42.5137 8.62742 39.7864 8.62742C37.0593 8.62742 34.3849 8.98606 31.8166 9.67615L31.3122 9.81167L31.446 10.3165L36.2501 28.4384C34.67 28.9412 33.1727 29.7927 31.8784 30.9866L18.7664 17.7358L18.3939 17.3593L18.0214 17.7358C14.0619 21.7379 11.4096 26.5696 10.0618 31.682L9.92916 32.1853L10.4316 32.3214L28.3415 37.1711C27.9752 38.8506 27.9755 40.5963 28.3419 42.2811L10.4317 47.1269L9.92913 47.2628L10.0618 47.7662C11.4096 52.8786 14.0619 57.7152 18.0263 61.7129L18.3988 62.0885L18.7708 61.7125L31.8822 48.4619C33.1733 49.6556 34.6702 50.5071 36.2498 51.0097L31.4457 69.1317L31.3119 69.6366L31.8163 69.772C34.3846 70.4619 37.0589 70.8208 39.7861 70.8208C42.5134 70.8208 45.1879 70.4619 47.7562 69.772L48.2606 69.6366L48.1268 69.1317L43.3226 51.0097C44.9028 50.5069 46.3999 49.6552 47.6941 48.4614L60.8017 61.7124Z" fill="#2D9438" stroke="#8ED396" stroke-width="1.048"/>
</g>
</g>
<defs>
<clipPath id="clip0_14476_10690">
<rect x="0.5" width="66" height="58" rx="16" fill="white"/>
</clipPath>
</defs>
</svg>
