<svg width="24" height="24" viewBox="0 0 24 24" fill="none" xmlns="http://www.w3.org/2000/svg">
<path d="M10 18.3759V14H6L6.77381 18.6429C6.90433 19.426 7.58191 20 8.37586 20C9.27285 20 10 19.2728 10 18.3759Z" fill="#2935CC"/>
<path opacity="0.25" d="M3 11.0008C3 9.3439 4.34315 8.00075 6 8.00075H9L11 8.00114L17.2376 4.35181C18.9042 3.37674 21 4.57873 21 6.50964V15.4984C21 17.4301 18.9026 18.632 17.236 17.6553L11 14.0008H9H6C4.34315 14.0008 3 12.6576 3 11.0008Z" fill="#2935CC"/>
<path opacity="0.25" d="M18 10.7778C18 9.79594 18.7959 9 19.7778 9H20C21.1046 9 22 9.89543 22 11C22 12.1046 21.1046 13 20 13H19.7778C18.7959 13 18 12.2041 18 11.2222V10.7778Z" fill="#2935CC"/>
<path d="M11 8.00114L17.2376 4.35181C18.9042 3.37674 21 4.57873 21 6.50964V15.4984C21 17.4301 18.9026 18.632 17.236 17.6553L11 14.0008V8.00114Z" fill="#2935CC"/>
</svg>
