<svg width="36" height="36" viewBox="0 0 36 36" fill="none" xmlns="http://www.w3.org/2000/svg">
<g clip-path="url(#clip0_12734_3517)">
<path d="M35.4607 22.3567C33.0581 31.9986 23.2895 37.867 13.6447 35.4607C3.99997 33.0545 -1.86569 23.2907 0.54073 13.648C2.94715 4.00518 12.7109 -1.86588 22.3535 0.540716C31.9961 2.94732 37.8672 12.7116 35.4607 22.3567Z" fill="#3DE98F"/>
<path d="M3 19.4272C3.33682 18.6091 4.23275 16.9729 5.12195 16.9729C6.23345 16.9729 8.3554 20.1941 9.26481 20.8077C10.1742 21.4213 13.5854 17.5865 15 16.9729C16.4146 16.3594 17.676 21.902 20 22C23.6376 22.1534 24.2195 19.612 25.4321 16.3908C26.6446 13.1696 30.6916 10.6534 31.5 10.5" stroke="black" stroke-width="2" stroke-linecap="round"/>
</g>
<defs>
<clipPath id="clip0_12734_3517">
<rect width="36" height="36" fill="white"/>
</clipPath>
</defs>
</svg>
