<svg width="24" height="24" viewBox="0 0 24 24" fill="none" xmlns="http://www.w3.org/2000/svg">
<path d="M20 11.9914C20 11.4126 19.65 10.8913 19.1143 10.6721L14.7432 8.88395C13.8055 8.50034 12.7782 9.19003 12.7782 10.2032V19.1288C12.7782 19.916 13.4163 20.5541 14.2035 20.5541H18.5747C19.3619 20.5541 20 19.916 20 19.1288V11.9914Z" fill="#0CD2F2"/>
<path d="M4 8.56792C4 7.722 4.53064 6.96699 5.32655 6.68047L12.8646 3.96679C14.1718 3.49617 15.5501 4.46485 15.5501 5.85424V18.5501C15.5501 19.658 14.6519 20.5561 13.544 20.5561H6.00603C4.89813 20.5561 4 19.658 4 18.5501V8.56792Z" fill="#415EFF"/>
<path d="M12.7783 10.2021C12.7785 9.18925 13.8056 8.49941 14.7432 8.88281L15.5498 9.21289V18.5498C15.5498 19.5339 14.8411 20.3508 13.9062 20.5215C13.2618 20.3847 12.7783 19.8131 12.7783 19.1279V10.2021Z" fill="#2935CC"/>
<rect x="6.77148" y="9.00391" width="6.00603" height="1.38601" rx="0.693004" fill="white"/>
<rect x="6.77148" y="12.7012" width="6.00603" height="1.38601" rx="0.693004" fill="white"/>
<rect x="6.77148" y="16.3965" width="6.00603" height="1.38601" rx="0.693004" fill="white"/>
</svg>
