<svg width="36" height="36" viewBox="0 0 36 36" fill="none" xmlns="http://www.w3.org/2000/svg">
<path d="M0 18C0 8.05888 8.05888 0 18 0C27.9411 0 36 8.05888 36 18C36 27.9411 27.9411 36 18 36C8.05888 36 0 27.9411 0 18Z" fill="white"/>
<path fill-rule="evenodd" clip-rule="evenodd" d="M15.2989 12.168H20.7011C21.3719 12.168 21.9255 12.1679 22.3765 12.2048C22.8449 12.2431 23.2755 12.3252 23.68 12.5313C24.3072 12.8509 24.8171 13.3608 25.1367 13.988C25.3428 14.3924 25.4249 14.823 25.4632 15.2914C25.5 15.7424 25.5 16.2961 25.5 16.9669V20.7024C25.5 21.3732 25.5 21.9268 25.4632 22.3778C25.4249 22.8462 25.3428 23.2768 25.1367 23.6813C24.8171 24.3085 24.3072 24.8184 23.68 25.138C23.2755 25.3441 22.8449 25.4262 22.3765 25.4645C21.9255 25.5013 21.3719 25.5013 20.7011 25.5013H15.2989C14.6281 25.5013 14.0745 25.5013 13.6235 25.4645C13.1551 25.4262 12.7245 25.3441 12.32 25.138C11.6928 24.8184 11.1829 24.3085 10.8633 23.6813C10.6572 23.2768 10.5751 22.8462 10.5368 22.3778C10.5 21.9268 10.5 21.3732 10.5 20.7024V16.9669C10.5 16.2961 10.5 15.7424 10.5368 15.2914C10.5751 14.823 10.6572 14.3924 10.8633 13.988C11.1829 13.3608 11.6928 12.8509 12.32 12.5313C12.7245 12.3252 13.1551 12.2431 13.6235 12.2048C14.0745 12.1679 14.6281 12.168 15.2989 12.168ZM13.7592 13.8659C13.3939 13.8958 13.207 13.9499 13.0767 14.0163C12.7631 14.1761 12.5081 14.431 12.3483 14.7447C12.2819 14.875 12.2278 15.0618 12.198 15.4272C12.1673 15.8022 12.1667 16.2875 12.1667 17.0013V20.668C12.1667 21.3818 12.1673 21.867 12.198 22.2421C12.2278 22.6075 12.2819 22.7943 12.3483 22.9246C12.5081 23.2382 12.7631 23.4932 13.0767 23.653C13.207 23.7194 13.3939 23.7735 13.7592 23.8033C14.1343 23.834 14.6195 23.8346 15.3333 23.8346H20.6667C21.3805 23.8346 21.8657 23.834 22.2408 23.8033C22.6061 23.7735 22.793 23.7194 22.9233 23.653C23.2369 23.4932 23.4919 23.2382 23.6517 22.9246C23.7181 22.7943 23.7722 22.6075 23.802 22.2421C23.8327 21.867 23.8333 21.3818 23.8333 20.668V17.0013C23.8333 16.2875 23.8327 15.8022 23.802 15.4272C23.7722 15.0618 23.7181 14.875 23.6517 14.7447C23.4919 14.431 23.2369 14.1761 22.9233 14.0163C22.793 13.9499 22.6061 13.8958 22.2408 13.8659C21.8657 13.8353 21.3805 13.8346 20.6667 13.8346H15.3333C14.6195 13.8346 14.1343 13.8353 13.7592 13.8659Z" fill="black"/>
<path fill-rule="evenodd" clip-rule="evenodd" d="M21.0896 16.5761C21.415 16.9015 21.415 17.4292 21.0896 17.7546L17.7562 21.088C17.4308 21.4134 16.9032 21.4134 16.5777 21.088L14.9111 19.4213C14.5856 19.0958 14.5856 18.5682 14.9111 18.2428C15.2365 17.9173 15.7641 17.9173 16.0896 18.2428L17.167 19.3202L19.9111 16.5761C20.2365 16.2507 20.7641 16.2507 21.0896 16.5761Z" fill="black"/>
<path d="M15.5007 11.3333C15.5007 10.8731 15.1276 10.5 14.6673 10.5C14.2071 10.5 13.834 10.8731 13.834 11.3333V13C13.834 13.4602 14.2071 13.8333 14.6673 13.8333C15.1276 13.8333 15.5007 13.4602 15.5007 13V11.3333Z" fill="black"/>
<path d="M22.1673 11.3333C22.1673 10.8731 21.7942 10.5 21.334 10.5C20.8737 10.5 20.5007 10.8731 20.5007 11.3333V13C20.5007 13.4602 20.8737 13.8333 21.334 13.8333C21.7942 13.8333 22.1673 13.4602 22.1673 13V11.3333Z" fill="black"/>
</svg>
