<svg width="40" height="40" viewBox="0 0 40 40" fill="none" xmlns="http://www.w3.org/2000/svg">
<path d="M0 20C0 8.95431 8.95431 0 20 0C31.0457 0 40 8.95431 40 20C40 31.0457 31.0457 40 20 40C8.95431 40 0 31.0457 0 20Z" fill="white" fill-opacity="0.25"/>
<path fill-rule="evenodd" clip-rule="evenodd" d="M17.2989 14.168H22.7011C23.3719 14.168 23.9255 14.1679 24.3765 14.2048C24.8449 14.2431 25.2755 14.3252 25.68 14.5313C26.3072 14.8509 26.8171 15.3608 27.1367 15.988C27.3428 16.3924 27.4249 16.823 27.4632 17.2914C27.5 17.7424 27.5 18.2961 27.5 18.9669V22.7024C27.5 23.3732 27.5 23.9268 27.4632 24.3778C27.4249 24.8462 27.3428 25.2768 27.1367 25.6813C26.8171 26.3085 26.3072 26.8184 25.68 27.138C25.2755 27.3441 24.8449 27.4262 24.3765 27.4645C23.9255 27.5013 23.3719 27.5013 22.7011 27.5013H17.2989C16.6281 27.5013 16.0745 27.5013 15.6235 27.4645C15.1551 27.4262 14.7245 27.3441 14.32 27.138C13.6928 26.8184 13.1829 26.3085 12.8633 25.6813C12.6572 25.2768 12.5751 24.8462 12.5368 24.3778C12.5 23.9268 12.5 23.3732 12.5 22.7024V18.9669C12.5 18.2961 12.5 17.7424 12.5368 17.2914C12.5751 16.823 12.6572 16.3924 12.8633 15.988C13.1829 15.3608 13.6928 14.8509 14.32 14.5313C14.7245 14.3252 15.1551 14.2431 15.6235 14.2048C16.0745 14.1679 16.6281 14.168 17.2989 14.168ZM15.7592 15.8659C15.3939 15.8958 15.207 15.9499 15.0767 16.0163C14.7631 16.1761 14.5081 16.431 14.3483 16.7447C14.2819 16.875 14.2278 17.0618 14.198 17.4272C14.1673 17.8022 14.1667 18.2875 14.1667 19.0013V22.668C14.1667 23.3818 14.1673 23.867 14.198 24.2421C14.2278 24.6075 14.2819 24.7943 14.3483 24.9246C14.5081 25.2382 14.7631 25.4932 15.0767 25.653C15.207 25.7194 15.3939 25.7735 15.7592 25.8033C16.1343 25.834 16.6195 25.8346 17.3333 25.8346H22.6667C23.3805 25.8346 23.8657 25.834 24.2408 25.8033C24.6061 25.7735 24.793 25.7194 24.9233 25.653C25.2369 25.4932 25.4919 25.2382 25.6517 24.9246C25.7181 24.7943 25.7722 24.6075 25.802 24.2421C25.8327 23.867 25.8333 23.3818 25.8333 22.668V19.0013C25.8333 18.2875 25.8327 17.8022 25.802 17.4272C25.7722 17.0618 25.7181 16.875 25.6517 16.7447C25.4919 16.431 25.2369 16.1761 24.9233 16.0163C24.793 15.9499 24.6061 15.8958 24.2408 15.8659C23.8657 15.8353 23.3805 15.8346 22.6667 15.8346H17.3333C16.6195 15.8346 16.1343 15.8353 15.7592 15.8659Z" fill="#010101"/>
<path fill-rule="evenodd" clip-rule="evenodd" d="M23.0896 18.5761C23.415 18.9015 23.415 19.4292 23.0896 19.7546L19.7562 23.088C19.4308 23.4134 18.9032 23.4134 18.5777 23.088L16.9111 21.4213C16.5856 21.0958 16.5856 20.5682 16.9111 20.2428C17.2365 19.9173 17.7641 19.9173 18.0896 20.2428L19.167 21.3202L21.9111 18.5761C22.2365 18.2507 22.7641 18.2507 23.0896 18.5761Z" fill="#010101"/>
<path d="M17.5007 13.3333C17.5007 12.8731 17.1276 12.5 16.6673 12.5C16.2071 12.5 15.834 12.8731 15.834 13.3333V15C15.834 15.4602 16.2071 15.8333 16.6673 15.8333C17.1276 15.8333 17.5007 15.4602 17.5007 15V13.3333Z" fill="#010101"/>
<path d="M24.1673 13.3333C24.1673 12.8731 23.7942 12.5 23.334 12.5C22.8737 12.5 22.5007 12.8731 22.5007 13.3333V15C22.5007 15.4602 22.8737 15.8333 23.334 15.8333C23.7942 15.8333 24.1673 15.4602 24.1673 15V13.3333Z" fill="#010101"/>
</svg>
