<svg width="16" height="16" viewBox="0 0 16 16" fill="none" xmlns="http://www.w3.org/2000/svg">
<path opacity="0.25" d="M8.00065 1.33203C4.31875 1.33203 1.33398 4.3168 1.33398 7.9987C1.33398 11.6806 4.31875 14.6654 8.00065 14.6654C11.6825 14.6654 14.6673 11.6806 14.6673 7.9987C14.6673 4.3168 11.6825 1.33203 8.00065 1.33203Z" fill="white"/>
<path fill-rule="evenodd" clip-rule="evenodd" d="M6.86225 5.52925C7.1226 5.2689 7.54471 5.2689 7.80506 5.52925L9.80506 7.52925C10.0654 7.7896 10.0654 8.21171 9.80506 8.47206L7.80506 10.4721C7.54471 10.7324 7.1226 10.7324 6.86225 10.4721C6.6019 10.2117 6.6019 9.7896 6.86225 9.52925L8.39085 8.00065L6.86225 6.47206C6.6019 6.21171 6.6019 5.7896 6.86225 5.52925Z" fill="white"/>
</svg>
