<svg width="20" height="20" viewBox="0 0 20 20" fill="none" xmlns="http://www.w3.org/2000/svg">
<path fill-rule="evenodd" clip-rule="evenodd" d="M2.52064 9.54196C2.29658 7.56499 3.84313 5.83325 5.83277 5.83325H14.1674C16.1571 5.83325 17.7036 7.56499 17.4796 9.54196L16.9129 14.542C16.7219 16.2269 15.2965 17.4999 13.6008 17.4999H6.39943C4.70373 17.4999 3.27826 16.2269 3.0873 14.542L2.52064 9.54196ZM5.83277 7.49992C4.83795 7.49992 4.06467 8.36579 4.1767 9.35427L4.74337 14.3543C4.83885 15.1967 5.55158 15.8333 6.39943 15.8333H13.6008C14.4486 15.8333 15.1613 15.1967 15.2568 14.3543L15.8235 9.35427C15.9355 8.36579 15.1622 7.49992 14.1674 7.49992H5.83277Z" fill="white"/>
<path fill-rule="evenodd" clip-rule="evenodd" d="M6.66699 5.83333C6.66699 3.99238 8.15938 2.5 10.0003 2.5C11.8413 2.5 13.3337 3.99238 13.3337 5.83333V8.33333C13.3337 8.79357 12.9606 9.16667 12.5003 9.16667C12.0401 9.16667 11.667 8.79357 11.667 8.33333V5.83333C11.667 4.91286 10.9208 4.16667 10.0003 4.16667C9.07985 4.16667 8.33366 4.91286 8.33366 5.83333V8.33333C8.33366 8.79357 7.96056 9.16667 7.50033 9.16667C7.04009 9.16667 6.66699 8.79357 6.66699 8.33333V5.83333Z" fill="white"/>
</svg>
