<svg width="40" height="40" viewBox="0 0 40 40" fill="none" xmlns="http://www.w3.org/2000/svg">
<rect width="40" height="40" rx="20" fill="white" fill-opacity="0.25"/>
<path fill-rule="evenodd" clip-rule="evenodd" d="M19.1663 25.8327C19.1663 26.7532 18.4201 27.4993 17.4997 27.4993C16.5792 27.4993 15.833 26.7532 15.833 25.8327C15.833 24.9122 16.5792 24.166 17.4997 24.166C18.4201 24.166 19.1663 24.9122 19.1663 25.8327ZM25.833 25.8327C25.833 26.7532 25.0868 27.4993 24.1663 27.4993C23.2459 27.4993 22.4997 26.7532 22.4997 25.8327C22.4997 24.9122 23.2459 24.166 24.1663 24.166C25.0868 24.166 25.833 24.9122 25.833 25.8327Z" fill="#010101"/>
<path fill-rule="evenodd" clip-rule="evenodd" d="M12.5 13.3333C12.5 12.8731 12.8731 12.5 13.3333 12.5H13.6337C14.8254 12.5 15.8514 13.3412 16.0851 14.5097L16.1832 15H25.4141C26.7959 15 27.7948 16.3207 27.4187 17.6504L26.5617 20.6804C26.2572 21.7569 25.2747 22.5 24.156 22.5H18.033C16.8413 22.5 15.8153 21.6589 15.5816 20.4903L14.4508 14.8366C14.3729 14.4471 14.0309 14.1667 13.6337 14.1667H13.3333C12.8731 14.1667 12.5 13.7936 12.5 13.3333ZM16.5165 16.6667L17.2159 20.1634C17.2938 20.553 17.6358 20.8333 18.033 20.8333H24.156C24.5289 20.8333 24.8564 20.5856 24.9579 20.2268L25.815 17.1967C25.8902 16.9308 25.6904 16.6667 25.4141 16.6667H16.5165Z" fill="#010101"/>
</svg>
