<svg width="61" height="60" viewBox="0 0 61 60" fill="none" xmlns="http://www.w3.org/2000/svg">
<path d="M30.6435 4.15869C16.2323 4.15869 4.50977 15.8812 4.50977 30.2924C4.50977 44.7037 16.2323 56.4262 30.6435 56.4262C45.0548 56.4262 56.7773 44.7037 56.7773 30.2924C56.7773 15.8812 45.0548 4.15869 30.6435 4.15869ZM30.6435 52.6762C18.3023 52.6762 8.25977 42.6337 8.25977 30.2924C8.25977 17.9512 18.3023 7.90869 30.6435 7.90869C42.9848 7.90869 53.0273 17.9512 53.0273 30.2924C53.0273 42.6337 42.9848 52.6762 30.6435 52.6762Z" fill="white" fill-opacity="0.8"/>
<path d="M23.4424 37.725C23.4424 39.7875 24.9049 40.6312 26.6899 39.6L39.5561 32.1712C41.3449 31.14 41.3449 29.4525 39.5561 28.4212L26.6899 20.9887C24.9011 19.9575 23.4424 20.8012 23.4424 22.8637V37.725Z" fill="white" fill-opacity="0.8"/>
</svg>
