<svg width="24" height="24" viewBox="0 0 24 24" fill="none" xmlns="http://www.w3.org/2000/svg">
<path d="M16.3924 14.6984C16.2102 14.3828 15.8067 14.2747 15.4911 14.4569L13.1557 15.8052C12.8401 15.9874 12.732 16.3909 12.9142 16.7065L14.6509 19.7145C14.7892 19.9541 15.1432 19.9273 15.2439 19.6696L15.7378 18.4053C15.8501 18.1178 16.1467 17.9466 16.4517 17.9931L17.7937 18.1975C18.0672 18.2391 18.2674 17.9459 18.1291 17.7064L16.3924 14.6984Z" fill="#0CD2F2"/>
<path d="M8.06657 14.6984C8.24878 14.3828 8.65232 14.2747 8.96791 14.4569L11.3033 15.8052C11.6189 15.9874 11.727 16.3909 11.5448 16.7065L9.80813 19.7145C9.66982 19.9541 9.3158 19.9273 9.21513 19.6696L8.72116 18.4053C8.60886 18.1178 8.31232 17.9466 8.00723 17.9931L6.6653 18.1975C6.39182 18.2391 6.1916 17.9459 6.32992 17.7064L8.06657 14.6984Z" fill="#0CD2F2"/>
<path d="M12.4261 4C15.9751 4 18.8522 6.94656 18.8522 10.5813C18.8522 14.2161 15.9751 17.1627 12.4261 17.1627C8.87705 17.1627 6 14.2161 6 10.5813C6 6.94656 8.87705 4 12.4261 4ZM13.1539 7.81843C12.8134 7.27555 12.0387 7.27555 11.6982 7.81843L11.3022 8.44989C11.185 8.63666 11.0037 8.77159 10.7941 8.82798L10.0853 9.01857C9.476 9.18243 9.23653 9.9371 9.63543 10.4365L10.0994 11.0174C10.2367 11.1892 10.3059 11.4076 10.2935 11.6292L10.2515 12.3784C10.2154 13.0226 10.8422 13.489 11.4292 13.2548L12.1121 12.9822C12.314 12.9017 12.5381 12.9017 12.7401 12.9822L13.4229 13.2548C14.0099 13.489 14.6368 13.0226 14.6006 12.3784L14.5586 11.6292C14.5462 11.4076 14.6154 11.1892 14.7527 11.0174L15.2167 10.4365C15.6156 9.9371 15.3762 9.18243 14.7668 9.01857L14.0581 8.82798C13.8484 8.77159 13.6671 8.63666 13.55 8.44989L13.1539 7.81843Z" fill="#415EFF"/>
<path d="M15.4902 14.4556C15.8057 14.2736 16.2092 14.3818 16.3914 14.6972L16.7983 15.4022C15.8182 16.3349 14.5538 16.9578 13.1525 17.1194L12.9134 16.7054C12.7313 16.3898 12.8392 15.9861 13.1548 15.8039L15.4902 14.4556ZM8.06499 14.6972C8.24723 14.3818 8.65093 14.2735 8.96644 14.4556L11.3019 15.8039C11.6174 15.9861 11.7253 16.3898 11.5432 16.7054L11.3344 17.0669C9.95834 16.8258 8.73187 16.1367 7.80273 15.1512L8.06499 14.6972Z" fill="#2935CC"/>
</svg>
