<svg width="24" height="24" viewBox="0 0 24 24" fill="none" xmlns="http://www.w3.org/2000/svg">
<path fill-rule="evenodd" clip-rule="evenodd" d="M11.9966 1.96289C17.2588 1.96289 21.5751 6.01207 22 11.1646L17.6014 11.1641L14.357 2.242C13.7507 2.09589 13.123 2.00481 12.4795 1.97433L15.8212 11.1641H8.17203L11.5137 1.97433C10.8702 2.00481 10.2425 2.09589 9.63631 2.24199L6.39191 11.1641H1.99334C1.97059 11.4399 1.95899 11.7189 1.95898 12.0005C1.95898 6.45689 6.45299 1.96289 11.9966 1.96289ZM9.63636 21.7591C5.49387 20.7608 2.35274 17.1933 1.99334 12.837H6.39197L9.63636 21.7591ZM11.5138 22.0268C11.6738 22.0343 11.8348 22.0382 11.9966 22.0382C12.1585 22.0382 12.3195 22.0343 12.4795 22.0268L12.8331 21.0544V12.837H8.17209L11.5138 22.0268Z" fill="white"/>
<path fill-rule="evenodd" clip-rule="evenodd" d="M20.5095 14.5352L21.1772 15.2028L18.9279 17.452L21.9367 20.4608L20.458 21.9395L17.4492 18.9307L15.1686 21.2114L14.501 20.5438V14.5352H20.5095Z" fill="white"/>
</svg>
