<svg width="16" height="16" viewBox="0 0 16 16" fill="none" xmlns="http://www.w3.org/2000/svg">
<path d="M8.26074 1.33789C8.33799 1.32959 8.41558 1.33337 8.49023 1.35156C11.9428 1.60284 14.6657 4.48249 14.666 7.99902C14.666 11.5171 11.9409 14.3971 8.48633 14.6465C8.4121 14.6641 8.3355 14.6677 8.25879 14.6592C8.17274 14.6625 8.08588 14.666 7.99902 14.666C7.91201 14.666 7.82547 14.6625 7.73926 14.6592C7.66223 14.6677 7.58525 14.6644 7.51074 14.6465C4.05716 14.396 1.33203 11.5164 1.33203 7.99902C1.33236 4.4832 4.05528 1.60385 7.50684 1.35156C7.58145 1.33322 7.65908 1.32975 7.73633 1.33789C7.82348 1.3345 7.91105 1.33204 7.99902 1.33203C8.08651 1.33203 8.17407 1.33455 8.26074 1.33789ZM6.9541 10.665C7.1847 11.5588 7.5326 12.4292 7.99902 13.2529C8.46548 12.4292 8.81333 11.5588 9.04395 10.665H6.9541ZM3.38086 10.665C4.04575 11.8143 5.12562 12.6931 6.41699 13.0938C6.04906 12.3096 5.77106 11.4952 5.58203 10.665H3.38086ZM10.416 10.665C10.227 11.4952 9.94901 12.3095 9.58105 13.0938C10.8723 12.693 11.9523 11.8141 12.6172 10.665H10.416ZM2.83301 6.66504C2.72333 7.09105 2.66511 7.53782 2.66504 7.99805C2.66504 8.45844 2.72332 8.90585 2.83301 9.33203H5.35645C5.25752 8.4458 5.25742 7.55126 5.35645 6.66504H2.83301ZM10.6416 6.66504C10.7406 7.55129 10.7405 8.44577 10.6416 9.33203H13.165C13.2747 8.90585 13.332 8.45844 13.332 7.99805C13.332 7.53774 13.2738 7.09111 13.1641 6.66504H10.6416ZM6.69922 6.66504C6.58771 7.55052 6.58783 8.44654 6.69922 9.33203H9.29883C9.41022 8.44651 9.41035 7.55055 9.29883 6.66504H6.69922ZM6.41797 2.90332C5.12622 3.30364 4.04596 4.18279 3.38086 5.33203H5.58301C5.77216 4.5019 6.0499 3.68748 6.41797 2.90332ZM9.58008 2.90332C9.9482 3.68757 10.2269 4.5018 10.416 5.33203H12.6172C11.952 4.18291 10.8717 3.30373 9.58008 2.90332ZM7.99902 2.74512C7.53274 3.56852 7.18474 4.43864 6.9541 5.33203H9.04395C8.81329 4.43861 8.46534 3.56854 7.99902 2.74512Z" fill="white"/>
</svg>
