<svg width="16" height="16" viewBox="0 0 16 16" fill="none" xmlns="http://www.w3.org/2000/svg">
<path fill-rule="evenodd" clip-rule="evenodd" d="M1.33301 7.99967C1.33301 4.47914 4.06189 1.59597 7.5198 1.35001C7.59282 1.33347 7.66862 1.32915 7.74388 1.33782C7.82875 1.33462 7.91402 1.33301 7.99967 1.33301C8.08557 1.33301 8.17109 1.33463 8.2562 1.33785C8.33168 1.32912 8.40772 1.33347 8.48096 1.35011C11.9382 1.59675 14.6663 4.47962 14.6663 7.99967C14.6663 11.5175 11.9417 14.3989 8.48762 14.6488C8.41015 14.6672 8.32942 14.6718 8.24942 14.6617C8.16655 14.6648 8.08329 14.6663 7.99967 14.6663C7.91631 14.6663 7.8333 14.6648 7.75067 14.6618C7.67089 14.6718 7.59038 14.6672 7.51311 14.6489C4.05837 14.3997 1.33301 11.5179 1.33301 7.99967ZM9.58393 13.094C10.8744 12.6932 11.9549 11.8155 12.6194 10.667H10.4187C10.2298 11.4965 9.9515 12.3104 9.58393 13.094ZM9.0467 10.667C8.81591 11.5613 8.46706 12.4323 8.00016 13.2565C7.53326 12.4323 7.1844 11.5613 6.95361 10.667H9.0467ZM10.6442 9.33366H13.1651C13.2748 8.90737 13.3332 8.46044 13.3332 7.99988C13.3332 7.53979 13.275 7.09331 13.1654 6.6674H10.6443C10.7432 7.5533 10.7431 8.44777 10.6442 9.33366ZM9.30163 6.6674C9.41296 7.55254 9.41293 8.44854 9.30155 9.33366H6.69877C6.58738 8.44854 6.58735 7.55254 6.69869 6.6674H9.30163ZM10.4188 5.33407H12.6202C11.9557 4.18482 10.8747 3.30655 9.58357 2.90561C9.95142 3.68967 10.2298 4.50408 10.4188 5.33407ZM8.00016 2.74394C8.46717 3.56828 8.81608 4.43957 9.04687 5.33407H6.95344C7.18424 4.43957 7.53314 3.56828 8.00016 2.74394ZM3.37956 5.33407C4.04419 4.18463 5.12543 3.30626 6.41684 2.90541C6.04894 3.68954 5.77049 4.50401 5.58147 5.33407H3.37956ZM2.83435 6.6674H5.35601C5.25714 7.5533 5.25716 8.44777 5.35609 9.33366H2.83469C2.72493 8.90737 2.66655 8.46044 2.66655 7.99988C2.66655 7.53979 2.72481 7.09331 2.83435 6.6674ZM3.38031 10.667H5.58162C5.77057 11.4966 6.04886 12.3106 6.41648 13.0942C5.12572 12.6935 4.04494 11.8157 3.38031 10.667Z" fill="#010101"/>
</svg>
