<svg width="16" height="16" viewBox="0 0 16 16" fill="none" xmlns="http://www.w3.org/2000/svg">
<path d="M8.26172 1.33789C8.33897 1.32958 8.41656 1.33337 8.49121 1.35156C11.9433 1.60328 14.6667 4.48281 14.667 7.99902C14.667 11.5168 11.9414 14.3966 8.4873 14.6465C8.41276 14.6642 8.33581 14.6678 8.25879 14.6592C8.1729 14.6625 8.08669 14.666 8 14.666C7.91313 14.666 7.8263 14.6625 7.74023 14.6592C7.66321 14.6677 7.58622 14.6644 7.51172 14.6465C4.0578 14.3965 1.33398 11.5167 1.33398 7.99902C1.33432 4.48291 4.05591 1.60342 7.50781 1.35156C7.58242 1.33321 7.66005 1.32975 7.7373 1.33789C7.82431 1.33452 7.91217 1.33203 8 1.33203C8.08765 1.33204 8.17489 1.33453 8.26172 1.33789ZM6.95508 10.665C7.18568 11.5588 7.53358 12.4292 8 13.2529C8.46646 12.4292 8.8143 11.5588 9.04492 10.665H6.95508ZM3.38184 10.665C4.04672 11.8142 5.12662 12.6931 6.41797 13.0938C6.05003 12.3096 5.77204 11.4952 5.58301 10.665H3.38184ZM10.417 10.665C10.2279 11.4952 9.94999 12.3095 9.58203 13.0938C10.8733 12.6931 11.9532 11.8141 12.6182 10.665H10.417ZM2.83496 6.66504C2.72525 7.09111 2.66706 7.53774 2.66699 7.99805C2.66699 8.45844 2.7243 8.90585 2.83398 9.33203H5.35742C5.2585 8.4458 5.25839 7.55126 5.35742 6.66504H2.83496ZM10.6426 6.66504C10.7416 7.5513 10.7415 8.44577 10.6426 9.33203H13.166C13.2757 8.90585 13.334 8.45844 13.334 7.99805C13.3339 7.53773 13.2748 7.09112 13.165 6.66504H10.6426ZM6.7002 6.66504C6.58869 7.55051 6.58881 8.44655 6.7002 9.33203H9.2998C9.4112 8.44651 9.41132 7.55055 9.2998 6.66504H6.7002ZM6.41895 2.90332C5.12722 3.30366 4.04694 4.18281 3.38184 5.33203H5.58398C5.77313 4.5019 6.05088 3.68748 6.41895 2.90332ZM9.58105 2.90332C9.94918 3.68757 10.2278 4.5018 10.417 5.33203H12.6182C11.953 4.18291 10.8727 3.30372 9.58105 2.90332ZM8 2.74512C7.53372 3.56852 7.18571 4.43864 6.95508 5.33203H9.04492C8.81427 4.43861 8.46632 3.56854 8 2.74512Z" fill="#2A877C"/>
</svg>
