<svg width="120" height="109" viewBox="0 0 120 109" fill="none" xmlns="http://www.w3.org/2000/svg">
<g opacity="0.3">
<g clip-path="url(#clip0_13365_9906)">
<path opacity="0.7" d="M39.7018 90.3388L39.7053 90.3516L40.2104 90.2121L64.1055 83.6137L70.7256 107.691C70.7257 107.691 70.7257 107.692 70.7257 107.692C72.0341 112.457 71.9098 117.502 70.3689 122.189C68.8281 126.875 65.9399 130.992 62.0703 134.02C58.2007 137.048 53.5232 138.85 48.6293 139.199C43.7353 139.548 38.8442 138.429 34.5746 135.981C30.3049 133.534 26.8486 129.869 24.6432 125.449C22.4378 121.029 21.5827 116.054 22.1859 111.152C22.7891 106.251 24.8234 101.643 28.0309 97.9131C31.1242 94.3157 35.1748 91.6895 39.7018 90.3388ZM79.881 105.163L73.2608 81.0856L97.1734 74.4823C101.902 73.1764 106.914 73.3122 111.574 74.8729C116.234 76.4336 120.334 79.3493 123.355 83.2516C126.375 87.154 128.18 91.8675 128.542 96.7958C128.903 101.724 127.804 106.645 125.385 110.937C122.965 115.229 119.334 118.699 114.951 120.908C110.568 123.117 105.629 123.966 100.758 123.349C95.8878 122.731 91.3045 120.674 87.5881 117.437C83.8717 114.2 81.1895 109.929 79.8811 105.164L79.881 105.163ZM9.95972 44.6677C13.0687 38.9728 18.2652 34.7301 24.4433 32.8408C30.7804 31.0978 37.5531 31.959 43.2738 35.2367C48.9967 38.5156 53.1984 43.9447 54.9543 50.331L61.5721 74.4L37.684 80.9965C31.4122 82.5451 24.7805 81.5686 19.1996 78.2733C13.6166 74.9767 9.52619 69.6198 7.80026 63.3426C6.07433 57.0654 6.84951 50.3649 9.95972 44.6677ZM66.4336 28.8446C69.6699 23.0938 75.044 18.8773 81.3754 17.1195C87.6471 15.5709 94.2787 16.5474 99.8595 19.8427C105.443 23.1393 109.533 28.4962 111.259 34.7734C112.985 41.0506 112.21 47.7511 109.099 53.4483C105.99 59.1433 100.794 63.3861 94.6155 65.2753L70.7362 71.8694L64.1184 47.8004C62.3629 41.4156 63.196 34.5976 66.4336 28.8446Z" fill="#1BA47D" stroke="#3FDCB0" stroke-width="1.048"/>
</g>
</g>
<defs>
<clipPath id="clip0_13365_9906">
<rect width="120" height="109" rx="16.768" fill="white"/>
</clipPath>
</defs>
</svg>
