<svg width="16" height="16" viewBox="0 0 16 16" fill="none" xmlns="http://www.w3.org/2000/svg">
<path fill-rule="evenodd" clip-rule="evenodd" d="M14 4.00065C14 3.63246 13.7015 3.33398 13.3333 3.33398H2.66667L2.58892 3.33847C2.25736 3.37698 2 3.65876 2 4.00065C2 4.36884 2.29848 4.66732 2.66667 4.66732H13.3333L13.4111 4.66283C13.7426 4.62432 14 4.34254 14 4.00065ZM6.66667 10.0007C6.66667 8.1597 8.15905 6.66732 10 6.66732C11.8409 6.66732 13.3333 8.1597 13.3333 10.0007C13.3333 10.6808 13.1296 11.3134 12.7799 11.8407L12.8047 11.8626L14.4714 13.5292C14.7318 13.7896 14.7318 14.2117 14.4714 14.4721C14.2311 14.7124 13.8529 14.7309 13.5914 14.5275L13.5286 14.4721L11.8619 12.8054C11.854 12.7975 11.8464 12.7894 11.839 12.7813C11.3119 13.1306 10.6797 13.334 10 13.334C8.15905 13.334 6.66667 11.8416 6.66667 10.0007ZM12 10.0007C12 8.89608 11.1046 8.00065 10 8.00065C8.89543 8.00065 8 8.89608 8 10.0007C8 11.1052 8.89543 12.0007 10 12.0007C11.1046 12.0007 12 11.1052 12 10.0007ZM5.33333 7.33398C5.70152 7.33398 6 7.63246 6 8.00065C6 8.34254 5.74264 8.62432 5.41108 8.66283L5.33333 8.66732H2.66667C2.29848 8.66732 2 8.36884 2 8.00065C2 7.65876 2.25736 7.37698 2.58892 7.33847L2.66667 7.33398H5.33333ZM6 12.0007C6 11.6325 5.70152 11.334 5.33333 11.334H2.66667L2.58892 11.3385C2.25736 11.377 2 11.6588 2 12.0007C2 12.3688 2.29848 12.6673 2.66667 12.6673H5.33333L5.41108 12.6628C5.74264 12.6243 6 12.3425 6 12.0007Z" fill="white"/>
</svg>
