<svg width="16" height="16" viewBox="0 0 16 16" fill="none" xmlns="http://www.w3.org/2000/svg">
<path d="M4 3C4 2.44772 4.44772 2 5 2H8.33333C8.88562 2 9.33333 2.44772 9.33333 3C9.33333 3.55228 8.88562 4 8.33333 4H5C4.44772 4 4 3.55228 4 3Z" fill="white"/>
<path d="M3 5.33333C2.44772 5.33333 2 5.78105 2 6.33333C2 6.88562 2.44772 7.33333 3 7.33333H6.33333C6.88562 7.33333 7.33333 6.88562 7.33333 6.33333C7.33333 5.78105 6.88562 5.33333 6.33333 5.33333H3Z" fill="white"/>
<path d="M3.33333 9.66667C3.33333 9.11438 3.78105 8.66667 4.33333 8.66667H7.66667C7.73868 8.66667 7.80891 8.67428 7.87661 8.68874C8.06915 8.72988 8.10579 8.96188 7.99701 9.12598C7.74458 9.50675 7.55559 9.93323 7.44512 10.3904C7.40688 10.5486 7.26938 10.6667 7.10657 10.6667H4.33333C3.78105 10.6667 3.33333 10.219 3.33333 9.66667Z" fill="white"/>
<path d="M2 13C2 12.4477 2.44772 12 3 12H6.33333C6.88562 12 7.33333 12.4477 7.33333 13C7.33333 13.5523 6.88562 14 6.33333 14H3C2.44772 14 2 13.5523 2 13Z" fill="white"/>
<path fill-rule="evenodd" clip-rule="evenodd" d="M11.3346 13.9993C12.8074 13.9993 14.0013 12.8054 14.0013 11.3327C14.0013 9.85992 12.8074 8.66602 11.3346 8.66602C9.86188 8.66602 8.66797 9.85992 8.66797 11.3327C8.66797 12.8054 9.86188 13.9993 11.3346 13.9993Z" fill="white"/>
</svg>
