<svg width="16" height="16" viewBox="0 0 16 16" fill="none" xmlns="http://www.w3.org/2000/svg">
<path d="M11.5221 8.85822C11.7819 8.59185 12.2019 8.59185 12.4684 8.85822L14.4674 10.8563C14.5128 10.9005 14.5473 10.9517 14.5768 11.0047C14.6327 11.102 14.6675 11.2139 14.6676 11.3358C14.6676 11.5693 14.5443 11.7744 14.361 11.8934L12.4616 13.7928C12.3351 13.9125 12.162 13.986 11.9889 13.9861L12.0016 13.9998C11.8218 13.9998 11.6488 13.9263 11.5289 13.8065C11.2625 13.5468 11.2623 13.1209 11.5221 12.8611V12.8543L12.3785 12.0018H2.00843C1.63531 12.0018 1.34144 11.702 1.34144 11.3358C1.34162 10.963 1.63543 10.6697 2.00843 10.6697H12.3912L11.5221 9.80353C11.2557 9.53716 11.2557 9.11788 11.5221 8.85822ZM3.52601 2.20002C3.78585 1.93365 4.20579 1.93334 4.4723 2.19904C4.73208 2.4587 4.73199 2.87798 4.4723 3.14435L3.60218 4.01056H14.0006C14.367 4.01056 14.6675 4.30379 14.6676 4.67658C14.6676 5.04284 14.3671 5.34259 14.0006 5.34259H3.61683L4.4723 6.19416C4.73214 6.44721 4.73214 6.8739 4.4723 7.13361H4.46546C4.33894 7.25335 4.1659 7.3269 3.9928 7.32697L4.00648 7.34064C3.82663 7.34062 3.65373 7.2671 3.53382 7.14728L1.5348 5.15021C1.26828 4.8905 1.26811 4.46363 1.52796 4.20392V4.19709L3.52601 2.20002Z" fill="#252628"/>
</svg>
