<svg width="24" height="24" viewBox="0 0 24 24" fill="none" xmlns="http://www.w3.org/2000/svg">
<path fill-rule="evenodd" clip-rule="evenodd" d="M12 22C6.47715 22 2 17.5228 2 12C2 6.47715 6.47715 2 12 2C17.5228 2 22 6.47715 22 12C22 17.5228 17.5228 22 12 22ZM12 4C7.58172 4 4 7.58172 4 12C4 16.4183 7.58172 20 12 20C16.4183 20 20 16.4183 20 12C20 9.87827 19.1571 7.84344 17.6569 6.34315C16.1566 4.84285 14.1217 4 12 4ZM8.29 15.71C8.47872 15.8972 8.7342 16.0015 9 16C9.2658 16.0015 9.52128 15.8972 9.71 15.71L15.71 9.71C16.1021 9.31788 16.1021 8.68212 15.71 8.29C15.3179 7.89788 14.6821 7.89788 14.29 8.29L8.29 14.29C8.10069 14.4778 7.9942 14.7334 7.9942 15C7.9942 15.2666 8.10069 15.5222 8.29 15.71ZM8 9.5C8 10.3284 8.67157 11 9.5 11C10.3284 11 11 10.3284 11 9.5C11 8.67157 10.3284 8 9.5 8C8.67157 8 8 8.67157 8 9.5ZM13 14.5C13 15.3284 13.6716 16 14.5 16C15.3284 16 16 15.3284 16 14.5C16 13.6716 15.3284 13 14.5 13C13.6716 13 13 13.6716 13 14.5Z" fill="#2A877C"/>
</svg>
