<svg width="24" height="24" viewBox="0 0 24 24" fill="none" xmlns="http://www.w3.org/2000/svg">
<path d="M13.4053 6.67454C13.4053 6.88322 13.4882 7.08336 13.6357 7.23092C13.7833 7.37848 13.9834 7.46138 14.1921 7.46138C14.4008 7.46138 14.6009 7.37848 14.7485 7.23092C14.8961 7.08336 14.979 6.88322 14.979 6.67454C14.979 6.46585 14.8961 6.26572 14.7485 6.11816C14.6009 5.97059 14.4008 5.8877 14.1921 5.8877C13.9834 5.8877 13.7833 5.97059 13.6357 6.11816C13.4882 6.26572 13.4053 6.46585 13.4053 6.67454Z" fill="#2935CC"/>
<path d="M13.4053 8.83665C13.4053 9.04533 13.4882 9.24546 13.6357 9.39303C13.7833 9.54059 13.9834 9.62349 14.1921 9.62349C14.4008 9.62349 14.6009 9.54059 14.7485 9.39303C14.8961 9.24546 14.979 9.04533 14.979 8.83665C14.979 8.62796 14.8961 8.42783 14.7485 8.28026C14.6009 8.1327 14.4008 8.0498 14.1921 8.0498C13.9834 8.0498 13.7833 8.1327 13.6357 8.28026C13.4882 8.42783 13.4053 8.62796 13.4053 8.83665Z" fill="#2935CC"/>
<path d="M13.4053 10.9988C13.4053 11.2074 13.4882 11.4076 13.6357 11.5551C13.7833 11.7027 13.9834 11.7856 14.1921 11.7856C14.4008 11.7856 14.6009 11.7027 14.7485 11.5551C14.8961 11.4076 14.979 11.2074 14.979 10.9988C14.979 10.7901 14.8961 10.5899 14.7485 10.4424C14.6009 10.2948 14.4008 10.2119 14.1921 10.2119C13.9834 10.2119 13.7833 10.2948 13.6357 10.4424C13.4882 10.5899 13.4053 10.7901 13.4053 10.9988Z" fill="#2935CC"/>
<path d="M9.62997 16.3076H3.77238C3.72383 16.3037 3.67838 16.2821 3.64468 16.247C3.61098 16.2118 3.59137 16.1655 3.58958 16.1168V14.6067C3.58958 14.5637 3.60352 14.5219 3.62932 14.4875C3.65511 14.4531 3.69137 14.428 3.73264 14.416C4.48239 14.2127 5.14438 13.7683 5.61638 13.1513C6.08837 12.5344 6.34412 11.7792 6.34412 11.0023C6.34412 10.2255 6.08837 9.47034 5.61638 8.85336C5.14438 8.23639 4.48239 7.79197 3.73264 7.58873C3.69137 7.57669 3.65511 7.5516 3.62932 7.5172C3.60352 7.48281 3.58958 7.44098 3.58958 7.39798V5.88788C3.58958 5.83519 3.61051 5.78465 3.64777 5.74738C3.68504 5.71012 3.73558 5.68919 3.78828 5.68919H19.1277C19.179 5.69124 19.2275 5.71308 19.2631 5.75012C19.2987 5.78716 19.3185 5.83654 19.3184 5.88788V7.39798C19.3184 7.44098 19.3045 7.48281 19.2787 7.5172C19.2529 7.5516 19.2167 7.57669 19.1754 7.58873C18.4278 7.79383 17.7681 8.23833 17.2972 8.85416C16.8264 9.46998 16.5704 10.2232 16.5685 10.9984C16.5565 11.1571 16.5565 11.3165 16.5685 11.4752C16.5748 11.5173 16.5944 11.5561 16.6245 11.5862C16.6545 11.6162 16.6934 11.6358 16.7354 11.6422C17.1609 11.694 17.5793 11.7927 17.9832 11.9362C18.0188 11.9469 18.0566 11.9481 18.0928 11.9397C18.1291 11.9313 18.1625 11.9137 18.1898 11.8885C18.2157 11.8616 18.2338 11.8282 18.2422 11.7918C18.2506 11.7554 18.249 11.7174 18.2375 11.6819C18.1512 11.4645 18.108 11.2323 18.1104 10.9984C18.1105 10.5205 18.2849 10.059 18.6009 9.7005C18.917 9.34201 19.353 9.11113 19.8271 9.05114C20.1116 9.01457 20.3732 8.87597 20.5632 8.66109C20.7533 8.44621 20.8588 8.16965 20.8603 7.8828V5.68919C20.8603 5.2676 20.6929 4.86329 20.3948 4.56519C20.0967 4.26708 19.6923 4.09961 19.2708 4.09961H3.58958C3.168 4.09961 2.76368 4.26708 2.46558 4.56519C2.16747 4.86329 2 5.2676 2 5.68919V7.8828C2.00151 8.16965 2.10709 8.44621 2.29712 8.66109C2.48715 8.87597 2.74871 9.01457 3.03323 9.05114C3.50736 9.11113 3.94334 9.34201 4.2594 9.7005C4.57545 10.059 4.74988 10.5205 4.74997 10.9984C4.75011 11.4772 4.57596 11.9397 4.26004 12.2995C3.94412 12.6593 3.50803 12.8918 3.03323 12.9536C2.74803 12.9885 2.48548 13.1266 2.29514 13.3419C2.10479 13.5571 1.99981 13.8346 2 14.1219V16.3076C2 16.7291 2.16747 17.1335 2.46558 17.4316C2.76368 17.7297 3.168 17.8971 3.58958 17.8971H9.47896C9.52955 17.8971 9.57807 17.877 9.61384 17.8413C9.64962 17.8055 9.66971 17.757 9.66971 17.7064C9.68373 17.321 9.7343 16.9378 9.82072 16.5619C9.82632 16.5341 9.82566 16.5054 9.81879 16.4779C9.81192 16.4504 9.799 16.4248 9.78098 16.4029C9.76455 16.3768 9.74245 16.3546 9.71631 16.3381C9.69018 16.3216 9.66067 16.3112 9.62997 16.3076Z" fill="#2935CC"/>
<path d="M15.9643 12.7627C14.9516 12.7611 13.9612 13.06 13.1185 13.6214C12.2757 14.1829 11.6184 14.9818 11.2298 15.9169C10.8412 16.852 10.7387 17.8814 10.9353 18.8748C11.1319 19.8682 11.6187 20.781 12.3342 21.4976C13.0497 22.2142 13.9618 22.7025 14.9548 22.9006C15.9479 23.0988 16.9775 22.9979 17.9132 22.6107C18.849 22.2236 19.6488 21.5675 20.2116 20.7256C20.7744 19.8837 21.0748 18.8938 21.0748 17.8811C21.0727 16.5257 20.5338 15.2262 19.5761 14.267C18.6184 13.3078 17.3198 12.7669 15.9643 12.7627ZM17.8956 18.4772H16.7511C16.6998 18.4772 16.6504 18.497 16.6134 18.5326C16.5763 18.5682 16.5545 18.6167 16.5524 18.668V19.8522C16.5524 20.0082 16.4905 20.1578 16.3802 20.2681C16.2699 20.3784 16.1203 20.4404 15.9643 20.4404C15.8076 20.4404 15.6571 20.3787 15.5456 20.2686C15.434 20.1585 15.3703 20.0089 15.3682 19.8522V18.668C15.3682 18.6174 15.3481 18.5689 15.3123 18.5331C15.2765 18.4973 15.228 18.4772 15.1774 18.4772H13.9932C13.8365 18.4751 13.6869 18.4114 13.5768 18.2999C13.4668 18.1883 13.405 18.0379 13.4051 17.8811C13.4051 17.7252 13.467 17.5756 13.5773 17.4653C13.6876 17.355 13.8372 17.293 13.9932 17.293H15.1774C15.2287 17.2909 15.2773 17.2691 15.3128 17.2321C15.3484 17.195 15.3682 17.1457 15.3682 17.0943V15.9419C15.3703 15.7851 15.434 15.6356 15.5456 15.5255C15.6571 15.4154 15.8076 15.3537 15.9643 15.3537C16.1203 15.3537 16.2699 15.4157 16.3802 15.526C16.4905 15.6363 16.5524 15.7859 16.5524 15.9419V17.1181C16.5524 17.1708 16.5734 17.2214 16.6106 17.2586C16.6479 17.2959 16.6984 17.3168 16.7511 17.3168H17.8956C18.0516 17.3168 18.2012 17.3788 18.3115 17.4891C18.4218 17.5994 18.4838 17.749 18.4838 17.905C18.4777 18.0575 18.4133 18.202 18.3038 18.3084C18.1944 18.4149 18.0483 18.4753 17.8956 18.4772Z" fill="#2935CC"/>
</svg>
