<svg width="24" height="24" viewBox="0 0 24 24" fill="none" xmlns="http://www.w3.org/2000/svg">
<path fill-rule="evenodd" clip-rule="evenodd" d="M19 4C20.5977 4 21.9037 5.24892 21.9949 6.82373L22 7V10C22 10.5128 21.614 10.9355 21.1166 10.9933L21 11C20.4477 11 20 11.4477 20 12C20 12.5128 20.386 12.9355 20.8834 12.9933L21 13C21.5128 13 21.9355 13.386 21.9933 13.8834L22 14V17C22 18.5977 20.7511 19.9037 19.1763 19.9949L19 20H15H5C3.40232 20 2.09634 18.7511 2.00509 17.1763L2 17V14C2 13.4872 2.38604 13.0645 2.88338 13.0067L3 13C3.55228 13 4 12.5523 4 12C4 11.4872 3.61396 11.0645 3.11662 11.0067L3 11C2.48716 11 2.06449 10.614 2.00673 10.1166L2 10V7C2 5.40232 3.24892 4.09634 4.82373 4.00509L5 4H15H19ZM14 6V7L14.0067 7.11662C14.0645 7.61396 14.4872 8 15 8C15.5523 8 16 7.55228 16 7V6H19L19.1166 6.00673C19.614 6.06449 20 6.48716 20 7V9.17L19.8169 9.2423C18.7483 9.70134 18 10.7633 18 12L18.0051 12.1763C18.0761 13.4011 18.8819 14.4288 19.9882 14.8251L20 14.829V17L19.9933 17.1166C19.9355 17.614 19.5128 18 19 18H16V17L15.9933 16.8834C15.9355 16.386 15.5128 16 15 16C14.4477 16 14 16.4477 14 17V18H5L4.88338 17.9933C4.38604 17.9355 4 17.5128 4 17V14.829L4.1831 14.7577C5.25166 14.2987 6 13.2367 6 12L5.99491 11.8237C5.92394 10.5989 5.11813 9.57117 4.01178 9.1749L4 9.17V7L4.00673 6.88338C4.06005 6.4243 4.4243 6.06005 4.88338 6.00673L5 6H14ZM15.9933 10.8834C15.9355 10.386 15.5128 10 15 10C14.4477 10 14 10.4477 14 11V13L14.0067 13.1166C14.0645 13.614 14.4872 14 15 14C15.5523 14 16 13.5523 16 13V11L15.9933 10.8834Z" fill="#2A877C"/>
</svg>
