<svg width="24" height="24" viewBox="0 0 24 24" fill="none" xmlns="http://www.w3.org/2000/svg">
<g clip-path="url(#clip0_30006_16284)">
<path d="M7.41667 20.3333H3.875C3.81975 20.3333 3.76676 20.3114 3.72769 20.2723C3.68862 20.2332 3.66667 20.1803 3.66667 20.125V16.5833C3.66667 16.3623 3.57887 16.1504 3.42259 15.9941C3.26631 15.8378 3.05435 15.75 2.83333 15.75C2.61232 15.75 2.40036 15.8378 2.24408 15.9941C2.0878 16.1504 2 16.3623 2 16.5833V20.3333C2 20.7754 2.17559 21.1993 2.48816 21.5118C2.80072 21.8244 3.22464 22 3.66667 22H7.41667C7.63768 22 7.84964 21.9122 8.00592 21.7559C8.1622 21.5996 8.25 21.3877 8.25 21.1667C8.25 20.9457 8.1622 20.7337 8.00592 20.5774C7.84964 20.4211 7.63768 20.3333 7.41667 20.3333Z" fill="#2935CC"/>
<path d="M2.83333 8.25C3.05435 8.25 3.26631 8.1622 3.42259 8.00592C3.57887 7.84964 3.66667 7.63768 3.66667 7.41667V3.875C3.66667 3.81975 3.68862 3.76676 3.72769 3.72769C3.76676 3.68862 3.81975 3.66667 3.875 3.66667H7.41667C7.63768 3.66667 7.84964 3.57887 8.00592 3.42259C8.1622 3.26631 8.25 3.05435 8.25 2.83333C8.25 2.61232 8.1622 2.40036 8.00592 2.24408C7.84964 2.0878 7.63768 2 7.41667 2H3.66667C3.22464 2 2.80072 2.17559 2.48816 2.48816C2.17559 2.80072 2 3.22464 2 3.66667L2 7.41667C2 7.63768 2.0878 7.84964 2.24408 8.00592C2.40036 8.1622 2.61232 8.25 2.83333 8.25Z" fill="#2935CC"/>
<path d="M21.1667 15.75C20.9457 15.75 20.7337 15.8378 20.5774 15.9941C20.4211 16.1504 20.3333 16.3623 20.3333 16.5833V20.125C20.3333 20.1803 20.3114 20.2332 20.2723 20.2723C20.2332 20.3114 20.1803 20.3333 20.125 20.3333H16.5833C16.3623 20.3333 16.1504 20.4211 15.9941 20.5774C15.8378 20.7337 15.75 20.9457 15.75 21.1667C15.75 21.3877 15.8378 21.5996 15.9941 21.7559C16.1504 21.9122 16.3623 22 16.5833 22H20.3333C20.7754 22 21.1993 21.8244 21.5118 21.5118C21.8244 21.1993 22 20.7754 22 20.3333V16.5833C22 16.3623 21.9122 16.1504 21.7559 15.9941C21.5996 15.8378 21.3877 15.75 21.1667 15.75Z" fill="#2935CC"/>
<path d="M20.3333 2H16.5833C16.3623 2 16.1504 2.0878 15.9941 2.24408C15.8378 2.40036 15.75 2.61232 15.75 2.83333C15.75 3.05435 15.8378 3.26631 15.9941 3.42259C16.1504 3.57887 16.3623 3.66667 16.5833 3.66667H20.125C20.1803 3.66667 20.2332 3.68862 20.2723 3.72769C20.3114 3.76676 20.3333 3.81975 20.3333 3.875V7.41667C20.3333 7.63768 20.4211 7.84964 20.5774 8.00592C20.7337 8.1622 20.9457 8.25 21.1667 8.25C21.3877 8.25 21.5996 8.1622 21.7559 8.00592C21.9122 7.84964 22 7.63768 22 7.41667V3.66667C22 3.22464 21.8244 2.80072 21.5118 2.48816C21.1993 2.17559 20.7754 2 20.3333 2Z" fill="#2935CC"/>
<path d="M16.7504 16.6746C16.4825 15.9568 16.0565 15.3085 15.504 14.7776C14.9515 14.2468 14.2867 13.847 13.5588 13.6079C13.5184 13.597 13.4827 13.5732 13.4571 13.5401C13.4315 13.507 13.4175 13.4664 13.4171 13.4246C13.4134 13.3833 13.4226 13.3418 13.4436 13.306C13.4645 13.2702 13.496 13.2417 13.5338 13.2246C14.2621 12.8818 14.852 12.301 15.2061 11.578C15.5602 10.8551 15.6574 10.033 15.4818 9.24739C15.3061 8.46176 14.868 7.75942 14.2398 7.2561C13.6115 6.75277 12.8305 6.47852 12.0254 6.47852C11.2204 6.47852 10.4394 6.75277 9.81111 7.2561C9.18283 7.75942 8.74477 8.46176 8.56911 9.24739C8.39345 10.033 8.49069 10.8551 8.84479 11.578C9.19889 12.301 9.78873 12.8818 10.5171 13.2246C10.5549 13.2417 10.5864 13.2702 10.6073 13.306C10.6282 13.3418 10.6375 13.3833 10.6338 13.4246C10.6326 13.4672 10.6184 13.5084 10.5931 13.5427C10.5677 13.577 10.5325 13.6027 10.4921 13.6163C9.75239 13.8489 9.0757 14.2477 8.51383 14.7821C7.95196 15.3166 7.51981 15.9725 7.25044 16.6996C7.21365 16.7936 7.20049 16.8952 7.21211 16.9954C7.22373 17.0957 7.25979 17.1915 7.3171 17.2746C7.37517 17.3576 7.45254 17.4252 7.54254 17.4717C7.63254 17.5181 7.73249 17.542 7.83377 17.5413H16.1671C16.2684 17.542 16.3683 17.5181 16.4583 17.4717C16.5483 17.4252 16.6257 17.3576 16.6838 17.2746C16.7454 17.1887 16.7839 17.0884 16.7955 16.9833C16.8072 16.8783 16.7917 16.7719 16.7504 16.6746ZM10.1754 10.0079C10.1748 9.80374 10.2086 9.6009 10.2754 9.40794C10.2991 9.35149 10.344 9.3066 10.4004 9.28294C10.4599 9.26262 10.5243 9.26262 10.5838 9.28294C11.3181 9.74359 12.1669 9.989 13.0338 9.99127C13.2473 10.0081 13.4619 10.0081 13.6754 9.99127C13.7052 9.98651 13.7356 9.98854 13.7645 9.9972C13.7934 10.0059 13.8199 10.0209 13.8421 10.0413C13.866 10.0615 13.8845 10.0873 13.8962 10.1163C13.9078 10.1454 13.9121 10.1768 13.9088 10.2079C13.8856 10.703 13.6666 11.1686 13.3002 11.5022C12.9337 11.8359 12.4497 12.0103 11.9546 11.9871C11.4595 11.9639 10.994 11.745 10.6603 11.3785C10.3266 11.012 10.1522 10.528 10.1754 10.0329V10.0079Z" fill="#2935CC"/>
</g>
<defs>
<clipPath id="clip0_30006_16284">
<rect width="20" height="20" fill="white" transform="translate(2 2)"/>
</clipPath>
</defs>
</svg>
