<svg width="24" height="24" viewBox="0 0 24 24" fill="none" xmlns="http://www.w3.org/2000/svg">
<path fill-rule="evenodd" clip-rule="evenodd" d="M2 12C2 6.47715 6.47715 2 12 2C17.5228 2 22 6.47715 22 12C22 17.5228 17.5228 22 12 22C6.47715 22 2 17.5228 2 12ZM13 19.9381C16.9463 19.446 20 16.0796 20 12C20 11.7557 19.989 11.5139 19.9676 11.2751L14.8984 12.7771C14.6425 13.7339 13.9254 14.5022 13 14.8293V19.9381ZM14.7246 10.7427L19.5387 9.31626C18.4357 6.218 15.4769 4 12 4C8.52318 4 5.5644 6.21794 4.46132 9.31612L9.27546 10.7425C9.75106 9.71378 10.7922 9 12 9C13.2079 9 14.249 9.71384 14.7246 10.7427ZM4 12C4 11.7556 4.01096 11.5138 4.03241 11.275L9.10159 12.777C9.35744 13.7338 10.0745 14.5022 11 14.8293V19.9381C7.05369 19.446 4 16.0796 4 12ZM12 13C11.4554 13 11.0124 12.5646 11.0003 12.0229C11.0006 12.0075 11.0006 11.9922 11.0003 11.977C11.0125 11.4353 11.4554 11 12 11C12.5523 11 13 11.4477 13 12C13 12.5523 12.5523 13 12 13Z" fill="#2A877C"/>
</svg>
