<svg width="24" height="24" viewBox="0 0 24 24" fill="none" xmlns="http://www.w3.org/2000/svg">
<path fill-rule="evenodd" clip-rule="evenodd" d="M10 2H12C13.3062 2 14.4175 2.83481 14.8293 4H16C17.5977 4 18.9037 5.24892 18.9949 6.82373L19 7V11C19 11.5523 18.5523 12 18 12C17.4872 12 17.0645 11.614 17.0067 11.1166L17 11V7C17 6.48716 16.614 6.06449 16.1166 6.00673L16 6H14.8293C14.4175 7.16519 13.3062 8 12 8H10C8.69378 8 7.58254 7.16519 7.17071 6H6C5.48716 6 5.06449 6.38604 5.00673 6.88338L5 7V19C5 19.5128 5.38604 19.9355 5.88338 19.9933L6 20H11.697C12.2493 20 12.697 20.4477 12.697 21C12.697 21.5128 12.311 21.9355 11.8136 21.9933L11.697 22H6C4.40232 22 3.09634 20.7511 3.00509 19.1763L3 19V7C3 5.40232 4.24892 4.09634 5.82373 4.00509L6 4H7.17071C7.58254 2.83481 8.69378 2 10 2ZM12 4C12.5523 4 13 4.44772 13 5C13 5.55228 12.5523 6 12 6H10C9.44772 6 9 5.55228 9 5C9 4.44772 9.44772 4 10 4H12ZM18 13C20.7614 13 23 15.2386 23 18C23 20.7614 20.7614 23 18 23C15.2386 23 13 20.7614 13 18C13 15.2386 15.2386 13 18 13ZM20.8293 19C20.4175 20.1652 19.3062 21 18 21C16.3431 21 15 19.6569 15 18C15 16.6938 15.8348 15.5825 17 15.1707V18L17.0067 18.1166C17.0645 18.614 17.4872 19 18 19H20.8293ZM20.8293 17H19V15.1707C19.8524 15.472 20.528 16.1476 20.8293 17ZM12 10C12.5523 10 13 10.4477 13 11C13 11.5128 12.614 11.9355 12.1166 11.9933L12 12H8C7.44772 12 7 11.5523 7 11C7 10.4872 7.38604 10.0645 7.88338 10.0067L8 10H12ZM12 15C12 14.4477 11.5523 14 11 14H8L7.88338 14.0067C7.38604 14.0645 7 14.4872 7 15C7 15.5523 7.44772 16 8 16H11L11.1166 15.9933C11.614 15.9355 12 15.5128 12 15Z" fill="#2A877C"/>
</svg>
