<svg width="24" height="24" viewBox="0 0 24 24" fill="none" xmlns="http://www.w3.org/2000/svg">
<path d="M10.0029 14.9607C10.0029 15.1832 10.0913 15.3966 10.2486 15.5539C10.406 15.7112 10.6194 15.7996 10.8419 15.7996H16.8486C17.0195 15.7465 17.169 15.6401 17.2752 15.496C17.3814 15.3518 17.4386 15.1775 17.4386 14.9984C17.4386 14.8194 17.3814 14.6451 17.2752 14.5009C17.169 14.3568 17.0195 14.2504 16.8486 14.1973H10.8083C10.6041 14.2046 10.4096 14.2862 10.2614 14.4268C10.1131 14.5674 10.0212 14.7572 10.0029 14.9607Z" fill="#2935CC"/>
<path d="M20.3976 7.35221H17.2097C17.0387 7.40531 16.8892 7.51171 16.7831 7.65586C16.6769 7.80001 16.6196 7.97435 16.6196 8.15338C16.6196 8.33241 16.6769 8.50674 16.7831 8.65089C16.8892 8.79504 17.0387 8.90145 17.2097 8.95455H19.5587C19.7812 8.95455 19.9946 9.04294 20.1519 9.20027C20.3092 9.35759 20.3976 9.57098 20.3976 9.79347V17.9243C20.3976 18.1468 20.3092 18.3602 20.1519 18.5175C19.9946 18.6749 19.7812 18.7633 19.5587 18.7633H4.45807C4.23557 18.7633 4.02219 18.6749 3.86486 18.5175C3.70753 18.3602 3.61915 18.1468 3.61915 17.9243V9.79347C3.61915 9.57098 3.70753 9.35759 3.86486 9.20027C4.02219 9.04294 4.23557 8.95455 4.45807 8.95455H5.59901C5.72456 8.99354 5.85752 9.00249 5.98716 8.98065C6.1168 8.95882 6.2395 8.90682 6.34535 8.82886C6.45121 8.75089 6.53726 8.64914 6.59656 8.53181C6.65586 8.41447 6.68676 8.28485 6.68676 8.15338C6.68676 8.02191 6.65586 7.89228 6.59656 7.77495C6.53726 7.65762 6.45121 7.55586 6.34535 7.4779C6.2395 7.39993 6.1168 7.34794 5.98716 7.3261C5.85752 7.30427 5.72456 7.31321 5.59901 7.35221H3.61915C3.40732 7.34999 3.19715 7.38979 3.0008 7.46933C2.80446 7.54886 2.62583 7.66653 2.47526 7.81555C2.32468 7.96456 2.20515 8.14195 2.12358 8.33746C2.04201 8.53297 2.00001 8.74271 2.00002 8.95455V18.7633C1.99888 18.9754 2.0401 19.1857 2.12128 19.3817C2.20245 19.5777 2.32194 19.7556 2.47274 19.9048C2.62355 20.054 2.80262 20.1717 2.99948 20.2508C3.19634 20.3299 3.40701 20.369 3.61915 20.3656H20.3976C20.6084 20.3667 20.8172 20.326 21.0121 20.2459C21.207 20.1658 21.3841 20.0478 21.5331 19.8988C21.6822 19.7498 21.8001 19.5727 21.8803 19.3778C21.9604 19.1829 22.0011 18.974 22 18.7633V8.95455C22 8.52958 21.8312 8.12202 21.5307 7.82152C21.2302 7.52102 20.8226 7.35221 20.3976 7.35221Z" fill="#2935CC"/>
<path d="M7.81394 9.17934C7.78735 9.15193 7.75352 9.13264 7.71638 9.12372C7.67925 9.11481 7.64034 9.11664 7.60421 9.12901C7.56669 9.14538 7.53479 9.17237 7.51243 9.20666C7.49007 9.24095 7.47823 9.28103 7.47837 9.32196L7.20152 10.7314C7.1903 10.7958 7.19432 10.862 7.21326 10.9247C7.2322 10.9873 7.26553 11.0446 7.31058 11.0921C7.34808 11.1295 7.39257 11.1591 7.44151 11.1792C7.49045 11.1994 7.54289 11.2097 7.59582 11.2095C7.67971 11.2095 9.16461 10.8991 9.08071 10.9159C9.11763 10.9086 9.15191 10.8915 9.17996 10.8665C9.208 10.8414 9.22878 10.8092 9.24011 10.7733C9.24908 10.7369 9.24919 10.6988 9.24044 10.6623C9.23168 10.6258 9.21431 10.592 9.18977 10.5636L7.81394 9.17934Z" fill="#2935CC"/>
<path d="M13.1826 3.31524C13.1637 3.29381 13.1405 3.27665 13.1145 3.2649C13.0884 3.25315 13.0602 3.24707 13.0316 3.24707C13.0031 3.24707 12.9748 3.25315 12.9488 3.2649C12.9228 3.27665 12.8995 3.29381 12.8806 3.31524L8.1407 8.05516C8.12064 8.07399 8.10465 8.09673 8.09372 8.12198C8.08279 8.14723 8.07715 8.17446 8.07715 8.20197C8.07715 8.22949 8.08279 8.25671 8.09372 8.28196C8.10465 8.30721 8.12064 8.32995 8.1407 8.34878L10.0115 10.2196C10.0303 10.2396 10.0531 10.2556 10.0783 10.2666C10.1036 10.2775 10.1308 10.2831 10.1583 10.2831C10.1858 10.2831 10.2131 10.2775 10.2383 10.2666C10.2636 10.2556 10.2863 10.2396 10.3051 10.2196L15.0534 5.47966C15.0735 5.46083 15.0895 5.43809 15.1004 5.41284C15.1114 5.38759 15.117 5.36036 15.117 5.33285C15.117 5.30533 15.1114 5.27811 15.1004 5.25286C15.0895 5.22761 15.0735 5.20487 15.0534 5.18604L13.1826 3.31524Z" fill="#2935CC"/>
<path d="M15.615 4.61537C15.6339 4.6368 15.6572 4.65395 15.6832 4.66571C15.7092 4.67746 15.7375 4.68354 15.766 4.68354C15.7946 4.68354 15.8228 4.67746 15.8489 4.66571C15.8749 4.65395 15.8981 4.6368 15.917 4.61537L15.9674 4.56504C16.2319 4.27256 16.3737 3.88949 16.3635 3.49527C16.3532 3.10104 16.1916 2.72588 15.9122 2.44756C15.6328 2.16925 15.2571 2.00912 14.8628 2.00038C14.4685 1.99164 14.086 2.13495 13.7946 2.40061L13.7442 2.45095C13.7242 2.46978 13.7082 2.49252 13.6972 2.51777C13.6863 2.54302 13.6807 2.57024 13.6807 2.59776C13.6807 2.62527 13.6863 2.6525 13.6972 2.67775C13.7082 2.703 13.7242 2.72574 13.7442 2.74457L15.615 4.61537Z" fill="#2935CC"/>
</svg>
