<svg width="24" height="24" viewBox="0 0 24 24" fill="none" xmlns="http://www.w3.org/2000/svg">
<path fill-rule="evenodd" clip-rule="evenodd" d="M18.0165 13.9999C17.7464 13.9899 17.4863 13.8899 17.3062 13.6999C17.2362 13.6399 17.1862 13.5699 17.1462 13.4999L13.6948 8.56991L13.6348 8.47991H13.6338C12.2932 6.05991 13.1636 3.01991 15.5845 1.67991C17.9955 0.339913 21.0367 1.20991 22.3773 3.62991C23.2076 5.12991 23.2076 6.95991 22.3773 8.46991L22.3172 8.55991L18.9059 13.4199C18.8258 13.5699 18.7158 13.7099 18.5757 13.8099C18.4057 13.9199 18.2056 13.9799 18.0055 13.9899L18.0165 13.9999ZM15.3655 7.46991L18.0165 11.2399L20.6676 7.46991V7.46891C21.1478 6.56891 21.1478 5.48891 20.6676 4.59891C19.7972 3.17891 17.9465 2.73891 16.5359 3.60891C15.2254 4.40891 14.7352 6.06891 15.3955 7.45891L15.3655 7.46991ZM18.0158 7C17.4557 7 17.0157 6.55 17.0157 6C17.0157 5.44 17.4557 5 18.0158 5C18.5658 5 19.0158 5.44 19.0158 6C19.0158 6.55 18.5658 7 18.0158 7ZM2.48019 20.8498C2.63025 20.9398 2.82033 20.9998 3.0104 20.9998L2.98039 20.9698C3.13045 20.9598 3.29051 20.9298 3.43057 20.8598L8.98278 18.0898L14.4061 20.7955C14.5737 20.9237 14.7839 21 15.0146 21C15.278 21 15.5185 20.8968 15.6976 20.7287L21.4377 17.8598C21.7679 17.6898 21.978 17.3398 21.988 16.9698V14.9698C21.988 14.4098 21.5378 13.9698 20.9876 13.9698C20.4273 13.9698 19.9872 14.4098 19.9872 14.9698V16.3498L16.0146 18.3353V15C16.0146 14.44 15.5646 14 15.0146 14C14.4546 14 14.0146 14.44 14.0146 15V18.3656L10.0122 16.3688V5.59939L10.0332 5.60981C10.0582 5.6198 10.0807 5.6323 10.1032 5.6448C10.1257 5.6573 10.1482 5.6698 10.1733 5.6798C10.6835 5.8998 11.2637 5.64981 11.4838 5.14981C11.7039 4.6398 11.4538 4.0598 10.9536 3.8498L9.45297 3.0998C9.16285 2.9498 8.83272 2.9498 8.55261 3.0998V3.10842C8.53955 3.11505 8.52667 3.12195 8.51396 3.12912L2.55022 6.10981C2.21008 6.2698 2 6.6198 2 6.9998H2.01V19.9998C2 20.3398 2.18007 20.6598 2.48019 20.8498ZM8.01216 5.57492V16.3394L3.98079 18.3498V7.58981L8.01216 5.57492Z" fill="#2A877C"/>
</svg>
