<svg width="24" height="24" viewBox="0 0 24 24" fill="none" xmlns="http://www.w3.org/2000/svg">
<path d="M18.7227 16.2012L19.9645 19.9266C20.1803 20.5741 19.6983 21.2428 19.0158 21.2428H4.98508C4.30253 21.2428 3.82056 20.5741 4.0364 19.9266L5.27821 16.2012" stroke="#2935CC" stroke-width="1.5" stroke-linecap="round"/>
<path d="M11.7286 16.457C11.7627 16.4969 11.8046 16.5287 11.8513 16.5506C11.8981 16.5724 11.9488 16.5837 12 16.5837C12.0512 16.5837 12.1019 16.5724 12.1487 16.5506C12.1954 16.5287 12.2373 16.4969 12.2714 16.457C12.4643 16.2259 17 10.7232 17 7.63633C17 6.25208 16.4732 4.92452 15.5355 3.9457C14.5979 2.96689 13.3261 2.41699 12 2.41699C10.6739 2.41699 9.40215 2.96689 8.46447 3.9457C7.52678 4.92452 7 6.25208 7 7.63633C7 10.7232 11.5357 16.2259 11.7286 16.457ZM10.2143 7.63633C10.2143 7.26766 10.319 6.90726 10.5152 6.60072C10.7114 6.29418 10.9903 6.05526 11.3166 5.91417C11.6429 5.77309 12.002 5.73617 12.3484 5.8081C12.6948 5.88002 13.013 6.05756 13.2627 6.31825C13.5124 6.57894 13.6825 6.91108 13.7514 7.27267C13.8203 7.63426 13.7849 8.00906 13.6498 8.34967C13.5146 8.69028 13.2857 8.98141 12.9921 9.18623C12.6984 9.39106 12.3532 9.50038 12 9.50038C11.5264 9.50038 11.0722 9.30399 10.7373 8.95441C10.4024 8.60484 10.2143 8.13071 10.2143 7.63633Z" fill="#2935CC"/>
</svg>
