<svg width="24" height="24" viewBox="0 0 24 24" fill="none" xmlns="http://www.w3.org/2000/svg">
<path d="M20.8721 4H3.25814C2.92446 4 2.60445 4.13255 2.3685 4.3685C2.13255 4.60445 2 4.92446 2 5.25814V15.3232C2 15.6569 2.13255 15.9769 2.3685 16.2129C2.60445 16.4488 2.92446 16.5814 3.25814 16.5814H7.87131C8.09377 16.5814 8.30711 16.493 8.46441 16.3357C8.6217 16.1784 8.71007 15.9651 8.71007 15.7426C8.71007 15.5202 8.6217 15.3068 8.46441 15.1495C8.30711 14.9922 8.09377 14.9039 7.87131 14.9039H3.88721C3.85661 14.9043 3.82629 14.898 3.79838 14.8854C3.77048 14.8728 3.74567 14.8543 3.72568 14.8311C3.7057 14.8079 3.69103 14.7807 3.68271 14.7512C3.67439 14.7218 3.67262 14.6908 3.67752 14.6606V5.88721C3.67752 5.83159 3.69961 5.77826 3.73893 5.73893C3.77826 5.69961 3.83159 5.67752 3.88721 5.67752H20.243C20.2986 5.67752 20.352 5.69961 20.3913 5.73893C20.4306 5.77826 20.4527 5.83159 20.4527 5.88721V12.3205C20.4527 12.5429 20.5411 12.7563 20.6984 12.9136C20.8557 13.0709 21.069 13.1592 21.2915 13.1592C21.5139 13.1592 21.7273 13.0709 21.8846 12.9136C22.0419 12.7563 22.1302 12.5429 22.1302 12.3205V5.25814C22.1302 4.92446 21.9977 4.60445 21.7617 4.3685C21.5258 4.13255 21.2058 4 20.8721 4Z" fill="#2935CC"/>
<path d="M19.6144 12.2706C19.6035 11.9153 19.4547 11.5782 19.1995 11.3308C18.9442 11.0834 18.6027 10.9451 18.2473 10.9453C17.0646 10.9453 16.813 12.2454 16.8046 12.2873L16.5362 14.1829C16.4904 14.4563 16.3846 14.7161 16.2266 14.9438C16.0685 15.1714 15.862 15.3613 15.6219 15.4998L14.1122 16.3385C13.8353 16.4919 13.5998 16.7101 13.426 16.9746C13.2521 17.239 13.1451 17.5417 13.1141 17.8567V18.9806C13.1078 19.1455 13.0396 19.3019 12.9229 19.4185C12.8063 19.5352 12.6498 19.6035 12.485 19.6097C12.3188 19.6075 12.1601 19.5405 12.0426 19.423C11.9251 19.3055 11.8581 19.1468 11.8559 18.9806V18.0161C11.8559 17.9604 11.8338 17.9071 11.7945 17.8678C11.7552 17.8285 11.7018 17.8064 11.6462 17.8064H6.97434C6.93744 17.8054 6.90095 17.8142 6.86855 17.8319C6.83615 17.8496 6.80899 17.8755 6.78981 17.907C6.77141 17.9389 6.76172 17.9751 6.76172 18.0119C6.76172 18.0487 6.77141 18.0848 6.78981 18.1167L7.62857 19.6516C7.63944 19.6843 7.63944 19.7196 7.62857 19.7523V21.7905C7.62857 21.8461 7.65066 21.8994 7.68999 21.9387C7.72931 21.9781 7.78265 22.0002 7.83826 22.0002H15.6807C15.7363 22.0002 15.7896 21.9781 15.8289 21.9387C15.8683 21.8994 15.8903 21.8461 15.8903 21.7905V21.0775C15.891 20.7924 15.958 20.5113 16.0861 20.2565C16.2143 20.0017 16.3999 19.7803 16.6285 19.6097L18.826 17.9322C19.0664 17.7676 19.2636 17.5475 19.4009 17.2906C19.5381 17.0336 19.6114 16.7473 19.6144 16.456V12.2622V12.2706Z" fill="#2935CC"/>
<path d="M11.9639 6.44922C11.7414 6.44922 11.5281 6.53759 11.3708 6.69489C11.2135 6.85218 11.1251 7.06553 11.1251 7.28798C11.1251 7.39702 11.1251 7.52283 10.9658 7.57316C10.5644 7.68064 10.2075 7.91274 9.94641 8.23603C9.68536 8.55932 9.53366 8.95712 9.51314 9.37214C9.49262 9.78716 9.60435 10.198 9.83223 10.5454C10.0601 10.8929 10.3924 11.1591 10.7812 11.3056L12.5175 12.0018C12.5697 12.0222 12.6145 12.058 12.646 12.1044C12.6774 12.1508 12.694 12.2057 12.6936 12.2618C12.6936 12.3382 12.6639 12.4117 12.6106 12.4665C12.5573 12.5213 12.4848 12.5532 12.4084 12.5554H10.7309C10.5085 12.5554 10.2951 12.6438 10.1378 12.8011C9.98051 12.9583 9.89214 13.1717 9.89214 13.3941C9.89214 13.6166 9.98051 13.8299 10.1378 13.9872C10.2951 14.1445 10.5085 14.2329 10.7309 14.2329H10.9322C10.9886 14.2329 11.0429 14.2547 11.0835 14.2938C11.1242 14.3329 11.1481 14.3862 11.1503 14.4426C11.1503 14.665 11.2387 14.8784 11.3959 15.0357C11.5532 15.193 11.7666 15.2814 11.989 15.2814C12.2115 15.2814 12.4248 15.193 12.5821 15.0357C12.7394 14.8784 12.8278 14.665 12.8278 14.4426V14.3252C12.8291 14.2801 12.8443 14.2366 12.8713 14.2005C12.8984 14.1645 12.9359 14.1377 12.9788 14.1239C13.3714 14.0103 13.7188 13.777 13.9724 13.4565C14.2261 13.136 14.3733 12.7443 14.3937 12.336C14.414 11.9278 14.3063 11.5234 14.0858 11.1793C13.8652 10.8352 13.5427 10.5686 13.1633 10.4165L11.4271 9.72038C11.3701 9.70425 11.3199 9.6703 11.2836 9.6235C11.2474 9.57671 11.2271 9.51953 11.2258 9.46036C11.2258 9.38473 11.2558 9.31219 11.3093 9.25871C11.3628 9.20523 11.4353 9.17519 11.5109 9.17519H13.1885C13.4109 9.17519 13.6243 9.08682 13.7816 8.92952C13.9389 8.77222 14.0272 8.55888 14.0272 8.33643C14.0272 8.11397 13.9389 7.90063 13.7816 7.74333C13.6243 7.58604 13.4109 7.49767 13.1885 7.49767H12.9704C12.9162 7.4955 12.865 7.47245 12.8275 7.43336C12.79 7.39427 12.769 7.34217 12.7691 7.28798C12.7693 7.07122 12.6855 6.86281 12.5354 6.70644C12.3853 6.55007 12.1805 6.45789 11.9639 6.44922Z" fill="#2935CC"/>
</svg>
