<svg width="24" height="24" viewBox="0 0 24 24" fill="none" xmlns="http://www.w3.org/2000/svg">
<path fill-rule="evenodd" clip-rule="evenodd" d="M12.9933 2.88338C12.9355 2.38604 12.5128 2 12 2C11.4477 2 11 2.44772 11 3V4.15287L5.85776 5.00991C5.56293 5.05125 5.28414 5.22184 5.12176 5.52169C5.11414 5.53566 5.10685 5.54981 5.09989 5.56414L2.10557 11.5528L2.05979 11.6594C2.02033 11.7683 2 11.8836 2 12C2 14.2091 3.79086 16 6 16L6.19964 15.9951C8.31603 15.8911 10 14.1422 10 11.996L9.99309 11.8805C9.98414 11.8063 9.96665 11.7321 9.94 11.659L9.89836 11.5602L7.49989 6.76363L11 6.1798V19H7L6.88338 19.0067C6.38604 19.0645 6 19.4872 6 20C6 20.5523 6.44772 21 7 21H12H17L17.1166 20.9933C17.614 20.9355 18 20.5128 18 20C18 19.4477 17.5523 19 17 19H13V6.1798L16.5001 6.76364L14.1056 11.5528L14.0598 11.6594C14.0203 11.7683 14 11.8836 14 12C14 14.2091 15.7909 16 18 16L18.1996 15.9951C20.316 15.8911 22 14.1422 22 11.996L21.9931 11.8805C21.9841 11.8063 21.9666 11.7321 21.94 11.659L21.8984 11.5602L18.9001 5.56411C18.8807 5.52422 18.8588 5.4857 18.8344 5.4488L18.8308 5.44254C18.6646 5.19166 18.4101 5.04746 18.1422 5.00991L13 4.15287V3L12.9933 2.88338ZM4.012 12.211L6 8.236L7.987 12.211L7.97831 12.2955C7.83547 13.26 7.00415 14 6 14L5.85074 13.9945C4.91444 13.9254 4.15739 13.2118 4.02169 12.2955L4.012 12.211ZM18 8.236L16.012 12.211L16.0217 12.2955C16.1574 13.2118 16.9144 13.9254 17.8507 13.9945L18 14C19.0042 14 19.8355 13.26 19.9783 12.2955L19.987 12.211L18 8.236Z" fill="#2A877C"/>
</svg>
