<svg width="24" height="24" viewBox="0 0 24 24" fill="none" xmlns="http://www.w3.org/2000/svg">
<path d="M3.59766 8.63932V4.59766C3.59766 4.04537 4.04537 3.59766 4.59766 3.59766H8.63932" stroke="#2935CC" stroke-width="1.5" stroke-linecap="round"/>
<path d="M15.3613 3.59766H19.403C19.9553 3.59766 20.403 4.04537 20.403 4.59766V8.63932" stroke="#2935CC" stroke-width="1.5" stroke-linecap="round"/>
<path d="M20.403 15.3613V19.403C20.403 19.9553 19.9553 20.403 19.403 20.403H15.3613" stroke="#2935CC" stroke-width="1.5" stroke-linecap="round"/>
<path d="M8.63932 20.403H4.59766C4.04537 20.403 3.59766 19.9553 3.59766 19.403V15.3613" stroke="#2935CC" stroke-width="1.5" stroke-linecap="round"/>
<path d="M17.7387 8.86264L17.0893 8.17768L17.5428 7.71756C17.6345 7.62506 17.7072 7.51506 17.7567 7.39391C17.8063 7.27275 17.8317 7.14285 17.8315 7.01169C17.833 6.81169 17.7756 6.61579 17.6666 6.44911C17.5577 6.28242 17.4021 6.15255 17.2199 6.07614C17.0378 5.99974 16.8372 5.98028 16.644 6.02027C16.4509 6.06026 16.2739 6.15787 16.1358 6.30059L10.4663 12.0521C9.80918 11.7216 9.05769 11.6387 8.34596 11.8184C7.63422 11.998 7.00858 12.4283 6.58073 13.0327C6.15288 13.637 5.95067 14.3759 6.01021 15.1175C6.06975 15.859 6.38716 16.555 6.90576 17.0811C7.42437 17.6072 8.11042 17.9292 8.84142 17.9896C9.57242 18.05 10.3008 17.8449 10.8965 17.4109C11.4922 16.9768 11.9164 16.3421 12.0935 15.6201C12.2705 14.8981 12.1888 14.1357 11.863 13.4691L13.7907 11.5136L14.1824 11.9162C14.3519 12.0875 14.5815 12.1834 14.8207 12.1829C15.0599 12.1824 15.2892 12.0855 15.458 11.9136C15.6268 11.7416 15.7214 11.5087 15.7209 11.266C15.7204 11.0233 15.6249 10.7907 15.4554 10.6195L15.1049 10.2116L15.8368 9.46917L16.4862 10.1332C16.6578 10.2991 16.8858 10.3917 17.1228 10.3917C17.3598 10.3917 17.5877 10.2991 17.7593 10.1332C17.9176 9.95936 18.0037 9.73035 17.9999 9.49374C17.996 9.25713 17.9025 9.03111 17.7387 8.86264ZM9.11589 13.2861C9.4217 13.2861 9.72065 13.3781 9.97492 13.5505C10.2292 13.7228 10.4274 13.9678 10.5444 14.2544C10.6614 14.5411 10.6921 14.8565 10.6324 15.1607C10.5727 15.465 10.4255 15.7445 10.2092 15.9639C9.99299 16.1833 9.71748 16.3326 9.41754 16.3932C9.1176 16.4537 8.80671 16.4226 8.52417 16.3039C8.24163 16.1852 8.00014 15.9841 7.83024 15.7262C7.66034 15.4682 7.56966 15.165 7.56966 14.8547C7.56966 14.4387 7.73256 14.0397 8.02254 13.7455C8.31251 13.4514 8.7058 13.2861 9.11589 13.2861Z" fill="#2935CC"/>
<circle cx="9" cy="15" r="2" fill="#2935CC"/>
</svg>
