<svg width="24" height="24" viewBox="0 0 24 24" fill="none" xmlns="http://www.w3.org/2000/svg">
<path fill-rule="evenodd" clip-rule="evenodd" d="M19.7067 3.29289C19.3162 2.90237 18.683 2.90237 18.2925 3.29289L10.7572 10.8282C9.96677 10.3048 9.01898 10 8 10C5.23858 10 3 12.2386 3 15C3 17.7614 5.23858 20 8 20C10.7614 20 13 17.7614 13 15C13 13.9808 12.6951 13.0329 12.1714 12.2424L14.9998 9.41402L16.2929 10.7071L16.3871 10.7903C16.7794 11.0953 17.3466 11.0676 17.7071 10.7071C18.0976 10.3166 18.0976 9.68342 17.7071 9.29289L16.414 7.9998L17.9998 6.41402L19.2929 7.70711L19.3871 7.7903C19.7794 8.09532 20.3466 8.06759 20.7071 7.70711C21.0976 7.31658 21.0976 6.68342 20.7071 6.29289L19.414 4.9998L19.7067 4.70711L19.7899 4.6129C20.0949 4.22061 20.0672 3.65338 19.7067 3.29289ZM8 12C9.65685 12 11 13.3431 11 15C11 16.6569 9.65685 18 8 18C6.34315 18 5 16.6569 5 15C5 13.3431 6.34315 12 8 12Z" fill="#2A877C"/>
</svg>
