<svg width="24" height="24" viewBox="0 0 24 24" fill="none" xmlns="http://www.w3.org/2000/svg">
<path fill-rule="evenodd" clip-rule="evenodd" d="M2 12C2 17.52 6.47 22 12 22C17.52 22 22 17.52 22 12C22 6.47 17.52 2 12 2C6.47 2 2 6.47 2 12ZM4 12C4 7.58 7.58 4 12 4C16.41 4 20 7.58 20 12C20 16.41 16.41 20 12 20C7.58 20 4 16.41 4 12ZM7.28954 12.71C7.46954 12.89 7.72954 13 7.99954 13L7.98954 12.99C8.24954 12.99 8.50954 12.88 8.69954 12.7L11 10.3995V16C11 16.55 11.44 17 12 17C12.55 17 13 16.55 13 16V10.4199L15.2904 12.7102C15.4704 12.8902 15.7304 13.0002 16.0004 13.0002L15.9894 12.9902C16.2494 12.9902 16.5094 12.8802 16.6994 12.7002H16.7094C17.0994 12.3102 17.0994 11.6702 16.7094 11.2902L12.7171 7.29799C12.7113 7.29193 12.7055 7.28593 12.6995 7.27998C12.2995 6.87998 11.6695 6.87998 11.2795 7.27998L7.27954 11.28V11.29C6.88954 11.68 6.88954 12.32 7.28954 12.71Z" fill="#2A877C"/>
</svg>
