<svg width="24" height="24" viewBox="0 0 24 24" fill="none" xmlns="http://www.w3.org/2000/svg">
<path d="M2 3.45833C2 3.84511 2.15365 4.21604 2.42714 4.48953C2.70063 4.76302 3.07156 4.91667 3.45833 4.91667C3.84511 4.91667 4.21604 4.76302 4.48953 4.48953C4.76302 4.21604 4.91667 3.84511 4.91667 3.45833C4.91667 3.07156 4.76302 2.70063 4.48953 2.42714C4.21604 2.15365 3.84511 2 3.45833 2C3.07156 2 2.70063 2.15365 2.42714 2.42714C2.15365 2.70063 2 3.07156 2 3.45833Z" fill="#2935CC"/>
<path d="M6.16699 3.45833C6.16699 3.84511 6.32064 4.21604 6.59413 4.48953C6.86762 4.76302 7.23855 4.91667 7.62533 4.91667C8.0121 4.91667 8.38303 4.76302 8.65652 4.48953C8.93001 4.21604 9.08366 3.84511 9.08366 3.45833C9.08366 3.07156 8.93001 2.70063 8.65652 2.42714C8.38303 2.15365 8.0121 2 7.62533 2C7.23855 2 6.86762 2.15365 6.59413 2.42714C6.32064 2.70063 6.16699 3.07156 6.16699 3.45833Z" fill="#2935CC"/>
<path d="M10.333 3.45833C10.333 3.84511 10.4867 4.21604 10.7601 4.48953C11.0336 4.76302 11.4046 4.91667 11.7913 4.91667C12.1781 4.91667 12.549 4.76302 12.8225 4.48953C13.096 4.21604 13.2497 3.84511 13.2497 3.45833C13.2497 3.07156 13.096 2.70063 12.8225 2.42714C12.549 2.15365 12.1781 2 11.7913 2C11.4046 2 11.0336 2.15365 10.7601 2.42714C10.4867 2.70063 10.333 3.07156 10.333 3.45833Z" fill="#2935CC"/>
<path d="M2 7.62533C2 8.0121 2.15365 8.38303 2.42714 8.65652C2.70063 8.93001 3.07156 9.08366 3.45833 9.08366C3.84511 9.08366 4.21604 8.93001 4.48953 8.65652C4.76302 8.38303 4.91667 8.0121 4.91667 7.62533C4.91667 7.23855 4.76302 6.86762 4.48953 6.59413C4.21604 6.32064 3.84511 6.16699 3.45833 6.16699C3.07156 6.16699 2.70063 6.32064 2.42714 6.59413C2.15365 6.86762 2 7.23855 2 7.62533Z" fill="#2935CC"/>
<path d="M6.16699 7.62533C6.16699 8.0121 6.32064 8.38303 6.59413 8.65652C6.86762 8.93001 7.23855 9.08366 7.62533 9.08366C8.0121 9.08366 8.38303 8.93001 8.65652 8.65652C8.93001 8.38303 9.08366 8.0121 9.08366 7.62533C9.08366 7.23855 8.93001 6.86762 8.65652 6.59413C8.38303 6.32064 8.0121 6.16699 7.62533 6.16699C7.23855 6.16699 6.86762 6.32064 6.59413 6.59413C6.32064 6.86762 6.16699 7.23855 6.16699 7.62533Z" fill="#2935CC"/>
<path d="M10.333 7.62533C10.333 8.0121 10.4867 8.38303 10.7601 8.65652C11.0336 8.93001 11.4046 9.08366 11.7913 9.08366C12.1781 9.08366 12.549 8.93001 12.8225 8.65652C13.096 8.38303 13.2497 8.0121 13.2497 7.62533C13.2497 7.23855 13.096 6.86762 12.8225 6.59413C12.549 6.32064 12.1781 6.16699 11.7913 6.16699C11.4046 6.16699 11.0336 6.32064 10.7601 6.59413C10.4867 6.86762 10.333 7.23855 10.333 7.62533Z" fill="#2935CC"/>
<path d="M2 11.7913C2 12.1781 2.15365 12.549 2.42714 12.8225C2.70063 13.096 3.07156 13.2497 3.45833 13.2497C3.84511 13.2497 4.21604 13.096 4.48953 12.8225C4.76302 12.549 4.91667 12.1781 4.91667 11.7913C4.91667 11.4046 4.76302 11.0336 4.48953 10.7601C4.21604 10.4867 3.84511 10.333 3.45833 10.333C3.07156 10.333 2.70063 10.4867 2.42714 10.7601C2.15365 11.0336 2 11.4046 2 11.7913Z" fill="#2935CC"/>
<path d="M6.16699 11.7913C6.16699 12.1781 6.32064 12.549 6.59413 12.8225C6.86762 13.096 7.23855 13.2497 7.62533 13.2497C8.0121 13.2497 8.38303 13.096 8.65652 12.8225C8.93001 12.549 9.08366 12.1781 9.08366 11.7913C9.08366 11.4046 8.93001 11.0336 8.65652 10.7601C8.38303 10.4867 8.0121 10.333 7.62533 10.333C7.23855 10.333 6.86762 10.4867 6.59413 10.7601C6.32064 11.0336 6.16699 11.4046 6.16699 11.7913Z" fill="#2935CC"/>
<path d="M18.2495 16.1667H16.1661V11.1667C16.1661 10.7246 15.9906 10.3007 15.678 9.98816C15.3654 9.6756 14.9415 9.5 14.4995 9.5C14.0575 9.5 13.6335 9.6756 13.321 9.98816C13.0084 10.3007 12.8328 10.7246 12.8328 11.1667V18.2L11.6161 16.7333C11.3333 16.393 10.9267 16.1789 10.486 16.1383C10.0453 16.0977 9.60651 16.2338 9.26615 16.5167C8.92579 16.7996 8.71175 17.2061 8.67112 17.6468C8.63048 18.0875 8.76659 18.5263 9.04948 18.8667L11.5495 21.85C11.5878 21.8969 11.6361 21.9347 11.6909 21.9607C11.7457 21.9866 11.8055 22.0001 11.8661 22H21.5828C21.6933 22 21.7993 21.9561 21.8774 21.878C21.9556 21.7998 21.9995 21.6938 21.9995 21.5833V19.9167C21.9973 18.9228 21.6015 17.9702 20.8987 17.2674C20.1959 16.5647 19.2434 16.1689 18.2495 16.1667Z" fill="#2935CC"/>
</svg>
