<svg width="24" height="24" viewBox="0 0 24 24" fill="none" xmlns="http://www.w3.org/2000/svg">
<circle cx="12" cy="12" r="9.16667" stroke="#2935CC" stroke-width="1.66667"/>
<path d="M11.3213 7.95255C11.6536 7.48619 12.3464 7.48619 12.6787 7.95255L13.6365 9.29692C13.7417 9.44454 13.8922 9.55385 14.0651 9.60826L15.6396 10.1038C16.1858 10.2757 16.3999 10.9346 16.0591 11.3947L15.0765 12.7211C14.9686 12.8668 14.9111 13.0437 14.9128 13.2249L14.9281 14.8755C14.9334 15.4481 14.3729 15.8554 13.83 15.6734L12.2648 15.1488C12.093 15.0912 11.907 15.0912 11.7352 15.1488L10.17 15.6734C9.62709 15.8554 9.0666 15.4481 9.0719 14.8755L9.08718 13.2249C9.08886 13.0437 9.0314 12.8668 8.9235 12.7211L7.94092 11.3947C7.60006 10.9346 7.81415 10.2757 8.36037 10.1038L9.93494 9.60826C10.1078 9.55385 10.2583 9.44454 10.3635 9.29692L11.3213 7.95255Z" fill="#2935CC"/>
</svg>
