<svg width="24" height="24" viewBox="0 0 24 24" fill="none" xmlns="http://www.w3.org/2000/svg">
<path fill-rule="evenodd" clip-rule="evenodd" d="M9.69894 3.51857C10.5613 1.4886 13.4385 1.4886 14.3009 3.51857L15.8585 7.18501L19.7068 7.50733C21.8843 7.6897 22.7964 10.3813 21.1783 11.8498L18.2354 14.5208L19.1987 18.957C19.6854 21.1983 17.1494 22.8572 15.2908 21.5134L11.9999 19.1339L8.70899 21.5134C6.85041 22.8573 4.3144 21.1983 4.8011 18.957L5.7644 14.5208L2.82143 11.8498C1.20334 10.3813 2.11542 7.6897 4.29293 7.50733L8.14133 7.18501L9.69894 3.51857ZM12.4601 4.30059C12.2876 3.8946 11.7122 3.8946 11.5397 4.30059L9.86418 8.2446C9.6466 8.75678 9.16334 9.10641 8.6088 9.15286L4.45985 9.50035C4.02435 9.53682 3.84194 10.0751 4.16555 10.3688L7.3224 13.234C7.7194 13.5943 7.89391 14.1391 7.78014 14.663L6.75555 19.3814C6.65821 19.8297 7.16541 20.1614 7.53712 19.8927L11.121 17.3013C11.6456 16.9221 12.3543 16.9221 12.8788 17.3013L16.4627 19.8927C16.8344 20.1614 17.3416 19.8297 17.2443 19.3814L16.2197 14.663C16.1059 14.1391 16.2804 13.5943 16.6774 13.234L19.8342 10.3688C20.1578 10.0751 19.9754 9.53682 19.5399 9.50035L15.391 9.15286C14.8365 9.10641 14.3532 8.75678 14.1356 8.2446L12.4601 4.30059Z" fill="#2A877C"/>
</svg>
