<svg width="24" height="24" viewBox="0 0 24 24" fill="none" xmlns="http://www.w3.org/2000/svg">
<path fill-rule="evenodd" clip-rule="evenodd" d="M18 2H6C4.34315 2 3 3.34315 3 5V19C3 20.6569 4.34315 22 6 22H18C19.6569 22 21 20.6569 21 19V5C21 3.34315 19.6569 2 18 2ZM6 4H18C18.5523 4 19 4.44772 19 5V19C19 19.5523 18.5523 20 18 20H6C5.44772 20 5 19.5523 5 19V5C5 4.44772 5.44772 4 6 4ZM15 6H9C7.89543 6 7 6.89543 7 8V9C7 10.1046 7.89543 11 9 11H15C16.1046 11 17 10.1046 17 9V8C17 6.89543 16.1046 6 15 6ZM9 8H15V9H9V8ZM8 13C8.51284 13 8.93551 13.386 8.99327 13.8834L9 14.01C9 14.5623 8.55228 15.01 8 15.01C7.48716 15.01 7.06449 14.624 7.00673 14.1266L7 14C7 13.4477 7.44772 13 8 13ZM12.9933 13.8834C12.9355 13.386 12.5128 13 12 13C11.4477 13 11 13.4477 11 14L11.0067 14.1266C11.0645 14.624 11.4872 15.01 12 15.01C12.5523 15.01 13 14.5623 13 14.01L12.9933 13.8834ZM16 13C16.5128 13 16.9355 13.386 16.9933 13.8834L17 14.01C17 14.5623 16.5523 15.01 16 15.01C15.4872 15.01 15.0645 14.624 15.0067 14.1266L15 14C15 13.4477 15.4477 13 16 13ZM8.99327 16.8834C8.93551 16.386 8.51284 16 8 16C7.44772 16 7 16.4477 7 17L7.00673 17.1266C7.06449 17.624 7.48716 18.01 8 18.01C8.55228 18.01 9 17.5623 9 17.01L8.99327 16.8834ZM12 16C12.5128 16 12.9355 16.386 12.9933 16.8834L13 17.01C13 17.5623 12.5523 18.01 12 18.01C11.4872 18.01 11.0645 17.624 11.0067 17.1266L11 17C11 16.4477 11.4477 16 12 16ZM16.9933 16.8834C16.9355 16.386 16.5128 16 16 16C15.4477 16 15 16.4477 15 17L15.0067 17.1266C15.0645 17.624 15.4872 18.01 16 18.01C16.5523 18.01 17 17.5623 17 17.01L16.9933 16.8834Z" fill="#2A877C"/>
</svg>
