<svg width="24" height="24" viewBox="0 0 24 24" fill="none" xmlns="http://www.w3.org/2000/svg">
<path fill-rule="evenodd" clip-rule="evenodd" d="M17.1882 3.6207C17.1251 3.55954 17.0405 3.52533 16.9524 3.52539H5.87183C5.7823 3.52539 5.69644 3.56075 5.63313 3.62368C5.56983 3.68662 5.53426 3.77199 5.53426 3.861V13.8203H19.4657V5.97201C19.4657 5.92725 19.4567 5.88286 19.4392 5.84162C19.4217 5.80035 19.3961 5.76298 19.3638 5.73172L17.1882 3.6207ZM16.9519 2C17.4404 1.99984 17.9095 2.1895 18.2593 2.52852L20.4347 4.63939C20.6134 4.81268 20.7558 5.02011 20.8529 5.24881C20.95 5.47765 21 5.7235 21 5.97187V18.139C21 18.6326 20.8028 19.1059 20.4517 19.4549C20.1008 19.8039 19.6246 20 19.1282 20H5.87183C5.37539 20 4.89928 19.8039 4.54825 19.4549C4.19721 19.1059 4 18.6326 4 18.139V3.861C4 3.36743 4.19721 2.89408 4.54825 2.54507C4.89928 2.19607 5.37539 2 5.87183 2H16.9519Z" fill="#2935CC"/>
<rect x="6" y="16" width="13" height="2" rx="1" fill="white"/>
<path fill-rule="evenodd" clip-rule="evenodd" d="M15.0577 6.65738C14.634 6.65738 14.2906 6.99885 14.2906 7.42007C14.2906 7.84129 14.634 8.18277 15.0577 8.18277H17.2988C17.7225 8.18277 18.066 7.84129 18.066 7.42007C18.066 6.99885 17.7225 6.65738 17.2988 6.65738H15.0577ZM15.0577 10.0835C14.634 10.0835 14.2906 10.425 14.2906 10.8462C14.2906 11.2675 14.634 11.6089 15.0577 11.6089H17.2988C17.7225 11.6089 18.066 11.2675 18.066 10.8462C18.066 10.425 17.7225 10.0835 17.2988 10.0835H15.0577ZM9.10704 5.74609H10.4746C10.6865 5.74609 10.8582 5.91683 10.8582 6.12744V7.61474H12.3539C12.5658 7.61474 12.7375 7.78547 12.7375 7.99608V9.35578C12.7375 9.56636 12.5658 9.73713 12.3539 9.73713H10.8582V11.2244C10.8582 11.435 10.6865 11.6057 10.4746 11.6057H9.10704C8.8952 11.6057 8.72347 11.435 8.72347 11.2244V9.73713H7.22732C7.01547 9.73713 6.84375 9.56636 6.84375 9.35578V7.99607C6.84375 7.78547 7.01548 7.61473 7.22732 7.61473L8.72347 7.61474V6.12744C8.72347 5.91683 8.8952 5.74609 9.10704 5.74609Z" fill="#2935CC"/>
</svg>
