<svg width="24" height="24" viewBox="0 0 24 24" fill="none" xmlns="http://www.w3.org/2000/svg">
<path d="M20.8232 17.8818H13.2607" stroke="#2935CC" stroke-width="1.5" stroke-linecap="round"/>
<path d="M17.4619 14.5205L20.823 17.8816L17.4619 21.2427" stroke="#2935CC" stroke-width="1.5" stroke-linecap="round"/>
<path fill-rule="evenodd" clip-rule="evenodd" d="M9.4859 9.09046C10.5848 9.09046 11.6386 8.66427 12.4156 7.90564C13.1926 7.14701 13.6291 6.11809 13.6291 5.04523C13.6291 3.97237 13.1926 2.94345 12.4156 2.18482C11.6386 1.42619 10.5848 1 9.4859 1C8.38704 1 7.33319 1.42619 6.55618 2.18482C5.77917 2.94345 5.34265 3.97237 5.34265 5.04523C5.34265 6.11809 5.77917 7.14701 6.55618 7.90564C7.33319 8.66427 8.38704 9.09046 9.4859 9.09046ZM9.65156 17.4363C9.65156 17.9207 9.80152 18.3701 10.0587 18.743H1.83066C1.32932 18.743 0.927379 18.3293 1.01108 17.8466C1.66762 14.0806 4.9782 10.8832 9.48154 10.8832C11.9403 10.8832 14.0424 11.8349 15.5525 13.3119C15.3043 13.6659 15.1714 14.0849 15.1715 14.5139V15.0953H12.0484C11.4125 15.0953 10.8026 15.3419 10.353 15.781C9.9033 16.22 9.65156 16.8154 9.65156 17.4363Z" fill="#2935CC"/>
</svg>
