<svg width="24" height="24" viewBox="0 0 24 24" fill="none" xmlns="http://www.w3.org/2000/svg">
<path fill-rule="evenodd" clip-rule="evenodd" d="M4 12H20V17C20 19.2091 18.2091 21 16 21H8C5.79086 21 4 19.2091 4 17V12ZM6 14V17C6 18.1046 6.89543 19 8 19H16C17.1046 19 18 18.1046 18 17V14H6Z" fill="#2A877C"/>
<path fill-rule="evenodd" clip-rule="evenodd" d="M3 10C3 8.34315 4.34315 7 6 7H18C19.6569 7 21 8.34315 21 10V11C21 12.6569 19.6569 14 18 14H6C4.34315 14 3 12.6569 3 11V10ZM6 9C5.44772 9 5 9.44772 5 10V11C5 11.5523 5.44772 12 6 12H18C18.5523 12 19 11.5523 19 11V10C19 9.44772 18.5523 9 18 9H6Z" fill="#2A877C"/>
<path fill-rule="evenodd" clip-rule="evenodd" d="M7 6C7 4.34315 8.34315 3 10 3C10.7684 3 11.4692 3.28885 12 3.76389C12.5308 3.28885 13.2316 3 14 3C15.6569 3 17 4.34315 17 6C17 7.65685 15.6569 9 14 9H13V21H11V9H10C8.34315 9 7 7.65685 7 6ZM11 7V6C11 5.44772 10.5523 5 10 5C9.44772 5 9 5.44772 9 6C9 6.55228 9.44772 7 10 7H11ZM13 6V7H14C14.5523 7 15 6.55228 15 6C15 5.44772 14.5523 5 14 5C13.4477 5 13 5.44772 13 6Z" fill="#2A877C"/>
</svg>
