<svg width="24" height="24" viewBox="0 0 24 24" fill="none" xmlns="http://www.w3.org/2000/svg">
<path fill-rule="evenodd" clip-rule="evenodd" d="M8.37655 9.37655C8.6547 9.09841 8.99279 8.97209 9.36745 9.00515C9.75433 9.03929 10.2514 9.25172 10.792 9.79231C11.2439 10.2442 11.4993 11.0819 11.6176 11.9431C11.6576 12.2352 11.6794 12.5101 11.6909 12.7431C11.4666 12.7265 11.2034 12.6992 10.9237 12.6545C10.0825 12.5198 9.25161 12.2513 8.79231 11.792C8.25172 11.2514 8.03929 10.7543 8.00515 10.3674C7.9721 9.99279 8.09841 9.65469 8.37655 9.37655ZM15.423 9.00515C15.7977 8.97209 16.1358 9.09841 16.4139 9.37655C16.6921 9.65469 16.8184 9.99279 16.7853 10.3674C16.7512 10.7543 16.5387 11.2514 15.9982 11.792C15.5389 12.2513 14.7079 12.5198 13.8668 12.6545C13.5871 12.6992 13.3239 12.7265 13.0996 12.7431C13.111 12.5101 13.1329 12.2352 13.1729 11.9431C13.2911 11.0819 13.5465 10.2442 13.9985 9.79231C14.5391 9.25172 15.0362 9.03929 15.423 9.00515Z" fill="#2935CC"/>
<path d="M13.9287 12.8577C13.9287 12.5027 13.6409 12.2148 13.2859 12.2148C12.9308 12.2148 12.643 12.5027 12.643 12.8577C12.643 13.4606 12.819 14.3508 13.3645 15.1085C13.9337 15.8989 14.8765 16.5006 16.2859 16.5006C16.6409 16.5006 16.9287 16.2127 16.9287 15.8577C16.9287 15.5027 16.6409 15.2148 16.2859 15.2148C15.2954 15.2148 14.7383 14.8163 14.4075 14.3569C14.0532 13.8646 13.9287 13.2548 13.9287 12.8577Z" fill="#2935CC"/>
<path d="M10.9287 12.8577C10.9287 12.5027 11.2165 12.2148 11.5716 12.2148C11.9266 12.2148 12.2144 12.5027 12.2144 12.8577C12.2144 13.4606 12.0385 14.3508 11.4929 15.1085C10.9237 15.8989 9.9809 16.5006 8.57157 16.5006C8.21653 16.5006 7.92871 16.2127 7.92871 15.8577C7.92871 15.5027 8.21653 15.2148 8.57157 15.2148C9.56205 15.2148 10.1191 14.8163 10.4499 14.3569C10.8042 13.8646 10.9287 13.2548 10.9287 12.8577Z" fill="#2935CC"/>
<path d="M6.43234 12.21H18.4323C18.7874 12.21 19.0752 12.4978 19.0752 12.8528C19.0752 13.2079 18.7874 13.4957 18.4323 13.4957H6.43234C6.0773 13.4957 5.78948 13.2079 5.78948 12.8528C5.78948 12.4978 6.0773 12.21 6.43234 12.21Z" fill="#2935CC"/>
<path d="M11.7852 17.5721L11.7852 7.28641C11.7852 6.93137 12.073 6.64355 12.428 6.64355C12.7831 6.64355 13.0709 6.93137 13.0709 7.28641L13.0709 17.5721C13.0709 17.9272 12.7831 18.215 12.428 18.215C12.073 18.215 11.7852 17.9272 11.7852 17.5721Z" fill="#2935CC"/>
<path d="M18.4286 19.2857V21H6.42857V19.2857H18.4286ZM20.1429 17.5714V6.42857C20.1429 5.4818 19.3753 4.71429 18.4286 4.71429H6.42857C5.54087 4.71429 4.81115 5.38905 4.72349 6.25363L4.71429 6.42857V17.5714C4.71429 18.5182 5.4818 19.2857 6.42857 19.2857V21C4.59425 21 3.0961 19.5595 3.00419 17.748L3 17.5714V6.42857C3 4.53502 4.53502 3 6.42857 3H18.4286L18.6052 3.00419C20.4167 3.0961 21.8571 4.59425 21.8571 6.42857V17.5714C21.8571 19.4057 20.4167 20.9039 18.6052 20.9958L18.4286 21V19.2857C19.3753 19.2857 20.1429 18.5182 20.1429 17.5714Z" fill="#2935CC"/>
</svg>
