<svg width="24" height="24" viewBox="0 0 24 24" fill="none" xmlns="http://www.w3.org/2000/svg">
<g clip-path="url(#clip0_30006_16316)">
<path fill-rule="evenodd" clip-rule="evenodd" d="M11 2.66667C6.39751 2.66667 2.66667 6.3975 2.66667 11C2.66667 11.9683 2.83167 12.8958 3.13334 13.7583C3.2025 13.9659 3.18729 14.1923 3.091 14.3887C2.9947 14.5851 2.82504 14.7357 2.61862 14.8082C2.41221 14.8806 2.1856 14.8689 1.9877 14.7757C1.7898 14.6825 1.63649 14.5152 1.56084 14.31C1.18845 13.2462 0.99883 12.1271 1.00001 11C1.00001 5.4775 5.47751 1 11 1C13.2083 1 15.2492 1.71667 16.9033 2.9275L17.795 2.03583C17.8824 1.94854 17.9937 1.8891 18.1149 1.86503C18.2361 1.84096 18.3616 1.85333 18.4758 1.90059C18.5899 1.94785 18.6875 2.02788 18.7562 2.13056C18.8248 2.23324 18.8616 2.35397 18.8617 2.4775V5.35C18.8617 5.51576 18.7958 5.67473 18.6786 5.79194C18.5614 5.90915 18.4024 5.975 18.2367 5.975H15.3642C15.2406 5.97489 15.1199 5.93818 15.0172 5.86949C14.9145 5.80081 14.8345 5.70324 14.7873 5.5891C14.74 5.47497 14.7276 5.34939 14.7517 5.22822C14.7758 5.10705 14.8352 4.99574 14.9225 4.90833L15.7075 4.1225C14.3221 3.1715 12.6804 2.66381 11 2.66667ZM19.3183 7.05333C19.421 7.01551 19.5302 6.9983 19.6395 7.00267C19.7489 7.00703 19.8563 7.0329 19.9557 7.07879C20.0551 7.12468 20.1444 7.18969 20.2186 7.27011C20.2929 7.35053 20.3505 7.44479 20.3883 7.5475C20.7833 8.625 21 9.78833 21 11C21 16.5233 16.5233 21 11 21C8.79167 21 6.75084 20.2842 5.09667 19.0725L4.20501 19.9642C4.1176 20.0515 4.00628 20.1109 3.88512 20.135C3.76395 20.159 3.63837 20.1467 3.52424 20.0994C3.4101 20.0521 3.31253 19.9721 3.24384 19.8694C3.17516 19.7668 3.13845 19.646 3.13834 19.5225V16.65C3.13834 16.4842 3.20419 16.3253 3.3214 16.2081C3.43861 16.0908 3.59758 16.025 3.76334 16.025H6.63584C6.75937 16.0251 6.8801 16.0618 6.98278 16.1305C7.08546 16.1992 7.16549 16.2968 7.21274 16.4109C7.26 16.525 7.27238 16.6506 7.24831 16.7718C7.22424 16.8929 7.1648 17.0043 7.07751 17.0917L6.29251 17.8775C7.67792 18.8285 9.31958 19.3362 11 19.3333C15.6017 19.3333 19.3333 15.6025 19.3333 11C19.3343 10.0182 19.1613 9.04398 18.8225 8.1225C18.7464 7.91508 18.7558 7.68593 18.8487 7.48544C18.9415 7.28495 19.111 7.12952 19.3183 7.05333Z" fill="#2935CC"/>
<path fill-rule="evenodd" clip-rule="evenodd" d="M11.0036 10.2294C11.277 10.2349 11.5488 10.1858 11.803 10.085C12.0572 9.98418 12.2887 9.83366 12.484 9.64225C12.6793 9.45084 12.8345 9.22239 12.9404 8.97028C13.0463 8.71817 13.1009 8.44746 13.1009 8.174C13.1009 7.90054 13.0463 7.62983 12.9404 7.37771C12.8345 7.1256 12.6793 6.89715 12.484 6.70574C12.2887 6.51433 12.0572 6.36381 11.803 6.26299C11.5488 6.16217 11.277 6.11308 11.0036 6.11858C10.4657 6.12941 9.95339 6.35073 9.57676 6.73501C9.20014 7.1193 8.98919 7.63592 8.98919 8.174C8.98919 8.71207 9.20014 9.2287 9.57676 9.61298C9.95339 9.99727 10.4657 10.2186 11.0036 10.2294ZM11.0003 11.1519C12.7378 11.1519 14.292 12.1302 15.1303 13.5561C15.4145 14.0394 15.0178 14.5844 14.4578 14.5844H7.54196C6.98196 14.5844 6.58446 14.0386 6.86863 13.5561C7.70696 12.1311 9.26196 11.1519 11.0003 11.1519Z" fill="#2935CC"/>
</g>
<defs>
<clipPath id="clip0_30006_16316">
<rect width="20" height="20" fill="white" transform="translate(1 1)"/>
</clipPath>
</defs>
</svg>
