<svg width="24" height="24" viewBox="0 0 24 24" fill="none" xmlns="http://www.w3.org/2000/svg">
<path d="M7.29688 10.3932C7.29687 10.6039 7.33837 10.8125 7.41898 11.0071C7.4996 11.2017 7.61776 11.3786 7.76672 11.5275C7.91568 11.6765 8.09253 11.7947 8.28715 11.8753C8.48178 11.9559 8.69038 11.9974 8.90104 11.9974C9.1117 11.9974 9.3203 11.9559 9.51493 11.8753C9.70956 11.7947 9.8864 11.6765 10.0354 11.5275C10.1843 11.3786 10.3025 11.2017 10.3831 11.0071C10.4637 10.8125 10.5052 10.6039 10.5052 10.3932C10.5052 9.96778 10.3362 9.55975 10.0354 9.25891C9.73452 8.95807 9.32649 8.78906 8.90104 8.78906C8.47559 8.78906 8.06756 8.95807 7.76672 9.25891C7.46588 9.55975 7.29688 9.96778 7.29688 10.3932Z" stroke="white" stroke-width="1.5"/>
<path d="M6.03906 16.1237V14.7487C6.03906 14.7487 7.06819 13.832 8.90152 13.832C10.7349 13.832 11.764 14.7487 11.764 14.7487V16.1237" stroke="white" stroke-width="1.5"/>
<path d="M2.83203 5.58203H21.1654V18.4154H2.83203V5.58203Z" stroke="white" stroke-width="1.5"/>
<path d="M13.832 10.1641H18.4154" stroke="white" stroke-width="1.5"/>
<path d="M18.4154 13.832H13.832" stroke="white" stroke-width="1.5"/>
</svg>
