<svg width="24" height="24" viewBox="0 0 24 24" fill="none" xmlns="http://www.w3.org/2000/svg">
<path d="M7.2998 10.3952C7.2998 10.6058 7.3413 10.8144 7.42191 11.0091C7.50253 11.2037 7.62069 11.3805 7.76965 11.5295C7.91861 11.6785 8.09546 11.7966 8.29008 11.8772C8.48471 11.9579 8.69331 11.9993 8.90397 11.9993C9.11463 11.9993 9.32323 11.9579 9.51786 11.8772C9.71249 11.7966 9.88933 11.6785 10.0383 11.5295C10.1872 11.3805 10.3054 11.2037 10.386 11.0091C10.4666 10.8144 10.5081 10.6058 10.5081 10.3952C10.5081 9.96973 10.3391 9.5617 10.0383 9.26086C9.73745 8.96003 9.32942 8.79102 8.90397 8.79102C8.47852 8.79102 8.07049 8.96003 7.76965 9.26086C7.46881 9.5617 7.2998 9.96973 7.2998 10.3952Z" stroke="#82B4FF" stroke-width="1.5"/>
<path d="M6.04102 16.1247V14.7497C6.04102 14.7497 7.07014 13.833 8.90347 13.833C10.7368 13.833 11.766 14.7497 11.766 14.7497V16.1247" stroke="#82B4FF" stroke-width="1.5"/>
<path d="M2.83301 5.58301H21.1663V18.4163H2.83301V5.58301Z" stroke="#82B4FF" stroke-width="1.5"/>
<path d="M13.833 10.166H18.4163" stroke="#82B4FF" stroke-width="1.5"/>
<path d="M18.4163 13.833H13.833" stroke="#82B4FF" stroke-width="1.5"/>
</svg>
