<svg width="24" height="24" viewBox="0 0 24 24" fill="none" xmlns="http://www.w3.org/2000/svg">
<path d="M4.56555 5.96415L10.409 3.27225C10.7931 3.09531 11.2234 3.04467 11.638 3.1276L19.3926 4.67846C20.3275 4.86542 21.0004 5.68625 21.0004 6.63962V15.7958C21.0004 16.5366 20.5909 17.2168 19.9362 17.5634L13.3044 21.0742C12.7933 21.3447 12.1902 21.3808 11.6505 21.1732L4.68434 18.4932C3.91205 18.196 3.40247 17.454 3.40246 16.6266L3.40236 7.78069C3.40235 7.00006 3.85653 6.29077 4.56555 5.96415Z" stroke="#5493FF" stroke-width="2"/>
<path d="M4 7L11.1026 9.08899C12.0052 9.35447 12.9725 9.29327 13.8345 8.91616L20.5 6" stroke="#5493FF" stroke-width="2"/>
<path d="M12.5 9.5V15.75V21.5" stroke="#5493FF" stroke-width="2"/>
<path d="M7 12L7.04529 11.9094C7.30231 11.3954 7.91044 11.1642 8.44405 11.3776V11.3776C9.18062 11.6722 9.37598 12.624 8.81502 13.185L8.65919 13.3408C8.23712 13.7629 8 14.3353 8 14.9322V15" stroke="#5493FF" stroke-linecap="round"/>
<circle cx="8" cy="17" r="0.5" fill="#5493FF"/>
<path d="M16 11L16.0453 10.9094C16.3023 10.3954 16.9104 10.1642 17.444 10.3776V10.3776C18.1806 10.6722 18.376 11.624 17.815 12.185L17.6592 12.3408C17.2371 12.7629 17 13.3353 17 13.9322V14" stroke="#5493FF" stroke-linecap="round"/>
<circle cx="17" cy="16" r="0.5" fill="#5493FF"/>
</svg>
