<svg width="24" height="24" viewBox="0 0 24 24" fill="none" xmlns="http://www.w3.org/2000/svg">
<path d="M2.75684 11.9999C2.75684 14.4513 3.73065 16.8023 5.46406 18.5357C7.19747 20.2691 9.54848 21.2429 11.9999 21.2429C14.4513 21.2429 16.8023 20.2691 18.5357 18.5357C20.2691 16.8023 21.2429 14.4513 21.2429 11.9999C21.2429 9.54848 20.2691 7.19747 18.5357 5.46406C16.8023 3.73065 14.4513 2.75684 11.9999 2.75684C9.54848 2.75684 7.19747 3.73065 5.46406 5.46406C3.73065 7.19747 2.75684 9.54848 2.75684 11.9999Z" stroke="#82B4FF" stroke-width="1.5"/>
<path d="M8.21875 15.7812L15.7812 8.21875" stroke="#82B4FF" stroke-width="1.5"/>
<path d="M8.84863 9.26877L9.26877 8.84863L9.68891 9.26877L9.26877 9.68891L8.84863 9.26877Z" stroke="#82B4FF" stroke-width="1.5"/>
<path d="M14.3105 14.7307L14.7307 14.3105L15.1508 14.7307L14.7307 15.1508L14.3105 14.7307Z" stroke="#82B4FF" stroke-width="1.5"/>
</svg>
