<svg width="24" height="24" viewBox="0 0 24 24" fill="none" xmlns="http://www.w3.org/2000/svg">
<path d="M14.334 6.52961C14.334 6.73663 14.4162 6.93518 14.5626 7.08157C14.709 7.22795 14.9075 7.31019 15.1146 7.31019C15.3216 7.31019 15.5201 7.22795 15.6665 7.08157C15.8129 6.93518 15.8952 6.73663 15.8952 6.52961C15.8952 6.32258 15.8129 6.12404 15.6665 5.97765C15.5201 5.83126 15.3216 5.74902 15.1146 5.74902C14.9075 5.74902 14.709 5.83126 14.5626 5.97765C14.4162 6.12404 14.334 6.32258 14.334 6.52961Z" fill="#2935CC"/>
<path d="M14.334 8.66828C14.334 8.8753 14.4162 9.07385 14.5626 9.22024C14.709 9.36663 14.9075 9.44887 15.1146 9.44887C15.3216 9.44887 15.5201 9.36663 15.6665 9.22024C15.8129 9.07385 15.8952 8.8753 15.8952 8.66828C15.8952 8.46126 15.8129 8.26271 15.6665 8.11632C15.5201 7.96994 15.3216 7.8877 15.1146 7.8877C14.9075 7.8877 14.709 7.96994 14.5626 8.11632C14.4162 8.26271 14.334 8.46126 14.334 8.66828Z" fill="#2935CC"/>
<path d="M14.3418 10.9233C14.3562 10.9773 14.3894 11.0244 14.4354 11.056C14.4608 11.069 14.4889 11.0758 14.5174 11.0758C14.5459 11.0758 14.574 11.069 14.5994 11.056C14.9511 10.9294 15.3146 10.8379 15.6844 10.7828C15.7128 10.7773 15.7399 10.7662 15.764 10.7501C15.7882 10.734 15.8089 10.7133 15.8249 10.6891C15.8439 10.6335 15.8439 10.5731 15.8249 10.5174C15.7586 10.3495 15.6361 10.2097 15.4783 10.1219C15.3205 10.0341 15.1372 10.0037 14.9595 10.036C14.7819 10.0682 14.6209 10.161 14.504 10.2986C14.3871 10.4362 14.3215 10.6101 14.3184 10.7906C14.334 10.8453 14.3418 10.8843 14.3418 10.9233Z" fill="#2935CC"/>
<path d="M20.1729 4H4.56117C4.14712 4 3.75003 4.16448 3.45726 4.45726C3.16448 4.75003 3 5.14712 3 5.56117V7.72339C2.99983 8.00765 3.10376 8.28213 3.29216 8.49498C3.48056 8.70783 3.74039 8.84432 4.02257 8.87866C4.54013 8.87866 5.03649 9.08426 5.40246 9.45023C5.76843 9.8162 5.97403 10.3126 5.97403 10.8301C5.97403 11.3477 5.76843 11.844 5.40246 12.21C5.03649 12.576 4.54013 12.7816 4.02257 12.7816C3.74695 12.815 3.49237 12.9459 3.30483 13.1506C3.11729 13.3553 3.00917 13.6203 3 13.8978V16.0679C3 16.4819 3.16448 16.879 3.45726 17.1718C3.75003 17.4645 4.14712 17.629 4.56117 17.629H10.2673C10.2938 17.6297 10.3202 17.6244 10.3445 17.6136C10.3688 17.6028 10.3904 17.5867 10.4078 17.5666C10.4276 17.5477 10.4428 17.5245 10.4523 17.4988C10.4617 17.4731 10.4652 17.4455 10.4624 17.4183V16.9499C10.4633 16.7308 10.4763 16.5119 10.5014 16.2942C10.5065 16.2381 10.4897 16.1822 10.4546 16.1381C10.4154 16.0985 10.362 16.076 10.3063 16.0757H4.74851C4.72288 16.0747 4.69769 16.0686 4.6744 16.0579C4.65111 16.0471 4.63016 16.0319 4.61276 16.013C4.59536 15.9942 4.58185 15.9721 4.573 15.948C4.56414 15.9239 4.56013 15.8983 4.56117 15.8727V14.3818C4.55983 14.3392 4.57301 14.2975 4.59855 14.2635C4.62408 14.2294 4.66046 14.2051 4.70168 14.1944C5.44558 13.9937 6.10261 13.5535 6.57114 12.9418C7.03966 12.3301 7.29356 11.5811 7.29356 10.8106C7.29356 10.0401 7.03966 9.29108 6.57114 8.6794C6.10261 8.06772 5.44558 7.62747 4.70168 7.42677C4.66114 7.41495 4.62553 7.3903 4.6002 7.35652C4.57487 7.32274 4.56117 7.28165 4.56117 7.23943V5.74851C4.56113 5.69808 4.58062 5.64959 4.61554 5.61321C4.65047 5.57683 4.69812 5.55538 4.74851 5.55337H19.9855C20.0359 5.55538 20.0836 5.57683 20.1185 5.61321C20.1534 5.64959 20.1729 5.69808 20.1729 5.74851V7.23943C20.1729 7.28165 20.1592 7.32274 20.1339 7.35652C20.1085 7.3903 20.0729 7.41495 20.0324 7.42677C19.3289 7.62156 18.7036 8.03067 18.2433 8.59724C17.7831 9.1638 17.5108 9.85968 17.4643 10.5881C17.4598 10.6366 17.4745 10.685 17.5051 10.7228C17.5357 10.7607 17.5798 10.7852 17.6282 10.7911C18.0102 10.8525 18.3863 10.9465 18.7522 11.0721C18.7803 11.0853 18.8109 11.0922 18.842 11.0922C18.873 11.0922 18.9037 11.0853 18.9318 11.0721C18.9577 11.0519 18.9783 11.0258 18.9919 10.9959C19.0055 10.9659 19.0117 10.9332 19.0098 10.9004V10.8067C19.0116 10.3337 19.1851 9.8774 19.4981 9.52275C19.8112 9.16809 20.2423 8.9392 20.7115 8.87866C20.9937 8.84432 21.2535 8.70783 21.4419 8.49498C21.6303 8.28213 21.7342 8.00765 21.7341 7.72339V5.55337C21.732 5.14067 21.5666 4.74558 21.274 4.45449C20.9815 4.1634 20.5856 3.99999 20.1729 4Z" fill="#2935CC"/>
<path d="M16.6764 11.8838C15.6759 11.8838 14.698 12.1804 13.8662 12.7362C13.0344 13.2921 12.386 14.082 12.0032 15.0063C11.6204 15.9306 11.5202 16.9476 11.7154 17.9288C11.9105 18.91 12.3923 19.8113 13.0997 20.5187C13.8071 21.2261 14.7084 21.7078 15.6896 21.903C16.6708 22.0982 17.6878 21.998 18.612 21.6151C19.5363 21.2323 20.3263 20.584 20.8821 19.7522C21.4379 18.9204 21.7346 17.9424 21.7346 16.942C21.7325 15.6011 21.1989 14.3157 20.2508 13.3676C19.3026 12.4194 18.0172 11.8859 16.6764 11.8838ZM17.4101 19.8223C17.3667 19.8312 17.3276 19.8546 17.2992 19.8886C17.2708 19.9227 17.2549 19.9654 17.254 20.0097V20.2517C17.2635 20.3337 17.2556 20.4168 17.2307 20.4955C17.2058 20.5743 17.1646 20.6469 17.1096 20.7085C17.0547 20.7702 16.9874 20.8195 16.912 20.8533C16.8367 20.8871 16.755 20.9046 16.6725 20.9046C16.5899 20.9046 16.5082 20.8871 16.4329 20.8533C16.3575 20.8195 16.2902 20.7702 16.2353 20.7085C16.1804 20.6469 16.1391 20.5743 16.1142 20.4955C16.0893 20.4168 16.0814 20.3337 16.0909 20.2517V20.0253C16.0909 19.9735 16.0704 19.9239 16.0338 19.8873C15.9972 19.8507 15.9475 19.8302 15.8958 19.8302H15.4899C15.3346 19.8302 15.1857 19.7685 15.0759 19.6587C14.9661 19.5489 14.9044 19.4 14.9044 19.2447C14.9044 19.0894 14.9661 18.9405 15.0759 18.8307C15.1857 18.721 15.3346 18.6593 15.4899 18.6593H17.051C17.1556 18.6562 17.256 18.6177 17.3357 18.55C17.4154 18.4824 17.4697 18.3896 17.4897 18.2869C17.5097 18.1843 17.4942 18.0779 17.4456 17.9852C17.3971 17.8926 17.3185 17.8192 17.2228 17.7772L15.6148 17.1293C15.3237 17.0078 15.075 16.8028 14.9 16.5403C14.725 16.2779 14.6315 15.9695 14.6312 15.654C14.6396 15.2846 14.7731 14.929 15.01 14.6454C15.2468 14.3618 15.5728 14.167 15.9348 14.0928C15.9782 14.084 16.0174 14.0606 16.0457 14.0266C16.0741 13.9925 16.09 13.9498 16.0909 13.9055V13.6635C16.0814 13.5815 16.0893 13.4984 16.1142 13.4196C16.1391 13.3409 16.1804 13.2683 16.2353 13.2067C16.2902 13.145 16.3575 13.0956 16.4329 13.0619C16.5082 13.0281 16.5899 13.0106 16.6725 13.0106C16.755 13.0106 16.8367 13.0281 16.912 13.0619C16.9874 13.0956 17.0547 13.145 17.1096 13.2067C17.1646 13.2683 17.2058 13.3409 17.2307 13.4196C17.2556 13.4984 17.2635 13.5815 17.254 13.6635V13.8587C17.254 13.9104 17.2746 13.9601 17.3112 13.9967C17.3477 14.0333 17.3974 14.0538 17.4491 14.0538H17.8316C17.9869 14.0538 18.1358 14.1155 18.2456 14.2253C18.3554 14.3351 18.4171 14.484 18.4171 14.6393C18.4171 14.7945 18.3554 14.9434 18.2456 15.0532C18.1358 15.163 17.9869 15.2247 17.8316 15.2247H16.2705C16.1659 15.2277 16.0655 15.2663 15.9858 15.3339C15.9061 15.4016 15.8518 15.4944 15.8318 15.597C15.8118 15.6997 15.8273 15.8061 15.8759 15.8987C15.9244 15.9914 16.003 16.0647 16.0987 16.1068L17.7067 16.7546C18.0415 16.8782 18.3263 17.1086 18.517 17.4102C18.7077 17.7119 18.7938 18.068 18.7618 18.4234C18.7298 18.7789 18.5816 19.1139 18.3401 19.3766C18.0986 19.6394 17.7772 19.8152 17.4257 19.877L17.4101 19.8223Z" fill="#2935CC"/>
</svg>
