<svg width="24" height="24" viewBox="0 0 24 24" fill="none" xmlns="http://www.w3.org/2000/svg">
<g clip-path="url(#clip0_36832_3773)">
<path d="M12 2C14.043 2 15.9459 2.6136 17.5303 3.66699L16.4229 5.33301C15.1564 4.49093 13.6371 4 12 4C7.58172 4 4 7.58172 4 12C4 16.4183 7.58172 20 12 20C16.4183 20 20 16.4183 20 12C20 11.3113 19.9128 10.6444 19.75 10.0088L21.6875 9.5127C21.8914 10.309 22 11.1425 22 12C22 17.5228 17.5228 22 12 22C6.47715 22 2 17.5228 2 12C2 6.47715 6.47715 2 12 2ZM22.207 5.20703L10.75 16.6641L6.29297 12.207L7.70703 10.793L10.75 13.8359L20.793 3.79297L22.207 5.20703Z" fill="white"/>
</g>
<defs>
<clipPath id="clip0_36832_3773">
<rect width="24" height="24" fill="white"/>
</clipPath>
</defs>
</svg>
