<svg width="24" height="24" viewBox="0 0 24 24" fill="none" xmlns="http://www.w3.org/2000/svg">
<path d="M3.75 12.9167L9.25 6.5L6.5 2.375H17.5L14.75 6.5L20.25 12.9167V16.5833C20.25 17.7989 19.7671 18.9647 18.9076 19.8242C18.048 20.6838 16.8822 21.1667 15.6667 21.1667H8.33333C7.11776 21.1667 5.95197 20.6838 5.09243 19.8242C4.23289 18.9647 3.75 17.7989 3.75 16.5833V12.9167Z" stroke="white" stroke-width="1.5"/>
<path d="M9.25 6.5H14.75" stroke="white" stroke-width="1.5"/>
<path d="M12 11.5404V9.70703" stroke="white" stroke-width="1.5"/>
<path d="M12 18.8763V17.043" stroke="white" stroke-width="1.5"/>
<path d="M14.0625 12.918V12.4596C14.0625 12.2165 13.9659 11.9834 13.794 11.8115C13.6221 11.6395 13.3889 11.543 13.1458 11.543H10.8542C10.6111 11.543 10.3779 11.6395 10.206 11.8115C10.0341 11.9834 9.9375 12.2165 9.9375 12.4596V12.8703C9.93754 13.0788 10.0087 13.2811 10.1392 13.4438C10.2696 13.6064 10.4517 13.7197 10.6553 13.765L13.3438 14.3626C13.5476 14.4077 13.7298 14.5209 13.8605 14.6836C13.9912 14.8463 14.0624 15.0486 14.0625 15.2573V16.1263C14.0625 16.3694 13.9659 16.6026 13.794 16.7745C13.6221 16.9464 13.3889 17.043 13.1458 17.043H10.8542C10.6111 17.043 10.3779 16.9464 10.206 16.7745C10.0341 16.6026 9.9375 16.3694 9.9375 16.1263V15.668" stroke="white" stroke-width="1.5"/>
</svg>
