<svg width="24" height="24" viewBox="0 0 24 24" fill="none" xmlns="http://www.w3.org/2000/svg">
<path d="M3.75 12.9167L9.25 6.5L6.5 2.375H17.5L14.75 6.5L20.25 12.9167V16.5833C20.25 17.7989 19.7671 18.9647 18.9076 19.8242C18.048 20.6838 16.8822 21.1667 15.6667 21.1667H8.33333C7.11776 21.1667 5.95197 20.6838 5.09243 19.8242C4.23289 18.9647 3.75 17.7989 3.75 16.5833V12.9167Z" stroke="#82B4FF" stroke-width="1.5"/>
<path d="M9.25 6.5H14.75" stroke="#82B4FF" stroke-width="1.5"/>
<path d="M12 11.5413V9.70801" stroke="#82B4FF" stroke-width="1.5"/>
<path d="M12 18.8753V17.042" stroke="#82B4FF" stroke-width="1.5"/>
<path d="M14.0625 12.917V12.4587C14.0625 12.2155 13.9659 11.9824 13.794 11.8105C13.6221 11.6386 13.3889 11.542 13.1458 11.542H10.8542C10.6111 11.542 10.3779 11.6386 10.206 11.8105C10.0341 11.9824 9.9375 12.2155 9.9375 12.4587V12.8693C9.93754 13.0779 10.0087 13.2801 10.1392 13.4428C10.2696 13.6054 10.4517 13.7187 10.6553 13.764L13.3438 14.3617C13.5476 14.4067 13.7298 14.52 13.8605 14.6826C13.9912 14.8453 14.0624 15.0477 14.0625 15.2563V16.1253C14.0625 16.3684 13.9659 16.6016 13.794 16.7735C13.6221 16.9454 13.3889 17.042 13.1458 17.042H10.8542C10.6111 17.042 10.3779 16.9454 10.206 16.7735C10.0341 16.6016 9.9375 16.3684 9.9375 16.1253V15.667" stroke="#82B4FF" stroke-width="1.5"/>
</svg>
