<svg width="24" height="24" viewBox="0 0 24 24" fill="none" xmlns="http://www.w3.org/2000/svg">
<path d="M21.1667 10.6237C21.1667 9.60048 20.9651 8.58728 20.5736 7.64196C20.182 6.69663 19.6081 5.83768 18.8845 5.11416C18.161 4.39063 17.3021 3.8167 16.3567 3.42514C15.4114 3.03357 14.3982 2.83203 13.375 2.83203V10.6237H21.1667Z" stroke="white" stroke-width="1.5"/>
<path d="M10.6237 21.1654C11.6469 21.1654 12.6601 20.9638 13.6054 20.5723C14.5508 20.1807 15.4097 19.6068 16.1332 18.8832C16.8568 18.1597 17.4307 17.3008 17.8223 16.3554C18.2138 15.4101 18.4154 14.3969 18.4154 13.3737H10.6237V5.58203C8.55722 5.58203 6.57538 6.40294 5.11416 7.86416C3.65294 9.32538 2.83203 11.3072 2.83203 13.3737C2.83203 15.4402 3.65294 17.422 5.11416 18.8832C6.57538 20.3445 8.55722 21.1654 10.6237 21.1654Z" stroke="white" stroke-width="1.5"/>
</svg>
