<svg width="24" height="24" viewBox="0 0 24 24" fill="none" xmlns="http://www.w3.org/2000/svg">
<path d="M12.7624 3.67022C14.6382 4.05773 16.3268 5.07089 17.5515 6.54369C17.6297 6.64008 17.7282 6.71794 17.8401 6.77169C17.952 6.82544 18.0743 6.85375 18.1984 6.85457C18.3947 6.85495 18.585 6.78658 18.7362 6.66132C18.8212 6.59079 18.8916 6.50416 18.9431 6.40641C18.9947 6.30865 19.0264 6.20169 19.0366 6.09164C19.0467 5.9816 19.035 5.87063 19.0022 5.7651C18.9694 5.65957 18.9161 5.56155 18.8454 5.47664C17.3642 3.69547 15.3187 2.47409 13.0481 2.01503C12.8252 1.9727 12.5947 2.02061 12.4072 2.14824C12.2197 2.27587 12.0906 2.47276 12.0482 2.69559C12.0059 2.91843 12.0538 3.14895 12.1814 3.33646C12.3091 3.52396 12.506 3.65309 12.7288 3.69543L12.7624 3.67022Z" fill="#2935CC"/>
<path d="M2.68038 11.9964C2.68038 11.7736 2.59186 11.5599 2.4343 11.4023C2.27673 11.2448 2.06302 11.1562 1.84019 11.1562C1.61736 11.1562 1.40365 11.2448 1.24609 11.4023C1.08852 11.5599 1 11.7736 1 11.9964C1.01122 14.3106 1.81814 16.5504 3.28532 18.3399C3.36522 18.4359 3.4655 18.5128 3.57886 18.5651C3.69222 18.6174 3.81582 18.6438 3.94067 18.6424C4.13409 18.6408 4.32105 18.5726 4.46999 18.4492C4.64059 18.3081 4.74863 18.1055 4.77066 17.8852C4.79268 17.665 4.72691 17.4449 4.58762 17.2729C3.36607 15.7846 2.69276 13.9218 2.68038 11.9964Z" fill="#2935CC"/>
<path d="M21.055 10.4339C21.0218 10.2149 20.9034 10.0178 20.7256 9.88563C20.5478 9.75345 20.325 9.69685 20.1056 9.72816C19.885 9.75939 19.6859 9.87695 19.5519 10.055C19.418 10.233 19.3603 10.457 19.3915 10.6776C19.4518 11.0865 19.4827 11.4993 19.4839 11.9127C19.4825 13.8408 18.818 15.7097 17.6018 17.2059C17.4635 17.379 17.3991 17.5997 17.4228 17.82C17.4464 18.0403 17.556 18.2423 17.7279 18.3822C17.8746 18.5095 18.063 18.5783 18.2572 18.5754C18.3827 18.5759 18.5067 18.5482 18.6201 18.4944C18.7336 18.4406 18.8335 18.362 18.9125 18.2646C20.3695 16.4682 21.1645 14.2256 21.1643 11.9127C21.1658 11.4177 21.1293 10.9233 21.055 10.4339Z" fill="#2935CC"/>
<path d="M13.9135 19.8189C12.0955 20.4642 10.1107 20.4642 8.29266 19.8189C8.07985 19.7431 7.84566 19.755 7.64162 19.8519C7.43757 19.9488 7.28037 20.1228 7.20461 20.3356C7.12885 20.5484 7.14072 20.7826 7.23763 20.9866C7.33453 21.1907 7.50852 21.3479 7.72133 21.4236C9.89588 22.1925 12.2683 22.1925 14.4429 21.4236C14.5471 21.3867 14.6431 21.3295 14.7253 21.2555C14.8075 21.1814 14.8743 21.0919 14.9218 20.9921C14.9694 20.8922 14.9969 20.7839 15.0026 20.6735C15.0084 20.563 14.9923 20.4525 14.9554 20.3482C14.9184 20.2439 14.8613 20.148 14.7872 20.0658C14.7132 19.9836 14.6237 19.9168 14.5238 19.8692C14.4239 19.8216 14.3157 19.7941 14.2052 19.7884C14.0947 19.7826 13.9842 19.7987 13.8799 19.8357L13.9135 19.8189Z" fill="#2935CC"/>
<path d="M2.72272 7.87141C2.85156 7.95131 2.99963 7.99486 3.15121 7.99744C3.29702 7.99741 3.44032 7.95944 3.567 7.88726C3.69369 7.81508 3.79941 7.71116 3.87378 7.58574C4.87024 5.93471 6.39933 4.67232 8.20916 4.0065C8.41857 3.93067 8.5893 3.77479 8.68383 3.57313C8.77835 3.37146 8.78895 3.14052 8.71328 2.93105C8.63744 2.72164 8.48156 2.55092 8.2799 2.45639C8.07824 2.36186 7.8473 2.35126 7.63783 2.42693C5.46487 3.22225 3.62957 4.73735 2.43705 6.72034C2.32272 6.91097 2.28858 7.13914 2.34212 7.35488C2.39566 7.57062 2.53252 7.75636 2.72272 7.87141Z" fill="#2935CC"/>
<path d="M11.9219 9.39248C11.9219 9.94957 12.1432 10.4838 12.5371 10.8778C12.931 11.2717 13.4653 11.493 14.0224 11.493C14.5794 11.493 15.1137 11.2717 15.5076 10.8778C15.9015 10.4838 16.1228 9.94957 16.1228 9.39248C16.1228 8.8354 15.9015 8.30113 15.5076 7.90721C15.1137 7.51329 14.5794 7.29199 14.0224 7.29199C13.4653 7.29199 12.931 7.51329 12.5371 7.90721C12.1432 8.30113 11.9219 8.8354 11.9219 9.39248Z" fill="#2935CC"/>
<path d="M14.0229 12.1231C13.3101 12.123 12.6157 12.3495 12.0401 12.77C12.0176 12.7851 11.9985 12.8046 11.9837 12.8273C11.969 12.85 11.9589 12.8755 11.9542 12.9021C11.9495 12.9288 11.9502 12.9561 11.9563 12.9825C11.9624 13.0089 11.9737 13.0338 11.9897 13.0557C12.4583 13.7069 12.727 14.4806 12.7626 15.2822C12.7667 15.3358 12.7904 15.3859 12.8292 15.4231C12.8679 15.4603 12.919 15.4819 12.9727 15.4838H17.1736C17.2022 15.4845 17.2307 15.4789 17.2568 15.4672C17.283 15.4556 17.3062 15.4383 17.3249 15.4166C17.3462 15.3963 17.3626 15.3713 17.3728 15.3436C17.383 15.316 17.3867 15.2863 17.3837 15.257C17.3261 14.4055 16.9467 13.6079 16.3226 13.0259C15.6985 12.4439 14.8763 12.1211 14.0229 12.1231Z" fill="#2935CC"/>
<path d="M8.56198 12.1231C7.7086 12.1211 6.88643 12.4439 6.2623 13.0259C5.63817 13.6079 5.25882 14.4055 5.20122 15.257C5.19819 15.2863 5.20192 15.316 5.21211 15.3436C5.2223 15.3713 5.2387 15.3963 5.26003 15.4166C5.27869 15.4383 5.30193 15.4556 5.32809 15.4672C5.35424 15.4789 5.38265 15.4845 5.41126 15.4838H11.6959C11.7245 15.4845 11.7529 15.4789 11.7791 15.4672C11.8052 15.4556 11.8285 15.4383 11.8471 15.4166C11.8685 15.3963 11.8849 15.3713 11.895 15.3436C11.9052 15.316 11.909 15.2863 11.9059 15.257C11.8485 14.4084 11.4716 13.6132 10.851 13.0316C10.2304 12.45 9.41246 12.1254 8.56198 12.1231Z" fill="#2935CC"/>
<path d="M9.31759 11.3502C9.77508 11.1737 10.1564 10.8426 10.3954 10.4145C10.6345 9.98631 10.7162 9.48802 10.6264 9.00594C10.5366 8.52386 10.281 8.08839 9.90384 7.775C9.52669 7.4616 9.05178 7.29004 8.56142 7.29004C8.07106 7.29004 7.59615 7.4616 7.219 7.775C6.84185 8.08839 6.58623 8.52386 6.49645 9.00594C6.40667 9.48802 6.48838 9.98631 6.72742 10.4145C6.96646 10.8426 7.34776 11.1737 7.80525 11.3502C8.29142 11.5404 8.83142 11.5404 9.31759 11.3502Z" fill="#2935CC"/>
</svg>
