<svg width="24" height="24" viewBox="0 0 24 24" fill="none" xmlns="http://www.w3.org/2000/svg">
<path d="M21.1667 10.6247C21.1667 9.60146 20.9651 8.58826 20.5736 7.64293C20.182 6.6976 19.6081 5.83866 18.8845 5.11513C18.161 4.39161 17.3021 3.81768 16.3567 3.42611C15.4114 3.03455 14.3982 2.83301 13.375 2.83301V10.6247H21.1667Z" stroke="#82B4FF" stroke-width="1.5"/>
<path d="M10.6247 21.1663C11.6479 21.1663 12.6611 20.9648 13.6064 20.5732C14.5517 20.1817 15.4107 19.6077 16.1342 18.8842C16.8577 18.1607 17.4317 17.3017 17.8232 16.3564C18.2148 15.4111 18.4163 14.3979 18.4163 13.3747H10.6247V5.58301C8.5582 5.58301 6.57636 6.40391 5.11513 7.86513C3.65391 9.32636 2.83301 11.3082 2.83301 13.3747C2.83301 15.4412 3.65391 17.423 5.11513 18.8842C6.57636 20.3454 8.5582 21.1663 10.6247 21.1663Z" stroke="#82B4FF" stroke-width="1.5"/>
</svg>
