<svg width="24" height="24" viewBox="0 0 24 24" fill="none" xmlns="http://www.w3.org/2000/svg">
<path d="M3.75 12.0007V8.33398H20.25V12.0007H3.75Z" stroke="#82B4FF" stroke-width="1.5"/>
<path d="M4.66699 21.1667V12H19.3337V21.1667H4.66699Z" stroke="#82B4FF" stroke-width="1.5"/>
<path d="M12 8.33398V21.1673" stroke="#82B4FF" stroke-width="1.5"/>
<path d="M12 6.04199C12 5.31265 11.7103 4.61317 11.1945 4.09745C10.6788 3.58172 9.97935 3.29199 9.25 3.29199C8.52065 3.29199 7.82118 3.58172 7.30546 4.09745C6.78973 4.61317 6.5 5.31265 6.5 6.04199" stroke="#82B4FF" stroke-width="1.5"/>
<path d="M17.5 6.04199C17.5 5.31265 17.2103 4.61317 16.6945 4.09745C16.1788 3.58172 15.4793 3.29199 14.75 3.29199C14.0207 3.29199 13.3212 3.58172 12.8055 4.09745C12.2897 4.61317 12 5.31265 12 6.04199" stroke="#82B4FF" stroke-width="1.5"/>
</svg>
