<svg width="24" height="24" viewBox="0 0 24 24" fill="none" xmlns="http://www.w3.org/2000/svg">
<path d="M3.75 12.0026V8.33594H20.25V12.0026H3.75Z" stroke="white" stroke-width="1.5"/>
<path d="M4.66797 21.1667V12H19.3346V21.1667H4.66797Z" stroke="white" stroke-width="1.5"/>
<path d="M12 8.33594V21.1693" stroke="white" stroke-width="1.5"/>
<path d="M12 6.04297C12 5.31362 11.7103 4.61415 11.1945 4.09843C10.6788 3.5827 9.97935 3.29297 9.25 3.29297C8.52065 3.29297 7.82118 3.5827 7.30546 4.09843C6.78973 4.61415 6.5 5.31362 6.5 6.04297" stroke="white" stroke-width="1.5"/>
<path d="M17.5 6.04297C17.5 5.31362 17.2103 4.61415 16.6945 4.09843C16.1788 3.5827 15.4793 3.29297 14.75 3.29297C14.0207 3.29297 13.3212 3.5827 12.8055 4.09843C12.2897 4.61415 12 5.31362 12 6.04297" stroke="white" stroke-width="1.5"/>
</svg>
