<svg width="24" height="24" viewBox="0 0 24 24" fill="none" xmlns="http://www.w3.org/2000/svg">
<path d="M20.8242 17.8828H13.2617" stroke="white" stroke-width="1.5"/>
<path d="M17.4609 14.5215L20.822 17.8826L17.4609 21.2437" stroke="white" stroke-width="1.5"/>
<path d="M11.5807 17.8823H2.75781V14.3425C2.75781 14.3425 4.99856 12.4219 9.48003 12.4219C12.8411 12.4219 14.9418 13.5022 15.7821 14.0424" stroke="white" stroke-width="1.5"/>
<path d="M6.12109 6.11808C6.12109 7.00928 6.47512 7.86398 7.10529 8.49415C7.73547 9.12433 8.59016 9.47835 9.48136 9.47835C10.3726 9.47835 11.2273 9.12433 11.8574 8.49415C12.4876 7.86398 12.8416 7.00928 12.8416 6.11808C12.8416 5.22688 12.4876 4.37219 11.8574 3.74201C11.2273 3.11184 10.3726 2.75781 9.48136 2.75781C8.59016 2.75781 7.73547 3.11184 7.10529 3.74201C6.47512 4.37219 6.12109 5.22688 6.12109 6.11808Z" stroke="white" stroke-width="1.5"/>
</svg>
