<svg width="24" height="24" viewBox="0 0 24 24" fill="none" xmlns="http://www.w3.org/2000/svg">
<path d="M20.8232 17.8818H13.2607" stroke="#82B4FF" stroke-width="1.5"/>
<path d="M17.4619 14.5205L20.823 17.8816L17.4619 21.2427" stroke="#82B4FF" stroke-width="1.5"/>
<path d="M11.5798 17.8803H2.75684V14.3405C2.75684 14.3405 4.99758 12.4199 9.47906 12.4199C12.8402 12.4199 14.9409 13.5003 15.7811 14.0405" stroke="#82B4FF" stroke-width="1.5"/>
<path d="M6.11914 6.11711C6.11914 7.00831 6.47317 7.863 7.10334 8.49318C7.73351 9.12335 8.58821 9.47738 9.47941 9.47738C10.3706 9.47738 11.2253 9.12335 11.8555 8.49318C12.4857 7.863 12.8397 7.00831 12.8397 6.11711C12.8397 5.22591 12.4857 4.37121 11.8555 3.74104C11.2253 3.11086 10.3706 2.75684 9.47941 2.75684C8.58821 2.75684 7.73351 3.11086 7.10334 3.74104C6.47317 4.37121 6.11914 5.22591 6.11914 6.11711Z" stroke="#82B4FF" stroke-width="1.5"/>
</svg>
