<svg width="24" height="24" viewBox="0 0 24 24" fill="none" xmlns="http://www.w3.org/2000/svg">
<path d="M12 17.5217C12 18.0739 12.4503 18.5297 12.9962 18.446C14.0443 18.2854 15.0103 17.8752 15.8315 17.2781C16.2782 16.9533 16.2772 16.3128 15.8883 15.9206L12 12V17.5217Z" fill="#2935CC"/>
<path d="M6.72153 15.8309C7.04638 16.2775 7.68682 16.2764 8.07896 15.8876L11.9996 12H6.47754C5.92526 12 5.46947 12.4503 5.55319 12.9962C5.71393 14.0441 6.12425 15.0098 6.72153 15.8309Z" fill="#2935CC"/>
<path d="M12 2C6.47708 2 2 6.4768 2 12C2 17.5226 6.47708 21.9997 12 21.9997C17.5229 21.9997 22 17.5226 22 12C22 6.4768 17.5229 2 12 2ZM12 20.2567C7.4396 20.2567 3.74288 16.5597 3.74288 12C3.74288 7.43976 7.4396 3.74302 12 3.74302C16.5603 3.74302 20.2571 7.43974 20.2571 12C20.2571 16.5597 16.5601 20.2567 12 20.2567Z" fill="#2935CC"/>
<path d="M17.263 8.14493C16.9364 7.6996 16.2959 7.70335 15.9054 8.09387L11.9997 11.9997V6.47656C11.9997 5.92428 11.5494 5.46849 11.0035 5.55224C9.95528 5.71304 8.98934 6.12361 8.16807 6.72097C7.72144 7.04584 7.72248 7.68635 8.11136 8.07852L11.9997 11.9997H17.5227C18.075 11.9997 18.5308 11.5494 18.4471 11.0035C18.2851 9.94553 17.869 8.97113 17.263 8.14493Z" fill="#2935CC"/>
</svg>
