<svg width="24" height="24" viewBox="0 0 24 24" fill="none" xmlns="http://www.w3.org/2000/svg">
<path d="M2.75684 11.9999C2.75684 14.4513 3.73065 16.8023 5.46406 18.5357C7.19747 20.2691 9.54848 21.2429 11.9999 21.2429C14.4513 21.2429 16.8023 20.2691 18.5357 18.5357C20.2691 16.8023 21.2429 14.4513 21.2429 11.9999C21.2429 9.54848 20.2691 7.19747 18.5357 5.46406C16.8023 3.73065 14.4513 2.75684 11.9999 2.75684C9.54848 2.75684 7.19747 3.73065 5.46406 5.46406C3.73065 7.19747 2.75684 9.54848 2.75684 11.9999Z" stroke="#82B4FF" stroke-width="1.5"/>
<path d="M6.11816 12.0001C6.11816 13.5601 6.73787 15.0562 7.84095 16.1593C8.94402 17.2623 10.4401 17.8821 12.0001 17.8821C13.5601 17.8821 15.0562 17.2623 16.1593 16.1593C17.2623 15.0562 17.8821 13.5601 17.8821 12.0001C17.8821 10.4401 17.2623 8.94402 16.1593 7.84095C15.0562 6.73787 13.5601 6.11816 12.0001 6.11816C10.4401 6.11816 8.94402 6.73787 7.84095 7.84095C6.73787 8.94402 6.11816 10.4401 6.11816 12.0001Z" stroke="#82B4FF" stroke-width="1.5"/>
<path d="M12 2.75684V6.11795" stroke="#82B4FF" stroke-width="1.5"/>
<path d="M18.5359 5.46484L16.1592 7.8415" stroke="#82B4FF" stroke-width="1.5"/>
<path d="M21.242 12.002H17.8809" stroke="#82B4FF" stroke-width="1.5"/>
<path d="M18.5339 18.5368L16.1572 16.1602" stroke="#82B4FF" stroke-width="1.5"/>
<path d="M12 17.8818V21.2429" stroke="#82B4FF" stroke-width="1.5"/>
<path d="M7.84053 16.1582L5.46387 18.5348" stroke="#82B4FF" stroke-width="1.5"/>
<path d="M6.11795 12H2.75684" stroke="#82B4FF" stroke-width="1.5"/>
<path d="M7.84053 7.84151L5.46387 5.46484" stroke="#82B4FF" stroke-width="1.5"/>
<path d="M12.0001 9.47949L14.5208 12.0001L12.0001 14.5213L9.47949 12.0001L12.0001 9.47949Z" stroke="#82B4FF" stroke-width="1.5"/>
</svg>
