<svg width="24" height="24" viewBox="0 0 24 24" fill="none" xmlns="http://www.w3.org/2000/svg">
<path d="M2.75781 12.0009C2.75781 14.4523 3.73163 16.8033 5.46504 18.5367C7.19845 20.2701 9.54946 21.2439 12.0009 21.2439C14.4523 21.2439 16.8033 20.2701 18.5367 18.5367C20.2701 16.8033 21.2439 14.4523 21.2439 12.0009C21.2439 9.54946 20.2701 7.19845 18.5367 5.46504C16.8033 3.73163 14.4523 2.75781 12.0009 2.75781C9.54946 2.75781 7.19845 3.73163 5.46504 5.46504C3.73163 7.19845 2.75781 9.54946 2.75781 12.0009Z" stroke="white" stroke-width="1.5"/>
<path d="M6.11719 12.0011C6.11719 13.5611 6.73689 15.0572 7.83997 16.1602C8.94305 17.2633 10.4391 17.883 11.9991 17.883C13.5591 17.883 15.0552 17.2633 16.1583 16.1602C17.2614 15.0572 17.8811 13.5611 17.8811 12.0011C17.8811 10.4411 17.2614 8.945 16.1583 7.84192C15.0552 6.73884 13.5591 6.11914 11.9991 6.11914C10.4391 6.11914 8.94305 6.73884 7.83997 7.84192C6.73689 8.945 6.11719 10.4411 6.11719 12.0011Z" stroke="white" stroke-width="1.5"/>
<path d="M12 2.75781V6.11892" stroke="white" stroke-width="1.5"/>
<path d="M18.5369 5.46484L16.1602 7.8415" stroke="white" stroke-width="1.5"/>
<path d="M21.2439 12.0039H17.8828" stroke="white" stroke-width="1.5"/>
<path d="M18.5329 18.5368L16.1562 16.1602" stroke="white" stroke-width="1.5"/>
<path d="M12 17.8828V21.2439" stroke="white" stroke-width="1.5"/>
<path d="M7.84151 16.1602L5.46484 18.5368" stroke="white" stroke-width="1.5"/>
<path d="M6.11892 12H2.75781" stroke="white" stroke-width="1.5"/>
<path d="M7.84151 7.84151L5.46484 5.46484" stroke="white" stroke-width="1.5"/>
<path d="M12.0011 9.48047L14.5217 12.0011L12.0011 14.5223L9.48047 12.0011L12.0011 9.48047Z" stroke="white" stroke-width="1.5"/>
</svg>
