<svg width="22" height="22" viewBox="0 0 22 22" fill="none" xmlns="http://www.w3.org/2000/svg">
<path d="M16.0127 21.0005L11.7978 17.1018C9.50071 14.7942 12.8515 10.3265 16.0127 13.9407C19.1738 10.337 22.5562 14.8047 20.2274 17.1018L16.0127 21.0005Z" stroke="#5493FF" stroke-width="2" stroke-linecap="round" stroke-linejoin="round"/>
<path d="M4.38491 1.55357L1 5.61548H17.9234L14.5385 1.55357C14.2462 1.20281 13.8132 1 13.3566 1H5.56682C5.11024 1 4.67723 1.20281 4.38491 1.55357Z" stroke="#5493FF" stroke-width="2" stroke-linecap="round" stroke-linejoin="round"/>
<path d="M17.9234 9.07782V5.61621H1V14.8472C1 15.2552 1.16209 15.6466 1.45061 15.935C1.73914 16.2235 2.13045 16.3857 2.53849 16.3857H7.92322" stroke="#5493FF" stroke-width="2" stroke-linecap="round" stroke-linejoin="round"/>
<path d="M9.46094 1V5.61548" stroke="#5493FF" stroke-width="2" stroke-linecap="round" stroke-linejoin="round"/>
</svg>
