<svg width="24" height="24" viewBox="0 0 24 24" fill="none" xmlns="http://www.w3.org/2000/svg">
<path d="M19 4C20.5975 4 21.9036 5.24866 21.9951 6.82324L22 7V10C22 10.5128 21.6136 10.9354 21.1162 10.9932L21 11C20.4477 11 20 11.4477 20 12C20 12.5128 20.3864 12.9354 20.8838 12.9932L21 13C21.5128 13 21.9354 13.3865 21.9932 13.8838L22 14V17C22 18.5975 20.7513 19.9036 19.1768 19.9951L19 20H5C3.40248 20 2.09636 18.7513 2.00488 17.1768L2 17V14C2 13.4872 2.38645 13.0646 2.88379 13.0068L3 13C3.55228 13 4 12.5523 4 12C4 11.4872 3.61355 11.0646 3.11621 11.0068L3 11C2.48716 11 2.0646 10.6135 2.00684 10.1162L2 10V7C2 5.40248 3.24866 4.09636 4.82324 4.00488L5 4H19ZM4.88379 6.00684C4.42471 6.06016 4.06016 6.42471 4.00684 6.88379L4 7V9.16992L4.01172 9.1748C5.11793 9.57103 5.92397 10.5986 5.99512 11.8232L6 12C6 13.2367 5.25118 14.2988 4.18262 14.7578L4 14.8291V17C4 17.5128 4.38645 17.9354 4.88379 17.9932L5 18H14V17C14 16.4477 14.4477 16 15 16C15.5128 16 15.9354 16.3865 15.9932 16.8838L16 17V18H19C19.5128 18 19.9354 17.6135 19.9932 17.1162L20 17V14.8291L19.9883 14.8252C18.8821 14.429 18.076 13.4014 18.0049 12.1768L18 12C18 10.7633 18.7488 9.70122 19.8174 9.24219L20 9.16992V7C20 6.48716 19.6136 6.0646 19.1162 6.00684L19 6H16V7C16 7.55228 15.5523 8 15 8C14.4872 8 14.0646 7.61355 14.0068 7.11621L14 7V6H5L4.88379 6.00684ZM15 10C15.5128 10 15.9354 10.3865 15.9932 10.8838L16 11V13C16 13.5523 15.5523 14 15 14C14.4872 14 14.0646 13.6135 14.0068 13.1162L14 13V11C14 10.4477 14.4477 10 15 10Z" fill="#5493FF"/>
</svg>
