<svg width="25" height="24" viewBox="0 0 25 24" fill="none" xmlns="http://www.w3.org/2000/svg">
<path fill-rule="evenodd" clip-rule="evenodd" d="M17.375 21.9997V21.9987C19.025 21.9987 20.375 20.6487 20.375 18.9987V7.99951V7.99867C20.375 7.98703 20.3748 7.97541 20.3744 7.96381C20.3704 7.84904 20.3476 7.7397 20.3088 7.63862C20.2587 7.50603 20.182 7.38572 20.085 7.28867L15.085 2.28867C14.895 2.09867 14.635 1.98867 14.375 1.99867V1.99951L14.3563 1.99967H7.375C5.715 1.99967 4.375 3.33967 4.375 4.99967V18.9997C4.375 20.6497 5.715 21.9997 7.375 21.9997H17.375ZM13.375 3.99967H7.375C6.815 3.99967 6.375 4.43967 6.375 4.99967V18.9997C6.375 19.5497 6.815 19.9997 7.375 19.9997H17.375C17.925 19.9997 18.375 19.5497 18.375 18.9997V8.99951H15.375C14.265 8.99951 13.375 8.09951 13.375 6.99951V3.99967ZM15.375 5.40967V6.99951H16.9648L15.375 5.40967ZM12.375 17.9995C11.815 17.9995 11.375 17.5495 11.375 16.9995C11.375 16.4395 11.815 15.9995 12.375 15.9995C12.925 15.9995 13.375 16.4395 13.375 16.9995C13.375 17.5495 12.925 17.9995 12.375 17.9995ZM11.375 13.9995C11.375 14.5495 11.815 14.9995 12.375 14.9995C12.925 14.9995 13.375 14.5495 13.375 13.9995V10.9995C13.375 10.4395 12.925 9.99951 12.375 9.99951C11.815 9.99951 11.375 10.4395 11.375 10.9995V13.9995Z" fill="#2A877C"/>
</svg>
