<svg width="24" height="24" viewBox="0 0 24 24" fill="none" xmlns="http://www.w3.org/2000/svg">
<g clip-path="url(#clip0_30006_16329)">
<path fill-rule="evenodd" clip-rule="evenodd" d="M5.31289 2C5.01455 2 4.72843 2.11852 4.51746 2.3295C4.3065 2.54047 4.18799 2.82661 4.18799 3.12498V5.8749C4.18799 6.17326 4.3065 6.45941 4.51746 6.67038C4.72843 6.88135 5.01455 6.99988 5.31289 6.99988H9.25006V10.1873H4.37547C3.87823 10.1873 3.40136 10.3849 3.04976 10.7365C2.69816 11.0881 2.50063 11.565 2.50063 12.0623V14.6272C2.00005 14.8041 1.57814 15.1524 1.30946 15.6103C1.04078 16.0683 0.942645 16.6064 1.03239 17.1298C1.12214 17.6531 1.394 18.1278 1.79991 18.47C2.20582 18.8123 2.71965 19 3.25057 19C3.78149 19 4.29531 18.8123 4.70122 18.47C5.10713 18.1278 5.37899 17.6531 5.46874 17.1298C5.55849 16.6064 5.46035 16.0683 5.19167 15.6103C4.923 15.1524 4.50108 14.8041 4.0005 14.6272V12.0623C4.0005 11.9628 4.04001 11.8674 4.11033 11.7971C4.18065 11.7268 4.27602 11.6873 4.37547 11.6873H9.25006V14.6272C8.74949 14.8041 8.32757 15.1524 8.05889 15.6103C7.79022 16.0683 7.69208 16.6064 7.78183 17.1298C7.87158 17.6531 8.14343 18.1278 8.54934 18.47C8.95525 18.8123 9.46908 19 10 19C10.5309 19 11.0447 18.8123 11.4507 18.47C11.8566 18.1278 12.1284 17.6531 12.2182 17.1298C12.3079 16.6064 12.2098 16.0683 11.9411 15.6103C11.6724 15.1524 11.2505 14.8041 10.7499 14.6272V11.6873H15.6245C15.724 11.6873 15.8194 11.7268 15.8897 11.7971C15.96 11.8674 15.9995 11.9628 15.9995 12.0623V14.6272C15.4989 14.8041 15.077 15.1524 14.8083 15.6103C14.5397 16.0683 14.4415 16.6064 14.5313 17.1298C14.621 17.6531 14.8929 18.1278 15.2988 18.47C15.7047 18.8123 16.2185 19 16.7494 19C17.2804 19 17.7942 18.8123 18.2001 18.47C18.606 18.1278 18.8779 17.6531 18.9676 17.1298C19.0574 16.6064 18.9592 16.0683 18.6905 15.6103C18.4219 15.1524 18 14.8041 17.4994 14.6272V12.0623C17.4994 11.565 17.3018 11.0881 16.9502 10.7365C16.5986 10.3849 16.1218 10.1873 15.6245 10.1873H10.7499V6.99988H14.6871C14.9855 6.99988 15.2716 6.88135 15.4825 6.67038C15.6935 6.45941 15.812 6.17326 15.812 5.8749V3.12498C15.812 2.82661 15.6935 2.54047 15.4825 2.3295C15.2716 2.11852 14.9855 2 14.6871 2H5.31289Z" fill="#2935CC"/>
<rect x="4" y="2" width="12" height="5" rx="1" fill="#2935CC"/>
</g>
<defs>
<clipPath id="clip0_30006_16329">
<rect width="22" height="22" fill="white" transform="translate(1 1)"/>
</clipPath>
</defs>
</svg>
