<svg width="24" height="24" viewBox="0 0 24 24" fill="none" xmlns="http://www.w3.org/2000/svg">
<path d="M14.575 13.001C14.545 12.9961 14.5143 12.9979 14.485 13.0061C14.4557 13.0144 14.4286 13.029 14.4056 13.0488C14.3826 13.0687 14.3642 13.0933 14.3517 13.1211C14.3392 13.1488 14.3329 13.1789 14.3333 13.2093V14.9593C14.3333 15.0146 14.3114 15.0676 14.2723 15.1066C14.2332 15.1457 14.1803 15.1676 14.125 15.1676H2.875C2.81975 15.1676 2.76676 15.1457 2.72769 15.1066C2.68862 15.0676 2.66667 15.0146 2.66667 14.9593V7.87598C2.66667 7.82072 2.68862 7.76773 2.72769 7.72866C2.76676 7.68959 2.81975 7.66764 2.875 7.66764H8.79167C8.82207 7.66804 8.85219 7.66177 8.87992 7.64928C8.90764 7.63679 8.93229 7.61839 8.95215 7.59536C8.972 7.57233 8.98657 7.54523 8.99484 7.51597C9.00311 7.48671 9.00487 7.45599 9 7.42598C8.93316 7.02689 8.90802 6.62193 8.925 6.21764C8.92731 6.19001 8.92385 6.1622 8.91484 6.13598C8.90583 6.10976 8.89146 6.0857 8.87266 6.06532C8.85385 6.04495 8.83101 6.0287 8.80559 6.01763C8.78017 6.00655 8.75273 6.00088 8.725 6.00098H2.66667C2.22464 6.00098 1.80072 6.17657 1.48816 6.48913C1.17559 6.80169 1 7.22562 1 7.66764L1 16.4176C1 16.8597 1.17559 17.2836 1.48816 17.5962C1.80072 17.9087 2.22464 18.0843 2.66667 18.0843H7.45833C7.51359 18.0843 7.56658 18.1063 7.60565 18.1453C7.64472 18.1844 7.66667 18.2374 7.66667 18.2926V19.126C7.66667 19.1812 7.64472 19.2342 7.60565 19.2733C7.56658 19.3124 7.51359 19.3343 7.45833 19.3343H5.16667C4.94565 19.3343 4.73369 19.4221 4.57741 19.5784C4.42113 19.7347 4.33333 19.9466 4.33333 20.1676C4.33333 20.3887 4.42113 20.6006 4.57741 20.7569C4.73369 20.9132 4.94565 21.001 5.16667 21.001H11.8333C12.0543 21.001 12.2663 20.9132 12.4226 20.7569C12.5789 20.6006 12.6667 20.3887 12.6667 20.1676C12.6667 19.9466 12.5789 19.7347 12.4226 19.5784C12.2663 19.4221 12.0543 19.3343 11.8333 19.3343H9.54167C9.48641 19.3343 9.43342 19.3124 9.39435 19.2733C9.35528 19.2342 9.33333 19.1812 9.33333 19.126V18.2926C9.33333 18.2374 9.35528 18.1844 9.39435 18.1453C9.43342 18.1063 9.48641 18.0843 9.54167 18.0843H14.3333C14.7754 18.0843 15.1993 17.9087 15.5118 17.5962C15.8244 17.2836 16 16.8597 16 16.4176V13.2843C15.9996 13.2561 15.9935 13.2283 15.9821 13.2025C15.9706 13.1767 15.954 13.1535 15.9333 13.1343C15.8927 13.0963 15.839 13.0754 15.7833 13.076H15.5833C15.2457 13.0807 14.9083 13.0556 14.575 13.001Z" fill="#2935CC"/>
<path d="M15.5833 11.834C16.6546 11.834 17.7019 11.5163 18.5927 10.9211C19.4834 10.3259 20.1777 9.47995 20.5877 8.49019C20.9977 7.50042 21.1049 6.41131 20.8959 5.36058C20.6869 4.30985 20.171 3.34469 19.4135 2.58716C18.656 1.82962 17.6908 1.31373 16.6401 1.10473C15.5893 0.895727 14.5002 1.00299 13.5105 1.41297C12.5207 1.82294 11.6747 2.51721 11.0795 3.40798C10.4843 4.29874 10.1667 5.346 10.1667 6.41732C10.1689 7.85323 10.7403 9.2297 11.7556 10.245C12.7709 11.2604 14.1474 11.8318 15.5833 11.834ZM13.9167 6.41732C13.8386 6.41747 13.762 6.39568 13.6957 6.35442C13.6294 6.31317 13.576 6.25411 13.5417 6.18398C13.5084 6.11292 13.4955 6.03405 13.5043 5.95609C13.5131 5.87814 13.5434 5.80415 13.5917 5.74232L15.2583 3.65898C15.2974 3.61032 15.3468 3.57104 15.4031 3.54406C15.4593 3.51707 15.5209 3.50306 15.5833 3.50306C15.6457 3.50306 15.7073 3.51707 15.7636 3.54406C15.8198 3.57104 15.8693 3.61032 15.9083 3.65898L17.575 5.74232C17.6233 5.80415 17.6535 5.87814 17.6623 5.95609C17.6712 6.03405 17.6582 6.11292 17.625 6.18398C17.5906 6.25411 17.5373 6.31317 17.471 6.35442C17.4047 6.39568 17.3281 6.41747 17.25 6.41732L16.4167 6.41732C16.3614 6.41732 16.3084 6.43927 16.2694 6.47834C16.2303 6.51741 16.2083 6.5704 16.2083 6.62565L16.2083 8.91732C16.2083 9.08308 16.1425 9.24205 16.0253 9.35926C15.9081 9.47647 15.7491 9.54232 15.5833 9.54232C15.4176 9.54232 15.2586 9.47647 15.1414 9.35926C15.0242 9.24205 14.9583 9.08308 14.9583 8.91732L14.9583 6.62565C14.9583 6.5704 14.9364 6.51741 14.8973 6.47834C14.8582 6.43927 14.8053 6.41732 14.75 6.41732L13.9167 6.41732Z" fill="#2935CC"/>
</svg>
