<svg width="24" height="24" viewBox="0 0 24 24" fill="none" xmlns="http://www.w3.org/2000/svg">
<path d="M3.93333 3H20.0667C20.0667 3 23 3 23 7V17C23 17 23 21 20.0667 21H3.93333C3.93333 21 1 21 1 17V7C1 7 1 3 3.93333 3Z" stroke="#5493FF" stroke-width="2" stroke-linecap="round" stroke-linejoin="round"/>
<path d="M12 15.5156V8.48438" stroke="#5493FF" stroke-width="2" stroke-linecap="round" stroke-linejoin="round"/>
<path d="M14.8125 15.5156V8.48438" stroke="#5493FF" stroke-width="2" stroke-linecap="round" stroke-linejoin="round"/>
<path d="M14.8125 8.48438H15.5156C16.0751 8.48438 16.6116 8.70661 17.0072 9.1022C17.4028 9.49778 17.625 10.0343 17.625 10.5938C17.625 11.1532 17.4028 11.6897 17.0072 12.0853C16.6116 12.4809 16.0751 12.7031 15.5156 12.7031H14.8125" stroke="#5493FF" stroke-width="2" stroke-linecap="round" stroke-linejoin="round"/>
<path d="M6.375 8.48438V10.875C6.37581 12.5267 6.86508 14.1413 7.78125 15.5156C8.69742 14.1413 9.18669 12.5267 9.1875 10.875V8.48438" stroke="#5493FF" stroke-width="2" stroke-linecap="round" stroke-linejoin="round"/>
</svg>
