<svg width="24" height="24" viewBox="0 0 24 24" fill="none" xmlns="http://www.w3.org/2000/svg">
<path d="M11.1673 13.4999V5.99938C11.1672 5.9468 11.1774 5.89471 11.1974 5.84609C11.2175 5.79746 11.2469 5.75327 11.284 5.71602C11.809 5.14932 13.3091 3.93257 16.551 3.66588C16.6085 3.66127 16.6663 3.66863 16.7207 3.68749C16.7752 3.70636 16.8252 3.73632 16.8675 3.77549C16.9098 3.81465 16.9435 3.86216 16.9665 3.91502C16.9895 3.96788 17.0012 4.02493 17.0011 4.08258V10.108C17.0011 10.329 17.0889 10.541 17.2451 10.6973C17.4014 10.8536 17.6134 10.9414 17.8344 10.9414C18.0555 10.9414 18.2675 10.8536 18.4237 10.6973C18.58 10.541 18.6678 10.329 18.6678 10.108V3.66588C18.667 3.44136 18.6208 3.21932 18.532 3.0131C18.4432 2.80688 18.3136 2.62072 18.1511 2.4658C17.8119 2.15203 17.3629 1.98438 16.901 1.9991C13.2675 2.19078 11.2757 3.4742 10.3339 4.34926C9.39219 3.4742 7.40038 2.19078 3.76679 1.9991C3.53964 1.98544 3.3121 2.01845 3.09819 2.09608C2.88428 2.1737 2.68853 2.29431 2.523 2.45047C2.35748 2.60663 2.22568 2.79502 2.13573 3.00405C2.04578 3.21308 1.99959 3.43832 2 3.66588V14.2166C1.99947 14.6446 2.16359 15.0564 2.45837 15.3667C2.75315 15.677 3.15599 15.862 3.58345 15.8834C4.96047 15.9039 6.32097 16.1867 7.59206 16.7168C7.69937 16.7657 7.81583 16.7913 7.93375 16.7918C8.12446 16.7928 8.30975 16.7284 8.4587 16.6093C8.60766 16.4902 8.71126 16.3237 8.75222 16.1374C8.79317 15.9511 8.76901 15.7565 8.68376 15.5859C8.59851 15.4153 8.45732 15.2791 8.28378 15.2C6.94531 14.6215 5.51458 14.2856 4.05848 14.2083C3.95236 14.2019 3.85268 14.1552 3.77987 14.0777C3.70705 14.0003 3.66659 13.8979 3.66679 13.7916V4.11591C3.66285 4.05435 3.67236 3.99266 3.69466 3.93514C3.71696 3.87762 3.75151 3.82564 3.79592 3.78282C3.84033 3.74 3.89353 3.70736 3.95182 3.68716C4.01011 3.66697 4.0721 3.65971 4.13349 3.66588C7.36704 3.93257 8.85882 5.14932 9.39219 5.71602C9.43074 5.75873 9.46022 5.80882 9.47884 5.86325C9.49746 5.91769 9.50484 5.97534 9.50053 6.03271V13.5332C9.50053 13.7543 9.58833 13.9662 9.74462 14.1225C9.90091 14.2788 10.1129 14.3666 10.3339 14.3666C10.5549 14.3666 10.7669 14.2788 10.9232 14.1225C11.0795 13.9662 11.1673 13.7543 11.1673 13.5332V13.4999Z" fill="#2935CC"/>
<path d="M21.8513 16.6828L16.4343 12.0991C16.3601 12.0352 16.2655 12 16.1676 12C16.0697 12 15.9751 12.0352 15.9009 12.0991L10.4839 16.6828C10.4188 16.7373 10.372 16.8105 10.3496 16.8924C10.3273 16.9743 10.3305 17.0611 10.3589 17.1411C10.388 17.2217 10.4412 17.2913 10.5113 17.3405C10.5814 17.3897 10.6649 17.4161 10.7506 17.4161H12.0006V21.5831C12.0006 21.6936 12.0445 21.7996 12.1227 21.8778C12.2008 21.9559 12.3068 21.9998 12.4173 21.9998H14.5008C14.6113 21.9998 14.7173 21.9559 14.7955 21.8778C14.8736 21.7996 14.9175 21.6936 14.9175 21.5831V19.708C14.9175 19.3764 15.0492 19.0585 15.2837 18.824C15.5181 18.5896 15.8361 18.4579 16.1676 18.4579C16.4991 18.4579 16.8171 18.5896 17.0515 18.824C17.286 19.0585 17.4177 19.3764 17.4177 19.708V21.5831C17.4177 21.6936 17.4616 21.7996 17.5397 21.8778C17.6179 21.9559 17.7239 21.9998 17.8344 21.9998H19.9179C20.0284 21.9998 20.1344 21.9559 20.2125 21.8778C20.2907 21.7996 20.3346 21.6936 20.3346 21.5831V17.4161H21.5847C21.6703 17.4161 21.7538 17.3897 21.8239 17.3405C21.894 17.2913 21.9472 17.2217 21.9763 17.1411C22.0047 17.0611 22.0079 16.9743 21.9856 16.8924C21.9632 16.8105 21.9164 16.7373 21.8513 16.6828Z" fill="#2935CC"/>
</svg>
