<svg width="24" height="24" viewBox="0 0 24 24" fill="none" xmlns="http://www.w3.org/2000/svg">
<path d="M4.50005 14.5002C4.27903 14.5002 4.06707 14.4124 3.91078 14.2562C3.7545 14.0999 3.6667 13.8879 3.6667 13.6669V7.6668C3.6667 7.55629 3.7106 7.45031 3.78874 7.37216C3.86688 7.29402 3.97286 7.25012 4.08337 7.25012H18.2503C18.3608 7.25012 18.4668 7.29402 18.545 7.37216C18.6231 7.45031 18.667 7.55629 18.667 7.6668V9.62515C18.667 9.84617 18.7548 10.0581 18.9111 10.2144C19.0674 10.3707 19.2793 10.4585 19.5003 10.4585C19.7214 10.4585 19.9333 10.3707 20.0896 10.2144C20.2459 10.0581 20.3337 9.84617 20.3337 9.62515V4.50005C20.3337 3.83699 20.0703 3.2011 19.6014 2.73225C19.1326 2.2634 18.4967 2 17.8336 2H4.50005C3.83699 2 3.2011 2.2634 2.73225 2.73225C2.2634 3.2011 2 3.83699 2 4.50005L2 13.6669C2 14.3299 2.2634 14.9658 2.73225 15.4347C3.2011 15.9035 3.83699 16.1669 4.50005 16.1669H11.7419C12.7002 16.1669 12.8752 14.5002 11.7835 14.5002H4.50005ZM3.6667 4.50005C3.6667 4.27903 3.7545 4.06707 3.91078 3.91078C4.06707 3.7545 4.27903 3.6667 4.50005 3.6667H17.8336C18.0547 3.6667 18.2666 3.7545 18.4229 3.91078C18.5792 4.06707 18.667 4.27903 18.667 4.50005V5.3334C18.667 5.44391 18.6231 5.54989 18.545 5.62803C18.4668 5.70617 18.3608 5.75007 18.2503 5.75007H4.08337C3.97286 5.75007 3.86688 5.70617 3.78874 5.62803C3.7106 5.54989 3.6667 5.44391 3.6667 5.3334V4.50005Z" fill="#2935CC"/>
<path d="M8.66641 11.167H6.16636C5.94534 11.167 5.73337 11.2548 5.57709 11.4111C5.42081 11.5674 5.33301 11.7793 5.33301 12.0003C5.33301 12.2214 5.42081 12.4333 5.57709 12.5896C5.73337 12.7459 5.94534 12.8337 6.16636 12.8337H8.66641C8.88742 12.8337 9.09939 12.7459 9.25567 12.5896C9.41196 12.4333 9.49976 12.2214 9.49976 12.0003C9.49976 11.7793 9.41196 11.5674 9.25567 11.4111C9.09939 11.2548 8.88742 11.167 8.66641 11.167Z" fill="#2935CC"/>
<path d="M20.9255 14.933C20.8769 14.9235 20.833 14.8977 20.8012 14.8597C20.7693 14.8218 20.7514 14.7742 20.7505 14.7247V13.8913C20.7505 13.1178 20.4432 12.3759 19.8962 11.8289C19.3492 11.2819 18.6073 10.9746 17.8337 10.9746C17.0602 10.9746 16.3183 11.2819 15.7713 11.8289C15.2243 12.3759 14.917 13.1178 14.917 13.8913V14.7247C14.916 14.7742 14.8981 14.8218 14.8663 14.8597C14.8345 14.8977 14.7906 14.9235 14.742 14.933C14.4445 14.9751 14.1721 15.1229 13.9747 15.3494C13.7773 15.5759 13.668 15.8659 13.667 16.1664V20.7498C13.667 21.0813 13.7987 21.3993 14.0331 21.6337C14.2675 21.8681 14.5855 21.9998 14.917 21.9998H20.7505C21.082 21.9998 21.3999 21.8681 21.6344 21.6337C21.8688 21.3993 22.0005 21.0813 22.0005 20.7498V16.1664C21.9994 15.8659 21.8902 15.5759 21.6928 15.3494C21.4954 15.1229 21.223 14.9751 20.9255 14.933ZM16.5837 13.8747C16.5837 13.5431 16.7154 13.2252 16.9498 12.9908C17.1843 12.7563 17.5022 12.6246 17.8337 12.6246C18.1653 12.6246 18.4832 12.7563 18.7176 12.9908C18.9521 13.2252 19.0838 13.5431 19.0838 13.8747V14.708C19.0838 14.7633 19.0618 14.8163 19.0227 14.8553C18.9837 14.8944 18.9307 14.9164 18.8754 14.9164H16.7921C16.7368 14.9164 16.6838 14.8944 16.6447 14.8553C16.6057 14.8163 16.5837 14.7633 16.5837 14.708V13.8747ZM17.8337 18.0414C17.9986 18.0414 18.1597 18.0903 18.2967 18.1819C18.4338 18.2734 18.5406 18.4036 18.6037 18.5559C18.6667 18.7081 18.6832 18.8757 18.6511 19.0373C18.6189 19.199 18.5396 19.3475 18.423 19.464C18.3065 19.5806 18.158 19.6599 17.9963 19.6921C17.8347 19.7243 17.6671 19.7078 17.5148 19.6447C17.3626 19.5816 17.2324 19.4748 17.1408 19.3377C17.0493 19.2007 17.0004 19.0396 17.0004 18.8748C17.0004 18.6537 17.0882 18.4418 17.2445 18.2855C17.4008 18.1292 17.6127 18.0414 17.8337 18.0414Z" fill="#2935CC"/>
</svg>
