<svg width="24" height="24" viewBox="0 0 24 24" fill="none" xmlns="http://www.w3.org/2000/svg">
<path d="M9.61865 15.6637C9.84514 15.6637 10.0624 15.5737 10.2225 15.4136C10.3827 15.2534 10.4726 15.0362 10.4726 14.8097V14.5621C10.4736 14.5136 10.491 14.4669 10.5221 14.4296C10.5531 14.3924 10.5959 14.3668 10.6434 14.3571C11.1223 14.2678 11.5584 14.0235 11.8847 13.6618C12.211 13.3002 12.4094 12.8413 12.4492 12.3559C12.489 11.8704 12.368 11.3853 12.105 10.9754C11.842 10.5654 11.4514 10.2533 10.9936 10.0872L8.87568 9.23321C8.76092 9.18955 8.66527 9.10676 8.6056 8.99944C8.54594 8.89212 8.5261 8.76718 8.54959 8.64666C8.57309 8.52614 8.63839 8.41779 8.73399 8.34073C8.82959 8.26368 8.94934 8.22287 9.0721 8.22551H11.1558C11.3823 8.22551 11.5995 8.13554 11.7597 7.97539C11.9198 7.81523 12.0098 7.59802 12.0098 7.37153C12.0098 7.14504 11.9198 6.92783 11.7597 6.76767C11.5995 6.60752 11.3823 6.51755 11.1558 6.51755H10.6861C10.6295 6.51755 10.5752 6.49506 10.5352 6.45502C10.4951 6.41498 10.4726 6.36068 10.4726 6.30405V6.0991C10.4726 5.87261 10.3827 5.65539 10.2225 5.49524C10.0624 5.33509 9.84514 5.24512 9.61865 5.24512C9.39216 5.24512 9.17494 5.33509 9.01479 5.49524C8.85464 5.65539 8.76467 5.87261 8.76467 6.0991V6.38091C8.76535 6.42984 8.74851 6.47739 8.71718 6.51498C8.68586 6.55257 8.64212 6.57772 8.59387 6.58587C8.1196 6.68108 7.68919 6.92801 7.3676 7.28936C7.04601 7.65071 6.8507 8.10688 6.81117 8.58899C6.77164 9.07111 6.89002 9.553 7.14845 9.96191C7.40687 10.3708 7.79132 10.6846 8.24374 10.8558L10.3616 11.7098C10.4575 11.75 10.5395 11.8177 10.5972 11.9042C10.6549 11.9908 10.6858 12.0925 10.6861 12.1965C10.6861 12.3347 10.6312 12.4672 10.5335 12.5649C10.4359 12.6626 10.3034 12.7175 10.1652 12.7175H8.08148C7.85499 12.7175 7.63778 12.8074 7.47763 12.9676C7.31747 13.1277 7.2275 13.3449 7.2275 13.5714C7.2275 13.7979 7.31747 14.0151 7.47763 14.1753C7.63778 14.3354 7.85499 14.4254 8.08148 14.4254H8.55117C8.59669 14.4224 8.64197 14.434 8.68039 14.4586C8.71881 14.4832 8.74835 14.5195 8.76467 14.5621V14.7755C8.76006 14.8905 8.77875 15.0053 8.8196 15.1129C8.86045 15.2204 8.92262 15.3187 9.00239 15.4016C9.08215 15.4846 9.17786 15.5505 9.28376 15.5956C9.38966 15.6406 9.50357 15.6638 9.61865 15.6637Z" fill="#2935CC"/>
<path d="M16.0659 12.4954C16.1863 12.6135 16.339 12.6932 16.5046 12.7246C16.6703 12.756 16.8415 12.7377 16.9968 12.6719C17.152 12.6062 17.2843 12.4959 17.377 12.3551C17.4697 12.2143 17.5187 12.0492 17.5177 11.8806V3.70796C17.5177 3.25498 17.3377 2.82056 17.0174 2.50025C16.6971 2.17995 16.2627 2 15.8097 2H4.70796C4.25498 2 3.82056 2.17995 3.50025 2.50025C3.17995 2.82056 3 3.25498 3 3.70796V18.6526C3 19.1056 3.17995 19.54 3.50025 19.8603C3.82056 20.1806 4.25498 20.3606 4.70796 20.3606H13.6748C13.9013 20.3606 14.1185 20.2706 14.2786 20.1105C14.4388 19.9503 14.5287 19.7331 14.5287 19.5066C14.5287 19.2801 14.4388 19.0629 14.2786 18.9028C14.1185 18.7426 13.9013 18.6526 13.6748 18.6526H5.56194C5.33545 18.6526 5.11824 18.5627 4.95809 18.4025C4.79793 18.2424 4.70796 18.0251 4.70796 17.7986V4.56194C4.70796 4.33545 4.79793 4.11824 4.95809 3.95809C5.11824 3.79793 5.33545 3.70796 5.56194 3.70796H14.9557C15.1822 3.70796 15.3994 3.79793 15.5596 3.95809C15.7197 4.11824 15.8097 4.33545 15.8097 4.56194V11.8806C15.809 11.995 15.8314 12.1084 15.8754 12.214C15.9194 12.3196 15.9842 12.4153 16.0659 12.4954Z" fill="#2935CC"/>
<path d="M13.6323 15.1085L16.7579 18.6439C16.7919 18.6812 16.8102 18.7301 16.8091 18.7806V20.9668C16.8319 21.2866 16.9221 21.598 17.0739 21.8805C17.0919 21.9152 17.1187 21.9446 17.1517 21.9656C17.1847 21.9865 17.2227 21.9985 17.2617 22.0001H22.3429C22.3824 22.0004 22.4212 21.9893 22.4545 21.968C22.4879 21.9468 22.5143 21.9164 22.5308 21.8805C22.5495 21.8481 22.5594 21.8112 22.5594 21.7738C22.5594 21.7363 22.5495 21.6995 22.5308 21.667L21.3182 19.8651C21.3057 19.8262 21.3057 19.7845 21.3182 19.7456V14.7669C21.3182 13.6311 20.3105 12.5209 19.2088 11.59C19.1761 11.5677 19.1374 11.5557 19.0978 11.5557C19.0582 11.5557 19.0195 11.5677 18.9868 11.59C18.9486 11.6067 18.9161 11.6342 18.8934 11.6691C18.8706 11.704 18.8585 11.7448 18.8587 11.7865V15.1597C18.8597 15.2084 18.8745 15.2558 18.9014 15.2963C19.0026 15.4181 19.0543 15.5735 19.0464 15.7316C19.0385 15.8898 18.9715 16.0392 18.8587 16.1503C18.7999 16.2106 18.7294 16.2583 18.6516 16.2906C18.5738 16.3229 18.4903 16.3391 18.4061 16.3382C18.2378 16.3385 18.0758 16.2743 17.9535 16.1588L15.0499 13.2895C14.8307 13.1504 14.5704 13.0907 14.3125 13.1202C14.0545 13.1497 13.8145 13.2667 13.6323 13.4517C13.4277 13.6791 13.3145 13.9742 13.3145 14.2801C13.3145 14.586 13.4277 14.8811 13.6323 15.1085Z" fill="#2935CC"/>
</svg>
